<svg width="43" height="41" viewBox="0 0 43 41" fill="none" xmlns="http://www.w3.org/2000/svg">
<g clip-path="url(#clip0_163_5633)">
<path d="M11.1471 30.2073H4.77979V36.553H11.1471V30.2073Z" fill="#DEBBFF"/>
<path d="M20.1492 30.2073H13.7764V36.553H20.1492V30.2073Z" fill="#DEBBFF"/>
<path d="M29.1458 30.2073H22.7729V36.553H29.1458V30.2073Z" fill="#DEBBFF"/>
<path d="M38.1424 30.2073H31.7695V36.553H38.1424V30.2073Z" fill="#DEBBFF"/>
<path d="M11.1471 21.7963H4.77979V28.142H11.1471V21.7963Z" fill="#DEBBFF"/>
<path d="M20.1492 21.7963H13.7764V28.142H20.1492V21.7963Z" fill="#DEBBFF"/>
<path d="M38.1424 21.7963H31.7695V28.142H38.1424V21.7963Z" fill="#DEBBFF"/>
<path d="M20.1492 13.3798H13.7764V19.7311H20.1492V13.3798Z" fill="#9600FA"/>
<path d="M11.4256 13.3798H5.05273V19.7311H11.4256V13.3798Z" fill="#9600FA"/>
<path d="M29.1458 13.3798H22.7729V19.7311H29.1458V13.3798Z" fill="#9600FA"/>
<path d="M29.1458 21.863H22.7729V28.2142H29.1458V21.863Z" fill="#DEBBFF"/>
<path d="M38.1424 13.3798H31.7695V19.7311H38.1424V13.3798Z" fill="#9600FA"/>
<path d="M13.5756 5.61289C13.5756 6.00161 13.4207 6.37441 13.1449 6.64928C12.8691 6.92414 12.495 7.07854 12.1049 7.07854C11.7149 7.07854 11.3408 6.92414 11.065 6.64928C10.7892 6.37441 10.6343 6.00161 10.6343 5.61289V1.46568C10.6343 1.07696 10.7892 0.704162 11.065 0.429295C11.3408 0.154428 11.7149 0 12.1049 0C12.495 0 12.8691 0.154428 13.1449 0.429295C13.4207 0.704162 13.5756 1.07696 13.5756 1.46568V5.61289Z" fill="#9600FA"/>
<path d="M41.0893 3.85294H33.5633V5.95709C33.5798 6.31616 33.523 6.67482 33.3965 7.01143C33.27 7.34804 33.0763 7.65562 32.8272 7.91553C32.578 8.17544 32.2786 8.3823 31.947 8.52364C31.6153 8.66498 31.2584 8.73786 30.8977 8.73786C30.537 8.73786 30.1801 8.66498 29.8485 8.52364C29.5169 8.3823 29.2174 8.17544 28.9683 7.91553C28.7192 7.65562 28.5255 7.34804 28.399 7.01143C28.2724 6.67482 28.2157 6.31616 28.2322 5.95709V3.85294H14.7734V5.95709C14.7899 6.31616 14.7332 6.67482 14.6066 7.01143C14.4801 7.34804 14.2864 7.65562 14.0373 7.91553C13.7881 8.17544 13.4887 8.3823 13.1571 8.52364C12.8255 8.66498 12.4685 8.73786 12.1079 8.73786C11.7472 8.73786 11.3903 8.66498 11.0586 8.52364C10.727 8.3823 10.4276 8.17544 10.1784 7.91553C9.9293 7.65562 9.73561 7.34804 9.60908 7.01143C9.48256 6.67482 9.42582 6.31616 9.44229 5.95709V3.85294H1.91631C1.40807 3.85294 0.920661 4.05416 0.561283 4.41232C0.201905 4.77048 0 5.25624 0 5.76275V39.0735C-1.06838e-06 39.3241 0.0496101 39.5721 0.145982 39.8035C0.242354 40.0349 0.383604 40.2451 0.561623 40.422C0.739642 40.5989 0.950928 40.7391 1.18339 40.8344C1.41586 40.9298 1.66492 40.9785 1.91631 40.9778H41.0893C41.3404 40.9785 41.5892 40.9298 41.8213 40.8343C42.0535 40.7389 42.2644 40.5987 42.442 40.4217C42.6196 40.2447 42.7603 40.0345 42.8561 39.8031C42.9518 39.5717 43.0007 39.3238 43 39.0735V5.76275C43.0007 5.51222 42.9519 5.264 42.8562 5.03232C42.7605 4.80064 42.6198 4.59007 42.4423 4.41266C42.2648 4.23524 42.0539 4.09449 41.8218 3.99844C41.5896 3.90239 41.3407 3.85293 41.0893 3.85294ZM39.9751 38.4573H3.02489V11.0425H39.9751V38.4573Z" fill="#9600FA"/>
<path d="M32.3654 5.61289C32.3654 6.00161 32.2105 6.37441 31.9347 6.64928C31.6589 6.92414 31.2848 7.07854 30.8948 7.07854C30.5057 7.07707 30.1331 6.92202 29.8585 6.64731C29.5839 6.3726 29.4297 6.00065 29.4297 5.61289V1.46568C29.4297 1.07792 29.5839 0.705968 29.8585 0.43126C30.1331 0.156552 30.5057 0.00146879 30.8948 0C31.2848 0 31.6589 0.154428 31.9347 0.429295C32.2105 0.704162 32.3654 1.07696 32.3654 1.46568V5.61289Z" fill="#9600FA"/>
</g>
<defs>
<clipPath id="clip0_163_5633">
<rect width="43" height="41" fill="white"/>
</clipPath>
</defs>
</svg>
