<svg width="50" height="50" viewBox="0 0 50 50" fill="none" xmlns="http://www.w3.org/2000/svg">
<circle cx="25" cy="25" r="25" fill="#FFD443"/>
<path d="M32.185 14.3823C32.408 14.1466 32.676 13.958 32.9731 13.8276C33.2702 13.6972 33.5905 13.6277 33.915 13.6231C34.2394 13.6186 34.5615 13.6792 34.8621 13.8013C35.1627 13.9234 35.4359 14.1045 35.6653 14.3339C35.8947 14.5634 36.0759 14.8365 36.198 15.1371C36.32 15.4378 36.3806 15.7598 36.3761 16.0843C36.3716 16.4087 36.3021 16.729 36.1717 17.0261C36.0413 17.3233 35.8526 17.5912 35.6169 17.8142L28.5039 24.9272C28.4945 24.9366 28.4871 24.9477 28.482 24.96C28.4769 24.9723 28.4742 24.9855 28.4742 24.9988C28.4742 25.0121 28.4769 25.0253 28.482 25.0376C28.4871 25.0498 28.4945 25.061 28.5039 25.0704L35.6169 32.1834C35.8454 32.4081 36.0271 32.6758 36.1516 32.9711C36.276 33.2664 36.3408 33.5834 36.3422 33.9039C36.3435 34.2244 36.2814 34.5419 36.1594 34.8383C36.0374 35.1346 35.8579 35.4038 35.6313 35.6305C35.4048 35.8571 35.1356 36.0366 34.8393 36.1587C34.543 36.2808 34.2254 36.343 33.905 36.3417C33.5845 36.3404 33.2675 36.2757 32.9721 36.1513C32.6768 36.0269 32.409 35.8453 32.1842 35.6168L25.0713 28.5039C25.0619 28.4945 25.0507 28.487 25.0384 28.4819C25.0261 28.4768 25.013 28.4742 24.9997 28.4742C24.9864 28.4742 24.9732 28.4768 24.9609 28.4819C24.9486 28.487 24.9374 28.4945 24.928 28.5039L17.8151 35.6168C17.5904 35.8453 17.3226 36.027 17.0273 36.1515C16.732 36.276 16.415 36.3408 16.0945 36.3421C15.7741 36.3434 15.4565 36.2813 15.1602 36.1593C14.8639 36.0373 14.5946 35.8579 14.368 35.6313C14.1413 35.4047 13.9618 35.1355 13.8398 34.8392C13.7177 34.5429 13.6555 34.2253 13.6568 33.9049C13.658 33.5844 13.7227 33.2674 13.8471 32.9721C13.9715 32.6767 14.1532 32.4089 14.3816 32.1842L21.4946 25.0712C21.504 25.0618 21.5115 25.0507 21.5166 25.0384C21.5217 25.0261 21.5243 25.0129 21.5243 24.9996C21.5243 24.9863 21.5217 24.9731 21.5166 24.9608C21.5115 24.9485 21.504 24.9374 21.4946 24.928L14.3816 17.815C13.9324 17.3585 13.6818 16.7431 13.6843 16.1027C13.6868 15.4622 13.9423 14.8488 14.3951 14.3959C14.8479 13.943 15.4613 13.6873 16.1018 13.6846C16.7422 13.682 17.3577 13.9324 17.8143 14.3815L24.9272 21.4945C24.9366 21.5039 24.9478 21.5114 24.9601 21.5165C24.9724 21.5216 24.9855 21.5242 24.9989 21.5242C25.0122 21.5242 25.0253 21.5216 25.0376 21.5165C25.0499 21.5114 25.0611 21.5039 25.0705 21.4945L32.185 14.3823Z" fill="#7C32BB"/>
</svg>
