<svg width="63" height="63" viewBox="0 0 63 63" fill="none" xmlns="http://www.w3.org/2000/svg">
<g clip-path="url(#clip0_359_2666)">
<path d="M31.4975 62.9999C37.7282 62.9999 43.819 61.1523 48.9996 57.6908C54.1802 54.2292 58.218 49.3091 60.6024 43.5527C62.9868 37.7963 63.6107 31.4621 62.3951 25.3511C61.1796 19.2402 58.1792 13.6269 53.7735 9.22115C49.3677 4.81539 43.7544 1.81502 37.6434 0.599477C31.5325 -0.616069 25.1983 0.00778255 19.4419 2.39216C13.6855 4.77654 8.76541 8.81436 5.30383 13.995C1.84224 19.1756 -0.00537056 25.2663 -0.00537056 31.497C-0.00613311 35.6343 0.808196 39.7312 2.3911 43.5536C3.97399 47.3761 6.29445 50.8492 9.21992 53.7747C12.1454 56.7002 15.6185 59.0206 19.441 60.6035C23.2634 62.1864 27.3603 63.0007 31.4975 62.9999Z" fill="#D8D8D8"/>
<path d="M48.7498 9.86825C44.6786 6.61539 39.7714 4.57849 34.5934 3.99212C29.4153 3.40576 24.177 4.29374 19.4815 6.55385C14.7859 8.81396 10.8242 12.3542 8.05248 16.7671C5.28074 21.18 3.81168 26.2859 3.81446 31.497C3.82299 32.6444 3.90248 33.7902 4.05246 34.9277C8.94448 38.8501 15.0284 40.9859 21.2987 40.9822H21.3799C22.6918 37.2729 26.9526 34.5388 32.0086 34.5388C33.9011 34.5275 35.774 34.9235 37.5 35.6998C39.7 34.1171 41.6558 32.2199 43.3048 30.0691C42.022 30.0691 40.9829 28.554 40.9829 26.708C40.9829 24.8621 42.0336 23.3471 43.3048 23.3471C44.5761 23.3471 45.5571 24.746 45.6268 26.5049C48.4224 21.4326 49.5171 15.5973 48.7498 9.85663V9.86825Z" fill="#E5953C"/>
<path d="M45.6268 26.5165C45.6268 26.5862 45.6268 26.65 45.6268 26.7197C45.6268 28.5772 44.5761 30.0807 43.3048 30.0807C41.6558 32.2315 39.7 34.1286 37.5 35.7114C40.8204 37.2438 43.061 40.0999 43.061 43.3796C43.061 43.6059 42.9711 43.823 42.8111 43.983C42.6511 44.143 42.434 44.2329 42.2077 44.2329C41.9814 44.2329 41.7644 44.143 41.6043 43.983C41.4443 43.823 41.3544 43.6059 41.3544 43.3796C41.3544 40.4772 39.0325 37.9695 35.7818 36.855C31.9973 39.1905 27.7027 40.5729 23.2665 40.8835C22.8831 41.6596 22.6845 42.514 22.686 43.3796C22.686 43.6059 22.5961 43.823 22.4361 43.983C22.2761 44.143 22.059 44.2329 21.8327 44.2329C21.6064 44.2329 21.3894 44.143 21.2293 43.983C21.0693 43.823 20.9794 43.6059 20.9794 43.3796C20.9814 42.5601 21.1247 41.7471 21.4032 40.9764H21.3219C15.0516 40.9801 8.9677 38.8443 4.07568 34.9219C4.68159 39.7817 6.57549 44.3911 9.56127 48.2731C9.65995 48.4066 9.74703 48.5343 9.85151 48.662C10.2288 49.138 10.6294 49.5966 11.0125 50.0436C11.1808 50.2293 11.3492 50.4209 11.5233 50.6241C11.9006 51.0188 12.3012 51.3961 12.6843 51.785C12.9107 51.994 13.1371 52.2088 13.3751 52.4119C13.7582 52.7428 14.1529 53.0621 14.536 53.3755C14.8205 53.5961 15.1165 53.8109 15.3951 54.0141C15.7783 54.2927 16.173 54.5597 16.5561 54.8151C16.9392 55.0706 17.2295 55.2331 17.572 55.4305C17.9144 55.6279 18.344 55.8775 18.7329 56.0806C19.1218 56.2838 19.4992 56.4579 19.8939 56.6611C20.2886 56.8643 20.6659 57.021 21.0549 57.1778C21.4438 57.3345 21.9198 57.5028 22.361 57.6595C22.8021 57.8163 23.1098 57.9266 23.5219 58.0427C24.0037 58.1878 24.4971 58.298 24.9964 58.4199C25.3563 58.507 25.7104 58.6057 26.0761 58.6754C26.6565 58.7857 27.237 58.8611 27.8175 58.9366C28.1252 58.9772 28.427 59.041 28.7405 59.0701C29.6286 59.1571 30.5284 59.2036 31.4397 59.2036C38.7823 59.2021 45.8237 56.2841 51.0151 51.0916C56.2066 45.899 59.123 38.8571 59.123 31.5145C59.123 30.6437 59.0708 29.7731 58.9895 28.9372C58.9895 28.8036 58.9895 28.6759 58.9547 28.5424C58.8734 27.7471 58.7515 26.9635 58.6006 26.1857C58.5658 26.0173 58.531 25.849 58.4903 25.6748C58.3336 24.926 58.142 24.183 57.9098 23.4573C57.8576 23.289 57.7995 23.1207 57.7473 22.9523C57.5325 22.3022 57.3003 21.6579 57.0391 21.031C56.9636 20.8394 56.8882 20.6536 56.8069 20.4505C56.5515 19.87 56.2729 19.2895 55.9768 18.709L55.6169 18.024C55.3035 17.4435 54.9668 16.9153 54.6185 16.3813C54.4443 16.1142 54.2644 15.853 54.0786 15.5918C53.7478 15.1158 53.3995 14.6514 53.0396 14.1986C52.8074 13.9084 52.5578 13.6182 52.314 13.3453C52.0702 13.0725 51.8031 12.7648 51.5419 12.492C51.1588 12.0914 50.7699 11.6967 50.381 11.331C50.1197 11.0872 49.8585 10.8434 49.5857 10.6112C49.3129 10.379 49.0052 10.1004 48.6917 9.85663C49.459 15.5973 48.3644 21.4326 45.5687 26.5049L45.6268 26.5165Z" fill="#E08430"/>
<path d="M23.2661 40.8835C27.7023 40.5729 31.9969 39.1905 35.7814 36.855C34.5634 36.4583 33.2891 36.2622 32.0082 36.2745C28.0145 36.2454 24.5954 38.1784 23.2661 40.8835Z" fill="#E5953C"/>
<path d="M21.8093 44.233C22.0356 44.233 22.2527 44.1431 22.4127 43.9831C22.5727 43.823 22.6626 43.606 22.6626 43.3797C22.6611 42.514 22.8598 41.6597 23.2431 40.8836C24.5724 38.1785 27.9857 36.2397 31.9852 36.2397C33.2661 36.2274 34.5404 36.4235 35.7584 36.8202C39.0381 37.9347 41.331 40.4366 41.331 43.3448C41.331 43.5711 41.4209 43.7882 41.581 43.9482C41.741 44.1082 41.958 44.1981 42.1843 44.1981C42.4107 44.1981 42.6277 44.1082 42.7877 43.9482C42.9477 43.7882 43.0377 43.5711 43.0377 43.3448C43.0377 40.0651 40.797 37.2091 37.4766 35.6766C35.7506 34.9003 33.8778 34.5044 31.9852 34.5157C26.9292 34.5157 22.6975 37.2497 21.3566 40.959C21.0781 41.7298 20.9348 42.5428 20.9328 43.3623C20.9304 43.4778 20.9515 43.5925 20.9948 43.6996C21.038 43.8067 21.1026 43.904 21.1845 43.9854C21.2665 44.0668 21.3641 44.1307 21.4715 44.1733C21.5789 44.2158 21.6939 44.2362 21.8093 44.233Z" fill="black"/>
<path d="M22.0532 30.0865C23.3484 30.0865 24.3983 28.5817 24.3983 26.7255C24.3983 24.8693 23.3484 23.3645 22.0532 23.3645C20.758 23.3645 19.708 24.8693 19.708 26.7255C19.708 28.5817 20.758 30.0865 22.0532 30.0865Z" fill="black"/>
<path d="M45.6439 26.7197C45.6439 26.65 45.6439 26.5862 45.6439 26.5165C45.5684 24.7751 44.5642 23.3587 43.3219 23.3587C42.0797 23.3587 41 24.8621 41 26.7197C41 28.5772 42.0449 30.0633 43.3219 30.0807C44.5932 30.0807 45.6439 28.5772 45.6439 26.7197Z" fill="black"/>
</g>
<defs>
<clipPath id="clip0_359_2666">
<rect width="63" height="63" fill="white" transform="translate(0.000488281)"/>
</clipPath>
</defs>
</svg>
