<svg width="63" height="62" viewBox="0 0 63 62" fill="none" xmlns="http://www.w3.org/2000/svg">
<g clip-path="url(#clip0_359_2650)">
<path d="M31.4975 61.9999C37.7282 61.9999 43.819 60.1816 48.9996 56.775C54.1802 53.3684 58.218 48.5263 60.6024 42.8613C62.9868 37.1963 63.6107 30.9627 62.3951 24.9487C61.1796 18.9347 58.1792 13.4106 53.7735 9.07475C49.3677 4.73892 43.7544 1.78618 37.6434 0.589929C31.5325 -0.606323 25.1983 0.00762705 19.4419 2.35416C13.6855 4.70069 8.76541 8.67441 5.30383 13.7728C1.84224 18.8712 -0.00537056 24.8653 -0.00537056 30.9971C-0.00613311 35.0686 0.808196 39.1004 2.3911 42.8622C3.97399 46.624 6.29445 50.042 9.21992 52.921C12.1454 55.8001 15.6185 58.0837 19.441 59.6415C23.2634 61.1992 27.3603 62.0007 31.4975 61.9999Z" fill="#D8D8D8"/>
<path d="M21.4438 40.326C20.7986 39.2342 20.4544 37.9956 20.4453 36.7327C20.4453 36.51 20.5352 36.2963 20.6953 36.1388C20.8553 35.9814 21.0723 35.8929 21.2987 35.8929C21.525 35.8929 21.742 35.9814 21.902 36.1388C22.0621 36.2963 22.152 36.51 22.152 36.7327C22.1694 38.0018 22.61 39.2301 23.4058 40.2289C27.92 39.8914 32.2809 38.4684 36.1057 36.0848C39.9305 33.7012 43.1022 30.43 45.3423 26.5583C44.9367 25.9782 44.3929 25.5047 43.7585 25.1791C43.124 24.8534 42.4182 24.6856 41.7027 24.6903C40.573 24.6673 39.4802 25.0863 38.6641 25.8552C37.8479 26.6242 37.375 27.6804 37.3491 28.792C37.3491 29.0148 37.2592 29.2283 37.0991 29.3858C36.9391 29.5433 36.7221 29.6318 36.4957 29.6318C36.2694 29.6318 36.0524 29.5433 35.8924 29.3858C35.7323 29.2283 35.6424 29.0148 35.6424 28.792C35.6684 27.2344 36.321 25.7505 37.457 24.6657C38.5931 23.5808 40.1199 22.9837 41.7027 23.0051C42.5474 23.0051 43.3829 23.1777 44.1563 23.512C44.9298 23.8464 45.6242 24.3352 46.1956 24.9474C48.03 21.2523 48.9849 17.1946 48.9878 13.0821C48.979 11.9548 48.8996 10.8292 48.7498 9.71158C44.6786 6.51036 39.7714 4.50578 34.5934 3.92872C29.4153 3.35167 24.177 4.22556 19.4815 6.44979C14.7859 8.67402 10.8242 12.1582 8.05248 16.501C5.28074 20.8438 3.81168 25.8687 3.81446 30.9971C3.82299 32.1263 3.90248 33.2539 4.05246 34.3734C8.94448 38.2334 15.0284 40.3353 21.2987 40.3317L21.4438 40.326Z" fill="#A5C24B"/>
<path d="M4.05225 34.3791C4.66035 39.1611 6.55401 43.6969 9.53782 47.5183C9.63651 47.644 9.72358 47.7753 9.82807 47.8953C10.2054 48.3637 10.6059 48.815 10.989 49.2549C11.1574 49.4434 11.3257 49.6262 11.4999 49.8262C11.8772 50.2147 12.2777 50.586 12.6608 50.9687C12.8872 51.1744 13.1136 51.3858 13.3516 51.5858C13.7347 51.9171 14.1295 52.2255 14.5126 52.534C14.797 52.7511 15.0931 52.9625 15.3717 53.1681C15.7548 53.4366 16.1495 53.6995 16.5327 53.9508C16.9158 54.2022 17.206 54.3621 17.5485 54.5563C17.891 54.7506 18.3206 54.9962 18.7095 55.1962C19.0984 55.3961 19.4757 55.5732 19.8705 55.7674C20.2652 55.9617 20.6425 56.1159 21.0314 56.2701C21.4203 56.4244 21.8963 56.59 22.3375 56.7443C22.7787 56.8985 23.0863 57.0071 23.4985 57.1213C23.9803 57.2641 24.4737 57.3784 24.9729 57.4927C25.3328 57.5784 25.6869 57.6754 26.0526 57.744C26.6331 57.8525 27.2136 57.9268 27.7941 58.0068C28.1017 58.0468 28.4036 58.1039 28.717 58.1325C29.6052 58.2182 30.5049 58.2639 31.4163 58.2639C38.7589 58.2624 45.8002 55.3908 50.9917 50.2807C56.1832 45.1705 59.0996 38.2403 59.0996 31.0143C59.0996 30.1574 59.0474 29.3004 58.9661 28.4778C58.9661 28.3521 58.9661 28.2208 58.9313 28.0894C58.85 27.3067 58.7281 26.5355 58.5772 25.77C58.5423 25.6043 58.5075 25.4387 58.4669 25.2673C58.3101 24.5303 58.1186 23.7991 57.8864 23.0851C57.8341 22.9194 57.7761 22.7537 57.7239 22.588C57.5091 21.9482 57.2769 21.3141 57.0157 20.6971C56.9402 20.5143 56.8647 20.3258 56.7835 20.1258C56.5281 19.5546 56.2494 18.9833 55.9534 18.4406C55.8315 18.2121 55.7154 17.9836 55.5935 17.7608C55.28 17.1895 54.9433 16.6697 54.595 16.1441C54.4209 15.8813 54.2409 15.6243 54.0552 15.3672C53.7243 14.8987 53.376 14.4417 53.0161 13.9961C52.7839 13.7105 52.5343 13.4249 52.2905 13.1564C52.0467 12.8879 51.7797 12.5851 51.5185 12.3166C51.1353 11.9224 50.7464 11.5397 50.3575 11.1741C50.0963 10.9341 49.8351 10.6941 49.5622 10.4656C49.2894 10.2371 48.9817 9.96296 48.6683 9.72302C48.8181 10.8406 48.8976 11.9663 48.9063 13.0935C48.9034 17.206 47.9485 21.2638 46.1142 24.9588C47.1129 25.9986 47.6731 27.3728 47.6815 28.8035C47.6638 29.015 47.5659 29.2122 47.4073 29.3559C47.2486 29.4997 47.0409 29.5795 46.8253 29.5795C46.6096 29.5795 46.4019 29.4997 46.2432 29.3559C46.0846 29.2122 45.9867 29.015 45.969 28.8035C45.9678 28.0056 45.7209 27.2268 45.2608 26.5698C43.0207 30.4414 39.849 33.7126 36.0242 36.0962C32.1994 38.4797 27.8385 39.9028 23.3243 40.2403C24.9381 42.3426 27.9682 43.765 31.4163 43.765C36.571 43.765 40.7679 40.6173 40.7679 36.7441C40.7679 36.5214 40.8578 36.3078 41.0178 36.1503C41.1778 35.9928 41.3949 35.9043 41.6212 35.9043C41.8475 35.9043 42.0646 35.9928 42.2246 36.1503C42.3846 36.3078 42.4745 36.5214 42.4745 36.7441C42.4745 41.5428 37.5114 45.4503 31.4163 45.4503C26.9524 45.4503 23.1037 43.348 21.3623 40.3089H21.2172C14.9748 40.2944 8.92251 38.1934 4.05225 34.3505V34.3791Z" fill="#A0B647"/>
<path d="M21.2986 35.8929C21.0723 35.8929 20.8553 35.9814 20.6952 36.1389C20.5352 36.2964 20.4453 36.51 20.4453 36.7327C20.4544 37.9956 20.7986 39.2343 21.4437 40.326C23.1852 43.3366 27.0338 45.4674 31.4977 45.4674C37.5928 45.4674 42.556 41.5599 42.556 36.7613C42.556 36.5385 42.4661 36.3249 42.306 36.1675C42.146 36.01 41.929 35.9215 41.7026 35.9215C41.4763 35.9215 41.2593 36.01 41.0993 36.1675C40.9392 36.3249 40.8493 36.5385 40.8493 36.7613C40.8493 40.6345 36.6524 43.7822 31.4977 43.7822C28.0148 43.7822 25.0195 42.3597 23.4058 40.2574C22.6099 39.2587 22.1694 38.0304 22.1519 36.7613C22.1558 36.6486 22.1366 36.5363 22.0955 36.4311C22.0544 36.3259 21.9921 36.2299 21.9125 36.1489C21.8329 36.0679 21.7375 36.0035 21.632 35.9595C21.5265 35.9155 21.4132 35.8928 21.2986 35.8929Z" fill="black"/>
<path d="M26.1166 28.7921C26.1166 29.0148 26.2065 29.2284 26.3665 29.3859C26.5265 29.5433 26.7436 29.6318 26.9699 29.6318C27.1962 29.6318 27.4132 29.5433 27.5733 29.3859C27.7333 29.2284 27.8232 29.0148 27.8232 28.7921C27.7745 27.243 27.1149 25.7734 25.9843 24.6946C24.8536 23.6158 23.3407 23.0125 21.7659 23.0125C20.191 23.0125 18.6781 23.6158 17.5474 24.6946C16.4168 25.7734 15.7572 27.243 15.7085 28.7921C15.7085 29.0148 15.7984 29.2284 15.9584 29.3859C16.1185 29.5433 16.3355 29.6318 16.5618 29.6318C16.7881 29.6318 17.0052 29.5433 17.1652 29.3859C17.3252 29.2284 17.4151 29.0148 17.4151 28.7921C17.4151 27.6557 17.8738 26.5659 18.6903 25.7624C19.5067 24.9589 20.6141 24.5075 21.7688 24.5075C22.9234 24.5075 24.0308 24.9589 24.8472 25.7624C25.6637 26.5659 26.1224 27.6557 26.1224 28.7921H26.1166Z" fill="black"/>
<path d="M41.7023 23.0051C40.1195 22.9837 38.5927 23.5809 37.4567 24.6657C36.3206 25.7505 35.6681 27.2344 35.6421 28.792C35.6421 29.0148 35.732 29.2284 35.892 29.3858C36.052 29.5433 36.2691 29.6318 36.4954 29.6318C36.7217 29.6318 36.9388 29.5433 37.0988 29.3858C37.2588 29.2284 37.3487 29.0148 37.3487 28.792C37.3746 27.6804 37.8475 26.6242 38.6637 25.8552C39.4799 25.0863 40.5727 24.6673 41.7023 24.6903C42.4179 24.6856 43.1237 24.8534 43.7581 25.1791C44.3926 25.5047 44.9364 25.9782 45.342 26.5584C45.802 27.2154 46.0489 27.9942 46.0502 28.792C46.0679 29.0035 46.1658 29.2007 46.3244 29.3445C46.483 29.4883 46.6908 29.5681 46.9064 29.5681C47.122 29.5681 47.3298 29.4883 47.4884 29.3445C47.647 29.2007 47.7449 29.0035 47.7626 28.792C47.7542 27.3613 47.194 25.9871 46.1953 24.9474C45.6238 24.3352 44.9294 23.8464 44.156 23.512C43.3826 23.1777 42.5471 23.0051 41.7023 23.0051Z" fill="black"/>
</g>
<defs>
<clipPath id="clip0_359_2650">
<rect width="63" height="62" fill="white" transform="translate(0.000488281)"/>
</clipPath>
</defs>
</svg>
