<svg width="63" height="63" viewBox="0 0 63 63" fill="none" xmlns="http://www.w3.org/2000/svg">
<g clip-path="url(#clip0_359_2658)">
<path d="M31.4975 63.0058C37.7285 63.0058 43.8195 61.158 49.0002 57.6962C54.181 54.2343 58.2188 49.314 60.603 43.5572C62.9872 37.8005 63.6107 31.466 62.3947 25.3549C61.1787 19.2437 58.1777 13.6305 53.7714 9.22493C49.3651 4.8194 43.7512 1.8195 37.6399 0.604607C31.5285 -0.610283 25.1942 0.0143612 19.4379 2.39963C13.6816 4.7849 8.76189 8.82361 5.301 14.005C1.84012 19.1864 -0.00651869 25.2778 -0.00537056 31.5087C-0.00537063 35.6454 0.80952 39.7417 2.39276 43.5634C3.976 47.3852 6.29658 50.8577 9.22197 53.7826C12.1474 56.7074 15.6203 59.0273 19.4423 60.6099C23.2644 62.1924 27.3608 63.0066 31.4975 63.0058Z" fill="#D8D8D8"/>
<path d="M4.05225 34.9336C4.66035 39.7927 6.55401 44.4017 9.53782 48.2847C9.63651 48.4124 9.72358 48.546 9.82807 48.6737C10.2054 49.1497 10.6059 49.6024 10.989 50.0552C11.1632 50.2409 11.3257 50.4325 11.4999 50.6356C11.8772 51.0362 12.2777 51.4135 12.6608 51.7966C12.8872 52.0114 13.1136 52.2204 13.3516 52.4294C13.7347 52.7603 14.1295 53.0795 14.5126 53.3872C14.797 53.6078 15.0931 53.8226 15.3717 54.0315C15.7548 54.3102 16.1495 54.5714 16.5327 54.8326C16.9158 55.0938 17.206 55.2447 17.5427 55.4479C17.8794 55.6511 18.3206 55.889 18.7037 56.098C19.0868 56.307 19.4699 56.4753 19.8647 56.6785C20.2594 56.8817 20.6367 57.0326 21.0256 57.1951C21.4145 57.3577 21.8905 57.5203 22.3317 57.6712C22.7729 57.8221 23.0805 57.9382 23.4927 58.0543C23.9745 58.1994 24.4679 58.3155 24.9613 58.4316C25.327 58.5187 25.6811 58.6173 26.0468 58.6928C26.6273 58.8031 27.2078 58.8786 27.7883 58.954C28.0959 58.9947 28.3978 59.0527 28.7112 59.0817C29.5994 59.1688 30.4991 59.221 31.4105 59.221C38.7526 59.221 45.7939 56.3044 50.9856 51.1128C56.1772 45.9212 59.0938 38.8798 59.0938 31.5378C59.0938 30.667 59.0416 29.7963 58.9603 28.9662C58.9603 28.8327 58.9603 28.6992 58.9255 28.5657C58.8442 27.7704 58.7223 26.9868 58.5714 26.2437C58.5365 26.0696 58.5017 25.9012 58.4611 25.7329C58.3044 24.9783 58.1128 24.241 57.8806 23.5154C57.8284 23.3413 57.7703 23.1729 57.7181 23.0046C57.5033 22.3602 57.2711 21.716 57.0157 21.089L56.7719 20.5085C56.5165 19.9281 56.2436 19.3476 55.9476 18.7671C55.8257 18.5349 55.7096 18.3027 55.5877 18.0763C55.2742 17.4958 54.9375 16.9734 54.5892 16.4335C54.4151 16.1723 54.2351 15.9053 54.0494 15.6499C53.7185 15.1739 53.3702 14.7037 53.0103 14.2567C52.7781 13.9607 52.5343 13.6762 52.2847 13.3976C52.0351 13.119 51.7739 12.8171 51.5127 12.5442C51.1296 12.1437 50.7406 11.7548 50.3517 11.3833C50.0905 11.1337 49.8293 10.8957 49.5622 10.6577C49.2952 10.4197 48.9818 10.1469 48.6625 9.90308C48.8125 11.0406 48.892 12.1864 48.9005 13.3338C48.9004 18.1496 47.6375 22.8811 45.2376 27.0564C45.2376 27.1492 45.2376 27.2364 45.2376 27.3292C45.2376 29.1868 44.187 30.6902 42.9157 30.6902H42.788C40.6269 33.3683 37.9874 35.6221 35.0037 37.3368H44.5411C44.772 37.3368 44.9935 37.4285 45.1568 37.5918C45.32 37.7551 45.4118 37.9766 45.4118 38.2075C45.4118 38.4384 45.32 38.6599 45.1568 38.8232C44.9935 38.9865 44.772 39.0782 44.5411 39.0782H31.5672C27.032 40.8984 22.0947 41.4813 17.2602 40.7673C12.4258 40.0534 7.86778 38.0682 4.05225 35.0148V34.9336Z" fill="#EEC347"/>
<path d="M31.5672 38.997H19.4119C19.1809 38.997 18.9595 38.9053 18.7962 38.742C18.6329 38.5787 18.5411 38.3572 18.5411 38.1263C18.5411 37.8953 18.6329 37.6739 18.7962 37.5106C18.9595 37.3473 19.1809 37.2556 19.4119 37.2556H35.0849C38.0687 35.5408 40.7081 33.2871 42.8692 30.609C41.6328 30.5045 40.6576 29.0591 40.6576 27.2654C40.6576 25.4717 41.7083 23.9044 42.9795 23.9044C44.2508 23.9044 45.2086 25.2685 45.3015 26.9926C47.7013 22.8173 48.9643 18.0857 48.9643 13.2699C48.9558 12.1225 48.8763 10.9768 48.7263 9.83927C44.6547 6.5861 39.7471 4.54915 34.5685 3.963C29.3899 3.37685 24.1511 4.26533 19.4554 6.52614C14.7597 8.78696 10.798 12.3281 8.02672 16.7418C5.25541 21.1555 3.78715 26.2623 3.79102 31.4739C3.79975 32.6213 3.87922 33.767 4.02902 34.9046C7.84455 37.9579 12.4026 39.9431 17.237 40.657C22.0714 41.371 27.0087 40.7881 31.544 38.968L31.5672 38.997Z" fill="#F9DF4C"/>
<path d="M21.7511 30.6554C23.0456 30.6554 24.0731 29.1519 24.0731 27.2944C24.0731 25.4368 23.0224 23.9333 21.7511 23.9333C20.4799 23.9333 19.4292 25.4368 19.4292 27.2944C19.4292 29.1519 20.4683 30.6554 21.7511 30.6554Z" fill="black"/>
<path d="M42.9967 23.9333C41.7081 23.9333 40.6748 25.4368 40.6748 27.2944C40.6748 29.1519 41.65 30.5335 42.8864 30.638H43.0142C44.3086 30.638 45.3361 29.1345 45.3361 27.2769C45.3361 27.1841 45.3361 27.097 45.3361 27.0041C45.2258 25.2743 44.2274 23.9333 42.9967 23.9333Z" fill="black"/>
<path d="M18.5527 38.1379C18.5527 38.3657 18.6433 38.5842 18.8044 38.7453C18.9655 38.9065 19.184 38.997 19.4119 38.997H44.6223C44.8532 38.997 45.0747 38.9052 45.238 38.7419C45.4013 38.5787 45.493 38.3572 45.493 38.1262C45.493 37.8953 45.4013 37.6738 45.238 37.5105C45.0747 37.3472 44.8532 37.2555 44.6223 37.2555H19.4119C19.2968 37.2547 19.1828 37.2771 19.0767 37.3214C18.9705 37.3658 18.8744 37.4311 18.7942 37.5135C18.7139 37.5959 18.6512 37.6937 18.6097 37.801C18.5682 37.9083 18.5488 38.0229 18.5527 38.1379Z" fill="black"/>
</g>
<defs>
<clipPath id="clip0_359_2658">
<rect width="63" height="63" fill="white" transform="translate(0.000488281)"/>
</clipPath>
</defs>
</svg>
