<svg width="37" height="37" viewBox="0 0 37 37" fill="none" xmlns="http://www.w3.org/2000/svg">
<path d="M16.8038 0.0144222L16.0994 2.34853C15.4293 2.44816 14.7666 2.59255 14.1157 2.78075L12.6064 0.907718L9.44403 2.34853L9.76027 4.76908C9.18298 5.1299 8.63071 5.52946 8.10721 5.96498L5.97981 4.86995L3.66548 7.44896L4.95918 9.46613C4.58309 10.0304 4.24225 10.6174 3.9386 11.2239H1.50931L0.445607 14.509L2.45803 15.8201C2.34208 16.4918 2.27006 17.1705 2.24242 17.8517L0 18.7881L0.359363 22.2461L2.71676 22.6063C2.88641 23.2674 3.09766 23.917 3.34924 24.5514L1.68179 26.3236L3.42114 29.3349L5.73542 28.7009C5.90791 28.9314 6.09479 29.1476 6.28166 29.3637L6.56912 29.6662L7.08663 30.1994L6.28166 32.5047L9.08466 34.5362L10.939 33.0233C11.5415 33.3457 12.166 33.6249 12.8077 33.859L13.0089 36.2796L16.3869 37L17.465 34.8676H18.5287C18.8593 34.8676 19.19 34.8676 19.5062 34.8676L20.6706 37L24.0629 36.2796L24.1779 33.8879C24.8169 33.6526 25.441 33.3783 26.0466 33.0666L27.9728 34.5074L30.7759 32.4758L29.9134 30.2282C30.4021 29.7554 30.8583 29.2499 31.2789 28.7153L33.6508 29.2773L35.3757 26.2659L33.6795 24.5802C33.938 23.947 34.1541 23.2972 34.3264 22.6352L36.6406 22.1452L37 18.6873L34.772 17.8372C34.7443 17.1561 34.6723 16.4774 34.5563 15.8056L36.5544 14.3648L35.4907 11.0798L33.1045 11.1951C32.7978 10.5857 32.457 9.99393 32.0839 9.42287L33.3489 7.3481L31.0921 4.85552L28.9503 5.95055C28.4317 5.51512 27.8843 5.11555 27.3116 4.75466L27.6134 2.33411L24.451 0.893295L23.0136 2.76633C22.3575 2.57959 21.6901 2.43523 21.0155 2.33411L20.3112 0L16.8038 0.0144222Z" fill="#FFDC00"/>
<path d="M20.4805 14.3203V27H16.5195V14.3203H20.4805ZM16.2852 11.0508C16.2852 10.4883 16.4883 10.0273 16.8945 9.66797C17.3008 9.30859 17.8281 9.12891 18.4766 9.12891C19.125 9.12891 19.6523 9.30859 20.0586 9.66797C20.4648 10.0273 20.668 10.4883 20.668 11.0508C20.668 11.6133 20.4648 12.0742 20.0586 12.4336C19.6523 12.793 19.125 12.9727 18.4766 12.9727C17.8281 12.9727 17.3008 12.793 16.8945 12.4336C16.4883 12.0742 16.2852 11.6133 16.2852 11.0508Z" fill="#9600FA"/>
</svg>
