<svg width="29" height="29" viewBox="0 0 29 29" fill="none" xmlns="http://www.w3.org/2000/svg">
<g clip-path="url(#clip0_327_56)">
<path d="M26.1233 13.8234C25.3105 14.0658 24.4586 14.1464 23.6153 14.0606H23.5885C23.472 14.0585 23.3561 14.0795 23.2476 14.1225C23.1391 14.1656 23.0401 14.2297 22.9561 14.3113C22.8722 14.3929 22.8051 14.4904 22.7585 14.5981C22.7119 14.7059 22.6869 14.8219 22.6848 14.9394C22.6827 15.0569 22.7036 15.1737 22.7462 15.2831C22.7889 15.3925 22.8525 15.4924 22.9335 15.577C23.0144 15.6616 23.1111 15.7293 23.218 15.7762C23.3249 15.8232 23.4399 15.8484 23.5564 15.8505C24.3288 15.8214 25.0993 15.946 25.8238 16.2172C26.2784 16.4328 26.7383 16.918 26.6848 17.3925C26.6313 17.8669 26.15 18.2012 25.6848 18.3413C25.2698 18.451 24.8404 18.4946 24.4121 18.4707C24.0882 18.4215 23.7609 18.3998 23.4335 18.406C23.198 18.3975 22.9689 18.4835 22.7964 18.6453C22.6239 18.8071 22.5222 19.0313 22.5137 19.2687C22.5052 19.506 22.5905 19.7371 22.751 19.911C22.9114 20.0849 23.1338 20.1874 23.3693 20.196C23.6474 20.196 23.9308 20.2445 24.2249 20.2553C24.5744 20.312 24.9059 20.4505 25.1928 20.6596C25.3746 20.787 25.5158 20.9649 25.5993 21.1716C25.6828 21.3783 25.7051 21.605 25.6634 21.8242C25.5756 22.0131 25.4461 22.1794 25.2849 22.3102C25.1236 22.441 24.9348 22.5329 24.7329 22.5789C24.1354 22.7172 23.5208 22.7644 22.9094 22.7191C22.6809 22.7148 22.4596 22.7996 22.2915 22.9557C22.1234 23.1118 22.0215 23.3273 22.0071 23.5573C21.9926 23.7872 22.0667 24.0139 22.2138 24.1902C22.361 24.3665 22.5699 24.4787 22.7971 24.5036C23.7008 24.6007 24.7757 24.9188 24.8506 25.5226C24.8933 25.8515 24.5618 26.272 24.1126 26.4661C23.4564 26.6746 22.7657 26.7497 22.0805 26.6871C18.4762 26.6009 14.9682 26.4337 11.626 25.3986C11.5975 25.3961 11.5689 25.3961 11.5404 25.3986V25.3447C11.5939 23.4523 11.5992 21.5276 11.5404 19.6299C11.5404 19.2687 11.5404 18.8266 11.5404 18.3683C11.6413 17.1287 11.562 15.8809 11.3051 14.6644C11.3598 14.6209 11.4084 14.5702 11.4495 14.5135C12.0163 13.7587 12.642 13.0363 13.2409 12.357C15.4976 9.73678 17.8238 7.03032 17.8185 2.21047C17.8571 2.10021 17.9257 2.00307 18.0163 1.93011C18.1136 1.87437 18.2208 1.83855 18.3319 1.82468C18.4429 1.8108 18.5556 1.81912 18.6634 1.84923C20.0057 2.06488 20.8987 3.42891 21.1607 4.59883C21.4869 6.05449 21.1607 7.64493 20.8345 9.14372C20.8076 9.26471 20.8061 9.39005 20.83 9.51168C20.8539 9.6333 20.9028 9.74853 20.9736 9.84998C21.0455 9.95263 21.1378 10.0391 21.2446 10.1041C21.3513 10.169 21.4703 10.211 21.5939 10.2274C22.7051 10.3855 23.8054 10.6142 24.888 10.9121C25.4228 11.0577 27.1072 11.5968 27.1554 12.578C27.1554 13.1171 26.6206 13.6563 26.0859 13.8611M9.72757 25.28C9.72757 25.997 9.63666 26.7033 9.25698 26.9944C8.78625 27.2148 8.25884 27.2808 7.74896 27.1831L2.71153 26.8758C2.5949 26.8719 2.47872 26.8593 2.36394 26.8381C2.36394 26.8381 2.31581 26.7896 2.24629 26.6224C1.57784 25.0913 1.82383 23.3229 2.08051 21.4468C2.13934 21.037 2.19816 20.6273 2.24629 20.2229C2.42434 18.3218 2.48863 16.4116 2.4388 14.5027V14.1307L3.15538 14.0606C4.55645 13.915 8.80779 13.4676 9.42811 14.6806C9.85057 15.5055 9.79709 17.0474 9.75966 18.2874C9.75966 18.778 9.72757 19.2363 9.75966 19.6514C9.80778 21.5222 9.80244 23.4254 9.75966 25.2746M27.4816 15.1497C27.9502 14.875 28.3397 14.482 28.6117 14.0092C28.8836 13.5365 29.0286 13.0005 29.0324 12.454C28.9575 10.939 27.6848 9.75834 25.4441 9.14912C24.5992 8.91729 23.7383 8.72319 22.872 8.56684C23.2253 7.12821 23.269 5.63002 23.0003 4.17292C22.5939 2.37222 21.2089 0.398969 19.0163 0.0431406C18.6271 -0.0429172 18.2232 -0.0350437 17.8375 0.066142C17.4518 0.167328 17.0954 0.358971 16.7971 0.625414C16.5772 0.818503 16.3987 1.0549 16.2727 1.32006C16.1468 1.58522 16.0759 1.87354 16.0645 2.16733C16.0645 6.33483 14.15 8.57223 11.9201 11.1601C11.3853 11.7639 10.8773 12.3785 10.3639 13.0362C8.65805 11.6992 5.19816 12.0551 3.0003 12.2869L2.25698 12.357C1.91679 12.369 1.58611 12.4733 1.29976 12.6589C1.07354 12.8489 0.896462 13.0914 0.783751 13.3656C0.671041 13.6398 0.626071 13.9375 0.652705 14.2331V14.5135C0.700048 16.3505 0.637547 18.1886 0.46554 20.018C0.42276 20.4116 0.369283 20.8052 0.31046 21.2041C0.0270372 23.2421 -0.261731 25.3447 0.604579 27.3341C0.752833 27.7135 1.00278 28.0439 1.3265 28.2884C1.71428 28.5377 2.16606 28.6671 2.62597 28.6604L7.6634 28.9731C7.86661 28.9731 8.09656 29 8.34255 29C9.0749 29.0365 9.79869 28.828 10.4014 28.407C10.8087 28.0865 11.1151 27.6539 11.2837 27.1616C14.7917 28.2398 18.5351 28.3908 22.0645 28.477H22.6367C23.3972 28.5058 24.1558 28.3793 24.8666 28.105C25.428 27.8954 25.9075 27.5089 26.234 27.003C26.5605 26.4971 26.7167 25.8986 26.6794 25.2962C26.6178 24.7946 26.3986 24.326 26.0538 23.9591C26.6957 23.6128 27.1845 23.0353 27.4228 22.3417C27.5483 21.9007 27.5652 21.4355 27.472 20.9864C27.3789 20.5373 27.1784 20.1179 26.888 19.7647C27.312 19.5563 27.6795 19.2472 27.9589 18.8641C28.2384 18.4809 28.4214 18.0352 28.4923 17.565C28.5308 17.1042 28.4564 16.6409 28.2754 16.2159C28.0945 15.7909 27.8127 15.4174 27.4548 15.1281" fill="#9600FA"/>
</g>
<defs>
<clipPath id="clip0_327_56">
<rect width="29" height="29" fill="white"/>
</clipPath>
</defs>
</svg>
