<svg width="81" height="85" viewBox="0 0 81 85" fill="none" xmlns="http://www.w3.org/2000/svg">
<g clip-path="url(#clip0_2077_4)">
<path d="M29.0927 19.2001C28.987 19.0091 28.8624 18.8292 28.7208 18.663C28.5695 18.4859 28.4026 18.3229 28.222 18.1758C27.4749 17.5887 26.5281 17.3197 25.5881 17.4275C24.6481 17.5354 23.7912 18.0114 23.2045 18.7516L19.8652 23.0029L13.2366 31.4181C12.6933 32.1652 12.4619 33.096 12.5911 34.0148C12.7203 34.9335 13.2 35.7686 13.9293 36.3444C14.6587 36.9202 15.5808 37.1918 16.5019 37.1022C17.4229 37.0125 18.2711 36.5685 18.8679 35.8636L28.8292 23.2027C28.9723 23.023 29.0956 22.8285 29.1971 22.6223C29.4687 22.091 29.6016 21.4989 29.5833 20.9006C29.5651 20.3024 29.3963 19.7175 29.0927 19.2001Z" fill="#D2C3DF"/>
<path d="M40.4402 23.8761C40.701 23.2447 40.775 22.5506 40.6535 21.876C40.532 21.2013 40.2201 20.5744 39.7547 20.0697C39.6322 19.9291 39.4973 19.7997 39.3517 19.6832C38.9826 19.3903 38.5599 19.1727 38.1078 19.0431C37.6557 18.9135 37.183 18.8743 36.7169 18.9278C36.2508 18.9813 35.8004 19.1264 35.3916 19.3548C34.9827 19.5833 34.6234 19.8906 34.3342 20.259L29.8824 25.9193L17.2959 41.9265C16.7585 42.6733 16.5313 43.6008 16.6617 44.5156C16.7921 45.4303 17.27 46.2615 17.9957 46.8358C18.7214 47.41 19.6388 47.683 20.5564 47.5976C21.474 47.5122 22.321 47.0752 22.9206 46.3776L39.9655 24.7046C40.0792 24.5599 40.1786 24.4045 40.2623 24.2405C40.3285 24.1226 40.3879 24.0009 40.4402 23.8761Z" fill="#D2C3DF"/>
<path d="M67.4787 52.386C67.6735 51.8552 67.7398 51.285 67.6721 50.722C67.6044 50.1589 67.4045 49.6191 67.089 49.1466C66.9875 49.0056 66.8757 48.8724 66.7545 48.748C66.6277 48.5956 66.4851 48.4572 66.3292 48.335C66.1576 48.1987 65.9722 48.0811 65.776 47.984C65.6853 47.9339 65.5902 47.8924 65.4919 47.86L65.2191 47.7493C65.0816 47.7062 64.9431 47.6751 64.8046 47.6442L64.6773 47.6265C64.2573 47.5561 63.8285 47.563 63.4119 47.6467L63.3525 47.6965C63.138 47.7454 62.9288 47.8149 62.7277 47.9037C62.6794 47.9202 62.6326 47.9406 62.5876 47.9647C62.4043 48.0541 62.2291 48.1594 62.0642 48.2793C62.0129 48.3163 61.9644 48.357 61.919 48.4012C61.7081 48.5638 61.519 48.7529 61.3563 48.9639L51.395 61.6248C50.8576 62.3716 50.6305 63.2991 50.7609 64.2138C50.8913 65.1286 51.3692 65.9598 52.0949 66.534C52.8205 67.1083 53.7379 67.3812 54.6555 67.2959C55.5731 67.2105 56.4201 66.7735 57.0197 66.0759L66.981 53.415C67.102 53.2599 67.2066 53.0924 67.293 52.9155C67.3719 52.7455 67.4341 52.5682 67.4787 52.386Z" fill="#D2C3DF"/>
<path d="M63.4683 41.655C63.6103 41.1828 63.6538 40.6859 63.5959 40.1949C63.5381 39.704 63.3802 39.2296 63.1321 38.801C63.0223 38.6162 62.8976 38.4406 62.7591 38.2761C62.4155 37.869 61.9855 37.5436 61.5008 37.3239C61.0162 37.1042 60.4892 36.9957 59.9587 37.0065C59.4281 37.0172 58.9075 37.1468 58.435 37.3859C57.9626 37.625 57.5504 37.9674 57.2287 38.388L49.3759 48.3738L40.2177 60.0211C39.6804 60.7679 39.4532 61.6954 39.5836 62.6102C39.714 63.5249 40.1919 64.3561 40.9175 64.9303C41.6432 65.5046 42.5606 65.7776 43.4782 65.6922C44.3959 65.6068 45.2428 65.1698 45.8424 64.4722L62.8874 42.7992C63.0277 42.6255 63.1485 42.4368 63.2476 42.2365C63.3363 42.0489 63.4101 41.8544 63.4683 41.655Z" fill="#D2C3DF"/>
<path d="M71.5306 65.1648C71.7089 64.3439 71.6062 63.4851 71.2391 62.7261C70.9809 62.2167 70.6088 61.7733 70.152 61.4305L69.8016 61.147L70.8471 59.8056L70.9395 59.728L70.8614 59.635L67.1861 56.7297L60.2757 65.5059L64.0544 68.4943L65.1877 67.0565L65.538 67.34C66.0396 67.7399 66.6343 68.0055 67.2654 68.1114C67.8965 68.2174 68.5432 68.1603 69.1439 67.9454C69.7447 67.7306 70.2797 67.3652 70.698 66.8839C71.1164 66.4027 71.4042 65.8216 71.5341 65.1958L71.5306 65.1648Z" fill="#D2C3DF"/>
<path d="M16.0714 16.2569L14.9382 17.6947L14.5878 17.4112C14.1982 17.1032 13.7521 16.8747 13.2753 16.7388C12.7985 16.6029 12.3002 16.5622 11.8088 16.619C11.3175 16.6759 10.8428 16.8292 10.4119 17.0702C9.98098 17.3112 9.60227 17.6352 9.29741 18.0236C8.95992 18.449 8.72306 18.9457 8.6045 19.4768C8.44319 20.1756 8.48204 20.907 8.7166 21.5872C8.95117 22.2674 9.37196 22.869 9.93077 23.3229L10.2877 23.6009L9.2631 24.9135L9.14429 25.0132L9.24464 25.1328L12.9032 28.0182L19.4362 19.7172L19.8334 19.2254L19.3386 18.8368L16.0714 16.2569Z" fill="#D2C3DF"/>
<path d="M42.2706 38.847L35.9264 33.8335L31.0555 40.0265L44.3299 50.5243L48.9453 44.6701L49.2064 44.3378L48.8672 44.0677L42.2706 38.847Z" fill="#D2C3DF"/>
</g>
<defs>
<clipPath id="clip0_2077_4">
<rect width="77" height="40" fill="white" transform="translate(30.6418) rotate(50)"/>
</clipPath>
</defs>
</svg>
