<svg viewBox="0 0 80 20" xmlns="http://www.w3.org/2000/svg">

  <symbol id="like" viewBox="0 0 40 40" fill="none" xmlns="http://www.w3.org/2000/svg">
    <g clip-path="url(#clip0_327_56)">
      <path d="M26.1233 13.8234C25.3105 14.0658 24.4586 14.1464 23.6153 14.0606H23.5885C23.472 14.0585 23.3561 14.0795 23.2476 14.1225C23.1391 14.1656 23.0401 14.2297 22.9561 14.3113C22.8722 14.3929 22.8051 14.4904 22.7585 14.5981C22.7119 14.7059 22.6869 14.8219 22.6848 14.9394C22.6827 15.0569 22.7036 15.1737 22.7462 15.2831C22.7889 15.3925 22.8525 15.4924 22.9335 15.577C23.0144 15.6616 23.1111 15.7293 23.218 15.7762C23.3249 15.8232 23.4399 15.8484 23.5564 15.8505C24.3288 15.8214 25.0993 15.946 25.8238 16.2172C26.2784 16.4328 26.7383 16.918 26.6848 17.3925C26.6313 17.8669 26.15 18.2012 25.6848 18.3413C25.2698 18.451 24.8404 18.4946 24.4121 18.4707C24.0882 18.4215 23.7609 18.3998 23.4335 18.406C23.198 18.3975 22.9689 18.4835 22.7964 18.6453C22.6239 18.8071 22.5222 19.0313 22.5137 19.2687C22.5052 19.506 22.5905 19.7371 22.751 19.911C22.9114 20.0849 23.1338 20.1874 23.3693 20.196C23.6474 20.196 23.9308 20.2445 24.2249 20.2553C24.5744 20.312 24.9059 20.4505 25.1928 20.6596C25.3746 20.787 25.5158 20.9649 25.5993 21.1716C25.6828 21.3783 25.7051 21.605 25.6634 21.8242C25.5756 22.0131 25.4461 22.1794 25.2849 22.3102C25.1236 22.441 24.9348 22.5329 24.7329 22.5789C24.1354 22.7172 23.5208 22.7644 22.9094 22.7191C22.6809 22.7148 22.4596 22.7996 22.2915 22.9557C22.1234 23.1118 22.0215 23.3273 22.0071 23.5573C21.9926 23.7872 22.0667 24.0139 22.2138 24.1902C22.361 24.3665 22.5699 24.4787 22.7971 24.5036C23.7008 24.6007 24.7757 24.9188 24.8506 25.5226C24.8933 25.8515 24.5618 26.272 24.1126 26.4661C23.4564 26.6746 22.7657 26.7497 22.0805 26.6871C18.4762 26.6009 14.9682 26.4337 11.626 25.3986C11.5975 25.3961 11.5689 25.3961 11.5404 25.3986V25.3447C11.5939 23.4523 11.5992 21.5276 11.5404 19.6299C11.5404 19.2687 11.5404 18.8266 11.5404 18.3683C11.6413 17.1287 11.562 15.8809 11.3051 14.6644C11.3598 14.6209 11.4084 14.5702 11.4495 14.5135C12.0163 13.7587 12.642 13.0363 13.2409 12.357C15.4976 9.73678 17.8238 7.03032 17.8185 2.21047C17.8571 2.10021 17.9257 2.00307 18.0163 1.93011C18.1136 1.87437 18.2208 1.83855 18.3319 1.82468C18.4429 1.8108 18.5556 1.81912 18.6634 1.84923C20.0057 2.06488 20.8987 3.42891 21.1607 4.59883C21.4869 6.05449 21.1607 7.64493 20.8345 9.14372C20.8076 9.26471 20.8061 9.39005 20.83 9.51168C20.8539 9.6333 20.9028 9.74853 20.9736 9.84998C21.0455 9.95263 21.1378 10.0391 21.2446 10.1041C21.3513 10.169 21.4703 10.211 21.5939 10.2274C22.7051 10.3855 23.8054 10.6142 24.888 10.9121C25.4228 11.0577 27.1072 11.5968 27.1554 12.578C27.1554 13.1171 26.6206 13.6563 26.0859 13.8611M9.72757 25.28C9.72757 25.997 9.63666 26.7033 9.25698 26.9944C8.78625 27.2148 8.25884 27.2808 7.74896 27.1831L2.71153 26.8758C2.5949 26.8719 2.47872 26.8593 2.36394 26.8381C2.36394 26.8381 2.31581 26.7896 2.24629 26.6224C1.57784 25.0913 1.82383 23.3229 2.08051 21.4468C2.13934 21.037 2.19816 20.6273 2.24629 20.2229C2.42434 18.3218 2.48863 16.4116 2.4388 14.5027V14.1307L3.15538 14.0606C4.55645 13.915 8.80779 13.4676 9.42811 14.6806C9.85057 15.5055 9.79709 17.0474 9.75966 18.2874C9.75966 18.778 9.72757 19.2363 9.75966 19.6514C9.80778 21.5222 9.80244 23.4254 9.75966 25.2746M27.4816 15.1497C27.9502 14.875 28.3397 14.482 28.6117 14.0092C28.8836 13.5365 29.0286 13.0005 29.0324 12.454C28.9575 10.939 27.6848 9.75834 25.4441 9.14912C24.5992 8.91729 23.7383 8.72319 22.872 8.56684C23.2253 7.12821 23.269 5.63002 23.0003 4.17292C22.5939 2.37222 21.2089 0.398969 19.0163 0.0431406C18.6271 -0.0429172 18.2232 -0.0350437 17.8375 0.066142C17.4518 0.167328 17.0954 0.358971 16.7971 0.625414C16.5772 0.818503 16.3987 1.0549 16.2727 1.32006C16.1468 1.58522 16.0759 1.87354 16.0645 2.16733C16.0645 6.33483 14.15 8.57223 11.9201 11.1601C11.3853 11.7639 10.8773 12.3785 10.3639 13.0362C8.65805 11.6992 5.19816 12.0551 3.0003 12.2869L2.25698 12.357C1.91679 12.369 1.58611 12.4733 1.29976 12.6589C1.07354 12.8489 0.896462 13.0914 0.783751 13.3656C0.671041 13.6398 0.626071 13.9375 0.652705 14.2331V14.5135C0.700048 16.3505 0.637547 18.1886 0.46554 20.018C0.42276 20.4116 0.369283 20.8052 0.31046 21.2041C0.0270372 23.2421 -0.261731 25.3447 0.604579 27.3341C0.752833 27.7135 1.00278 28.0439 1.3265 28.2884C1.71428 28.5377 2.16606 28.6671 2.62597 28.6604L7.6634 28.9731C7.86661 28.9731 8.09656 29 8.34255 29C9.0749 29.0365 9.79869 28.828 10.4014 28.407C10.8087 28.0865 11.1151 27.6539 11.2837 27.1616C14.7917 28.2398 18.5351 28.3908 22.0645 28.477H22.6367C23.3972 28.5058 24.1558 28.3793 24.8666 28.105C25.428 27.8954 25.9075 27.5089 26.234 27.003C26.5605 26.4971 26.7167 25.8986 26.6794 25.2962C26.6178 24.7946 26.3986 24.326 26.0538 23.9591C26.6957 23.6128 27.1845 23.0353 27.4228 22.3417C27.5483 21.9007 27.5652 21.4355 27.472 20.9864C27.3789 20.5373 27.1784 20.1179 26.888 19.7647C27.312 19.5563 27.6795 19.2472 27.9589 18.8641C28.2384 18.4809 28.4214 18.0352 28.4923 17.565C28.5308 17.1042 28.4564 16.6409 28.2754 16.2159C28.0945 15.7909 27.8127 15.4174 27.4548 15.1281" fill="#9600FA"/>
    </g>
    <defs>
      <clipPath id="clip0_327_56">
        <rect fill="white"/>
      </clipPath>
    </defs>
  </symbol>

  <symbol id="adaptation" width="103" height="103" viewBox="0 0 103 103" fill="none" xmlns="http://www.w3.org/2000/svg">
    <path d="M24.142 48.2839C37.4752 48.2839 48.2839 37.4752 48.2839 24.142C48.2839 10.8087 37.4752 0 24.142 0C10.8087 0 0 10.8087 0 24.142C0 37.4752 10.8087 48.2839 24.142 48.2839Z" fill="#FFDC00"/>
    <path d="M35.2768 33.6439C35.3109 33.2806 35.251 32.9147 35.1027 32.5814C34.7365 31.8951 34.1601 31.344 33.4581 31.0088L33.0439 30.7447C31.7293 29.8743 30.7869 28.4277 30.0787 26.1888C30.0066 25.9727 29.9226 25.5885 29.8266 25.0903C29.3704 22.8514 28.9442 21.1167 27.9478 20.7385H27.9178L27.6116 20.6125L31.7533 14.8681C31.8065 14.7946 31.8315 14.7046 31.8238 14.6142C31.8161 14.5239 31.7762 14.4393 31.7113 14.3759L30.7629 13.4695C30.7247 13.4317 30.6786 13.4026 30.628 13.3843C30.5774 13.3659 30.5234 13.3588 30.4697 13.3634C30.4161 13.3679 30.3641 13.3841 30.3173 13.4107C30.2705 13.4373 30.23 13.4738 30.1987 13.5175L25.997 19.3639C25.9129 19.472 25.8169 19.5801 25.7269 19.6821C23.8038 18.5566 22.173 16.9938 20.9669 15.1202C21.291 14.7421 21.4411 14.562 21.5251 14.454C21.7592 14.1538 24.0222 11.6568 25.997 9.38783C26.0624 9.3178 26.0988 9.22559 26.0988 9.12977C26.0988 9.03394 26.0624 8.94166 25.997 8.87163L25.1326 8.04328C25.0979 8.00753 25.0564 7.97909 25.0105 7.95968C24.9646 7.94027 24.9153 7.9303 24.8655 7.9303C24.8157 7.9303 24.7664 7.94027 24.7205 7.95968C24.6746 7.97909 24.6331 8.00753 24.5984 8.04328C23.626 9.11172 20.2106 12.8453 19.9405 13.1995L17.3474 14.664L17.2994 14.7001C16.2561 15.4195 15.2541 16.1971 14.2981 17.029L13.7339 17.5032C13.0288 18.045 12.3954 18.6743 11.8491 19.376C11.0098 19.6181 10.2224 20.0129 9.52618 20.5405C8.99112 20.9783 8.59341 21.5609 8.38053 22.2187C8.16766 22.8765 8.14861 23.5817 8.32568 24.25C8.82389 26.2488 10.3965 27.4673 11.7831 28.5478L11.9092 28.6438C12.7495 29.3041 13.6439 29.9163 14.5082 30.5046C16.0551 31.4907 17.5043 32.6223 18.836 33.884C19.2922 34.3402 19.7244 34.8503 20.1446 35.3486C20.722 36.0516 21.3435 36.7172 22.0053 37.3414C23.7995 38.9748 26.117 39.9154 28.542 39.9945H28.8602C29.7298 39.9929 30.5962 39.8882 31.4412 39.6824C32.8283 39.4295 34.082 38.6963 34.9827 37.6115C35.497 36.918 35.7672 36.0737 35.751 35.2105C35.7174 34.6584 35.555 34.1219 35.2768 33.6439ZM23.704 23.3736C23.704 22.9355 23.758 22.5093 23.7941 22.0351C23.8421 21.3148 23.8961 20.5405 23.9621 19.6341V19.586C24.3163 19.8501 24.6884 20.0963 25.0726 20.3304C25.0306 20.9307 24.9886 21.5309 24.9465 22.0891C24.9045 22.6473 24.8865 22.9835 24.8625 23.4097C24.8289 23.5983 24.8433 23.7923 24.9045 23.9739C25.006 24.1845 25.1265 24.3855 25.2647 24.5741C25.3001 24.6177 25.3322 24.6638 25.3607 24.7122C25.7869 25.3124 26.2491 25.9127 26.6993 26.5129C27.1494 27.1132 27.5216 27.5873 27.8998 28.1456C28.1678 28.5229 28.5423 28.8118 28.9753 28.9754C29.4082 29.139 29.8802 29.1698 30.3308 29.064C30.5329 29.4151 30.7617 29.7503 31.015 30.0664C30.6318 30.214 30.2252 30.2913 29.8145 30.2945C29.2558 30.2948 28.7051 30.1608 28.2089 29.9038C27.7127 29.6469 27.2856 29.2744 26.9634 28.8179C26.5792 28.2776 26.171 27.7375 25.7629 27.2212C25.3547 26.705 24.8265 26.0208 24.3883 25.3605L24.2983 25.2284C24.1104 24.9758 23.9494 24.7042 23.8181 24.4181C23.6971 24.084 23.658 23.7259 23.704 23.3736ZM23.0257 27.9776C23.1241 27.9191 23.2333 27.8812 23.3467 27.8664C23.4601 27.8516 23.5754 27.8602 23.6854 27.8915C23.7954 27.9228 23.8979 27.9762 23.9866 28.0485C24.0752 28.1208 24.1482 28.2104 24.2009 28.3119C24.2537 28.4134 24.2852 28.5246 24.2936 28.6387C24.3019 28.7528 24.2868 28.8674 24.2493 28.9755C24.2117 29.0835 24.1525 29.1828 24.0753 29.2672C23.998 29.3515 23.9044 29.4193 23.8001 29.4662L21.6512 30.5826C21.2113 30.1639 20.7441 29.7748 20.2526 29.4181L23.0257 27.9776ZM21.4831 26.4649C21.5341 26.563 21.5653 26.6702 21.5748 26.7804C21.5843 26.8905 21.572 27.0015 21.5385 27.1069C21.505 27.2123 21.4511 27.31 21.3798 27.3945C21.3085 27.479 21.2212 27.5487 21.123 27.5994L19.1301 28.6318L17.7436 27.7495L17.4915 27.5934L20.3486 26.1048C20.5434 26.001 20.7711 25.9775 20.983 26.0391C21.1949 26.1008 21.3744 26.2428 21.4831 26.4349V26.4649ZM17.9537 23.9739C18.052 23.9154 18.1612 23.8776 18.2746 23.8628C18.388 23.848 18.5033 23.8565 18.6133 23.8878C18.7233 23.9191 18.8258 23.9726 18.9145 24.0449C19.0031 24.1172 19.0761 24.2068 19.1289 24.3083C19.1816 24.4098 19.2132 24.5209 19.2215 24.635C19.2298 24.7491 19.2147 24.8637 19.1772 24.9718C19.1396 25.0798 19.0804 25.1791 19.0032 25.2635C18.926 25.3479 18.8323 25.4156 18.728 25.4625L16.2129 26.7711C15.6708 26.4147 15.1479 26.03 14.6463 25.6186L17.9537 23.9739ZM14.7543 18.2896V17.8394L14.8684 17.7433C15.2045 17.4432 15.5647 17.1431 15.9548 16.8369H16.0509V18.2896C16.0438 20.6277 15.1417 22.8744 13.5298 24.5681C13.2451 24.2582 12.9842 23.9271 12.7495 23.5777V23.5357C14.0497 22.0869 14.7643 20.2062 14.7543 18.2595V18.2896ZM34.0523 36.9633C33.3115 37.8277 32.2928 38.4071 31.1711 38.6019C30.3232 38.8107 29.4509 38.9035 28.578 38.878C26.4297 38.8034 24.3774 37.9698 22.7856 36.5251C22.1607 35.9359 21.5752 35.3063 21.0329 34.6403C20.6007 34.1301 20.1506 33.6018 19.6644 33.1096C18.2802 31.7978 16.7748 30.6201 15.1685 29.5922C14.3161 28.9919 13.4398 28.3917 12.6235 27.7915L12.4974 27.6954C11.2009 26.687 9.85631 25.6426 9.46015 24.0399C9.33252 23.5863 9.33946 23.1054 9.48013 22.6557C9.6208 22.206 9.88913 21.8069 10.2525 21.5069C10.5308 21.2786 10.84 21.0906 11.1709 20.9486C11.1554 21.0119 11.1434 21.0761 11.1348 21.1407C11.0582 22.1989 11.3698 23.2488 12.0112 24.0939C13.3317 26.0567 15.3366 27.3052 17.2694 28.5177C18.6628 29.3185 19.965 30.2685 21.153 31.351C21.6212 31.8071 22.0593 32.3293 22.4855 32.8335C23.2734 33.8711 24.2193 34.7785 25.2887 35.5226C26.6185 36.2896 28.118 36.7146 29.6525 36.7592C29.9046 36.7592 30.1807 36.7592 30.4808 36.7592C31.5047 36.796 32.5228 36.5904 33.452 36.1589C33.8823 35.9312 34.2653 35.6236 34.5805 35.2526C34.5805 35.2526 34.5805 35.2525 34.5805 35.3006C34.5862 35.8877 34.4008 36.4607 34.0523 36.9332V36.9633Z" fill="#9600FA"/>
  </symbol>

  <symbol id="fatBurning" width="103" height="103" viewBox="0 0 103 103" fill="none" xmlns="http://www.w3.org/2000/svg">
    <path d="M24.142 48.8518C37.4752 48.8518 48.2839 38.0431 48.2839 24.7099C48.2839 11.3766 37.4752 0.567871 24.142 0.567871C10.8087 0.567871 0 11.3766 0 24.7099C0 38.0431 10.8087 48.8518 24.142 48.8518Z" fill="#FFDC00"/>
    <path d="M42.0533 24.6139C41.7291 24.6139 41.423 24.6139 41.1289 24.5779V30.4363L42.0053 30.4782C42.1159 30.4816 42.2261 30.4628 42.3293 30.4225C42.4324 30.3823 42.5264 30.3216 42.6055 30.2442C42.6868 30.167 42.7511 30.0738 42.7945 29.9704C42.8379 29.8671 42.8594 29.756 42.8576 29.6439V25.4422C42.8592 25.2262 42.7758 25.0182 42.6253 24.8632C42.4748 24.7082 42.2693 24.6187 42.0533 24.6139Z" fill="#9600FA"/>
    <path d="M40.2284 30.3822V24.5177C39.7602 24.4757 39.316 24.4337 38.9079 24.3797V27.1768C38.9079 27.2962 38.8604 27.4108 38.776 27.4952C38.6916 27.5797 38.5771 27.627 38.4577 27.627C38.3383 27.627 38.2238 27.5797 38.1394 27.4952C38.0549 27.4108 38.0075 27.2962 38.0075 27.1768V24.2477C37.4009 24.1439 36.7999 24.0097 36.2068 23.8455V25.8983C36.2068 26.0177 36.1593 26.1322 36.0749 26.2166C35.9905 26.3011 35.876 26.3485 35.7566 26.3485C35.6372 26.3485 35.5227 26.3011 35.4382 26.2166C35.3538 26.1322 35.3064 26.0177 35.3064 25.8983V23.5454C34.8461 23.3731 34.4037 23.1559 33.9858 22.8971V28.7135C34.1899 28.9716 35.3844 30.028 40.2284 30.3822Z" fill="#9600FA"/>
    <path d="M33.0732 24.1337C32.6665 24.596 32.1979 25 31.6806 25.3342V27.6991C31.6806 27.8185 31.6332 27.933 31.5488 28.0174C31.4643 28.1018 31.3498 28.1493 31.2304 28.1493C31.111 28.1493 30.9965 28.1018 30.9121 28.0174C30.8277 27.933 30.7803 27.8185 30.7803 27.6991V25.8984C30.1435 26.2283 29.4835 26.5111 28.8054 26.7447V30.2622C28.8054 30.3816 28.758 30.496 28.6736 30.5805C28.5892 30.6649 28.4747 30.7124 28.3553 30.7124C28.2359 30.7124 28.1214 30.6649 28.0369 30.5805C27.9525 30.496 27.9051 30.3816 27.9051 30.2622V27.0268C27.2748 27.2008 26.6205 27.3569 25.9243 27.4829V29.692C25.9243 29.8114 25.8768 29.9258 25.7924 30.0103C25.708 30.0947 25.5935 30.1422 25.4741 30.1422C25.3547 30.1422 25.2402 30.0947 25.1557 30.0103C25.0713 29.9258 25.0239 29.8114 25.0239 29.692V27.633C24.3876 27.7291 23.7273 27.7891 23.0491 27.8371V31.2705C23.0491 31.3899 23.0016 31.5044 22.9172 31.5888C22.8328 31.6733 22.7183 31.7207 22.5989 31.7207C22.4795 31.7207 22.365 31.6733 22.2805 31.5888C22.1961 31.5044 22.1487 31.3899 22.1487 31.2705V27.8792C21.8246 27.8792 21.4944 27.8792 21.1643 27.8792C20.8342 27.8792 20.504 27.8792 20.1739 27.8792V30.0041C20.1739 30.1235 20.1264 30.238 20.042 30.3224C19.9576 30.4068 19.8431 30.4543 19.7237 30.4543C19.6043 30.4543 19.4898 30.4068 19.4054 30.3224C19.3209 30.238 19.2735 30.1235 19.2735 30.0041V27.8371C18.5952 27.7891 17.935 27.7291 17.2987 27.633V30.9524C17.2987 31.0718 17.2513 31.1864 17.1668 31.2708C17.0824 31.3553 16.9679 31.4026 16.8485 31.4026C16.7291 31.4026 16.6146 31.3553 16.5302 31.2708C16.4458 31.1864 16.3983 31.0718 16.3983 30.9524V27.4829C15.702 27.3569 15.0478 27.2008 14.4235 27.0268V29.0076C14.4235 29.127 14.3761 29.2416 14.2917 29.326C14.2072 29.4105 14.0927 29.4578 13.9733 29.4578C13.8539 29.4578 13.7394 29.4105 13.655 29.326C13.5706 29.2416 13.5231 29.127 13.5231 29.0076V26.7447C12.8463 26.5131 12.1881 26.2302 11.5543 25.8984V28.9717C11.5543 29.0911 11.5069 29.2056 11.4225 29.29C11.338 29.3744 11.2235 29.4219 11.1041 29.4219C10.9847 29.4219 10.8702 29.3744 10.7858 29.29C10.7014 29.2056 10.6539 29.0911 10.6539 28.9717V25.3702C10.1339 25.0374 9.66314 24.6333 9.25537 24.1697V29.71C9.25537 32.4831 14.7116 34.8241 21.1703 34.8241C27.629 34.8241 33.0792 32.4831 33.0792 29.71L33.0732 24.1337Z" fill="#9600FA"/>
    <path d="M16.8247 21.8947C16.8247 22.705 18.6795 23.6053 21.1645 23.6053C23.6495 23.6053 25.4983 22.705 25.4983 21.8947C25.4983 21.0844 23.6435 20.1899 21.1645 20.1899C18.6855 20.1899 16.8247 21.0964 16.8247 21.8947Z" fill="#9600FA"/>
    <path d="M9.24951 21.8948C9.24951 24.6679 14.7058 27.0089 21.1644 27.0089C27.6231 27.0089 33.0733 24.6679 33.0733 21.8948C33.0733 19.1216 27.6171 16.7806 21.1644 16.7806C14.7118 16.7806 9.24951 19.1276 9.24951 21.8948ZM21.1584 19.2956C24.1597 19.2956 26.3926 20.4121 26.3926 21.8888C26.3926 23.3654 24.1417 24.4877 21.1584 24.4877C18.1752 24.4877 15.9183 23.3714 15.9183 21.8888C15.9183 20.4061 18.1572 19.2956 21.1584 19.2956Z" fill="#9600FA"/>
  </symbol>

  <symbol id="health" width="103" height="103" viewBox="0 0 103 103" fill="none" xmlns="http://www.w3.org/2000/svg">
    <path d="M24.142 48.2839C37.4752 48.2839 48.2839 37.4752 48.2839 24.142C48.2839 10.8087 37.4752 0 24.142 0C10.8087 0 0 10.8087 0 24.142C0 37.4752 10.8087 48.2839 24.142 48.2839Z" fill="#FFDC00"/>
    <path d="M30.9547 13.6556C29.4962 13.6197 28.0554 13.981 26.7866 14.7011C25.5178 15.4211 24.4687 16.4727 23.7517 17.7433C23.0352 16.4723 21.9862 15.4204 20.7173 14.7003C19.4483 13.9801 18.0073 13.619 16.5487 13.6556C11.7948 13.7516 8.28931 18.0674 8.7455 22.7974C8.87412 24.0854 9.19796 25.3463 9.70589 26.5369H15.6483C15.6798 26.5366 15.7106 26.5274 15.7372 26.5104C15.7637 26.4934 15.7849 26.4693 15.7984 26.4408L16.6147 24.6882C16.703 24.4936 16.8458 24.3287 17.0259 24.2136C17.2059 24.0986 17.4155 24.0382 17.6292 24.0398C17.8467 24.0417 18.0591 24.1061 18.2411 24.2253C18.4231 24.3445 18.567 24.5134 18.6556 24.7121L20.7204 29.4001L22.4732 22.5093C22.5304 22.2649 22.6693 22.0472 22.8668 21.8923C23.0642 21.7374 23.3086 21.6544 23.5596 21.6569C23.8082 21.6575 24.0495 21.7411 24.2452 21.8944C24.441 22.0477 24.5799 22.262 24.6401 22.5033L25.5824 26.2788C25.5988 26.3507 25.6393 26.4149 25.6972 26.4608C25.755 26.5066 25.8268 26.5314 25.9006 26.5309H33.1636C33.3502 26.5476 33.5238 26.6336 33.6503 26.7719C33.7767 26.9102 33.8468 27.0908 33.8468 27.2782C33.8468 27.4656 33.7767 27.6462 33.6503 27.7845C33.5238 27.9228 33.3502 28.0088 33.1636 28.0255H25.3604C25.1099 28.0259 24.8666 27.942 24.6695 27.7874C24.4725 27.6328 24.3332 27.4165 24.2739 27.1731L23.5596 24.304L21.9029 30.8047C21.8469 31.031 21.7212 31.2339 21.5434 31.3847C21.3656 31.5356 21.1449 31.6266 20.9125 31.645H20.8165C20.5991 31.6458 20.3863 31.5824 20.2048 31.4629C20.0233 31.3433 19.8811 31.1728 19.7961 30.9727L17.6232 26.0507L17.0229 27.3713C16.9317 27.5636 16.7882 27.7264 16.6088 27.841C16.4294 27.9556 16.2214 28.0175 16.0085 28.0195H10.4442C11.5755 30.0144 12.9909 31.8342 14.6459 33.4217C16.984 35.6688 19.5766 37.635 22.3711 39.2801C22.7947 39.5304 23.2777 39.6625 23.7697 39.6625C24.2617 39.6625 24.7447 39.5304 25.1683 39.2801C27.9659 37.6369 30.5608 35.6706 32.8995 33.4217C37.5034 28.8658 38.5598 25.1143 38.7699 22.7914C39.2141 18.0554 35.7026 13.7516 30.9547 13.6556Z" fill="#9600FA"/>
  </symbol>


  <symbol id="muscleGain" width="103" height="103" viewBox="0 0 103 103" fill="none" xmlns="http://www.w3.org/2000/svg">
    <path d="M24.142 48.5679C37.4752 48.5679 48.2839 37.7591 48.2839 24.4259C48.2839 11.0927 37.4752 0.283936 24.142 0.283936C10.8087 0.283936 0 11.0927 0 24.4259C0 37.7591 10.8087 48.5679 24.142 48.5679Z" fill="#FFDC00"/>
    <path d="M13.3557 19.0536C13.2617 19.0119 13.1629 18.9817 13.0616 18.9637C12.9552 18.9398 12.8465 18.9277 12.7375 18.9276C12.2901 18.9276 11.8611 19.1053 11.5448 19.4216C11.2285 19.7379 11.0508 20.167 11.0508 20.6143V28.2315C11.0508 28.6788 11.2285 29.1078 11.5448 29.4241C11.8611 29.7404 12.2901 29.9182 12.7375 29.9182C13.1848 29.9182 13.6138 29.7404 13.9301 29.4241C14.2465 29.1078 14.4242 28.6788 14.4242 28.2315V20.6143C14.4241 20.5053 14.412 20.3966 14.3882 20.2902C14.3334 20.0141 14.2101 19.7562 14.0297 19.5402C13.8493 19.3241 13.6176 19.1568 13.3557 19.0536Z" fill="#9600FA"/>
    <path d="M18.9202 17.4631C18.8323 17.1543 18.6579 16.8772 18.4175 16.6644C18.1771 16.4517 17.8808 16.3122 17.5636 16.2626C17.4768 16.2437 17.3883 16.2336 17.2995 16.2325C16.8521 16.2325 16.4231 16.4102 16.1068 16.7265C15.7905 17.0429 15.6128 17.4719 15.6128 17.9193V30.9506C15.6128 31.398 15.7905 31.827 16.1068 32.1433C16.4231 32.4596 16.8521 32.6373 17.2995 32.6373C17.7468 32.6373 18.1758 32.4596 18.4922 32.1433C18.8085 31.827 18.9862 31.398 18.9862 30.9506V17.9193C18.995 17.8315 18.995 17.7429 18.9862 17.6551C18.9502 17.5831 18.9322 17.5231 18.9202 17.4631Z" fill="#9600FA"/>
    <path d="M37.1795 20.1041C37.0992 19.8498 36.9593 19.6186 36.7713 19.4295C36.5833 19.2405 36.3528 19.0993 36.099 19.0177C36.023 18.9906 35.9446 18.9705 35.8649 18.9577C35.7741 18.9384 35.6816 18.9284 35.5888 18.9276C35.4857 18.9277 35.383 18.9399 35.2827 18.9637L35.1386 18.9996L35.0126 19.0417C34.9481 19.0615 34.8858 19.0876 34.8265 19.1197H34.7725C34.5992 19.2203 34.4432 19.348 34.3103 19.4979V19.5279C34.2434 19.6097 34.185 19.6982 34.1362 19.792L34.1002 19.858C34.06 19.9435 34.0259 20.0318 33.9981 20.1221C33.9981 20.1221 33.9981 20.1821 33.9981 20.2122C33.969 20.334 33.9549 20.459 33.9561 20.5843V28.2015C33.9424 28.431 33.9758 28.6609 34.0542 28.8771C34.1326 29.0933 34.2544 29.2912 34.4121 29.4586C34.5698 29.626 34.76 29.7594 34.9712 29.8506C35.1823 29.9417 35.4098 29.9887 35.6398 29.9887C35.8698 29.9887 36.0973 29.9417 36.3085 29.8506C36.5196 29.7594 36.7098 29.626 36.8675 29.4586C37.0252 29.2912 37.147 29.0933 37.2254 28.8771C37.3038 28.6609 37.3372 28.431 37.3235 28.2015V20.5843C37.3228 20.4915 37.3127 20.399 37.2935 20.3082C37.2604 20.2376 37.2223 20.1693 37.1795 20.1041Z" fill="#9600FA"/>
    <path d="M32.5633 17.301C32.4788 17.0846 32.3503 16.8881 32.1861 16.7238C32.0218 16.5595 31.8253 16.4311 31.6089 16.3467C31.516 16.3088 31.4194 16.2806 31.3207 16.2626C31.2164 16.2385 31.1097 16.2264 31.0026 16.2266C30.5553 16.2266 30.1263 16.4043 29.8099 16.7206C29.4936 17.0369 29.3159 17.466 29.3159 17.9133V30.9447C29.3159 31.392 29.4936 31.821 29.8099 32.1373C30.1263 32.4536 30.5553 32.6313 31.0026 32.6313C31.45 32.6313 31.879 32.4536 32.1953 32.1373C32.5116 31.821 32.6893 31.392 32.6893 30.9447V17.9133C32.6895 17.8062 32.6774 17.6995 32.6533 17.5951C32.6337 17.4942 32.6036 17.3956 32.5633 17.301Z" fill="#9600FA"/>
    <path d="M42.3895 23.6455C42.2144 23.2912 41.9275 23.0044 41.5732 22.8292C41.3317 22.7123 41.0671 22.6508 40.7989 22.6492H40.5828V21.7848H38.3198V27.067H40.5828V26.2146H40.7989C41.2764 26.2146 41.7345 26.0249 42.0722 25.6872C42.4099 25.3495 42.5996 24.8915 42.5996 24.4139C42.5878 24.1453 42.516 23.8828 42.3895 23.6455Z" fill="#9600FA"/>
    <path d="M7.68906 21.7848V22.6492H7.47897C7.00138 22.6492 6.54336 22.8389 6.20565 23.1766C5.86795 23.5143 5.67823 23.9723 5.67823 24.4499C5.67757 24.7056 5.73504 24.958 5.8463 25.1882C6.03869 25.5688 6.35987 25.8686 6.75267 26.0345C6.98592 26.1431 7.23972 26.2004 7.49698 26.2026H7.70706V27.061H9.97V21.7848H7.68906Z" fill="#9600FA"/>
    <path d="M23.9378 22.4751H20.1382V26.2026H28.0915V22.6792V22.4751H27.8934H23.9378Z" fill="#9600FA"/>
  </symbol>

</svg>