<svg viewBox="0 0 80 20" xmlns="http://www.w3.org/2000/svg">

  <symbol id="calendar" width="43" height="43" viewBox="0 0 43 41" fill="none" xmlns="http://www.w3.org/2000/svg">
    <g clip-path="url(#clip0_163_5633)">
      <path d="M11.1471 30.2073H4.77979V36.553H11.1471V30.2073Z" fill="#DEBBFF"/>
      <path d="M20.1492 30.2073H13.7764V36.553H20.1492V30.2073Z" fill="#DEBBFF"/>
      <path d="M29.1458 30.2073H22.7729V36.553H29.1458V30.2073Z" fill="#DEBBFF"/>
      <path d="M38.1424 30.2073H31.7695V36.553H38.1424V30.2073Z" fill="#DEBBFF"/>
      <path d="M11.1471 21.7963H4.77979V28.142H11.1471V21.7963Z" fill="#DEBBFF"/>
      <path d="M20.1492 21.7963H13.7764V28.142H20.1492V21.7963Z" fill="#DEBBFF"/>
      <path d="M38.1424 21.7963H31.7695V28.142H38.1424V21.7963Z" fill="#DEBBFF"/>
      <path d="M20.1492 13.3798H13.7764V19.7311H20.1492V13.3798Z" fill="#9600FA"/>
      <path d="M11.4256 13.3798H5.05273V19.7311H11.4256V13.3798Z" fill="#9600FA"/>
      <path d="M29.1458 13.3798H22.7729V19.7311H29.1458V13.3798Z" fill="#9600FA"/>
      <path d="M29.1458 21.863H22.7729V28.2142H29.1458V21.863Z" fill="#DEBBFF"/>
      <path d="M38.1424 13.3798H31.7695V19.7311H38.1424V13.3798Z" fill="#9600FA"/>
      <path d="M13.5756 5.61289C13.5756 6.00161 13.4207 6.37441 13.1449 6.64928C12.8691 6.92414 12.495 7.07854 12.1049 7.07854C11.7149 7.07854 11.3408 6.92414 11.065 6.64928C10.7892 6.37441 10.6343 6.00161 10.6343 5.61289V1.46568C10.6343 1.07696 10.7892 0.704162 11.065 0.429295C11.3408 0.154428 11.7149 0 12.1049 0C12.495 0 12.8691 0.154428 13.1449 0.429295C13.4207 0.704162 13.5756 1.07696 13.5756 1.46568V5.61289Z" fill="#9600FA"/>
      <path d="M41.0893 3.85294H33.5633V5.95709C33.5798 6.31616 33.523 6.67482 33.3965 7.01143C33.27 7.34804 33.0763 7.65562 32.8272 7.91553C32.578 8.17544 32.2786 8.3823 31.947 8.52364C31.6153 8.66498 31.2584 8.73786 30.8977 8.73786C30.537 8.73786 30.1801 8.66498 29.8485 8.52364C29.5169 8.3823 29.2174 8.17544 28.9683 7.91553C28.7192 7.65562 28.5255 7.34804 28.399 7.01143C28.2724 6.67482 28.2157 6.31616 28.2322 5.95709V3.85294H14.7734V5.95709C14.7899 6.31616 14.7332 6.67482 14.6066 7.01143C14.4801 7.34804 14.2864 7.65562 14.0373 7.91553C13.7881 8.17544 13.4887 8.3823 13.1571 8.52364C12.8255 8.66498 12.4685 8.73786 12.1079 8.73786C11.7472 8.73786 11.3903 8.66498 11.0586 8.52364C10.727 8.3823 10.4276 8.17544 10.1784 7.91553C9.9293 7.65562 9.73561 7.34804 9.60908 7.01143C9.48256 6.67482 9.42582 6.31616 9.44229 5.95709V3.85294H1.91631C1.40807 3.85294 0.920661 4.05416 0.561283 4.41232C0.201905 4.77048 0 5.25624 0 5.76275V39.0735C-1.06838e-06 39.3241 0.0496101 39.5721 0.145982 39.8035C0.242354 40.0349 0.383604 40.2451 0.561623 40.422C0.739642 40.5989 0.950928 40.7391 1.18339 40.8344C1.41586 40.9298 1.66492 40.9785 1.91631 40.9778H41.0893C41.3404 40.9785 41.5892 40.9298 41.8213 40.8343C42.0535 40.7389 42.2644 40.5987 42.442 40.4217C42.6196 40.2447 42.7603 40.0345 42.8561 39.8031C42.9518 39.5717 43.0007 39.3238 43 39.0735V5.76275C43.0007 5.51222 42.9519 5.264 42.8562 5.03232C42.7605 4.80064 42.6198 4.59007 42.4423 4.41266C42.2648 4.23524 42.0539 4.09449 41.8218 3.99844C41.5896 3.90239 41.3407 3.85293 41.0893 3.85294ZM39.9751 38.4573H3.02489V11.0425H39.9751V38.4573Z" fill="#9600FA"/>
      <path d="M32.3654 5.61289C32.3654 6.00161 32.2105 6.37441 31.9347 6.64928C31.6589 6.92414 31.2848 7.07854 30.8948 7.07854C30.5057 7.07707 30.1331 6.92202 29.8585 6.64731C29.5839 6.3726 29.4297 6.00065 29.4297 5.61289V1.46568C29.4297 1.07792 29.5839 0.705968 29.8585 0.43126C30.1331 0.156552 30.5057 0.00146879 30.8948 0C31.2848 0 31.6589 0.154428 31.9347 0.429295C32.2105 0.704162 32.3654 1.07696 32.3654 1.46568V5.61289Z" fill="#9600FA"/>
    </g>
    <defs>
      <clipPath id="clip0_163_5633">
        <rect width="43" height="41" fill="white"/>
      </clipPath>
    </defs>
  </symbol>

  <!-- Close -->

  <symbol id="close" width="50" height="50" viewBox="0 0 50 50" fill="none" xmlns="http://www.w3.org/2000/svg">
    <circle cx="25" cy="25" r="25" fill="#FFD443"/>
    <path d="M32.185 14.3823C32.408 14.1466 32.676 13.958 32.9731 13.8276C33.2702 13.6972 33.5905 13.6277 33.915 13.6231C34.2394 13.6186 34.5615 13.6792 34.8621 13.8013C35.1627 13.9234 35.4359 14.1045 35.6653 14.3339C35.8947 14.5634 36.0759 14.8365 36.198 15.1371C36.32 15.4378 36.3806 15.7598 36.3761 16.0843C36.3716 16.4087 36.3021 16.729 36.1717 17.0261C36.0413 17.3233 35.8526 17.5912 35.6169 17.8142L28.5039 24.9272C28.4945 24.9366 28.4871 24.9477 28.482 24.96C28.4769 24.9723 28.4742 24.9855 28.4742 24.9988C28.4742 25.0121 28.4769 25.0253 28.482 25.0376C28.4871 25.0498 28.4945 25.061 28.5039 25.0704L35.6169 32.1834C35.8454 32.4081 36.0271 32.6758 36.1516 32.9711C36.276 33.2664 36.3408 33.5834 36.3422 33.9039C36.3435 34.2244 36.2814 34.5419 36.1594 34.8383C36.0374 35.1346 35.8579 35.4038 35.6313 35.6305C35.4048 35.8571 35.1356 36.0366 34.8393 36.1587C34.543 36.2808 34.2254 36.343 33.905 36.3417C33.5845 36.3404 33.2675 36.2757 32.9721 36.1513C32.6768 36.0269 32.409 35.8453 32.1842 35.6168L25.0713 28.5039C25.0619 28.4945 25.0507 28.487 25.0384 28.4819C25.0261 28.4768 25.013 28.4742 24.9997 28.4742C24.9864 28.4742 24.9732 28.4768 24.9609 28.4819C24.9486 28.487 24.9374 28.4945 24.928 28.5039L17.8151 35.6168C17.5904 35.8453 17.3226 36.027 17.0273 36.1515C16.732 36.276 16.415 36.3408 16.0945 36.3421C15.7741 36.3434 15.4565 36.2813 15.1602 36.1593C14.8639 36.0373 14.5946 35.8579 14.368 35.6313C14.1413 35.4047 13.9618 35.1355 13.8398 34.8392C13.7177 34.5429 13.6555 34.2253 13.6568 33.9049C13.658 33.5844 13.7227 33.2674 13.8471 32.9721C13.9715 32.6767 14.1532 32.4089 14.3816 32.1842L21.4946 25.0712C21.504 25.0618 21.5115 25.0507 21.5166 25.0384C21.5217 25.0261 21.5243 25.0129 21.5243 24.9996C21.5243 24.9863 21.5217 24.9731 21.5166 24.9608C21.5115 24.9485 21.504 24.9374 21.4946 24.928L14.3816 17.815C13.9324 17.3585 13.6818 16.7431 13.6843 16.1027C13.6868 15.4622 13.9423 14.8488 14.3951 14.3959C14.8479 13.943 15.4613 13.6873 16.1018 13.6846C16.7422 13.682 17.3577 13.9324 17.8143 14.3815L24.9272 21.4945C24.9366 21.5039 24.9478 21.5114 24.9601 21.5165C24.9724 21.5216 24.9855 21.5242 24.9989 21.5242C25.0122 21.5242 25.0253 21.5216 25.0376 21.5165C25.0499 21.5114 25.0611 21.5039 25.0705 21.4945L32.185 14.3823Z" fill="#7C32BB"/>
  </symbol>

  <!-- Information -->

  <svg id="information" width="40" height="40" viewBox="0 0 40 40" fill="none" xmlns="http://www.w3.org/2000/svg">
    <path d="M9.99146 0.00857535L9.57264 1.39642C9.1742 1.45567 8.78016 1.54152 8.39315 1.65342L7.49572 0.539724L5.61537 1.39642L5.8034 2.83567C5.46015 3.05021 5.13177 3.28779 4.8205 3.54674L3.55556 2.89564L2.17948 4.42911L2.9487 5.62851C2.72508 5.964 2.52242 6.31304 2.34187 6.67366H0.897426L0.264955 8.62696L1.46153 9.40653C1.39259 9.80595 1.34977 10.2095 1.33333 10.6145L0 11.1713L0.213675 13.2274L1.61537 13.4416C1.71624 13.8347 1.84185 14.2209 1.99144 14.5981L0.999986 15.6519L2.03419 17.4424L3.41025 17.0654C3.51281 17.2025 3.62393 17.331 3.73504 17.4595L3.90596 17.6394L4.21367 17.9564L3.73504 19.3271L5.40169 20.535L6.50426 19.6355C6.8625 19.8271 7.23381 19.9932 7.61539 20.1324L7.73503 21.5716L9.74359 22L10.3846 20.7321H11.0171C11.2137 20.7321 11.4102 20.7321 11.5983 20.7321L12.2906 22L14.3077 21.5716L14.3761 20.1496C14.756 20.0096 15.1271 19.8465 15.4872 19.6612L16.6325 20.5179L18.2992 19.31L17.7863 17.9735C18.0769 17.6924 18.3482 17.3919 18.5983 17.074L20.0086 17.4081L21.0342 15.6176L20.0256 14.6153C20.1794 14.2388 20.3079 13.8524 20.4103 13.4587L21.7863 13.1674L22 11.1113L20.6752 10.6059C20.6588 10.2009 20.6159 9.79737 20.547 9.39795L21.735 8.54125L21.1026 6.58801L19.6838 6.65656C19.5014 6.29418 19.2988 5.94234 19.0769 5.60279L19.8291 4.36914L18.4872 2.88707L17.2137 3.53817C16.9054 3.27926 16.5798 3.04168 16.2393 2.82709L16.4188 1.38785L14.5384 0.531149L13.6837 1.64485C13.2936 1.53381 12.8968 1.44798 12.4957 1.38785L12.0769 0L9.99146 0.00857535Z" fill="#FFDC00"/>
    <path d="M12.4014 9.54688V18H9.76077V9.54688H12.4014ZM9.60452 7.36719C9.60452 6.99219 9.73994 6.6849 10.0108 6.44531C10.2816 6.20573 10.6332 6.08594 11.0655 6.08594C11.4977 6.08594 11.8493 6.20573 12.1201 6.44531C12.391 6.6849 12.5264 6.99219 12.5264 7.36719C12.5264 7.74219 12.391 8.04948 12.1201 8.28906C11.8493 8.52865 11.4977 8.64844 11.0655 8.64844C10.6332 8.64844 10.2816 8.52865 10.0108 8.28906C9.73994 8.04948 9.60452 7.74219 9.60452 7.36719Z" fill="#9600FA"/>
  </svg>

</svg>