<?xml version="1.0" encoding="UTF-8"?>
<svg id="_ÎÓÈ_1" data-name=" ÎÓÈ 1" xmlns="http://www.w3.org/2000/svg" xmlns:xlink="http://www.w3.org/1999/xlink" version="1.1" viewBox="0 0 2834.6 2834.6">
  <defs>
    <style>
      .cls-1 {
        fill: #582a84;
      }

      .cls-1, .cls-2, .cls-3, .cls-4, .cls-5 {
        stroke-width: 0px;
      }

      .cls-1, .cls-3, .cls-4, .cls-5 {
        fill-rule: evenodd;
      }

      .cls-6 {
        clip-path: url(#clippath);
      }

      .cls-2 {
        fill: none;
      }

      .cls-3 {
        fill: #ececec;
      }

      .cls-4 {
        fill: #868686;
      }

      .cls-5 {
        fill: #c6c6c5;
      }
    </style>
    <clipPath id="clippath">
      <rect class="cls-2" x="-1.7" y="2.1" width="2838.1" height="2830.3"/>
    </clipPath>
  </defs>
  <g class="cls-6">
    <g>
      <path class="cls-4" d="M1611.7,489.5c-.4,13.2,7.5,24.4,6.4,33.2-.8,6-3.9,6-4.3,12.9-.3,5.1,2.9,11.6,2.1,16.7-2,13.3-12.3,25.5-12.6,37.7-.3,15.7,12.6,28.6,14.7,43.9,2.3,17.7-2.2,38.4-10.5,48.1-31.4,36.8-111.7-8.6-133.9,29.3-11.3,19.3,1.3,38.4,0,62.8-1.6,29.6-21.5,43.2-16.7,71.2,2.6,15.3,20.1,18,31.4,33.5,9.5,13,11.1,27.1,16.7,33.5,10.5,12,29.1,18.3,41.9,29.3,33.3,28.8,68.4,72.5,96.3,117.2,37.5,60.2,87.3,147.4,50.2,236.5,10.1,50.5,35.6,97.3,37.7,152.8,1.1,30-10.2,58.5-12.6,90-2.6,34,6.8,73.1,4.2,108.8-.9,12-6.4,24.6-6.3,35.6.3,16.2,10.7,32.8,12.6,48.1,4,32.5-.4,68.9-8.4,98.4-2.4,8.8-8.2,15.8-8.4,25.1-.2,15.2,8.9,26.9,10.5,39.8,4.3,35.3-1.5,74.6-6.3,108.8-12.9,92.3-45.1,186.6-73.2,265.8,35.2,82.6,108.1,163.8,154.9,244.9,15.6,27.1,38,59.3,37.7,94.2-.2,18.3-9.3,33.4-14.7,56.5-5.4,23.7-4.9,50.3-12.5,67-7,15.2-23.3,29.9-37.7,31.4-12.5,1.3-19.1-8.7-35.6-10.5-12.9-1.3-27.7,6.1-37.7,4.2-16.9-3.3-18.3-16-27.2-25.1-19.2,8-38.9,2.6-50.2-8.4-13.3,78-34.8,156.9-56.5,232.3-23.1,80.1-41.7,159.8-78.9,223.9-25.3,43.5-21.6,32.9-13.9,81.8,5.2,33.1,5,72.5-5.6,100.3-5.5,14.4-22.7,23-31.4,39.8-6.2,12.1-9.3,27.8-14.7,39.8-8.3,18.5-23.1,33.6-29.3,52.3-9,27.1-9.9,67.6-12.6,104.7-2.7,37.6-3.5,76.4-6.3,110.9-5.7,69.9-22.2,133.5-31.4,203-9.8,73.8-6.2,147,0,221.8,5.4,64.9,12.5,150.6,33.5,198.8,10.1,23.2,36.3,40.1,60.7,58.6,45,34.2,82.2,59.9,129.7,92.1,22.2,15,45.7,32.7,69.1,41.9,30.7,12,75.4,8.5,106.7,12.6,37.5,29.1,3.7,96.1-48.1,90-7.1-.8-12.3-6.2-20.9-6.3-12.3-.2-25.4,6.2-35.6,6.3-28.4.3-62.7-9.4-100.5-12.6-78-6.5-178.4-16.1-263.7-6.3-19.4,2.2-37.6,6.6-50.2,4.2-34.4-6.6-58.9-54.1-58.6-94.2.2-27.9,12.6-53.2,23-77.4,3.9-9,9.5-16.4,10.5-23,1.9-13.3-1.9-34.8-4.2-52.3-13.6-105.4-56.6-205.1-94.2-288.8-44.6-99.4-97.9-204.6-90-347.4,5.8-104.5,50.3-180.9,90-255.3,13.2-24.7,29-49.7,39.8-75.3,9.8-23.5,14.1-52.5,20.9-79.5,6.9-27.4,14.6-54.8,14.6-83.7,0-50.5-11.9-103-16.7-154.9-9.7-103.1-12.6-215-12.6-330.7s11.8-136.6-2.1-184.2c-7.3-25.1-24.6-41.6-35.6-60.7-25-43.6-51.5-97.4-46-173.7,2.4-33.9,11.3-68.6,18.8-100.5,14.8-62.8,38.4-119.5,69.1-169.5,15-24.4,34.7-48.6,46-77.4,15.6-39.8,15.4-92.5,27.2-133.9-6.9-20.5-12.4-28.4-14.6-46-1.1-9.1,2.6-20.5,2.1-31.4-.9-18-11.2-39.3-16.7-58.6-15.5-54.5-37.5-110.3-64.9-154.9-17.6-28.7-36.8-60.5-56.5-92.1-18.5-29.7-41.9-60.8-54.4-92.1-26.8-67.1-14.9-169.2-4.2-244.9,5.7-40.3,7.4-80.5,18.8-115.1,11-33.2,26.3-64.6,41.9-94.2,15.4-29.5,38.2-54.1,52.3-81.6,26.2-51.3,38.7-118,33.5-198.8-1.5-22.8-2.3-48.5-6.3-64.9-2.8-11.6-12.4-24.4-18.8-35.6-28.6-49.7-60.7-106.7-60.7-186.3s21.1-124.5,43.9-161.1c66.6-106.7,316.2-128.9,416.5-31.4,25.4,24.7,37.2,60.3,52.3,100.5,5.3,14.1,20.6,33.3,20.9,46,.4,17.2-17,28.5-16.7,46,.3,20.2,19.6,34.8,31.4,50.2,10.8,14.2,28.6,32.8,27.2,54.4-1.2,19-13.9,28.6-35.6,31.4h0Z"/>
      <path class="cls-5" d="M1212,1996.3c-16.8,36.6-46.2,66.3-64.9,102.6-17.9,34.9-32.5,76.4-43.9,121.4-11,43-26.8,91.3-25.1,142.3,1.7,50.6,24.1,95.7,46,133.9,11,19.1,25.6,35,33.5,56.5,11.7,32,6.3,72.3,6.3,115.1,0,146.4-3,296.2,12.6,426.9,6.3,52.6,18.7,107.2,14.6,163.2-1.7,22.9-6.8,47.3-12.6,69.1-5.9,22.1-11.8,44.9-18.8,64.9-13.6,39-37.3,74.8-56.5,110.9-39.9,75-77.4,156.1-77.4,257.4s16.4,123.1,35.6,177.9c51.6,147.4,132.2,261.4,150.7,441.6,1.9,18.7,6.6,38.8,4.2,50.2-1.4,6.7-8.1,13-12.6,20.9-11.4,20.5-24.3,50.1-20.9,79.5,2.8,24.2,21.3,55.5,39.8,60.7,10.3,2.9,26-1.8,46-4.2,90.3-10.6,185.4-.4,263.7,6.3,35.7,3.1,69.1,12.2,98.4,12.6,12.2.2,25.1-6.2,39.8-6.3,16.6,0,27.1,7.9,39.8,4.2,15.5-4.5,26.8-19.5,25.1-41.9-17-10.5-38.4-6.4-56.5-8.4-59.8-6.5-84.7-27.1-125.6-54.4-49.7-33.2-91.9-58.1-138.1-94.2-22.5-17.6-48.7-39.2-58.6-58.6-12-23.5-17.3-60.1-23-96.3-16.5-104.7-28.5-224.2-14.6-334.9,8.1-65,25.3-135.5,31.4-209.3,2.8-34.3,5.7-73.9,8.4-113,2.7-39.1,2.6-80.9,12.6-108.8,5.7-16,22.9-31.1,31.4-50.2,6.2-13.9,6.7-29.6,12.6-41.9,8.6-17.8,28.5-30,33.5-46,8.9-28.8,7.5-104-8.4-113-2.1-1.2-10.8,6-10.5-4.2,22-35.6,46.6-69.3,62.8-110.9,16-41.1,28.4-86.8,41.9-131.8,26.9-89.7,50.7-185.2,69.1-280.4-1.5-8.9-9-2.7-12.5-4.2-3.1-1.3-5.4-5.6-8.4-8.4-20.1-18.7-9.4-43.5-10.5-71.2-.5-12.4-6.7-27.6-8.4-41.9-4.2-35.7,6.2-75.1,0-102.6-2-9-13.3-22.9-20.9-35.6-7.4-12.2-14.6-25.5-20.9-35.6-45-71.6-98.3-137.7-144.4-196.7-34.5-44.2-62.4-90.8-87.9-140.2-25.9-50.1-49.5-106.6-54.4-173.7-.1-1.3-.3-2.5-2.1-2.1-9.7,33.1-8.1,74.7-20.9,102.6h0ZM1255.9,4384.3c13,8.1,8,28.2,10.5,43.9,4.9,31.2,13.1,47.4,50.2,48.1-7.6,10.8-31.5,13.4-41.9,10.5-31.1-8.7-25.5-71.2-18.8-102.6h0ZM1517.5,175.6c-85.8-83.2-304.5-73.8-376.7,16.7-26.3,33-44.4,94.7-48.1,146.5-5.5,77.3,26.7,138.5,52.3,184.2,9.5,16.9,25.4,35.9,27.2,54.4,10.9,113,5.5,214.8-39.8,288.8-13.2,21.6-28,40.3-39.8,62.8-11.7,22.5-25.1,44.2-35.6,69.1-19.4,46.1-24.4,118.9-31.4,175.8-3.6,29.6-7.6,62.1-6.3,96.3,1.2,29,2.5,64.6,12.6,92.1,9.7,26.4,29.1,51.6,43.9,75.3,15.7,25.2,30.1,49.6,46,73.3-14.8-46.8,10.1-96.6,2.1-144.4-2.6-15.7-14.7-32.8-23-50.2-28.8-60.4-57.9-130.1-50.2-221.9,4.9-58.8,40.6-123.6,83.7-154.9,9.4-6.8,22.2-12.8,33.5-18.8,9.9-5.3,23.6-16,35.6-10.5-20.4,20.9-40.1,26.3-58.6,43.9-42,40-75.4,96.2-75.4,165.3s9,92.4,25.1,131.8c7.6,18.6,16.5,36.4,25.1,54.4,8.8,18.5,18.4,37.3,23,56.5,6.7,27.7-2.7,59.7-4.2,85.8-6.6,118.8,62.8,188.1,79.5,288.8,3.2,9.2,14.5-10.9,18.8,4.2-23.3,40.5-7.9,95,16.7,127.7,11.6,15.3,34.9,23.1,33.5,41.9-10.5,6.8-29.3-21.8-33.5-12.6,22.6,125.5,75.6,217.4,144.4,305.6,31.1,39.9,66.2,79.5,98.4,127.7,19.9,29.8,44.5,71.2,64.9,104.6,7.5,12.3,20.7,24.2,23,33.5,7,27.8-5.4,67.2-2.1,102.6,1.4,15.2,7.3,29.1,8.4,41.9,1.9,22-8,45.2,4.2,64.9,10.6,5.9,19.3,0,29.3,6.3,10.7,6.8,8.5,21.7,18.8,29.3,15.3-.1,23.3-5,33.5-2.1,14.7,4.2,14,17.5,27.2,25.1,8.7-2.6,21.2-6.4,37.7-4.2,12.8,1.7,18.6,9.3,27.2,8.4,20.4-2.3,26.5-30.8,29.3-52.3,1.6-12.5,1-25.7,4.2-37.7,5.1-19.2,14.9-30.2,14.7-46-.6-35.7-41.6-90.7-56.5-113-70.8-105.8-142.7-191.1-177.9-330.7-11.8-47-21.7-94-31.4-138.1-10.5-47.6-18.9-93.7-35.6-133.9-16.3-39.3-38.9-75.9-58.6-110.9-19.9-35.5-55.7-68.5-50.2-115.1,10.9-5,11.8,18.8,14.6,8.4,21.2-85.2,10.3-210-6.3-293-6.4-32.1-17.9-64.1-16.7-92.1,1.2-30.6,33.5-98.5,58.6-98.4,17.8,0,30.6,19.1,29.3,35.6-15.1-.2-14.5-16.2-31.4-14.6-12.1,22.1-33.4,45.6-35.6,75.3-2.2,30.4,12.3,67.6,18.8,106.7,16.3,98.1,22.5,222.9-2.1,316,42.2,71.9,98.2,149.7,121.4,244.9,24,98.5,36.1,201.6,75.4,290.9,22.7-75.9,50-156.5,62.8-242.8,4.4-29.8,10.1-64,8.4-94.2-1-16.9-12.7-34-12.6-52.3.2-17.1,9.5-34,12.6-50.2,3.3-17.4,7.1-37.1,6.3-56.5-.8-18.2-10.9-36.4-12.6-56.5-1.1-13.2,3-25.1,4.2-39.8,2.9-36.1-6-76.3-4.2-110.9,1.8-35.6,15.9-66.3,12.6-100.5-4.4-45-23.8-80.5-31.4-125.6-66.2,39.8-139.3-18.6-159.1-69.1,31.1,20.8,62.4,66.3,115.1,62.8,37.9-2.5,51.8-37.5,52.3-73.3,1-71.5-37-132.1-71.2-182.1-17.2-25.1-37-47.5-56.5-69.1-9.5-10.5-20.3-22.7-31.4-31.4-12.8-10-27.3-15.3-37.7-27.2-6.3-7.2-8.4-20.1-16.7-31.4-12.2-16.6-31.2-22.2-35.6-37.7-8-28.7,13.3-57.7,14.6-83.7.8-14.8-5.3-28.1-4.2-41.9,1.6-19.5,11.3-39.3,29.3-48.1,37.8-18.5,72.3,9.3,115.1-14.6,15.2-26.1-6-43.2-8.4-69.1-2-23.1,7.5-31.8,10.5-48.1,1.9-10.5,3.3-26.1,2.1-37.7-1.4-13.7-13.6-23.6-8.4-37.7,13.5-9.8,33.4-.8,37.7-16.7,2.9-10.8-16.6-34.1-27.2-48.1-11.2-14.7-26.7-29-29.3-46-3.3-22.1,5.1-31,14.6-56.5-25.7-48.6-32.4-98.4-67-131.8h0ZM1304.1,1793.3h6.3c21.7,11.1,21.2,61.2,2.1,75.3-12.6-1.9-4-16.3-4.2-25.1-.4-15.5-2.2-32.4-6.3-43.9-.6-3.4,2-3.6,2.1-6.3h0ZM1331.3,422.5c-18.4-2.6-18.9-24-37.7-27.2-23.5-4-56.9,20-60.7,37.7-6.8,32.1,27,77.6,43.9,92.1,9.7,8.3,27.4,10.3,31.4,25.1-15,.3-35.2-5.5-48.1-14.6-19.8-13.9-52.4-64.4-48.1-100.5,6.6-55.6,121.3-92.5,119.3-12.6h0ZM1329.2,571.1h6.3c9.4,36.2,24.9,60.9,52.3,79.5,9.3,6.3,20.3,11.4,27.2,20.9-55.6,1.9-90.6-35-85.8-100.5h0ZM1585.8,1619c11-25.4,22-50.7,33-76.1,12.7-22.4,33.8-43.1,63.4-62.1-34.4,42.2-70.5,84-77.4,133.1-11.4,33.8-17.7,35.5-19,5.1h0ZM1579,1791.5c8.6,49.3,14.1,97.9,15.1,145.3.3,34.9,11,30.4,9.3-23,2.6-38.1-13.5-133.5-24.4-122.2h0Z"/>
      <path class="cls-3" d="M1192.3,605.9c16.6,160.4-18.7,241.4-55.6,290-15.9,20.3-10.7,22.9,15.5,7.8,43.9-27.5,68.2-47.6,129.3-51,25.4-8.2,31.9-19.9,19.4-35-25.9-68.2-25.8-156.6-54.3-206.7-10.8-30.2-65.5-73.4-54.3-5.2h0Z"/>
      <path class="cls-3" d="M1305,625.9c7.5-26.3,24.5,47.6,54.3,52.3,40.1,45.1,61.8,93.1,65,144-1.4,56.3-7.8,52.7-14.9,40.5-18.3-74.2-106.1-138.3-104.4-236.8h0Z"/>
      <path class="cls-3" d="M1122,1008c-64.1,123.1-35.2,223.2,38.3,319.3,32.5,25.6,110.1,39.8,94.8,2.8-13.5-38-5.4-89.3-52.8-148.2-33-41.1-29.5-106.3-35.3-164.2-7.2-46.6-22.5-40-45.1-9.8h0Z"/>
      <path class="cls-3" d="M1182.1,972.4c7.7-51.2,74.3-43.3,100.5-5.6,68.6,108.2,54,269.3,17.4,363.9-11.4,24.9-18.2,43.4-33.7-17.3-22.2-188-59.2-111-74.4-220.5-3.5-25.2-9.6-71.3-9.8-120.5h0Z"/>
      <path class="cls-3" d="M1281.9,934.9c-19.7-37.8-25.4-64,66.2-9.5,82.4,57.2,110.9,193.4,52.4,276.8-55.9,67.6-56.2,33.4-50.9-2.3-5.6-101-14.1-205.6-67.7-265h0Z"/>
      <path class="cls-3" d="M1399.7,916.5c-9.9-54,52.8-16.5,109.5,41.5,4.8,4.9,16.1,16,19.5,22,16.6,39.3-7.4,108.6-44.4,175.3-15.7,31.9-38.4-6.9-29.1-29.2-5.1-158.3-36.5-131.9-55.5-209.7h0Z"/>
      <path class="cls-3" d="M1159.7,1404.1c1.6-85,117.8-9,133.3,44.1,26.3,94.9,59.7,190.8,61.9,282.3.6,62.1-18.4,60.9-46.4,31-41.6-128.7-78.9-98.1-109.5-138.2-50.7-76.8-45.5-155.9-39.3-219.2h0Z"/>
      <path class="cls-3" d="M1381.1,1298.1c-23.1-80.1-82,36.4-72.6,107.2,5.3,75.4,42.3,112.8,52.4,215.6,11.5,36.1,34.9,36.5,41.6-5.9,17.4-73.8,8.7-212-21.4-316.8h0Z"/>
      <path class="cls-3" d="M1547,1039.2c1.6-81.8,62.1,32,75,53.5,15.1,19.9,2.1,39.9-36,49-88.1,18.6-83.5,10.3-62.2-37.4,7.1-15.9,21.5-39.1,23.1-65.1h0Z"/>
      <path class="cls-3" d="M1632.7,1138.6c-25.7,12.7-51,19.1-99.2,22.8-48.3,5.1-25.1,44.7-4.6,70.8,89.8,98.6,123.4,60.8,136.6,40.2,27.3-55.8-10.8-150.6-32.8-133.9h0Z"/>
      <path class="cls-3" d="M1059.1,1250c-5.6-30.5-34.1-50.4-26.1,24.8.9,58.4,14.8,97.2,41.8,135.9,25.7,34.9,38.8-22.2,22.2-56.2-21.3-34.9-33.9-69.7-37.9-104.6h0Z"/>
      <path class="cls-1" d="M1212.5,2033.3c22.2-46.2,31.7-30.1,44.8,14.3,24.8,61.2,48.6,95.4,85.5,141.1,31.8,31.9,8.8,65.3-8,81-73.7,67-104.7,160.1-120.2,262.7-8.8,23.9-19.7,38.5-44.8-12.2-95.3-102.7-88.1-261.1,42.8-486.8h0Z"/>
      <path class="cls-1" d="M1653.3,1345.2c-16.8,2.8-33.7,3.2-27.2,45.2-1.2,36.1-4.9,72.4,15.3,87.9,27.1-.7,48-16.2,50.6-38,4-32.9-14.4-111.3-38.7-95.1h0Z"/>
      <path class="cls-1" d="M1637.1,1586.4c32.1-65.2,43.3-84.2,45.7-21.1,4.2,41.7,9.8,66.6-5.6,93.5-11.5,25.1-66.2,23.8-61.1-1.4,2.9-23.7,8.8-47.4,21.1-71h0Z"/>
      <path class="cls-1" d="M1614.5,1722.6c0-37.7,67.1-38.9,76.4-2,8,41.4,3.4,69.9-10.1,96-20.4,41.9-48.8,17.5-52.4-2-9.6-31.3-16.2-61.7-13.8-92.1h0Z"/>
      <path class="cls-1" d="M1631.5,1892.1c7.1-40.3,45.1-40.8,49.6,6.5,7.7,105.1-43.5,290.7-50.3,276.1-6-5.6-12-12.8-18-66.9,0-71.9,1.3-143.8,18.7-215.7h0Z"/>
      <path class="cls-1" d="M1579.9,1337.9c-23.4-25.9-33.7,1.9-44.5,9.1-15.5,10.3-33.8,16.9-26.2,25.7,20.9,30.4,39.9,63,35.3,83.8-5.1,23.6-73.1,18.6-75.3,50.2-4.7,62.3.6,123.8-9.5,183.1-7.2,21.4-1,35.1,12.5,46.5,39.7,46.5,61.2,93.5,80.3,154.5,15.2,45.5,21,40.4,17.6-15.3-2.3-74.7-35.5-173.3-17.6-245.7,10.2-39.5,46-60.5,49.3-109.3,9.2-84.9,8.1-153.5-22-182.6h0Z"/>
      <path class="cls-3" d="M1453.6,1369.3c-7.7,15.8,7.7,51.7,9.3,96.1,2.9,21.6,67.1-6.9,67.4-15.5.8-29.7-62.7-111.4-76.7-80.6h0Z"/>
      <path class="cls-3" d="M1479.1,1244.4c-14.7-22.9-16.9-18.5-33.6,8.8-17.3,24.9-17.5,55.2-7.1,77.2,18.4,35.4,81.6,8.8,92.4-5.3,19.6-13.4,9.2-27.9-4.7-34.8-18.5-9.6-38-25.4-47.1-46h0Z"/>
      <path class="cls-3" d="M1343,1888.2c-12.4-11.8-26.6,8.4-34.6,25.1-8.4,17.6-34.2,12.5-29.8,23.5,60.7,221.5,187.1,271.6,302,488.7,16.4,25.6,91.5,8,68.3-30-131.8-180.8-179.3-402.9-305.9-507.3h0Z"/>
      <path class="cls-3" d="M1400.8,1722.9c-31.9-41.5-34.2-20.9-31.1,28.2.7,26.1-.7,33.2-9,54.3-18.4,21.5-18.8,52,15.1,89.5,70.3,68.7,117.8,169.9,163.8,273.6,22.8,45.8,46,71.4,23.1-28.2-32.7-141.5-33.7-240.5-161.8-417.4h0Z"/>
      <path class="cls-3" d="M1189.8,2634.8c4.5-43.4,54.3-58.3,82.2,71.9,14.7,77.2,25.4,229.5,22.6,308.1-7.7,72.4-19,141.2-43.1,197.2-19.2,35.8-37,57.8-45.2-16.4-23.5-187.6-31.2-373.2-16.4-560.8h0Z"/>
      <path class="cls-3" d="M1451.7,2434.1c4.1-39.8,13-58.2,32.4-44.7,28.2,19.7,68.4,89.9,63.2,114.5-.3,89.5-6.8,187,20.9,218.2,22.3,35.2-86.8,451.2-153.2,475.5-57.4,18.8-60.6-57.4-60.3-111.5-27-205.4,66.4-432.9,97.1-651.8h0Z"/>
      <path class="cls-3" d="M1295.3,3534.1c20.5-43.5,38.9-66.9,41.6,49.9,6.1,161.9-49.4,282.3-36.6,515.7.5,83.2-5.5,118.1-18.3,29.9-20.8-176.9-28-365.4,13.3-595.6h0Z"/>
      <path class="cls-3" d="M1106.5,3537.5c29.9-60.4,39.9-52.1,29.9,24.9-24.6,117.2-16.5,237.7,3.3,359.3,22.2,107.6-27.2,77.6-58.2,23.3-51.8-135.9-47.4-271.7,24.9-407.6h0Z"/>
      <path class="cls-3" d="M1181.7,3471.8c46-88.8,107.6,8.4,87.4,71.9-33.9,215.1-44.1,447.5,19.7,734.1,17,65-44.5,73.3-74.7-71.9-48.9-254.8-115.4-514.2-32.4-734.1h0Z"/>
    </g>
  </g>
</svg>