<?xml version="1.0" encoding="UTF-8"?>
<svg id="_ÎÓÈ_1" data-name=" ÎÓÈ 1" xmlns="http://www.w3.org/2000/svg" xmlns:xlink="http://www.w3.org/1999/xlink" version="1.1" viewBox="0 0 2834.6 2834.6">
  <defs>
    <style>
      .cls-1 {
        clip-path: url(#clippath);
      }

      .cls-2 {
        fill: none;
      }

      .cls-2, .cls-3, .cls-4, .cls-5, .cls-6 {
        stroke-width: 0px;
      }

      .cls-3 {
        fill: #f47b0f;
      }

      .cls-3, .cls-4, .cls-5, .cls-6 {
        fill-rule: evenodd;
      }

      .cls-4 {
        fill: #ececec;
      }

      .cls-5 {
        fill: #868686;
      }

      .cls-6 {
        fill: #c6c6c5;
      }
    </style>
    <clipPath id="clippath">
      <rect class="cls-2" x="-1.7" y="2.1" width="2838.1" height="2830.3"/>
    </clipPath>
  </defs>
  <g class="cls-1">
    <g>
      <path class="cls-5" d="M1653.6,439.8c55.7.4,61.6,66,46.5,126.6-12.4,49.6-34.3,92-74.9,105.9-12.9,60.3-13.5,132.9-20.7,198.9,15.3,21.5,40.8,32.3,62,46.5,63.4,42.3,127.5,90,191.2,134.3,72.6,6.9,154.4,14.9,211.8,41.3,51.6,23.8,86.7,63.4,116.3,111.1,27.6,44.4,59.4,100.9,64.6,160.2,6,68.2-2.2,151.4-15.5,211.8-4.2,19.1-15.2,41.7-15.5,59.4-.2,13.8,8.3,37.8,12.9,56.8,21,86.2,33.7,189.1,25.8,304.8-2.8,41.2-13.4,85.2-10.3,124,2.7,33.7,22.2,68.4,33.6,98.2,13.3,34.7,21.9,66.8,25.8,105.9,7.8,77.4-2.7,158.7-18.1,235.1-21.7,107.8-41.3,221.7-51.7,343.6-3.5,41.2-9.1,85.4-7.7,124,1.4,38.5,14.1,79.8,20.7,118.8,8.7,51.4,26.7,107,10.3,152.4-5.3,14.9-12.5,21.3-25.8,36.2-8.9,10-14.1,24.9-23.2,36.2-8.6,10.6-22.2,15.7-33.6,28.4-14.6,16.4-20,28.7-28.4,31-23.7,6.5-56.3-4.4-77.5-10.3-19.1-5.3-47.5-13.6-59.4-25.8-13.8-14.2-12.3-35.2-20.7-51.7-9.9-19.4-25.9-20.9-36.2-33.6-26.5,202.2-55.5,399.4-126.6,563.2-12.9,29.7-29.8,59.3-33.6,95.6-4.1,39.5,3.3,80-2.6,121.4-2.6,17.8-10.8,36.5-10.3,54.3.8,31.8,17.4,66.8,25.8,100.8,23.6,95,45.9,206.4,46.5,325.5.7,157.8-43.1,300-82.7,434-27.5,93-56.3,202.1-74.9,312.6-7.2,42.6-20.3,90.2-12.9,129.2,6.2,32.8,33.2,67,56.8,98.2,18,23.8,31.8,40.3,56.8,59.4,8.5,6.5,17.9,18.4,25.8,20.7,40.9,11.5,91.6,23.2,90.4,62-.7,22.6-17,32.6-56.8,33.6-29.3.7-58.5,0-87.8,0-60.1,0-126.1,9-175.7,2.6-13.8-1.8-25.3-11.2-43.9-12.9-42.4-3.9-83.3,10.5-98.2-12.9-18.9-29.7,24.3-114.2,23.2-149.8-.6-20.7-10.8-41.6-10.3-62,.8-31.3,16.1-64.1,20.7-98.2,22.1-164.8,14.9-393-15.5-550.2-12.4-64.1-37.1-124-41.3-193.7-8.8,15-7.1,32.3-10.3,49.1-9,47.5-24.5,95-33.6,144.7-28.8,158.1-34.9,381.6-10.3,550.2,2.6,17.7,5.6,31.8,10.3,49.1,3.9,14.3,9.7,32.3,10.3,46.5.9,21.7-10.2,42.1-10.3,62-.3,53,38.6,97.3,25.8,152.4-12,22.3-61.6,10.8-95.6,12.9-20.6,1.3-32.4,12.9-56.8,12.9h-167.9c-55.8,0-134.5,8.3-142.1-23.2-8.8-36.4,29.2-56.1,54.3-64.6,8.8-3,20.3-3.3,31-7.7,30.8-12.8,65.3-50.3,85.2-77.5,18.3-24.9,51.6-68.7,56.8-103.3,5.5-36-5.6-80.5-12.9-121.4-19-106.1-49.6-223.1-77.5-317.7-39.5-133.9-87.8-271.7-87.8-439.2s27.8-257.6,56.8-372c4-15.7,12.3-32.5,12.9-46.5,1.3-29.2-13.2-61.2-15.5-93-2.6-35.8,3.2-80.7-5.2-111.1-12.9-47.3-40.9-91.3-56.8-142.1-45.1-143.4-85.8-316.5-100.7-488.2-8.7,1.3-23.1,12-31,20.7-12.5,13.6-13.8,50.5-28.4,64.6-14.4,13.8-41.1,17.6-62,23.2-28.9,7.8-69.3,24.5-90.4,0-3.2-3.7-4.4-14.2-10.3-20.7-9.4-10.2-23.5-16.3-33.6-28.4-20.9-25.1-42.6-44.5-51.7-69.7-13.5-37.6-1.3-94.3,7.7-147.2,6.6-39.1,18.1-79,20.7-111.1,3.1-38.8-4-83-7.7-126.6-10.3-120.2-29.3-237.5-51.7-348.8-15.2-75.7-32.1-150.4-23.2-237.7,4-39.1,13.3-73.7,25.8-108.5,11.6-32.4,31.1-66,33.6-98.2,3-37.7-10.5-79.7-12.9-121.4-6.4-110.2,2.4-217.6,23.2-307.4,4.3-18.5,12.9-38.7,12.9-54.3,0-17.8-8.6-38.6-12.9-56.8-12.4-52-21.2-121.6-20.7-188.6.5-71.4,29.2-129.2,59.4-180.8,28.3-48.4,68.6-96.9,118.8-121.4,43.4-21.1,99.7-29.4,152.4-36.2,17.3-2.2,23.5-.2,41.6-5.2,18.6-5.1,56-25.2,74.7-38.8,58.4-42.4,122.7-79.3,185.8-121.4-10.4-70.6-7.9-154-23.2-219.6-7.1-9.7-30.6-14.3-41.3-28.4-8.9-11.6-28.1-55.6-33.6-74.9-15.9-56.1-13-132.9,46.5-129.2-4.2-34.7-12.5-65.2-12.9-95.6-1.1-80,50.1-150.5,103.3-188.6,37.7-26.9,94.3-52.7,147.2-56.8,115.4-9.1,232.9,81.7,263.7,186,14.9,50.5,3.2,98.2-5.2,152.4h0ZM1857.7,2020.7c-8.5,18.4-24.1,38.1-25.8,51.7-1.5,11.9,3.3,34.9,5.2,51.7,8,72.8,17.9,156.5,2.6,222.2,51.7,82.1,36,201.6,54.3,307.4,5.8,33.3,16.2,67.1,23.2,98.2,31.4,138.3,30.1,290.5,41.3,444.3,13.4-47.6,48-87.9,64.6-139.5,9.6-29.9,13.8-68.7,18.1-105.9,4.3-37.5,10.6-79.1,10.3-116.3-.4-56-22.1-104.4-41.3-157.6-17.6-48.6-32.6-101.9-46.5-152.4-25.1-91.1-25.5-178.1-5.2-260.9,10.3-41.9,30.3-105,20.7-155-7.6-39.7-29.2-80.1-38.8-124-9.3-42.8-15.8-103.1-23.2-144.7-15.8,58.9-34.7,127.1-59.4,180.8h0ZM891.5,1994.9c-9.7,45.5-34.4,86.4-38.8,129.2-6.7,65.7,18.3,104.5,28.4,152.4,21.8,103.5,8.1,204.1-20.7,294.5-13,41-23.5,86.3-38.8,129.2-16.4,46.1-33.1,87.6-33.6,136.9-.3,33.7,5.9,68.9,10.3,103.3,4.5,34.7,7.3,70.2,15.5,100.8,15.4,57.5,48.5,106.3,72.3,157.6,5.7-154.1,5.1-301.9,31-426.2,8.9-42.8,22.8-85.5,28.4-124,12.2-83.8,5.3-167.9,25.8-237.7,6.6-22.4,21.5-45.6,23.2-67.2,1.7-21.7-6.8-45.2-7.7-67.2-3-68.4,7.4-136.6,15.5-204.1-42.8-63.9-63.1-150.4-90.4-229.9-5.2,53.2-10.3,103.8-20.7,152.4h0ZM1415.9,3113.5c-3.1,249.7-5.1,492.6-36.2,713-4.4,31.5-19.3,62.8-18.1,90.4.9,20.6,14.2,42.7,18.1,64.6,9.5,53.1,8.7,115.1,2.6,167.9-3.6,30.7-14.4,57.4-12.9,87.8,2,41.4,19.2,77.7,31,116.3,12.6,40.9,20,80.8,25.8,121.4-2.5-84.8,57.3-160.5,54.3-250.6-1.1-32.9-13.5-65.4-15.5-98.2-2.6-42.8-4.7-90,0-131.7,3-26.7,20.5-54,20.7-80.1.1-26.5-13.2-57-18.1-87.8-34.8-220.6-37.1-471.1-41.3-715.6-3.5.8-4.9,3.7-10.3,2.6h0Z"/>
      <path class="cls-6" d="M1240,1005.5c-11.7-5.1-12.8-23.6-15.5-36.2-3.3-15.6-5.7-31.7-7.7-46.5-67.8,38.1-150.2,86-213,129.2,41,3.5,54.4,21.5-6.3,25.8-118.4,5.6-229.1,22.5-289.3,82.7-43.7,43.7-100.3,139.9-105.9,214.4-5.2,68.3,5.6,150.9,18.1,204.1,4.9,20.6,12.6,42.1,12.9,62,.6,35.5-15.9,74.9-23.2,113.7-15.1,79.9-17.5,166.3-10.3,255.7,3.6,44.5,16,88.9,10.3,129.2-5.2,37.1-29,71.3-41.3,108.5-30.7,92.7-19.6,197.1,0,294.5,26.9,133.5,50.4,263.9,62,405.6,2.4,29.7,6.3,62.5,5.2,90.4-1.6,37.7-14.3,79.8-20.7,118.8-3.2,19.4-7.5,39.5-10.3,59.4-3.1,21.7-7.7,46.2-5.2,64.6,4.9,34.6,41.2,49.1,54.3,82.7,24.4,4.6,32.6,41.2,51.7,46.5,24.3,6.7,98.4-19.8,108.5-31,11.7-13,9.7-37.1,18.1-51.7,13.3-23.2,36.8-25.3,41.3-43.9,4.7-19.2-4.5-64.3-15.5-90.4-20.5-48.6-53-87.8-67.2-139.5-7-25.5-9-57.4-12.9-90.4-3.7-31-11-63-12.9-93-4.3-69.1,7.8-116.3,25.8-165.3,12.3-33.3,23.6-65.6,33.6-98.2,19.9-65,44.1-136.7,43.9-217,0-34.3-3.8-70.7-10.3-103.3-6-30.2-19.6-58-25.8-87.8-17.7-84.5,19.1-139.4,33.6-204.1,21.3-95.2,27-207.6,25.8-320.3-.1-13.6-5.9-33.6,2.2-46.5-40-72-76.1-206.2-64.7-227.5,15.2-54.8,34.9-78.4,61.2-102.7-10,24.9-20,49.8-30.1,74.7-8.3,25.6-9.7,51.2-4.1,76.8,20.3,112.4,66.9,184.7,145.2,208.5,59.1,9.7,120.7,2.5,182.6-7.3-53.2,26.6-124.2,37.3-227.2,19.7-22.9-6.1-30.8-10.8-40.5-18.7-.2,8.7-1.3,17.8-1.3,25.6,0,23.8-2,51.6,0,69.7,3.7,32.9,16.8,68.5,25.8,100.8,23.9,85.2,53.5,163.1,87.8,232.5,6.8,13.7,18.7,27.7,15.5,43.9-10.9,11.6-17.4-25.4-23.2-10.3-16.7,107.6-8.6,224.2,18.1,310,4.6,14.9,17.3,31.3,10.3,46.5-17-3.3-19.3-22.4-25.8-36.2-6.6-13.9-14.2-28.7-20.7-41.3-15.3,40.7-19.6,82.9-23.2,126.6-3.9,47.2-2.7,97.8-10.3,142.1-4.3,24.9-12.7,50.5-18.1,74.9-17.1,77.5-31,159.9-33.6,253.2-3.4,122-16.8,246.8-2.6,366.8,19.4,163.6,59.6,322.3,105.9,462.4,15.7,47.5,46.6,90.4,54.3,136.9,5,30.2-1.9,56.5,0,85.2,2,30.2,7.7,60.8,12.9,87.8,5.4,27.9,17.6,53.8,15.5,80.1-12.1,14.1-23-16-25.8-2.6-60.6,198.8-73.9,423.9-15.5,635.5,46.3,167.6,99.1,323.4,129.2,506.3,4.6,27.9,11.2,57.3,10.3,82.7-1.2,36.1-13.8,58.2-28.4,82.7-23.1,38.6-50.7,72.3-80.1,98.2-4.4,3.9-19.5,15.5-10.3,15.5,15.6-1.4,34.2,1.9,51.7,2.6,17,.6,37.4-4.6,49.1,5.2-19.1,9.7-45.8,8-72.3,10.3-60,5.3-124.7,1.8-139.5,46.5,22.8,9.3,47.9,5.2,72.3,5.2s52-.4,77.5,0c50,.7,100.8,6.9,147.2,0,12-1.8,22.1-8.8,33.6-10.3,30-4,57.4,5,85.2-2.6,5.1-52.8-28.9-90.6-28.4-139.5.2-19.9,11.5-39.8,10.3-62-1.2-24.1-13.4-45.8-18.1-69.7-5.1-26-5.3-54.4-7.8-80.1-16.1-171.5-12.3-336.5,18.1-501.2,9.6-52.3,24.8-98.3,33.6-144.7,20.4-108,11.3-225.6-18.1-317.7-14.4-45.2-34.1-95.9-33.6-144.7.4-32.4,13.5-63,15.5-93,2.7-41,3.9-84.9,0-126.6-2.5-26.2-18.4-52.6-20.7-80.1-3.5-42.5,13.1-70.7,18.1-108.5,30-226.2,32.3-473.3,36.2-723.3,16.3-4.6,49.7-5.3,59.4,5.2-2.1,246.7,8.7,500,38.8,713,4.3,30.6,15.6,60.9,18.1,90.4,3.4,40.6-12.8,56.4-18.1,85.2-10.7,58.5-5.2,135,5.2,186,3.9,19.3,10.4,37.6,10.3,56.8,0,48.7-19.3,96-33.6,142.1-30.5,98.5-31.3,208.9-12.9,312.6,8.2,45.9,23.4,92.3,33.6,144.7,21.5,110.6,27.3,217.9,28.4,325.5.9,86.7-1.2,175.2-12.9,250.6-3.8,24.2-15.9,47.2-18.1,72.3-2.2,25.4,10.4,45.4,10.3,69.7,0,20.8-10.2,45.8-15.5,67.2-5.6,22.4-13.6,44-12.9,69.7,26.7,12,56.3-2.6,90.4,2.6,10.4,1.6,20.1,8.8,31,10.3,45,6.6,99.9,0,149.8,0s77.8-.9,108.5-2.6c10.3-.6,25.8,4.9,33.6-5.2,6.2-16-12.8-23.2-23.2-28.4-36.1-18-111.7-15.2-155-20.7-10.3-1.3-25.9,3.4-31-7.7,29-7.2,67.6-4.8,103.3-5.2-19.3-23.2-46.1-45.4-67.2-74.9-28.8-40.3-58.9-81.1-54.3-147.2,7-99.5,34.9-199.3,59.4-297.1,23.3-92.9,52.6-185.6,77.5-281.6,52.3-201.9,38.4-417.4-23.2-625.2-7.8-8.1-2.5,8.4-10.3,7.7-5.8,5.8-12.9-.2-18.1-2.6,7.5-49.2,24.3-97.2,28.4-155,2.1-29.4-3.6-60.9,0-93,5.1-45.4,35.8-92.1,51.7-139.5,47.6-141.7,86.3-303.5,103.3-470.2,12.6-123-.8-245.6-5.2-366.8-3.3-92.7-16.7-176.6-33.6-253.2-5.8-26.5-16.6-51.2-20.6-77.5-13-84.6-3.2-178.8-33.6-258.3-9.4,1.8-7,13.3-10.3,20.7-3.1,6.8-9.3,13.2-12.9,20.7-6.2,12.7-9.1,37.5-25.8,33.6.9-24.5,13.6-50,20.7-77.5,21.6-84,21-189.4,5.2-281.6-6.8-5.9-9.8,25.1-23.2,12.9,7.6-29.6,22.9-57.8,36.2-87.8,25.8-58.4,46.4-117.6,64.6-183.4,9.2-33.1,22.4-67.1,25.8-100.8,1.8-18,0-47,0-72.3s-1.4-19.9-1.3-29.9c-12.7,10.6-19,15.8-45.8,23-103,17.6-174,6.9-227.2-19.7,61.9,9.7,123.5,17,182.6,7.3,78.4-23.9,125-96.1,145.2-208.5,5.5-25.6,4.1-51.2-4.1-76.8-10-24.9-20.1-49.8-30.1-74.7,26.3,24.3,46,48,61.2,102.7,11.1,20.7-22.6,147.7-61.2,221,12.8,15.1,6.5,38.8,6.5,55.7,0,122.3,6.6,232.5,31,325.5,10,38,27.8,73.4,33.6,108.5,10,60.2-12.4,113-23.2,157.6-6.4,26.4-11.3,54.2-12.9,82.7-6.7,115.8,34.7,224.6,64.6,312.6,22.5,66.2,46.6,119.5,41.3,204.1-4.1,65.9-15,161.7-38.8,219.6-22.4,54.5-80.6,134.3-67.2,191.2,5.8,24.5,33,26.3,43.9,46.5,8,14.8,6,39.3,18.1,51.7,24.4,24.9,74.6,21.1,108.5,31,9.6-8.2,16.3-18.5,25.8-28.4,9.1-9.5,20.3-15.9,28.4-25.8,3.7-4.6,4.2-13.2,7.8-18.1,11.9-16.2,33.6-29,38.7-46.5,10.4-35.4-5.8-88.6-12.9-131.7-6.6-40.1-17.9-80.2-20.7-116.3-4.3-56.5,4.1-122.2,10.3-183.4,5.8-57,14.2-115.5,23.2-170.5,18.9-115.5,55.1-224.8,46.5-343.6-2.9-39.9-14.2-78.1-28.4-116.3-13.4-35.9-34.3-74.4-36.2-108.5-2-37.5,10.5-79.7,12.9-121.4,5.2-88.1,2.7-174.8-12.9-250.6-7.8-37.9-26.2-77.6-25.8-111.1.2-18.3,8.3-37.6,12.9-56.8,13.4-56,22.1-128.8,18.1-193.7-3.1-50-21.5-94.6-43.9-134.3-22.5-39.8-44.5-75.8-74.9-103.3-67.5-61.1-174-61.2-284.2-74.9-53.5-4.2-46.3-22.7-10.3-23.2-73-45.8-136.9-100.8-214.4-142.1-2.9,15.3-8.9,33-12.9,51.7-3.4,15.9,0,42.4-18.1,46.5,6.2-68.7,12.4-137.4,18.1-206.7-40.5,32.4-74.3,91.7-126.6,113.7-34.4,14.5-67.9,17.2-108.7,0-53.6-22.6-81.5-74.7-124-113.7-1.6.1-3.1.4-2.6,2.6,4.1,67.3,15.8,140.9,15.5,204.1h0ZM1373.8,2245.8c20.4-49,64.2-44.3,80.9.6-49.6-44.3-76.1,19-80.9-.6h0ZM1301.1,1101c13.3,2.8,23.3,6.6,37,6.6,21.2,0,40.5,9.6,46.4,29.8,1.8,6.1,23.8,58.3-4,27.1-10.7-12-9.4-34.4-32.1-38.3-12.3-2.1-58.7-26.5-47.3-25.3h0ZM1523.9,1101c-13.3,2.8-23.3,6.6-37,6.6-21.2,0-40.5,9.6-46.4,29.8-1.8,6.1-23.8,58.3,4,27.1,10.7-12,9.4-34.4,32.1-38.3,12.3-2.1,58.7-26.5,47.3-25.3h0ZM1216.7,3864c28.4,46.5,93.5,70.8,97.5,48.3,2.6,4.5,14.1,25.6-20.3,27.7-15.5,0-45-17.7-56.1-28.8-15.2-15.2-18.6-31.5-21.2-47.3h0ZM1184.7,3889.7c-20.7,21.2-32.8,33.9-67,37.3,6.9,7.2,14.8,16,43.8,9.9,21.6-13,23.7-29.8,23.2-47.2h0ZM1134.6,4018.4c5.7,57.2,12.2,128.8,43.2,155.9,11,11.6,33.3,16.5,60.6,23.4-25.2,10.3-60.4,4.6-87.2-12.6-23.9-15.3-37.6-151.2-16.7-166.8h0ZM1316.3,3986.7c-.4,30.3.2,140.2-12.8,167.3-6.3,13.1-24.4,25.1-38.9,29.6,25.2,10.3,21.9,11.4,48.7-5.7,23.9-15.3,23.9-175.6,3-191.2h0ZM1635.3,3864c-28.4,46.5-93.5,70.8-97.5,48.3-2.6,4.5-14.1,25.6,20.3,27.7,15.5,0,45-17.7,56.1-28.8,15.2-15.2,18.6-31.5,21.2-47.3h0ZM1667.4,3889.7c20.7,21.2,32.8,33.9,67,37.3-6.9,7.2-14.8,16-43.8,9.9-21.6-13-23.7-29.8-23.2-47.2h0ZM1717.5,4018.4c-5.7,57.2-12.2,128.8-43.2,155.9-11,11.6-33.3,16.5-60.6,23.4,25.2,10.3,60.4,4.6,87.2-12.6,23.9-15.3,37.6-151.2,16.7-166.8h0ZM1535.7,3986.7c.4,30.3-.2,140.2,12.8,167.3,6.3,13.1,24.4,25.1,38.9,29.6-25.2,10.3-21.9,11.4-48.7-5.7-23.9-15.3-23.9-175.6-3-191.2h0ZM1632.9,455.3c2.8-29.7,6.5-56.5,7.7-85.2,3.3-75.4-21.7-122.6-56.8-160.2-37-39.6-106.5-78.4-170.5-82.7-72.7-4.8-138.8,31.8-186.2,82.7-27.4,29.3-53,70.9-56.8,121.4-3.6,46.7,4.6,88.7,7.8,126.6.9,11.1,10.5,30.5-5.2,38.8-17.1-.1-2.9-31.5-23.3-28.4-19.8.9-22.9,32.4-20.7,59.4,3.6,44,27.9,99.8,51.7,113.7-1-12.2.2-22.2,12.9-20.7,17.9,39.1,13.7,83.4,28.4,121.4,13.7,35.3,41.6,64,67.2,90.4,31.5,32.6,65.3,64.3,116.3,67.2,61.5,3.4,84.8-34.4,116.5-67.2,43-44.4,67.6-80.7,80.1-152.4,3.9-22.2,4.1-48.8,18.1-59.4,10.5-.2,11.1,9.6,10.3,20.7,24.7-14.2,63.2-97.3,51.7-149.8-2.6-11.7-12.9-26.7-23.2-23.2-16.6,5.6-2.2,24.1-23.2,28.4-10.9-11.8-3.8-28.8-2.6-41.3h0Z"/>
      <path class="cls-4" d="M1084.5,1123.7c-132.5,58.5-255.2,178.7-338.6,386.1-15.9,8.2-39.8-4.1-23.6-108.4,23.3-86.9,12.8-137,102.3-262,73.4-77.9,277.7-45.5,259.8-15.8h0Z"/>
      <path class="cls-4" d="M823.5,1125.5c-98.3,96.7-145,292.3-117.8,424.6-20.1,73.6-43.3,119.4-58.9,75.6-60.5-237.6-11.5-382.2,101.2-474.7,14-10.4,68-35.7,75.5-25.5h0Z"/>
      <path class="cls-4" d="M827.9,1514c-11.9-60.1-27.4-96.9-67.6,29.6-76.2,175.5-64.4,347.5-67.6,517.3,7.6,124.3,61.9,107.9,107.7,44.3,53.4-92.2,104.5-377.9,27.4-591.2h0Z"/>
      <path class="cls-4" d="M676.5,1656.7c33.2-42.9,40.2-35,21,23.6-19.9,123.2-32.5,245.4-17.1,396.8,0,48.7-38.9,64.1-51.2,25-26.2-183.6-31.8-349.5,47.3-445.4h0Z"/>
      <path class="cls-4" d="M612.8,2210c34.5-104.3,147.9-57.8,139.6,83.3,25.4,214.6-20,405.3,0,630.5-6.8,68.3-21,73.6-33.8,15.8-27.9-281.9-157.4-574.1-105.8-729.6h0Z"/>
      <path class="cls-4" d="M569.3,2397.2c14.2-99,20.8-9.2,30.2,44.7,29.3,182.4,95.2,358.6,107.7,537.8-.9,39.7-39,48.9-53.9,34.2,1.2-179.4-94-551.2-84.1-616.7h0Z"/>
      <path class="cls-4" d="M808.4,2185.7c-29.7-26.7-43.3-13.1-40.8,40.8,12.7,140.8,25,281.6-3,418.4-2,58.4,6,66.5,24.2,24.2,59-157.8,89.7-317.4,19.6-483.3h0Z"/>
      <path class="cls-4" d="M1743.5,1123.7c132.5,58.5,255.2,178.7,338.6,386.1,15.9,8.2,39.8-4.1,23.6-108.4-23.3-86.9-12.8-137-102.3-262-73.4-77.9-277.7-45.5-259.8-15.8h0Z"/>
      <path class="cls-4" d="M2004.4,1125.5c98.3,96.7,145,292.3,117.8,424.6,20.1,73.6,43.3,119.4,58.9,75.6,60.5-237.6,11.5-382.2-101.2-474.7-14-10.4-68-35.7-75.5-25.5h0Z"/>
      <path class="cls-4" d="M2009.2,1514c11.9-60.1,27.4-96.9,67.6,29.6,76.2,175.5,64.4,347.5,67.6,517.3-7.6,124.3-61.9,107.9-107.7,44.3-53.4-92.2-104.5-377.9-27.4-591.2h0Z"/>
      <path class="cls-4" d="M2160.6,1656.7c-33.2-42.9-40.2-35-21,23.6,19.9,123.2,32.5,245.4,17.1,396.8,0,48.7,38.9,64.1,51.2,25,26.2-183.6,31.8-349.5-47.3-445.4h0Z"/>
      <path class="cls-4" d="M2224.3,2210c-34.5-104.3-147.9-57.8-139.6,83.3-25.4,214.6,20,405.3,0,630.5,6.8,68.3,21,73.6,33.8,15.8,27.9-281.9,157.4-574.1,105.8-729.6h0Z"/>
      <path class="cls-4" d="M2267.8,2397.2c-14.2-99-20.8-9.2-30.2,44.7-29.3,182.4-95.2,358.6-107.7,537.8.9,39.7,39,48.9,53.9,34.2-1.2-179.4,94-551.2,84.1-616.7h0Z"/>
      <path class="cls-4" d="M2028.7,2185.7c29.7-26.7,43.3-13.1,40.8,40.8-12.7,140.8-25,281.6,3,418.4,2,58.4-6,66.5-24.2,24.2-59-157.8-89.7-317.4-19.6-483.3h0Z"/>
      <path class="cls-4" d="M1212.9,1012.9c21,62.9,32.9,53.5-39.6,48.4-149.8-10.4-144.6-6.9-20-74.8,59.1-32.2,40.6-30.4,59.5,26.4h0Z"/>
      <path class="cls-4" d="M1249.3,865.1c2.9,59,31.7,148.3,57.9,188.4,38.3,58.6,84.6,51,78.4,23.8-46-65-51.1-140.2-66.2-162.9-36.7-23.5-65.3-81.4-70-49.2h0Z"/>
      <path class="cls-4" d="M1140.8,1126.6c53.2-17,260.2,66.9,226.4,77.6-142.3,45.8-280.6,76.8-439,181.8-54.9,29-59.3,15.8-39.7-37.9,39.5-123.8,137.1-178.6,252.4-221.5h0Z"/>
      <path class="cls-4" d="M971.7,1373.9c-29.8,15.8-56,30.7-71,40.9-26,17.5-23.8,26.6,7.1,19.8,31.8-7,65.8-6.9,98.2-5,172,10.1,314.6,71.3,377.1,63.3,22.1,2.8,17-249.7-18.7-250.3-157,20.7-271.9,60.6-392.6,131.3h0Z"/>
      <path class="cls-4" d="M937.2,1443.3c-59.1,3.7-59.5,12.1-55,56.1,18.7,67.4,58.8,127.9,120,140.3,132.1,26.7,312.7-36.5,336-40.7,31.4-10.3,70-43,20.3-71.6-122.1-58.5-351.3-93.1-421.2-84.2h0Z"/>
      <path class="cls-3" d="M1184.2,1690.7c-23.1,18.6-40.8,103.8-10.6,103.8,25.9-1.8,42.4-19.6,88.8-24.7,38.4-4.3,80.1-.7,104.1-4.5,41.2-20.4,37.2-132.6-1.3-135.7-67.4,3.4-135.6,9.9-180.9,61.2h0Z"/>
      <path class="cls-3" d="M1173,1819.9c42-28.3,146.6-42.2,200.1-27.1,25,11.9,24.5,123.3,8.7,164.2-17.6,30.6-121.5,12-196,32-52.3,20.1-57-137.1-12.8-169.2h0Z"/>
      <path class="cls-3" d="M1175.7,2022.8c35.7-21.5,130.5-28,176.6-23,54.7,4.1,42,164.2,19.6,177.5-25.3,21.5-19.6,39.6-44.9,65.7-20,13.4-72.2,17.7-102.5,31.1-64.9,18.4-84.1-236.3-48.8-251.2h0Z"/>
      <path class="cls-3" d="M1214.8,2319.9c46.6-26.7,93.1-45.1,139.7-39.9,30.2,8,35.1,24.8,34.6,41.2,4.1,131.3,3.7,258.2,4,385.8-2.7,46.6-51.9,85.1-85.1,17.3-70.1-115.3-142.8-382.2-93.1-404.4h0Z"/>
      <path class="cls-4" d="M1598.3,1012.9c-21,62.9-32.9,53.5,39.6,48.4,149.8-10.4,144.6-6.9,20-74.8-59.1-32.2-40.6-30.4-59.5,26.4h0Z"/>
      <path class="cls-4" d="M1568.1,865.1c-2.9,59-31.7,148.3-57.9,188.4-38.3,58.6-84.6,51-78.4,23.8,46-65,51.1-140.2,66.2-162.9,36.7-23.5,65.3-81.4,70-49.2h0Z"/>
      <path class="cls-4" d="M1682.6,1126.6c-53.2-17-260.2,66.9-226.4,77.6,142.3,45.8,280.6,76.8,439,181.8,54.9,29,59.3,15.8,39.7-37.9-39.5-123.8-137.1-178.6-252.4-221.5h0Z"/>
      <path class="cls-4" d="M1851.7,1373.9c29.8,15.8,56,30.7,71,40.9,26,17.5,23.8,26.6-7.1,19.8-31.8-7-65.8-6.9-98.2-5-172,10.1-314.6,71.3-377.1,63.3-22.1,2.8-17-249.7,18.7-250.3,157,20.7,271.9,60.6,392.6,131.3h0Z"/>
      <path class="cls-4" d="M1886.2,1443.3c59.1,3.7,59.5,12.1,55,56.1-18.7,67.4-58.8,127.9-120,140.3-132.1,26.7-312.7-36.5-336-40.7-31.4-10.3-70-43-20.3-71.6,122.1-58.5,351.3-93.1,421.2-84.2h0Z"/>
      <path class="cls-3" d="M1639.2,1690.7c23.1,18.6,40.8,103.8,10.6,103.8-25.9-1.8-42.4-19.6-88.8-24.7-38.4-4.3-80.1-.7-104.1-4.5-41.2-20.4-37.2-132.6,1.3-135.7,67.4,3.4,135.6,9.9,180.9,61.2h0Z"/>
      <path class="cls-3" d="M1650.5,1819.9c-42-28.3-146.6-42.2-200.1-27.1-25,11.9-24.5,123.3-8.7,164.2,17.6,30.6,121.5,12,196,32,52.3,20.1,57-137.1,12.8-169.2h0Z"/>
      <path class="cls-3" d="M1647.7,2022.8c-35.7-21.5-130.5-28-176.6-23-54.6,4.1-42,164.2-19.6,177.5,25.3,21.5,19.6,39.6,44.9,65.7,20,13.4,72.2,17.7,102.5,31.1,64.9,18.4,84.1-236.3,48.8-251.2h0Z"/>
      <path class="cls-3" d="M1608.6,2319.9c-46.6-26.7-93.1-45.1-139.7-39.9-30.2,8-35.1,24.8-34.6,41.2-4.1,131.3-3.7,258.2-4,385.8,2.7,46.6,51.9,85.1,85.1,17.3,70.1-115.3,142.8-382.2,93.1-404.4h0Z"/>
      <path class="cls-4" d="M946.6,1680.2c-25.5-5.1-23.4,25.1-6.1,35.2,49.5,50.3,128.4,120.8,180.4,133.3,15,4.4,1.6-46.8,6.8-87,5.5-42.7,23.6-80.3,6.3-76.1-52.4,15.2-126.6,10.3-187.3-5.5h0Z"/>
      <path class="cls-4" d="M942.7,1742.5c53,51.6,115.2,108.8,172.8,129.7,19.1,2.3,5.6,89.9,11.8,158.9,6.2,69,27.6,169.4,9.8,156.3-59.7-31.3-134.3-154.5-191-370.9-21-68-18.3-77.8-3.4-73.9h0Z"/>
      <path class="cls-4" d="M1071.9,2161.8c-36.5-33.9-42-21.3-44.1,38-4.6,121.6,28.9,197.5,100.3,268.9,47.6,59.3,68.9,56.2,51.7-18.2-17.7-90,0-162.7-107.9-288.7h0Z"/>
      <path class="cls-4" d="M1878.6,1680.2c25.5-5.1,23.4,25.1,6.1,35.2-49.5,50.3-128.4,120.8-180.4,133.3-15,4.4-1.6-46.8-6.8-87-5.5-42.7-23.6-80.3-6.3-76.1,52.4,15.2,126.6,10.3,187.3-5.5h0Z"/>
      <path class="cls-4" d="M1882.4,1742.5c-53,51.6-115.2,108.8-172.8,129.7-19.1,2.3-5.6,89.9-11.8,158.9-6.2,69-27.6,169.4-9.8,156.3,59.7-31.3,134.3-154.5,191-370.9,21-68,18.3-77.8,3.4-73.9h0Z"/>
      <path class="cls-4" d="M1753.3,2161.8c36.5-33.9,42-21.3,44.1,38,4.6,121.6-28.9,197.5-100.3,268.9-47.6,59.3-68.9,56.2-51.7-18.2,17.7-90,0-162.7,107.9-288.7h0Z"/>
      <path class="cls-4" d="M998,2489.8c9.8-105.8,93.8,60.6,66.9,126-11.5,38.1-27.7,73.7-34.5,114.2-11,55-47.2,38.9-42.5-29.2,6.2-64.8-1.3-144.6,10.1-210.9h0Z"/>
      <path class="cls-4" d="M1167.3,2617.7c130.2,221.3,126.1,304.3,39.8,704.4-11.8,91.7-25,151.9-48.6-8.8-24.1-227.9-152.8-401.3-72.2-683.8,15.2-39.3,18.7-122.8,81.1-11.8h0Z"/>
      <path class="cls-4" d="M971.3,2878.2c16.5-109.9,35.9-113.5,58.2-10.8,81.2,318.4,149.5,631.7,144.3,915.5-12.8,85-32.9,146.9-103.4,47.4-126.1-268.1-168.3-580.6-99.1-952.1h0Z"/>
      <path class="cls-4" d="M1294.4,3041.9c32.3-95.5,53.1-81.9,62.5,40.9,12.9,244.1,7.2,496.9-23.7,732.4-8.6,101.2-129.2,38.8-135.7-116.3-9.8-176.9,37.6-411,96.9-657h0Z"/>
      <path class="cls-4" d="M1088.7,4294.6c31.1-146.9,108.9-61,145.6,166.4,37.5,222.6-49.7,462.5,62,924.7,15.8,55.6-5.6,73.3-19.1,78.5-19.7,7.6-47.5-20.1-51.4-41.9-74-427.3-263.8-724.7-137.1-1127.8h0Z"/>
      <path class="cls-4" d="M1287.5,4286.8c-7.8-100.4,36.6-109.1,62.8,44.5,80.5,281.1,3.6,382.3-20.9,560.2-8.7,97.7-35.8,95.1-31.4-34-3.5-190.2,27-356.9-10.5-570.7h0Z"/>
      <path class="cls-4" d="M1841.8,2489.8c-9.8-105.8-93.8,60.6-66.9,126,11.5,38.1,27.7,73.7,34.5,114.2,11,55,47.2,38.9,42.5-29.2-6.2-64.8,1.3-144.6-10.1-210.9h0Z"/>
      <path class="cls-4" d="M1678.6,2617.7c-130.2,221.3-126.1,304.3-39.8,704.4,11.8,91.7,25,151.9,48.6-8.8,24.1-227.9,152.8-401.3,72.2-683.8-15.2-39.3-18.7-122.8-81.1-11.8h0Z"/>
      <path class="cls-4" d="M1874.6,2878.2c-16.5-109.9-35.9-113.5-58.2-10.8-81.2,318.4-149.5,631.7-144.3,915.5,12.8,85,32.9,146.9,103.4,47.4,126.1-268.1,168.3-580.6,99.1-952.1h0Z"/>
      <path class="cls-4" d="M1551.5,3041.9c-32.3-95.5-53.1-81.9-62.5,40.9-12.9,244.1-7.2,496.9,23.7,732.4,8.6,101.2,129.2,38.8,135.7-116.3,9.8-176.9-37.6-411-96.9-657h0Z"/>
      <path class="cls-4" d="M1757.2,4294.6c-31.1-146.9-108.9-61-145.6,166.4-37.5,222.6,49.7,462.5-62,924.7-15.8,55.6,5.6,73.3,19.1,78.5,19.7,7.6,47.5-20.1,51.4-41.9,74-427.3,263.8-724.7,137.1-1127.8h0Z"/>
      <path class="cls-4" d="M1567.6,4286.8c7.8-100.4-36.6-109.1-62.8,44.5-80.5,281.1-3.6,382.3,20.9,560.2,8.7,97.7,35.8,95.1,31.4-34,3.5-190.2-27-356.9,10.5-570.7h0Z"/>
    </g>
  </g>
</svg>