<?xml version="1.0" encoding="UTF-8"?>
<svg id="_ÎÓÈ_1" data-name=" ÎÓÈ 1" xmlns="http://www.w3.org/2000/svg" xmlns:xlink="http://www.w3.org/1999/xlink" version="1.1" viewBox="0 0 2834.6 2834.6">
  <defs>
    <style>
      .cls-1 {
        clip-path: url(#clippath);
      }

      .cls-2 {
        fill: none;
      }

      .cls-2, .cls-3, .cls-4, .cls-5, .cls-6 {
        stroke-width: 0px;
      }

      .cls-3 {
        fill: #e73f32;
      }

      .cls-3, .cls-4, .cls-5, .cls-6 {
        fill-rule: evenodd;
      }

      .cls-4 {
        fill: #ececec;
      }

      .cls-5 {
        fill: #868686;
      }

      .cls-6 {
        fill: #c6c6c5;
      }
    </style>
    <clipPath id="clippath">
      <rect class="cls-2" x="-1.7" y="2.1" width="2838.1" height="2830.3"/>
    </clipPath>
  </defs>
  <g class="cls-1">
    <g>
      <path class="cls-5" d="M1626.9,125.3c-3.9,47.9-19.7,84.1-34.6,121,7.5,30.3,7.1,68.6,17.3,96.4,76.8,42.6,153.7,85.1,222.3,135.8,71.3,6,136,12.1,187.7,46.9,28.1,19,50.3,43.1,74.1,69.1,50.7,55.4,98.7,102.1,106.3,200.1,2.8,36.1.5,77.7-2.4,116.1-2.9,36.2-4.2,73.1-17.2,101.3,24.2,46.2,51.4,95.8,64.2,153.2,13.3,59.2,22.1,129.8,17.3,200.1-4.7,67.5-10.7,135.4,7.4,200.1,16.3,58.2,33.1,114.5,37,177.8,6.2,100.1-25.2,193.7-51.9,281.6-13,42.6-26.5,84-42,123.5-15.9,40.5-39.1,78.3-49.5,116.1-5.7,20.7-4.7,46.8-9.9,64.2-6.1,20.6-26.2,38.3-29.7,59.2-4.5,26.9,2.8,70.8,5,101.3,2.8,38.7,8.8,84.5,0,113.6-7.3,24.3-30.2,42-44.5,61.8-14.8,20.4-24,51.6-49.4,59.2-51.6,15.6-87.3-27.7-118.6-46.9-25.2,199.6-54.5,395.1-133.4,541,6.1,81.8-3.5,167.2-14.8,242.1-3.8,24.4-5,50-17.3,69.1,75.8,173.8,88.8,416,37,610.2-24.2,90.4-63.1,176.1-88.9,266.8-22.1,77.9-41.3,164.6-44.5,266.8-.4,14.6-4.3,30.9-2.4,42,2.8,17,20.7,34.1,34.6,51.9,13.2,16.8,26.6,34.8,37,46.9,21.8,25.3,77.9,60,76.6,91.4-2.5,59.8-126.1,25.4-182.8,29.7-38.5,3-100,21.8-145.7,7.4-60-19-36.8-98.9-24.7-163.1,19.9-105.7,28-226.7,32.1-345.9,6.3-182.1-35.4-301.8-61.8-442.2-25.9,136.5-68,262.3-61.8,442.2,4.1,117.9,11.6,236.9,32.1,345.9,11.5,61.1,37.6,144.1-24.7,163.1-45.4,13.8-100.3-3.7-143.3-7.4-51.7-4.5-179.5,29.7-185.3-27.1-3.2-30.9,59.8-74.3,76.6-93.9,11.6-13.5,24.4-30.8,37-46.9,13.2-16.8,31.7-34.2,34.6-49.5,3.3-17-1.3-61.4-2.4-86.5-1.4-28.9-5.9-56.5-9.9-79-19-107.3-45.7-186.5-79-276.7-16.3-44.1-29.6-89.4-42-135.8-26.4-98.8-37.1-203.9-32.1-318.7,4.5-103.1,31-203.1,66.7-289-16.7-43.4-21.6-93.5-27.1-148.3-4.1-40.3-7.2-81-7.4-123.5,0-12.8,4.1-28.7,2.4-39.6-1.9-12.6-20.1-43.1-27.1-59.2-59.2-134.8-83.1-308.8-106.3-481.7-9.4.4-17.9,10.5-27.1,17.3-18,13.3-56.3,37.7-91.4,27.1-23.2-7-31.1-33.7-46.9-56.8-16.7-24.5-42.1-38.3-49.5-66.7-6.7-26.5-2-71.6,0-106.3,2-33.9,12-71.1,7.4-103.8-3-20.8-20.2-37.1-27.1-56.8-6.3-17.7-6.6-44.7-12.3-66.7-9.7-37.8-31-77.7-46.9-118.6-15.3-39.2-31.7-78.7-44.5-121-26.3-87.1-56.6-179.9-51.9-279.1,3.1-63.3,18-123.7,34.6-182.8,18-64.5,17.4-131,12.3-200.1-10.2-137.4,21.9-255.6,76.6-350.8-23.8-114.5-28.9-262.7,17.3-338.4,17.8-29.4,47.1-54.8,71.7-81.5,29.4-32.1,55.6-65.6,93.8-84,36.5-17.5,77.5-20.5,121-27.1,14.1-2.1,31.4-1.4,44.5-4.9,17.5-4.8,34.8-23.7,54.4-37,51.5-35.3,119.5-68,170.5-98.8,10.2-26.9,9.2-65,17.3-93.9-13.5-38.4-30.2-73.6-34.6-121-10.3,1-25,3.4-37-4.9-25.8-17.8-83.1-180-12.3-205.1-22.7-107.6,10.7-206,61.8-266.8,47-56,122.5-91.8,224.7-84,54.7,4.2,110.3,27.2,148.3,59.2,70.6,59.7,102.1,167.5,86.5,289-1.8,8.4,11.1,9.1,17.3,17.3,25,33,13.7,94.4-2.4,135.8-15,38.5-27.6,69-66.7,56.8h0l-.5.2ZM1384.8,3163.7c-6.1,44.2-13.6,90.6-12.3,133.4,1.3,46.5,17.1,93.5,19.8,140.8,3.6,65-9.6,123.5-22.2,185.3,15.3,57.2,34.3,110.6,44.5,172.9,8.2-2.1,6.1-14.3,7.4-19.8,12.6-53.5,28.6-104,42-153.2-12.6-62.6-26.3-122.2-22.2-187.7,3-47.6,18.9-93.8,19.8-140.8.8-42.1-6.7-86.9-12.3-130.9-17-134.2-24.5-268.9-32.1-400.2-1.9,139.4-14.9,274.8-32.1,400.2h-.1ZM1829.4,1491.3c15.4,85.2,12.2,209.6-5,281.6,30.1,60.7,58.6,116.7,64.2,195.2,2.4,33.8-6.6,72.1-2.4,101.3,2.5,17.6,17.8,41.8,27.1,64.2,9.1,22,19.9,45.4,24.7,69.1,10.8,53.3,2.4,100.1-7.4,150.7,15.7-14.3,38.4-35.2,39.6-54.4,3.9-70,17.6-144.4,17.3-217.4-.5-88.2-31.5-154.5-42-229.7-19.8-141.8-1-265.1,44.5-365.6-28.8-60.2-40.9-136.9-56.8-210-24,82.3-66.9,145.5-103.7,215h0ZM843.8,1486.4c46.2,103.3,64.8,228.7,44.5,368.1-8.9,60.8-32.5,119.3-39.6,182.8-6,54.6,1.2,102.4,7.4,153.2,6.6,53.6,1.7,112.1,24.7,143.3,5,6.7,15.5,17,22.2,17.3-8.4-35.2-12.6-64.2-12.3-98.8.4-49.9,15.3-83.9,29.7-118.6,9.7-23.6,24.9-47.9,27.1-66.7,4.2-35.1-4.9-69.3-2.4-101.3,6-78,36.1-133.2,64.2-195.2-17.8-70.6-19.9-195-4.9-279.1-38.4-68.6-78-136.1-106.3-215-10.9,77.2-27.2,149-54.4,210h0Z"/>
      <path class="cls-6" d="M1629.3-10.5c14.8-37.9,27.2-77.5,29.7-121,4.1-74.1-18.3-136.9-46.9-182.8-27.9-44.8-85.9-79.8-148.3-91.4-108.1-20.1-206,33.5-242.1,91.4-24.8,39.8-43.3,89.7-46.9,143.3-5.9,87.9,24.4,160.2,54.4,212.4,8.8,15.3,23.5,30.5,22.2,49.5-15-2.7-22.1-19.6-29.7-29.7-26.1-34.7-47.5-71.5-61.8-116.1-23.4,36.1-8.4,82.5,4.9,116.1,6.8,17.3,14.3,46.2,32.1,39.6,14-4.5-7.9-32,9.9-34.6,20.4,36.4,23.9,89.7,42,128.5,2.1-15.2-2.9-37.4,14.9-37,7,13.4,3.9,32.1,2.4,49.5-1.4,17.1-3,36.5-4.9,54.4-3,27.1-4.6,81.1-17.3,98.8-9.5,13.3-51,29.7-69.1,39.6-26.7,14.6-49.3,27.7-69.1,39.6-52,30.8-95.3,60.1-138.4,81.5-12.6-.1,0-19-9.9-12.3-44.5,6.1-83.6,11.7-118.6,29.7-30.7,15.8-56.1,44.2-79,69.1-24.8,26.9-48.3,51.4-66.7,81.5-42.2,69.4-40.7,185.5-24.7,289,2.5,3.8,8.9-19.1,19.8-7.4-40.4,92-81.9,188.5-88.9,301.4-4.7,75.2,6.4,144,2.4,219.9-2.7,50.9-21.1,93.1-32.1,140.8-11.3,49.3-20.3,104.2-17.2,158.2,2.7,46.7,15,97,27.1,145.7,11.4,45.9,23.8,93.8,39.6,135.8,24.4,65.4,55.9,123.1,74.1,185.3,7,24,5.4,51.5,14.9,74.1,6.7,16.3,20.7,28,24.7,44.5,5.6,22.6,2.4,56.2,0,86.5-2,26-3.9,54.7-4.9,79-.7,15.4-4.7,29.8-2.4,44.5,4.9,31.6,31.1,42.7,49.5,71.7,9.7,15.3,17.5,37.5,29.7,42,40.8,15.2,89-34.3,108.7-56.8-5-79.8-6.3-163.4-7.4-247.1-23.5-28.5-50.3-45.4-61.8-81.5-5.7-18-3.2-41.2-4.9-64.2-4.8-62.8-21.9-124.7-17.3-187.7,4.2-57.9,20.9-114.7,32.1-170.4,27-134.9,21.7-251.7-19.8-365.6-5.3-4.4-7.9,25.5-19.8,14.8.1-25.4,10.3-51.2,17.3-76.6,14.7-53,27.1-103.6,37-163.1,4.3-25.8,16-63.3,14.8-86.5-.7-12.5-8.4-30.5-12.3-46.9-11.1-46-15.5-110-29.7-148.2-6-16.3-17.6-28.8-22.2-44.5-4.3-14.7-5.8-33-7.3-49.5-1.7-18.3-7-42.3,4.9-46.9,11.2,8.4,10.1,23.8,12.3,34.6,2.7,12.6,6,24.3,9.9,37,7.3,24.2,19.7,44.9,27.1,66.7,17.4,51.1,17.3,105.1,29.7,155.6,11.9,48.8,25.8,97.9,44.5,143.3,32.5,78.8,81.6,140.1,106.3,219.9,3.1,9.9,10,24.2,2.4,34.6-17.9-1.8-14.4-25.2-24.7-34.6-6.9,73-9.9,166.6,12.3,224.7-46.1,81.9-77,202.5-64.2,328.6,1.9,19.2,8.7,39.2,0,56.8-15.8-.6-8.7-24.2-17.3-32.1-13.6,40.5-36.1,76.1-39.6,123.5-3,41.5,9.9,83.9,14.8,128.5,7.5,68.1-.6,131.6,2.4,200.1,5.9,129.8,27.4,256.9,51.9,373,25.3,119.7,59.9,227.9,106.3,318.7,1.8,10.7-22.4,3.6-14.8,12.3-4,74.8,10.9,152,19.8,222.3,7.7,5.3,8.9-27.9,22.2-17.3,2.3,14.9-5.5,29.7-9.9,42-35.5,98.4-63.8,219.8-69.1,340.9-6.3,142.7,27.4,271.3,71.7,392.8,20.8,57,41.6,116.1,56.8,175.4,16.3,63.8,32.5,130.7,37,197.6,1.5,22.7,5.7,80.4,2.4,98.8-3,17.1-22,41-34.6,56.8-25.2,31.9-49.3,61.6-76.6,86.5-13.5,12.2-35.2,21.2-34.6,42,47.7,24.1,114.8-10.1,167.9,4.9-24.5-23.5-12.4-69.2-2.4-96.4,5.3-14.3,10.3-30.7,19.8-34.6,7,29.9-15.5,66.9-7.4,98.8,5.3,20.8,26.4,25.7,39.6,39.6,32.2-4.6,62.8,7.1,84-4.9,32.9-18.9,8.4-87.8,0-130.9-6.6-34.3-11.6-70.8-14.8-101.3-11.6-113.6-22.8-229.2-17.3-350.8,7.7-170.6,81.4-314.4,69.1-481.7-4-54.4-24.3-107.7-37-160.6-10.1-41.7-17.3-83.2-24.7-123.5-2.1-11.8-10-30.5,2.4-39.6,13.2,5.7,8.5,29.5,17.3,39.6,3.7-45,12.5-85.1,9.9-128.5-3.6-56.9-23.6-111.4-19.8-172.9,4.3-70.4,18.8-141.3,27.1-215,21.3-185.5,24.3-382.7,19.8-585.4-10.1,3.3-20.3,13.8-32.1,19.8-39.2,19.7-85.4,23.5-133.4,19.8-105.2-8.2-202.8-74-205.1-165.5,16.4,7.3,21.8,27.5,32.1,42,9.7,13.7,20.2,30.4,32.1,42,63.5,62.1,218.2,77.8,286.5,27.1,19-14.1,26.2-35.4,46.9-51.9,33.5,110.4,246.3,100.3,323.7,24.7,18-17.6,34.1-44.9,46.9-64.2,4.7-7,5.8-22.9,19.8-19.8-13.6,101.9-105.5,158.1-210,165.5-64,4.6-106.5-7.4-140.8-27.1-8.2-4.7-18.7-14.4-19.8-7.4-4.1,198.8-1.7,401.4,19.8,580.5,9,74.5,20.8,146.5,24.7,217.4.7,12.2.9,24.8,0,37-6.4,88.2-36.9,174.2-7.3,261.9,4.8-14.2,1.9-36,17.2-39.6,7.9,11.4,2.2,27,0,39.6-7.9,43.3-14.9,82.8-24.7,123.5-13,53.6-33.3,107.3-37,163.1-11.2,167.2,61.7,310.8,69.1,481.7,1.9,43.2,2.1,89.3,0,135.8-4.8,105.7-13.6,218.1-32.1,313.8-6.7,34.8-20,73.2-17.3,98.8,4.9,46.6,53.1,35.5,103.8,37,10.9-16.3,31.7-18.6,37-39.6,8.5-33.5-17.8-74.7-4.9-98.8,11.7,22.5,34.8,63.8,29.7,98.8-2,13.7-11.8,21.1-12.3,32.1,35.8-12.2,82.3,5.4,121,4.9,14.9-.2,34.5-1.4,44.5-12.3-3.5-18.5-20.9-29.4-34.6-42-14.3-13.2-26.3-26.3-39.6-42-21.3-25.4-60.7-61.9-69.1-93.9-3.8-14.1-.9-26.6,0-46.9.9-21.3-1-44.9,0-59.2,4.8-65.9,20.9-132.3,37-195.2,15.2-59.4,35.9-118,56.8-175.4,44.4-122,78.1-252.9,71.7-395.2-5.6-123-35.1-246.8-69.1-340.9-4.4-12.1-16.3-27.8-7.4-42,12.6-2.8,13.7,29.7,19.8,17.3,9.7-69.4,23.7-147.6,19.8-222.3,4.9-4.3-19.3-.3-14.8-12.3,48.7-89.3,80.9-199.3,106.3-318.7,24.8-116.6,46.1-242.8,51.9-373,3.2-72.5-5.3-133.2,2.4-200.1,5.2-45,18.3-87,14.8-128.5-3.9-47-25.3-83.2-42-121-2.7,12-2.9,37.4-17.3,29.7,2.7-58.4,9.5-116.4,4.9-175.4-6.2-80.4-43.8-150.6-66.7-210,11.1-23.7,15.5-59.8,17.2-96.4,2.1-42.6-.3-91.4-7.4-126-6.5,13.3-5.3,34.3-24.7,34.6,3-49.9,27.6-90.3,49.5-130.9,43.3-80.6,82.2-168.3,106.3-266.8,12.5-51.5,12.6-109.8,29.7-158.1,7.2-20.6,22.5-40.5,29.7-64.2,3.9-12.8,4.6-26.3,7.4-39.6,1.9-9.2.9-28.1,14.8-32.1,10,14.1,1.5,31.7,0,46.9-1.6,17.3.1,35.3-4.9,51.9-4.4,14.6-16.7,27.1-22.2,42-9.6,26.1-13.6,65.2-19.8,98.8-3.1,16.7-5.9,32.9-9.9,49.5-3.8,15.7-11.6,34.5-12.3,46.9-.6,11.8,5.2,27.8,7.4,42,11.6,76.1,26.1,144.1,44.5,210,7.6,27.4,21.9,54.5,14.8,76.6-11.7,3.4-13.2-26.6-17.3-14.8-43.2,115.7-46,232.3-19.8,363.1,11.4,56.9,28.1,114.2,32.1,172.9,4.3,63.5-13.1,126.1-17.2,190.2-1.1,16.9,2.5,31.6,0,46.9-4.3,26-19.9,39.4-34.6,56.8-11.6,13.8-28.9,27.8-32.1,39.6-5.1,18.8.9,42.2,0,61.8-2.9,62.5-3.7,130-7.4,185.3,23.7,22,58.6,59,98.8,56.8,24.1-1.3,27-27.1,39.6-46.9,14.1-22.3,37.1-34.5,44.5-51.9,7.9-18.5,3.5-42.2,2.4-64.2-1-24.4-2.9-50.6-5-76.6-2.2-28-5.7-58.4-2.4-81.5,2.8-19.6,20.3-32.9,27.1-49.5,9-21.7,8.1-48,14.8-71.7,6.2-21.6,13.9-43.5,22.2-64.2,33-81.5,68-165.7,91.4-259.4,12.3-49.5,24.8-100.2,27.1-148.2,2.7-52.9-6-106.8-17.3-155.6-11.2-48.6-29.9-91.3-32.1-143.3-2-46.2,3.3-98.6,4.9-135.8,5.7-129.3-27.3-231.7-64.2-316.2-9.8-22.4-23.9-44.2-24.7-69.1,13.9-7.5,14.2,20.1,17.2,7.4,6.8-56.3,13.9-118.4,9.9-172.9-4.5-61.2-26.7-112.4-64.2-155.6-15.4-17.8-35.5-37.2-54.4-56.8-19.2-19.9-39.3-41.3-59.2-51.9-34.9-18.4-83.4-24.2-123.5-29.7-4.1-5.1,3.8,15.1-9.9,12.3-60.2-35.5-136.4-83.6-205.1-121-21.3-11.6-59.1-26.9-69.1-42-14.3-21.5-13.6-64-17.2-98.8-1.8-17.3-3.6-34.5-4.9-51.9-1.3-15.8-6.6-39.1,4.9-49.5,16.4.9,7.4,27.1,14.8,37,8.7-32.2,18.7-69.7,27.1-98.8,3.2-10.8,3.3-25.5,14.8-29.7,14.5,5.7-8.7,33.7,9.9,34.6,17.2,4.4,22.7-24.1,29.7-42,13.7-35.5,30.3-82.7,2.4-113.6-10.8,45.6-35.8,87.2-59.2,118.6-7.3,9.8-17.7,28.9-32.1,24.7,14.6-32.3,35.5-62.9,49.5-98.8h-.1v.2ZM1538,3361.4c2.9-.4,4.4.5,4.9,2.4-.9,38.2,22.1,75.3,9.9,108.7-16.6-29.5-23.4-67.4-14.9-111.1h.1ZM1681.3,3309.5c32.6,36,31.2,96.1,29.7,155.6-12.8-6.8-9.3-30.2-19.8-39.6.2-42.2-.7-83.3-9.9-116.1h0ZM1290.9,3361.4c2.9-.4,4.4.5,4.9,2.4,9.9,43-.7,76.2-12.3,108.7-18.9-30.3,10.9-73.4,7.4-111.1h0ZM1150.1,3309.5c6.6,9.8-3.5,16.3-5,27.1-3.6,25.7,2.1,60.4-2.4,86.5-1.4,7.9-6.7,14.5-9.9,22.2-2.8,6.8.1,20.8-9.9,19.8-2.3-59.8-1.3-116.2,27.2-155.6h0ZM1421.8,1150.4c2.1-.4,2.3.9,2.4,2.4-1,130.7,8.5,273.3,2.4,410.1-1.9,43.2,1.7,87.4-9.9,126-15.8-14.5-11.9-38.6-12.3-59.2-1.3-65.2-3.3-137.7,0-207.5,4.5-96.9,1.2-196.3,17.3-271.8h0ZM1411.9,169.7h5c9.4,5.9,4.7,20.7,4.9,29.7,1.1,52.3,12.3,117.1-2.4,160.6-.5-.3-2,.4-2.4,0-29-26.5,5-128.9-5-182.8v-7.4h0ZM1515.8,112.9c-8,9.6-22.5,12-32.1,12.3-20.5.8-42.7-13.8-61.8-14.8-31.9-1.8-71.7,30.5-103.8,4.9,4.1-6.6,13.8-3.5,19.8-4.9,7.5-1.9,14-5,22.2-7.4,22.1-6.4,44.4-19,71.7-14.8,13.5,2,28.8,11,42,14.8,14.8,4.3,27.4,8.5,42,9.9h0ZM656.4,1499c-4,28.1-20.6,50.8-13.6,81.7-.6,22.3,22.3,46.6,25.4,64.4-6-10-48.4-41.7-48.1-57.2,6-30.6,16.6-78.3,36.3-88.9h0ZM750.9,1521.8c-9.9,15.6-5.1,40-9.3,65.1-2.4,14.4-23.4,9.1-23.4,26.5s-.5,18.4.9,17.2c20.4-15.1,36.3-20.8,36.3-50.8s2.3-25.2,0-33.5c-1.5-5.5-4.9-10.1-2.5-14.9,5.8-11.6-3.2-10-2-9.6h0ZM2075.8,1521.8c9.9,15.6,5.1,40,9.3,65.1,2.4,14.4,23.4,9.1,23.4,26.5s.5,18.4-.9,17.2c-20.4-15.1-36.3-20.8-36.3-50.8s-2.3-25.2,0-33.5c1.5-5.5,4.9-10.1,2.5-14.9-5.8-11.6,3.2-10,2-9.6h0ZM2170.2,1499c4,28.1,20.6,50.8,13.6,81.7.6,22.3-22.3,46.6-25.4,64.4,6-10,48.4-41.7,48.1-57.2-6-30.6-16.6-78.3-36.3-88.9h0Z"/>
      <path class="cls-4" d="M898.7,545.7c19.3-9.7,31.7-11,48.5-4.2,30.1,12.2,59.1,45.6,69.9,72.5,8.6,21.5,2.8,27.2-18.2,38.1-125.9,71.7-200.9,174.6-252.8,291.5-11.8,32.9-45.2,65.8-50.9-30.9-14.8-63.2-13.5-141.4,26-214.4,35.9-66.5,105.7-129.7,177.5-152.7h-.1Z"/>
      <path class="cls-4" d="M865.4,806.9c2.2-24.6,85.6-116.4,119.6-100.7,35.2,7.9,20.1,105.9,48.5,169.1,12.3,50.8-77.6,73.1-108.9,51.9-35.8-22.6-64.4-88.5-59.3-120.2h.1Z"/>
      <path class="cls-4" d="M727.3,1009.3c54.7-67.5,56.7-57.1,77-15.6,20.3,29,71.2,157.1,45,278.4-13.6,61-27.1,122-40.7,182.9-16.1,55.5-32.3,92.1-48.4-3.2-15.1-43.2-55.8-72.5-47.4-129.8,2.5-42.2-33.7-48.8-49.6-1.5-5.2,34.9-10.4,69.9-15.6,104.8-21.9,79.2-33.4,76.7-31.3-6.2-10.2-211.5,36.2-333.3,111-409.7h0Z"/>
      <path class="cls-4" d="M894,1034.5c-4.8-36.5-46.5-101.8,37.1-71.8,36.1,10.6,91.8-3.1,126.4-32.1,16.1-22.4,32.2-21.5,48.3,3,78.2,68.8,135.1,174.3,186,290,27.6,36.1,24.6,66.9,10.3,95.2-32,79-65.4,155.1-108.4,209.5-31.2,34.1-89.1,33.8-120.3-14.2-69.1-99.2-159.4-252.9-179.4-479.4h0v-.2Z"/>
      <path class="cls-4" d="M992.6,533.2c-.7-22.5,220.2-65.8,341.9-72.6,47.4-4.8,58.7,3,61,37.1,7.2,227,10.9,452.3,0,670.8-2.9,67.7-18.3,171.9-58.1,65.8-49.9-122.7-172.1-304.4-275.9-385.8-15.8-12.6-32.6-44.7-26.7-69.5,8.5-40.8,70.5-77.6,75.5-108.3,4.1-27.5-13.1-29.4-38.3-47.4-29.4-26.3-82.1-59-79.2-90.1h0Z"/>
      <path class="cls-4" d="M1091.8,460.6c81.5-54.7,163-61.9,172.9-92.3,27.8-113.7,11-188.8,25.4-202,11.6-21.7,71-16.9,81.9-4.6,25.8,40.4,4.2,143.2,8.1,213.5,0,30.8,5.8,59.2-39.2,67-54.6,3.9-124.2,8.9-217.9,31.2-61.5,20-68.8,11.1-31.1-12.7h-.1Z"/>
      <path class="cls-4" d="M1166.7,1581.8c-31.8,6.9-40.2,90.8,13.4,105.6,51.5,22.3,101.1,51.2,143.9,103.1,33.9,41.9,46,27.6,48.6-37.1,13.4-97.2,4.5-271.3,4.2-425.1-5-30.1-27-22-37.3-6-49.5,79.5-84.2,242.9-172.7,259.4h0Z"/>
      <path class="cls-4" d="M1048.7,1595.3c14.1-20.1,71.4-29.2,69.3,0-3.7,25.5,1.6,53.9,7,79.4,1.6,23.1-58.9,77.5-72.4,40.2-10.1-23.8-17.1-66.5-4-119.7h0Z"/>
      <path class="cls-3" d="M1278,1872.3c-89.2,35.3-124,134.5-183.7,199.5-28.6,30.6-100.6,125.1-102.7-7.7.8-155.5,21.4-310.4,169.7-328.8,44-4.8,207.3,93.3,116.8,137.1h-.1Z"/>
      <path class="cls-3" d="M1308,1894.4c77.9-38.6,87.6,24.2,84.8,64.1-1.4,125.5-2.8,251-4.2,376.5-6.9,46.2-22,102.7-134.5,111.7-165.5,19.3-295.8-238.6-190.3-300,93.8-36.5,156.5-217.9,244.1-252.4h0Z"/>
      <path class="cls-4" d="M711.3,1729.4c6.9-66,25.7-51.4,40.6-82.9,25.4-53.6,71.7-88.2,86.2-18,52.3,194.5-81.7,383.2-17.7,601.5,10.4,40.5-3.7,150.5-34.1,19.1-25-173.3-73.1-334.2-74.9-519.8h0Z"/>
      <path class="cls-4" d="M588.7,1680.3c24.2-73.6,63.9-48.6,98.1,106.4,9.3,43.7,9.6,89.9,21.4,170.6,14.8,100.4,42.1,240.1,65.8,328.7,13,65.3-13.4,88.9-60-23.1-63.8-212-169.3-404.4-125.4-582.5h.1Z"/>
      <path class="cls-4" d="M2130.6,1729.4h0c-1.8,185.5-50,346.5-74.9,519.8-30.4,131.3-44.5,21.4-34.1-19.1,63.9-218.3-70.1-407.1-17.7-601.5,14.5-70.2,60.8-35.7,86.2,18,14.9,31.5,33.5,16.9,40.6,82.9h0Z"/>
      <path class="cls-4" d="M2253.3,1680.3h0c44,178-61.6,370.5-125.4,582.5-46.6,112.1-72.9,88.4-60,23.1,23.7-88.5,51-228.2,65.8-328.7,11.8-80.7,12.1-126.9,21.4-170.6,34.2-155,73.9-180.1,98.1-106.4h.1Z"/>
      <path class="cls-4" d="M1934.4,545.7c-19.3-9.7-31.7-11-48.5-4.2-30.1,12.2-59.1,45.6-69.9,72.5-8.6,21.5-2.8,27.2,18.2,38.1,125.9,71.7,200.9,174.6,252.8,291.5,11.8,32.9,45.2,65.8,50.9-30.9,14.8-63.2,13.5-141.4-26-214.4-35.9-66.5-105.7-129.7-177.5-152.7h.1Z"/>
      <path class="cls-4" d="M1967.8,806.9c-2.2-24.6-85.6-116.4-119.6-100.7-35.2,7.9-20.1,105.9-48.5,169.1-12.3,50.8,77.6,73.1,108.9,51.9,35.8-22.6,64.4-88.5,59.3-120.2h-.1Z"/>
      <path class="cls-4" d="M2111.4,1009.3c-54.7-67.5-56.7-57.1-77-15.6-20.3,29-71.2,157.1-45,278.4,13.6,61,27.1,122,40.7,182.9,16.1,55.5,32.3,92.1,48.4-3.2,15.1-43.2,55.8-72.5,47.4-129.8-2.5-42.2,33.7-48.8,49.6-1.5,5.2,34.9,10.4,69.9,15.6,104.8,21.9,79.2,33.4,76.7,31.3-6.2,10.2-211.5-36.2-333.3-111-409.7h0Z"/>
      <path class="cls-4" d="M1939.2,1034.5c4.8-36.5,46.5-101.8-37.1-71.8-36.1,10.6-91.8-3.1-126.4-32.1-16.1-22.4-32.2-21.5-48.3,3-78.2,68.8-135.1,174.3-186,290-27.6,36.1-24.6,66.9-10.3,95.2,32,79,65.4,155.1,108.4,209.5,31.2,34.1,89.1,33.8,120.3-14.2,69.1-99.2,159.4-252.9,179.4-479.4h0v-.2Z"/>
      <path class="cls-4" d="M1840.6,533.2c.7-22.5-215.9-65.8-335.3-72.6-46.5-4.8-57.6,3-59.8,37.1-7,227-10.7,452.3,0,670.8,2.8,67.7,17.8,171.9,57,65.8,48.8-122.7,168.8-304.4,270.5-385.8,15.5-12.6,32-44.7,26.2-69.5-8.4-40.8-69-77.6-73.9-108.3-4-27.5,12.7-29.4,37.5-47.4,28.8-26.3,80.5-59,77.7-90.1h0Z"/>
      <path class="cls-4" d="M1741.4,460.6c-81.5-54.7-163-61.9-172.9-92.3-27.8-113.7-11-188.8-25.4-202-11.6-21.7-71-16.9-81.9-4.6-25.8,40.4-4.2,143.2-8.1,213.5,0,30.8-5.8,59.2,39.2,67,54.6,3.9,124.2,8.9,217.9,31.2,61.5,20,68.8,11.1,31.1-12.7h.1Z"/>
      <path class="cls-4" d="M1666.7,1581.8c31.6,6.9,39.9,90.8-13.3,105.6-51.1,22.3-100.2,51.2-142.9,103.1-33.7,41.9-45.7,27.6-48.2-37.1-13.3-97.2-4.5-271.3-4.2-425.1,5-30.1,26.8-22,37.1-6,49,79.5,83.6,242.9,171.4,259.4h0Z"/>
      <path class="cls-4" d="M1784.5,1595.3c-14.1-20.1-71.4-29.2-69.3,0,3.7,25.5-1.6,53.9-7,79.4-1.6,23.1,58.9,77.5,72.4,40.2,10.1-23.8,17.1-66.5,4-119.7h0Z"/>
      <path class="cls-3" d="M1555.2,1872.3c89.2,35.3,124,134.5,183.7,199.5,28.6,30.6,100.6,125.1,102.7-7.7-.8-155.5-21.4-310.4-169.7-328.8-44-4.8-207.3,93.3-116.8,137.1h.1Z"/>
      <path class="cls-3" d="M1525.1,1894.4c-77.9-38.6-87.6,24.2-84.8,64.1,1.4,125.5,2.8,251,4.2,376.5,6.9,46.2,22,102.7,134.5,111.7,165.5,19.3,295.8-238.6,190.3-300-93.8-36.5-156.5-217.9-244.1-252.4h0Z"/>
      <path class="cls-4" d="M1010.3,2464.3c3.2-51.9,40.7-3.7,83.4,21.7,37.7,22.4,83.9,6.5,79.1,69.4,8.5,178.1,32.7,380.1,25.5,534.5-3.1,102-37.9,160.1-57.5,170-19.6,10-39.5-22.7-59.7-86.2-51.6-208.9-94.9-445.8-70.9-709.5h0Z"/>
      <path class="cls-4" d="M1209.3,2521.7c16,1.7,23.2,2,46.1,3.1,22.8,1,43.5-10.4,44.8,9.5,39.9,248,48.5,478.8,16.1,680-7.1,60-25.1,63-38.7,55.9s-28.5-48.6-45.1-150.2c-19.5-258.4-35.1-493.1-32.7-570.5.4-12.1-.8-29.1,9.6-27.7h0Z"/>
      <path class="cls-4" d="M1129.1,3542.6c41.9-96.8,67.7-76.4,66.5,50-9.9,136.8-19.7,284.7-7.3,432.7,8.1,73.9-102.2,109.1-120-38.9-8.4-162.2,10.2-311.1,61-443.8h-.1Z"/>
      <path class="cls-4" d="M1237.5,3578.8c22.2-124.9,52.4-81.4,86.2,38.7,44.8,189.5,62,367,18.7,518.2-44.5,157.4-116.2,9.1-123.5-70.4-10.5-175.6-5.3-337.8,18.7-486.6h0Z"/>
      <path class="cls-4" d="M1821.1,2464.3c-3.2-51.9-40.7-3.7-83.4,21.7-37.7,22.4-83.9,6.5-79.1,69.4-8.5,178.1-32.7,380.1-25.5,534.5,3.1,102,37.9,160.1,57.5,170,19.6,10,39.5-22.7,59.7-86.2,51.6-208.9,94.9-445.8,70.9-709.5h0Z"/>
      <path class="cls-4" d="M1622,2521.7c-16,1.7-23.2,2-46.1,3.1-22.8,1-43.5-10.4-44.8,9.5-39.9,248-48.5,478.8-16.1,680,7.1,60,25.1,63,38.7,55.9,13.7-7.1,28.5-48.6,45.1-150.2,19.5-258.4,35.1-493.1,32.7-570.5-.4-12.1.8-29.1-9.6-27.7h0Z"/>
      <path class="cls-4" d="M1702.3,3542.6c-41.9-96.8-67.7-76.4-66.5,50,9.9,136.8,19.7,284.7,7.3,432.7-8.1,73.9,102.2,109.1,120-38.9,8.4-162.2-10.2-311.1-61-443.8h.1Z"/>
      <path class="cls-4" d="M1594,3578.8c-22.2-124.9-52.4-81.4-86.2,38.7-44.8,189.5-62,367-18.7,518.2,44.5,157.4,116.2,9.1,123.5-70.4,10.5-175.6,5.3-337.8-18.7-486.6h0Z"/>
    </g>
  </g>
</svg>