<?xml version="1.0" encoding="UTF-8"?>
<svg id="_ÎÓÈ_1" data-name=" ÎÓÈ 1" xmlns="http://www.w3.org/2000/svg" xmlns:xlink="http://www.w3.org/1999/xlink" version="1.1" viewBox="0 0 2834.6 2834.6">
  <defs>
    <style>
      .cls-1 {
        clip-path: url(#clippath);
      }

      .cls-2 {
        fill: none;
      }

      .cls-2, .cls-3, .cls-4, .cls-5, .cls-6, .cls-7 {
        stroke-width: 0px;
      }

      .cls-3, .cls-4, .cls-5 {
        fill-rule: evenodd;
      }

      .cls-3, .cls-7 {
        fill: #ececec;
      }

      .cls-4 {
        fill: #868686;
      }

      .cls-5 {
        fill: #c6c6c5;
      }

      .cls-6 {
        fill: #e73f32;
      }
    </style>
    <clipPath id="clippath">
      <rect class="cls-2" x="-1.7" y="2.1" width="2838.1" height="2830.3"/>
    </clipPath>
  </defs>
  <g class="cls-1">
    <g>
      <path class="cls-4" d="M1628-603.4c49.7.3,55,58.9,41.5,112.9-11,44.2-30.6,82-66.8,94.4-11.5,53.8-12,118.5-18.4,177.4,13.6,19.2,36.3,28.8,55.3,41.5,56.5,37.7,113.7,80.3,170.5,119.8,64.8,6.2,137.7,13.3,188.9,36.9,46,21.2,77.3,56.6,103.7,99,24.6,39.6,52.9,90,57.6,142.8,5.4,60.8-2,135-13.8,188.9-3.7,17-13.6,37.2-13.8,53-.2,12.3,7.4,33.7,11.5,50.7,18.7,76.9,30.1,168.6,23,271.8-2.5,36.7-11.9,76-9.2,110.6,2.4,30.1,19.8,61,30,87.5,11.8,31,19.5,59.6,23,94.4,7,69.1-2.4,141.5-16.1,209.6-19.3,96.1-36.9,197.7-46.1,306.4-3.1,36.7-8.1,76.1-6.9,110.6,1.2,34.3,12.6,71.2,18.4,106,7.8,45.9,23.8,95.4,9.2,135.9-4.8,13.3-11.2,19-23.1,32.3-8,8.9-12.5,22.2-20.7,32.3-7.7,9.4-19.8,14-30,25.3-13,14.6-17.8,25.6-25.3,27.6-21.1,5.8-50.2-3.9-69.1-9.2-17-4.7-42.4-12.1-53-23-12.3-12.7-10.9-31.4-18.4-46.1-8.8-17.3-23.1-18.6-32.3-30-23.7,180.3-49.5,356.2-112.9,502.2-11.5,26.5-26.6,52.8-30,85.2-3.6,35.2,3,71.3-2.3,108.3-2.3,15.8-9.6,32.5-9.2,48.4.7,28.4,15.5,59.5,23.1,89.8,21,84.7,41,184,41.5,290.2.7,140.7-38.4,267.6-73.7,387-24.5,82.9-50.2,180.3-66.8,278.7-6.4,37.9-18.1,80.5-11.5,115.2,5.6,29.3,29.6,59.7,50.7,87.5,16.1,21.2,28.4,35.9,50.7,53,7.6,5.8,16,16.4,23,18.4,36.5,10.2,81.7,20.7,80.6,55.3-.6,20.2-15.2,29.1-50.7,29.9-26.1.7-52.2,0-78.3,0-53.6,0-112.4,8-156.6,2.3-12.3-1.6-22.6-10-39.2-11.5-37.9-3.5-74.3,9.4-87.5-11.5-16.8-26.5,21.7-101.8,20.7-133.6-.5-18.4-9.7-37.1-9.2-55.3.7-27.9,14.4-57.2,18.4-87.5,19.7-147,13.3-350.5-13.8-490.7-11.1-57.2-33.1-110.6-36.9-172.8-7.8,13.4-6.4,28.8-9.2,43.8-8,42.4-21.9,84.7-30,129-25.7,141-31.1,340.3-9.2,490.7,2.3,15.8,5,28.3,9.2,43.8,3.5,12.8,8.7,28.8,9.2,41.5.8,19.4-9.1,37.6-9.2,55.3-.3,47.3,34.5,86.8,23,135.9-10.7,19.9-54.9,9.6-85.2,11.5-18.4,1.1-28.9,11.5-50.7,11.5h-149.7c-49.7,0-119.9,7.4-126.7-20.7-7.8-32.5,26.1-50.1,48.4-57.6,7.9-2.7,18.1-2.9,27.7-6.9,27.5-11.4,58.2-44.8,76-69.1,16.3-22.2,46-61.3,50.7-92.1,4.9-32.1-5-71.8-11.5-108.3-17-94.6-44.2-198.9-69.1-283.3-35.2-119.4-78.3-242.3-78.3-391.6s24.8-229.7,50.7-331.7c3.6-14,11-29,11.5-41.5,1.1-26.1-11.7-54.6-13.8-82.9-2.3-31.9,2.8-71.9-4.6-99-11.5-42.2-36.4-81.4-50.7-126.7-40.2-127.8-76.6-282.2-89.8-435.4-7.8,1.1-20.6,10.7-27.7,18.4-11.1,12.1-12.3,45-25.3,57.6-12.8,12.3-36.6,15.7-55.3,20.7-25.8,7-61.8,21.8-80.6,0-2.9-3.3-3.9-12.7-9.2-18.4-8.4-9.1-20.9-14.5-30-25.3-18.6-22.4-38-39.6-46.1-62.2-12-33.6-1.1-84.1,6.9-131.3,5.9-34.8,16.1-70.5,18.4-99,2.8-34.6-3.6-74-6.9-112.9-9.2-107.2-26.2-211.7-46.1-311-13.5-67.5-28.6-134.1-20.7-211.9,3.5-34.9,11.9-65.7,23-96.7,10.4-28.9,27.7-58.9,30-87.5,2.7-33.7-9.4-71.1-11.5-108.3-5.7-98.3,2.1-194,20.7-274.1,3.8-16.5,11.5-34.5,11.5-48.4,0-15.9-7.7-34.5-11.5-50.7-11-46.4-18.9-108.4-18.4-168.2.5-63.6,26-115.2,53-161.3,25.3-43.1,61.1-86.4,106-108.3,38.7-18.9,88.9-26.2,135.9-32.3,15.5-2,21-.1,37.1-4.6,16.6-4.6,49.9-22.5,66.6-34.6,52.1-37.8,109.4-70.7,165.6-108.3-9.2-62.9-7-137.3-20.7-195.8-6.4-8.7-27.3-12.8-36.9-25.3-7.9-10.4-25.1-49.5-29.9-66.8-14.1-50.1-11.6-118.5,41.5-115.2-3.7-30.9-11.2-58.1-11.5-85.2-.9-71.4,44.7-134.2,92.1-168.2,33.6-24,84.1-47,131.3-50.7,102.9-8.1,207.7,72.9,235.2,165.9,13.3,45,2.8,87.5-4.6,135.9h0ZM1810,806.4c-7.6,16.4-21.5,34-23.1,46.1-1.3,10.6,2.9,31.1,4.6,46.1,7.2,64.9,16,139.5,2.3,198.1,46.1,73.2,32.1,179.8,48.4,274.1,5.1,29.7,14.5,59.8,20.7,87.5,28,123.3,26.8,259.1,36.9,396.2,12-42.5,42.8-78.4,57.6-124.4,8.6-26.6,12.3-61.3,16.1-94.4,3.8-33.5,9.5-70.5,9.2-103.7-.4-49.9-19.7-93.1-36.9-140.5-15.7-43.3-29.1-90.9-41.5-135.9-22.4-81.2-22.7-158.8-4.6-232.7,9.2-37.4,27-93.6,18.4-138.2-6.8-35.4-26-71.4-34.6-110.6-8.3-38.1-14-91.9-20.7-129-14.1,52.5-31,113.4-53,161.2h0ZM948.5,783.4c-8.7,40.5-30.7,77.1-34.6,115.2-6,58.6,16.3,93.2,25.3,135.9,19.4,92.3,7.2,182-18.4,262.6-11.6,36.6-21,77-34.6,115.2-14.6,41.1-29.5,78.1-30,122.1-.3,30.1,5.3,61.4,9.2,92.1,4,31,6.5,62.6,13.8,89.8,13.7,51.3,43.2,94.8,64.5,140.5,5.1-137.4,4.5-269.3,27.6-380.1,8-38.1,20.4-76.2,25.3-110.6,10.8-74.7,4.7-149.8,23-211.9,5.9-20,19.2-40.7,20.7-59.9,1.5-19.3-6.1-40.3-6.9-59.9-2.7-61,6.6-121.8,13.8-182-38.2-57-56.3-134.1-80.6-205-4.7,47.4-9.2,92.6-18.4,135.9h0ZM1416.1,1780.8c-2.8,222.7-4.5,439.3-32.3,635.8-4,28.1-17.2,56-16.1,80.6.8,18.4,12.6,38.1,16.1,57.6,8.5,47.3,7.8,102.6,2.3,149.7-3.2,27.4-12.8,51.2-11.5,78.3,1.8,36.9,17.1,69.3,27.6,103.7,11.2,36.4,17.8,72.1,23.1,108.3-2.2-75.6,51.1-143.1,48.4-223.4-1-29.3-12-58.3-13.8-87.5-2.4-38.1-4.2-80.3,0-117.5,2.7-23.8,18.3-48.2,18.4-71.4.1-23.7-11.8-50.8-16.1-78.3-31.1-196.8-33.1-420.1-36.9-638.1-3.1.7-4.4,3.3-9.2,2.3h0Z"/>
      <path class="cls-5" d="M1259.2-98.9c-10.4-4.6-11.4-21.1-13.8-32.3-3-13.9-5.1-28.2-6.9-41.5-60.5,34-134,76.7-189.9,115.2,36.5,3.1,48.5,19.2-5.7,23-105.6,5-204.3,20-258,73.7-39,39-89.4,124.7-94.4,191.2-4.6,60.9,5,134.6,16.1,182,4.3,18.3,11.2,37.6,11.5,55.3.6,31.6-14.2,66.8-20.7,101.4-13.5,71.2-15.6,148.3-9.2,228.1,3.2,39.6,14.2,79.3,9.2,115.2-4.6,33.1-25.9,63.6-36.9,96.7-27.4,82.6-17.5,175.7,0,262.6,24,119.1,45,235.4,55.3,361.7,2.2,26.5,5.6,55.8,4.6,80.6-1.4,33.6-12.8,71.2-18.4,106-2.8,17.3-6.7,35.2-9.2,53-2.8,19.3-6.9,41.2-4.6,57.6,4.3,30.8,36.7,43.8,48.4,73.7,21.7,4.1,29.1,36.8,46.1,41.5,21.6,6,87.7-17.7,96.7-27.6,10.5-11.6,8.7-33.1,16.1-46.1,11.9-20.7,32.8-22.6,36.9-39.2,4.2-17.1-4-57.3-13.8-80.6-18.3-43.4-47.3-78.3-59.9-124.4-6.2-22.7-8-51.1-11.5-80.6-3.3-27.6-9.8-56.2-11.5-82.9-3.8-61.6,6.9-103.7,23-147.4,10.9-29.7,21-58.5,30-87.5,17.8-57.9,39.3-121.9,39.2-193.5,0-30.6-3.4-63-9.2-92.1-5.4-26.9-17.5-51.7-23-78.3-15.8-75.4,17-124.3,29.9-182,19-84.9,24.1-185.1,23-285.6-.1-12.2-5.2-30,2-41.5-35.7-64.2-67.8-183.8-57.7-202.9,13.6-48.8,31.1-69.9,54.6-91.6-8.9,22.2-17.9,44.4-26.8,66.6-7.4,22.8-8.6,45.6-3.7,68.5,18.1,100.2,59.6,164.7,129.5,185.9,52.7,8.7,107.6,2.2,162.8-6.5-47.4,23.7-110.8,33.3-202.6,17.6-20.4-5.5-27.5-9.6-36.2-16.7-.2,7.7-1.2,15.9-1.2,22.8,0,21.2-1.8,46,0,62.2,3.3,29.3,15,61.1,23,89.8,21.3,76,47.7,145.4,78.3,207.3,6,12.2,16.7,24.7,13.8,39.2-9.7,10.3-15.5-22.6-20.7-9.2-14.9,96-7.7,199.9,16.1,276.4,4.1,13.3,15.4,27.9,9.2,41.5-15.1-2.9-17.2-20-23-32.3-5.9-12.4-12.6-25.6-18.4-36.9-13.6,36.3-17.5,73.9-20.7,112.9-3.5,42-2.4,87.2-9.2,126.7-3.8,22.2-11.3,45.1-16.1,66.8-15.2,69.1-27.6,142.6-29.9,225.8-3,108.8-15,220-2.3,327.1,17.3,145.9,53.2,287.4,94.4,412.3,14,42.4,41.5,80.6,48.4,122.1,4.5,27-1.7,50.4,0,76,1.8,27,6.9,54.2,11.5,78.3,4.8,24.9,15.7,48,13.8,71.4-10.8,12.5-20.5-14.2-23.1-2.3-54,177.3-65.9,378-13.8,566.7,41.3,149.5,88.4,288.4,115.2,451.5,4.1,24.9,10,51.1,9.2,73.7-1.1,32.2-12.3,51.9-25.3,73.7-20.6,34.4-45.2,64.5-71.4,87.5-3.9,3.4-17.4,13.8-9.2,13.8,14-1.3,30.5,1.7,46.1,2.3,15.2.6,33.3-4.1,43.8,4.6-17,8.7-40.9,7.1-64.5,9.2-53.5,4.7-111.2,1.6-124.4,41.5,20.3,8.3,42.7,4.6,64.5,4.6s46.4-.3,69.1,0c44.6.6,89.9,6.1,131.3,0,10.7-1.6,19.7-7.8,30-9.2,26.8-3.6,51.2,4.4,76-2.3,4.6-47.1-25.8-80.8-25.3-124.4.2-17.7,10.2-35.5,9.2-55.3-1.1-21.5-11.9-40.8-16.1-62.2-4.5-23.1-4.8-48.5-6.9-71.4-14.4-153-11-300,16.1-446.9,8.6-46.6,22.1-87.7,29.9-129,18.2-96.3,10.1-201.2-16.1-283.3-12.9-40.3-30.5-85.6-29.9-129,.3-28.9,12-56.2,13.8-82.9,2.4-36.5,3.5-75.7,0-112.9-2.2-23.3-16.4-46.9-18.4-71.4-3.1-37.9,11.7-63.1,16.1-96.7,26.7-201.7,28.8-422.1,32.2-645,14.6-4.1,44.3-4.7,53,4.6-1.9,220,7.8,445.9,34.6,635.8,3.8,27.3,13.9,54.3,16.1,80.6,3,36.2-11.4,50.3-16.1,76-9.6,52.2-4.6,120.4,4.6,165.9,3.5,17.3,9.2,33.5,9.2,50.7,0,43.4-17.2,85.6-30,126.7-27.2,87.8-27.9,186.2-11.5,278.7,7.3,41,20.9,82.3,29.9,129,19.1,98.6,24.3,194.3,25.3,290.2.8,77.3-1,156.3-11.5,223.4-3.4,21.6-14.2,42.1-16.1,64.5-2,22.7,9.2,40.5,9.2,62.2,0,18.6-9.1,40.8-13.8,59.9-5,19.9-12.2,39.3-11.5,62.2,23.8,10.7,50.2-2.4,80.6,2.3,9.3,1.4,17.9,7.8,27.6,9.2,40.2,5.9,89.1,0,133.6,0s69.4-.8,96.7-2.3c9.2-.5,23.1,4.3,30-4.6,5.5-14.2-11.4-20.7-20.7-25.3-32.2-16.1-99.6-13.6-138.2-18.4-9.2-1.2-23.1,3-27.6-6.9,25.9-6.4,60.3-4.3,92.1-4.6-17.2-20.7-41.1-40.5-59.9-66.8-25.6-36-52.5-72.3-48.4-131.3,6.3-88.8,31.1-177.7,53-264.9,20.8-82.9,46.9-165.5,69.1-251.1,46.7-180,34.3-372.2-20.7-557.5-7-7.2-2.2,7.5-9.2,6.9-5.2,5.2-11.5-.1-16.1-2.3,6.7-43.8,21.7-86.7,25.3-138.2,1.9-26.2-3.2-54.3,0-82.9,4.5-40.5,31.9-82.1,46.1-124.4,42.4-126.3,76.9-270.6,92.1-419.2,11.2-109.7-.8-219-4.6-327.1-2.9-82.6-14.9-157.5-30-225.8-5.2-23.6-14.8-45.7-18.4-69.1-11.6-75.4-2.9-159.5-30-230.4-8.4,1.6-6.2,11.9-9.2,18.4-2.8,6.1-8.3,11.8-11.5,18.4-5.5,11.4-8.1,33.4-23,30,.8-21.9,12.1-44.6,18.4-69.1,19.3-74.9,18.7-168.9,4.6-251.1-6.1-5.2-8.7,22.4-20.7,11.5,6.8-26.4,20.4-51.5,32.3-78.3,23-52.1,41.3-104.8,57.6-163.6,8.2-29.5,20-59.9,23-89.8,1.6-16,0-41.9,0-64.5s-1.3-17.7-1.2-26.7c-11.4,9.5-16.9,14.1-40.9,20.5-91.8,15.7-155.2,6.2-202.6-17.6,55.2,8.7,110.1,15.2,162.8,6.5,69.9-21.3,111.4-85.7,129.5-185.9,4.9-22.8,3.7-45.6-3.7-68.5-8.9-22.2-17.9-44.4-26.8-66.6,23.4,21.7,41,42.8,54.6,91.6,9.9,18.5-20.1,131.7-54.5,197,11.4,13.5,5.8,34.6,5.8,49.6,0,109.1,5.9,207.3,27.6,290.2,8.9,33.9,24.8,65.5,29.9,96.7,8.9,53.7-11.1,100.7-20.7,140.5-5.7,23.6-10,48.3-11.5,73.7-6,103.3,31,200.3,57.6,278.7,20,59,41.6,106.5,36.9,182-3.6,58.7-13.3,144.2-34.6,195.8-20,48.6-71.9,119.8-59.9,170.5,5.2,21.9,29.4,23.5,39.2,41.5,7.2,13.2,5.3,35.1,16.1,46.1,21.8,22.2,66.5,18.8,96.7,27.6,8.5-7.3,14.5-16.5,23-25.3,8.2-8.5,18.1-14.2,25.3-23,3.3-4.1,3.7-11.8,6.9-16.1,10.6-14.5,30-25.9,34.5-41.5,9.3-31.5-5.2-79-11.5-117.5-5.9-35.8-16-71.5-18.4-103.7-3.8-50.4,3.7-108.9,9.2-163.6,5.2-50.9,12.7-103,20.7-152,16.9-103,49.2-200.5,41.5-306.4-2.6-35.6-12.7-69.7-25.3-103.7-11.9-32-30.6-66.4-32.3-96.7-1.8-33.4,9.3-71.1,11.5-108.3,4.6-78.6,2.4-155.9-11.5-223.4-7-33.8-23.4-69.2-23-99,.2-16.3,7.4-33.5,11.5-50.7,11.9-50,19.7-114.8,16.1-172.8-2.8-44.6-19.2-84.3-39.2-119.8-20-35.5-39.6-67.6-66.8-92.1-60.2-54.4-155.1-54.6-253.4-66.8-47.7-3.8-41.3-20.2-9.2-20.7-65.1-40.9-122.1-89.8-191.2-126.7-2.6,13.6-8,29.4-11.5,46.1-3,14.1,0,37.8-16.1,41.5,5.5-61.3,11.1-122.5,16.1-184.3-36.1,28.9-66.2,81.7-112.9,101.4-30.6,12.9-60.6,15.3-97,0-47.8-20.1-72.7-66.6-110.6-101.4-1.4.1-2.7.3-2.3,2.3,3.7,60,14.1,125.6,13.8,182h0ZM1378.5,1007.1c18.2-43.7,57.3-39.5,72.1.5-44.2-39.5-67.9,16.9-72.1-.5h0ZM1313.7-13.7c11.9,2.5,20.8,5.9,33,5.9,18.9,0,36.1,8.5,41.3,26.6,1.6,5.5,21.3,52-3.6,24.2-9.6-10.7-8.4-30.6-28.6-34.1-10.9-1.9-52.4-23.6-42.2-22.6h0ZM1512.4-13.7c-11.9,2.5-20.8,5.9-33,5.9-18.9,0-36.1,8.5-41.3,26.6-1.6,5.5-21.3,52,3.6,24.2,9.6-10.7,8.4-30.6,28.6-34.1,10.9-1.9,52.4-23.6,42.2-22.6h0ZM1238.4,2450.1c25.4,41.5,83.3,63.1,86.9,43.1,2.3,4,12.6,22.8-18.1,24.7-13.8,0-40.1-15.8-50-25.7-13.5-13.5-16.6-28.1-18.9-42.2h0ZM1209.9,2473c-18.4,18.9-29.3,30.3-59.7,33.2,6.1,6.4,13.2,14.3,39.1,8.9,19.2-11.6,21.2-26.6,20.7-42.1h0ZM1165.2,2587.7c5,51,10.9,114.9,38.5,139.1,9.8,10.4,29.7,14.7,54.1,20.9-22.5,9.2-53.8,4.1-77.7-11.2-21.3-13.7-33.5-134.8-14.9-148.7h0ZM1327.3,2559.5c-.3,27,.2,125-11.4,149.2-5.6,11.7-21.8,22.4-34.7,26.4,22.4,9.2,19.5,10.2,43.4-5.1,21.3-13.7,21.3-156.6,2.7-170.5h0ZM1611.7,2450.1c-25.4,41.5-83.3,63.1-86.9,43.1-2.3,4-12.6,22.8,18.1,24.7,13.8,0,40.1-15.8,50-25.7s16.6-28.1,18.9-42.2h0ZM1640.3,2473c18.4,18.9,29.3,30.3,59.7,33.2-6.1,6.4-13.2,14.3-39.1,8.9-19.2-11.6-21.2-26.6-20.7-42.1h0ZM1685,2587.7c-5,51-10.9,114.9-38.5,139.1-9.8,10.4-29.7,14.7-54.1,20.9,22.5,9.2,53.8,4.1,77.7-11.2,21.3-13.7,33.5-134.8,14.9-148.7h0ZM1522.9,2559.5c.3,27-.2,125,11.4,149.2,5.6,11.7,21.8,22.4,34.7,26.4-22.5,9.2-19.5,10.2-43.4-5.1-21.3-13.7-21.3-156.6-2.7-170.5h0ZM1609.6-589.6c2.5-26.5,5.8-50.4,6.9-76,3-67.2-19.3-109.3-50.7-142.8-33-35.3-94.9-69.9-152-73.7-64.8-4.3-123.7,28.4-166.1,73.7-24.4,26.1-47.3,63.2-50.7,108.3-3.2,41.6,4.1,79.1,6.9,112.9.8,9.9,9.4,27.2-4.6,34.6-15.3,0-2.6-28.1-20.7-25.3-17.7.8-20.4,28.9-18.4,53,3.2,39.2,24.9,89,46.1,101.4-.9-10.9.2-19.8,11.5-18.4,16,34.9,12.2,74.4,25.3,108.3,12.2,31.5,37.1,57.1,59.9,80.6,28.1,29,58.2,57.4,103.7,59.9,54.8,3.1,75.6-30.7,103.9-59.9,38.3-39.6,60.3-72,71.4-135.9,3.4-19.8,3.7-43.5,16.1-53,9.4-.2,9.9,8.5,9.2,18.4,22-12.7,56.4-86.7,46.1-133.6-2.3-10.4-11.5-23.8-20.7-20.7-14.8,5-2,21.5-20.7,25.3-9.7-10.5-3.4-25.7-2.3-36.9h0Z"/>
      <path class="cls-3" d="M1120.5,6.5c-118.2,52.1-227.6,159.3-301.9,344.3-14.2,7.3-35.5-3.6-21.1-96.6,20.8-77.5,11.4-122.1,91.3-233.6,65.5-69.5,247.6-40.6,231.7-14h0Z"/>
      <path class="cls-3" d="M887.8,8.1c-87.7,86.2-129.3,260.7-105.1,378.6-18,65.6-38.6,106.5-52.5,67.4-53.9-211.9-10.3-340.8,90.2-423.3,12.5-9.3,60.7-31.8,67.3-22.7h0Z"/>
      <path class="cls-3" d="M891.7,354.6c-10.6-53.6-24.4-86.4-60.3,26.4-68,156.5-57.4,309.9-60.3,461.3,6.8,110.8,55.2,96.3,96,39.5,47.6-82.2,93.2-337,24.5-527.2h0Z"/>
      <path class="cls-3" d="M756.7,481.8c29.6-38.3,35.9-31.2,18.7,21.1-17.8,109.9-29,218.8-15.2,353.8,0,43.4-34.7,57.2-45.6,22.3-23.4-163.7-28.3-311.7,42.1-397.1h0Z"/>
      <path class="cls-3" d="M699.9,975.2c30.8-93,131.9-51.5,124.5,74.3,22.7,191.4-17.8,361.4,0,562.2-6,60.9-18.7,65.6-30.1,14-24.9-251.4-140.3-511.9-94.4-650.6h0Z"/>
      <path class="cls-3" d="M661.1,1142.1c12.6-88.3,18.5-8.2,26.9,39.9,26.2,162.7,84.9,319.8,96.1,479.6-.8,35.4-34.8,43.6-48,30.5,1.1-160-83.8-491.5-75-549.9h0Z"/>
      <path class="cls-3" d="M874.3,953.5c-26.5-23.8-38.6-11.7-36.4,36.4,11.3,125.6,22.3,251.1-2.7,373.1-1.8,52.1,5.4,59.3,21.5,21.5,52.6-140.7,80-283,17.5-431h0Z"/>
      <path class="cls-3" d="M1708.2,6.5c118.2,52.1,227.6,159.3,301.9,344.3,14.2,7.3,35.5-3.6,21.1-96.6-20.8-77.5-11.4-122.1-91.3-233.6-65.5-69.5-247.6-40.6-231.7-14h0Z"/>
      <path class="cls-3" d="M1940.9,8.1c87.7,86.2,129.3,260.7,105.1,378.6,18,65.6,38.6,106.5,52.5,67.4,53.9-211.9,10.3-340.8-90.2-423.3-12.5-9.3-60.7-31.8-67.3-22.7h0Z"/>
      <path class="cls-3" d="M1945.1,354.6c10.6-53.6,24.4-86.4,60.3,26.4,68,156.5,57.4,309.9,60.2,461.3-6.8,110.8-55.2,96.3-96,39.5-47.6-82.2-93.2-337-24.5-527.2h0Z"/>
      <path class="cls-3" d="M2080.2,481.8c-29.6-38.3-35.9-31.2-18.7,21.1,17.8,109.9,29,218.8,15.2,353.8,0,43.4,34.7,57.2,45.6,22.3,23.4-163.7,28.3-311.7-42.1-397.1h0Z"/>
      <path class="cls-3" d="M2136.9,975.2c-30.8-93-131.9-51.5-124.5,74.3-22.7,191.4,17.8,361.4,0,562.2,6,60.9,18.7,65.6,30.1,14,24.9-251.4,140.3-511.9,94.4-650.6h0Z"/>
      <path class="cls-3" d="M2175.7,1142.1c-12.6-88.3-18.5-8.2-26.9,39.9-26.2,162.7-84.9,319.8-96.1,479.6.8,35.4,34.8,43.6,48,30.5-1.1-160,83.8-491.5,75-549.9h0Z"/>
      <path class="cls-3" d="M1962.5,953.5c26.5-23.8,38.6-11.7,36.4,36.4-11.3,125.6-22.3,251.1,2.7,373.1,1.8,52.1-5.4,59.3-21.5,21.5-52.6-140.7-80-283-17.5-431h0Z"/>
      <path class="cls-3" d="M1235-92.3c18.8,56.1,29.3,47.7-35.3,43.2-133.6-9.3-128.9-6.2-17.8-66.7,52.7-28.7,36.2-27.1,53.1,23.5h0Z"/>
      <path class="cls-3" d="M1267.5-224.1c2.6,52.6,28.3,132.2,51.6,168,34.1,52.2,75.4,45.5,69.9,21.2-41.1-58-45.6-125-59.1-145.3-32.7-20.9-58.2-72.6-62.4-43.9h0Z"/>
      <path class="cls-3" d="M1170.7,9.1c47.5-15.2,232.1,59.6,201.9,69.2-126.9,40.8-250.2,68.5-391.5,162.1-48.9,25.9-52.9,14.1-35.4-33.8,35.3-110.4,122.2-159.3,225.1-197.5h0Z"/>
      <path class="cls-3" d="M1020,229.6c-26.6,14.1-49.9,27.4-63.4,36.5-23.2,15.6-21.2,23.7,6.4,17.7,28.3-6.3,58.7-6.2,87.5-4.5,153.4,9,280.6,63.6,336.3,56.5,19.7,2.5,15.2-222.6-16.7-223.2-140,18.5-242.4,54.1-350.1,117.1h0Z"/>
      <path class="cls-3" d="M989.2,291.5c-52.7,3.3-53,10.8-49,50.1,16.7,60.1,52.4,114.1,107,125.1,117.8,23.8,278.8-32.6,299.6-36.3,28-9.2,62.4-38.4,18.1-63.8-108.9-52.1-313.2-83-375.6-75.1h0Z"/>
      <path class="cls-3" d="M1209.4,512.1c-20.6,16.6-36.4,92.5-9.5,92.5,23.1-1.6,37.8-17.4,79.2-22.1,34.3-3.8,71.4-.6,92.8-4,36.8-18.2,33.2-118.2-1.2-121-60.1,3-120.9,8.9-161.3,54.6h0Z"/>
      <path class="cls-3" d="M1199.4,627.3c37.5-25.3,130.8-37.6,178.4-24.2,22.3,10.6,21.8,110,7.8,146.5-15.7,27.3-108.3,10.7-174.8,28.6-46.6,17.9-50.8-122.3-11.4-150.9h0Z"/>
      <path class="cls-3" d="M1201.9,808.3c31.8-19.2,116.4-25,157.4-20.5,48.7,3.6,37.4,146.4,17.5,158.3-22.6,19.2-17.5,35.3-40,58.6-17.8,12-64.3,15.8-91.4,27.7-57.8,16.4-75-210.7-43.5-224h0Z"/>
      <path class="cls-3" d="M1236.7,1073.2c41.5-23.8,83-40.2,124.5-35.6,27,7.1,31.3,22.1,30.8,36.8,3.6,117.1,3.3,230.2,3.6,344-2.4,41.5-46.3,75.9-75.9,15.4-62.5-102.8-127.3-340.9-83-360.6h0Z"/>
      <path class="cls-3" d="M1578.7-92.3c-18.8,56.1-29.3,47.7,35.3,43.2,133.6-9.3,128.9-6.2,17.8-66.7-52.7-28.7-36.2-27.1-53.1,23.5h0Z"/>
      <path class="cls-3" d="M1551.8-224.1c-2.6,52.6-28.3,132.2-51.6,168-34.1,52.2-75.4,45.5-69.9,21.2,41.1-58,45.6-125,59.1-145.3,32.7-20.9,58.2-72.6,62.4-43.9h0Z"/>
      <path class="cls-3" d="M1653.9,9.1c-47.5-15.2-232.1,59.6-201.9,69.2,126.9,40.8,250.2,68.5,391.5,162.1,48.9,25.9,52.9,14.1,35.4-33.8-35.3-110.4-122.2-159.3-225.1-197.5h0Z"/>
      <path class="cls-3" d="M1804.7,229.6c26.6,14.1,49.9,27.4,63.4,36.5,23.2,15.6,21.2,23.7-6.4,17.7-28.3-6.3-58.7-6.2-87.5-4.5-153.4,9-280.6,63.6-336.3,56.5-19.7,2.5-15.2-222.6,16.7-223.2,140,18.5,242.4,54.1,350.1,117.1h0Z"/>
      <path class="cls-3" d="M1835.4,291.5c52.7,3.3,53,10.8,49,50.1-16.7,60.1-52.4,114.1-107,125.1-117.8,23.8-278.8-32.6-299.6-36.3-28-9.2-62.4-38.4-18.1-63.8,108.9-52.1,313.2-83,375.6-75.1h0Z"/>
      <path class="cls-3" d="M1615.2,512.1c20.6,16.6,36.4,92.5,9.5,92.5-23.1-1.6-37.8-17.4-79.2-22.1-34.3-3.8-71.4-.6-92.8-4-36.8-18.2-33.2-118.2,1.2-121,60.1,3,120.9,8.9,161.3,54.6h0Z"/>
      <path class="cls-3" d="M1625.2,627.3c-37.5-25.3-130.8-37.6-178.4-24.2-22.3,10.6-21.8,110-7.8,146.5,15.7,27.3,108.3,10.7,174.8,28.6,46.6,17.9,50.8-122.3,11.5-150.9h0Z"/>
      <path class="cls-3" d="M1622.8,808.3c-31.8-19.2-116.4-25-157.4-20.5-48.7,3.6-37.4,146.4-17.5,158.3,22.6,19.2,17.5,35.3,40,58.6,17.8,12,64.3,15.8,91.4,27.7,57.8,16.4,75-210.7,43.5-224h0Z"/>
      <path class="cls-3" d="M1587.9,1073.2c-41.5-23.8-83-40.2-124.5-35.6-27,7.1-31.3,22.1-30.8,36.8-3.6,117.1-3.3,230.2-3.6,344,2.4,41.5,46.3,75.9,75.9,15.4,62.5-102.8,127.3-340.9,83-360.6h0Z"/>
      <path class="cls-3" d="M997.6,502.8c-22.8-4.5-20.8,22.4-5.4,31.4,44.1,44.9,114.5,107.7,160.9,118.9,13.3,4,1.4-41.8,6-77.5,4.9-38.1,21.1-71.6,5.6-67.8-46.7,13.6-112.9,9.2-167-4.9h0Z"/>
      <path class="cls-3" d="M994.1,558.3c47.3,46,102.7,97,154.1,115.7,17.1,2,5,80.1,10.5,141.7,5.5,61.5,24.6,151,8.7,139.4-53.2-27.9-119.8-137.8-170.3-330.7-18.7-60.7-16.3-69.4-3-65.9h0Z"/>
      <path class="cls-3" d="M1109.3,932.2c-32.5-30.3-37.5-19-39.3,33.9-4.1,108.4,25.7,176.1,89.4,239.8,42.5,52.8,61.4,50.1,46.1-16.3-15.8-80.3,0-145.1-96.2-257.4h0Z"/>
      <path class="cls-3" d="M1828.6,502.8c22.8-4.5,20.8,22.4,5.4,31.4-44.1,44.9-114.5,107.7-160.9,118.9-13.3,4-1.4-41.8-6-77.5-4.9-38.1-21.1-71.6-5.6-67.8,46.7,13.6,112.9,9.2,167-4.9h0Z"/>
      <path class="cls-3" d="M1832.1,558.3c-47.3,46-102.7,97-154.1,115.7-17.1,2-5,80.1-10.5,141.7-5.5,61.5-24.6,151-8.7,139.4,53.2-27.9,119.8-137.8,170.3-330.7,18.7-60.7,16.3-69.4,3-65.9h0Z"/>
      <path class="cls-3" d="M1716.9,932.2c32.5-30.3,37.5-19,39.3,33.9,4.1,108.4-25.7,176.1-89.4,239.8-42.5,52.8-61.4,50.1-46.1-16.3,15.8-80.3,0-145.1,96.2-257.4h0Z"/>
      <path class="cls-3" d="M1043.4,1224.7c8.8-94.4,83.6,54.1,59.6,112.3-10.3,33.9-24.7,65.7-30.8,101.8-9.8,49-42.1,34.7-37.9-26,5.5-57.8-1.2-128.9,9-188.1h0Z"/>
      <path class="cls-3" d="M1194.4,1338.8c116.1,197.4,112.5,271.4,35.5,628.2-10.5,81.8-22.3,135.5-43.4-7.9-21.5-203.3-136.2-357.9-64.4-609.8,13.6-35,16.6-109.5,72.3-10.5h0Z"/>
      <path class="cls-3" d="M1019.6,1571.1c14.7-98,32-101.2,51.9-9.6,72.4,283.9,133.3,563.3,128.7,816.4-11.5,75.8-29.3,131-92.2,42.3-112.5-239.1-150.1-517.8-88.4-849h0Z"/>
      <path class="cls-3" d="M1124.3,2834.1c27.7-131,97.1-54.4,129.8,148.4,33.4,198.5-44.3,412.4,55.3,824.6,14.1,49.6-5,65.4-17,70-17.6,6.8-42.4-17.9-45.8-37.3-66-381-235.3-646.3-122.3-1005.7h0Z"/>
      <path class="cls-3" d="M1301.5,2827.1c-7-89.5,32.7-97.3,56,39.7,71.8,250.6,3.2,340.9-18.7,499.6-7.8,87.2-31.9,84.8-28-30.3-3.1-169.6,24.1-318.3-9.3-508.9h0Z"/>
      <path class="cls-3" d="M1795.8,1224.7c-8.8-94.4-83.6,54.1-59.6,112.3,10.3,33.9,24.7,65.7,30.8,101.8,9.8,49,42.1,34.7,37.9-26-5.5-57.8,1.2-128.9-9-188.1h0Z"/>
      <path class="cls-3" d="M1650.3,1338.8c-116.1,197.4-112.5,271.4-35.5,628.2,10.5,81.8,22.3,135.5,43.4-7.9,21.5-203.3,136.2-357.9,64.4-609.8-13.6-35-16.6-109.5-72.3-10.5h0Z"/>
      <path class="cls-3" d="M1825.1,1571.1c-14.7-98-32-101.2-51.9-9.6-72.4,283.9-133.3,563.3-128.7,816.4,11.5,75.8,29.3,131,92.2,42.3,112.5-239.1,150.1-517.8,88.4-849h0Z"/>
      <path class="cls-3" d="M1720.4,2834.1c-27.7-131-97.1-54.4-129.8,148.4-33.4,198.5,44.3,412.4-55.3,824.6-14.1,49.6,5,65.4,17,70,17.6,6.8,42.4-17.9,45.8-37.3,66-381,235.3-646.3,122.3-1005.7h0Z"/>
      <path class="cls-3" d="M1551.3,2827.1c7-89.5-32.7-97.3-56,39.7-71.8,250.6-3.2,340.9,18.7,499.6,7.8,87.2,31.9,84.8,28-30.3,3.1-169.6-24.1-318.3,9.3-508.9h0Z"/>
      <path class="cls-7" d="M1231.6,2100.1c-9.5,73.6-13.7,142-10.3,202.8,5.8,138.3,113.3,194,121,103.7,12.4-94.3,20.2-191.8,24-290.2-13,1.1-25,1.6-36.2,1.6-46.1,0-77.5-8.2-98.5-17.9h0Z"/>
      <path class="cls-6" d="M1367.6,2078.7c3.1-108.4,1.5-217.7-4.2-325.2-8.3-109.5-26.9-121.7-55.7-36.5-28.9,119.8-54.6,236.5-70.6,343.4,17.3,10.8,55.3,25.1,130.5,18.3h0Z"/>
      <path class="cls-6" d="M1608.1,2064.5c-15.9-108-41.9-226.1-71.2-347.4-28.8-85.2-47.4-73-55.7,36.5-5.7,107.2-7.3,216.3-4.2,324.4,71,7.6,110.5-3.2,131.1-13.5h0Z"/>
      <path class="cls-7" d="M1478.3,2115.7c3.8,98.7,11.7,196.3,24.1,290.9,7.7,90.3,115.3,34.6,121-103.7,3.3-59.9-.8-127.2-9.9-199.7-20.8,8.2-50.2,14.8-91.2,14.8s-28-.7-44-2.3h0Z"/>
    </g>
  </g>
</svg>