<?xml version="1.0" encoding="UTF-8"?>
<svg id="Capa_1" data-name="Capa 1" xmlns="http://www.w3.org/2000/svg" version="1.1" viewBox="0 0 1263.13 1005.68">
  <defs>
    <style>
      .cls-1 {
        fill: #f47b0f;
      }

      .cls-1, .cls-2, .cls-3, .cls-4, .cls-5 {
        stroke-width: 0px;
      }

      .cls-6 {
        fill: #000;
        font-family: Roboto-Bold, Roboto;
        font-size: 49.83px;
        font-weight: 700;
      }

      .cls-2 {
        fill: #582a84;
      }

      .cls-3 {
        fill: #e73f32;
      }

      .cls-4 {
        fill: #19ba20;
      }

      .cls-5 {
        fill: #32a1d8;
      }
    </style>
  </defs>
  <path id="Black_Backtround" data-name="Black Backtround" class="cls-2" d="M183.3,87.5l-4.18,13.94c-4.08.61-8.06,1.49-11.96,2.58l-9.03-11.17-18.96,8.44,1.85,14.46c-3.44,2.2-6.75,4.6-9.88,7.2l-12.79-6.54-13.89,15.43,7.83,12.03c-2.26,3.38-4.31,6.92-6.14,10.58l-14.56-.33-6.42,19.74,12.06,7.82c-.68,3.98-1.13,8.03-1.31,12.15l-13.44,5.62,2.17,20.65,14.17,2.23c1.01,3.99,2.29,7.87,3.77,11.65l-9.99,10.6,10.38,17.98,13.89-3.74c1.06,1.34,2.17,2.65,3.29,3.94l1.74,1.83.03.13c1.01,1.09,2.03,2.17,3.08,3.21l-4.82,13.76,16.79,12.2,11.15-9.05c3.6,1.89,7.32,3.58,11.16,5.02l1.19,14.5,20.31,4.32,6.51-12.82c2.1.13,4.22.23,6.35.23,1.97,0,3.93-.08,5.87-.19l7,12.78,20.3-4.31.74-14.32c3.85-1.42,7.58-3.1,11.18-4.98l11.59,8.83,16.79-12.2-5.17-13.42c2.92-2.85,5.65-5.87,8.2-9.06l14.19,3.36,10.38-17.98-10.16-10.14c1.5-3.77,2.8-7.65,3.83-11.63l14.28-2.7,2.17-20.65-13.43-5.14c-.16-4.12-.58-8.18-1.23-12.16l11.98-8.29-6.42-19.74-14.33.77c-1.82-3.67-3.86-7.21-6.1-10.61l7.57-12.45-13.89-15.42-12.79,6.54c-3.13-2.61-6.44-5-9.88-7.2l1.85-14.46-18.96-8.44-9.03,11.17c-3.9-1.09-7.88-1.97-11.96-2.58l-4.18-13.94h-20.76Z"/>
  <path id="Black_Backtround-2" data-name="Black Backtround" class="cls-1" d="M183.3,704.33l-4.18,13.94c-4.08.61-8.06,1.49-11.96,2.58l-9.03-11.17-18.96,8.44,1.85,14.46c-3.44,2.2-6.75,4.6-9.88,7.2l-12.79-6.54-13.89,15.43,7.83,12.03c-2.26,3.38-4.31,6.92-6.14,10.58l-14.56-.33-6.42,19.74,12.06,7.82c-.68,3.98-1.13,8.03-1.31,12.15l-13.44,5.62,2.17,20.65,14.17,2.23c1.01,3.99,2.29,7.87,3.77,11.65l-9.99,10.6,10.38,17.98,13.89-3.74c1.06,1.34,2.17,2.65,3.29,3.94l1.74,1.83.03.13c1.01,1.09,2.03,2.17,3.08,3.21l-4.82,13.76,16.79,12.2,11.15-9.05c3.6,1.89,7.32,3.58,11.16,5.02l1.19,14.5,20.31,4.32,6.51-12.82c2.1.13,4.22.23,6.35.23,1.97,0,3.93-.08,5.87-.19l7,12.78,20.3-4.31.74-14.32c3.85-1.42,7.58-3.1,11.18-4.98l11.59,8.83,16.79-12.2-5.17-13.42c2.92-2.85,5.65-5.87,8.2-9.06l14.19,3.36,10.38-17.98-10.16-10.14c1.5-3.77,2.8-7.65,3.83-11.63l14.28-2.7,2.17-20.65-13.43-5.14c-.16-4.12-.58-8.18-1.23-12.16l11.98-8.29-6.42-19.74-14.33.77c-1.82-3.67-3.86-7.21-6.1-10.61l7.57-12.45-13.89-15.42-12.79,6.54c-3.13-2.61-6.44-5-9.88-7.2l1.85-14.46-18.96-8.44-9.03,11.17c-3.9-1.09-7.88-1.97-11.96-2.58l-4.18-13.94h-20.76Z"/>
  <path id="Black_Backtround-3" data-name="Black Backtround" class="cls-5" d="M183.3,395.33l-4.18,13.94c-4.08.61-8.06,1.49-11.96,2.58l-9.03-11.17-18.96,8.44,1.85,14.46c-3.44,2.2-6.75,4.6-9.88,7.2l-12.79-6.54-13.89,15.43,7.83,12.03c-2.26,3.38-4.31,6.92-6.14,10.58l-14.56-.33-6.42,19.74,12.06,7.82c-.68,3.98-1.13,8.03-1.31,12.15l-13.44,5.62,2.17,20.65,14.17,2.23c1.01,3.99,2.29,7.87,3.77,11.65l-9.99,10.6,10.38,17.98,13.89-3.74c1.06,1.34,2.17,2.65,3.29,3.94l1.74,1.83.03.13c1.01,1.09,2.03,2.17,3.08,3.21l-4.82,13.76,16.79,12.2,11.15-9.05c3.6,1.89,7.32,3.58,11.16,5.02l1.19,14.5,20.31,4.32,6.51-12.82c2.1.13,4.22.23,6.35.23,1.97,0,3.93-.08,5.87-.19l7,12.78,20.3-4.31.74-14.32c3.85-1.42,7.58-3.1,11.18-4.98l11.59,8.83,16.79-12.2-5.17-13.42c2.92-2.85,5.65-5.87,8.2-9.06l14.19,3.36,10.38-17.98-10.16-10.14c1.5-3.77,2.8-7.65,3.83-11.63l14.28-2.7,2.17-20.65-13.43-5.14c-.16-4.12-.58-8.18-1.23-12.16l11.98-8.29-6.42-19.74-14.33.77c-1.82-3.67-3.86-7.21-6.1-10.61l7.57-12.45-13.89-15.42-12.79,6.54c-3.13-2.61-6.44-5-9.88-7.2l1.85-14.46-18.96-8.44-9.03,11.17c-3.9-1.09-7.88-1.97-11.96-2.58l-4.18-13.94h-20.76Z"/>
  <path id="Black_Backtround-4" data-name="Black Backtround" class="cls-4" d="M785.14,87.5l-4.18,13.94c-4.08.61-8.06,1.49-11.96,2.58l-9.03-11.17-18.96,8.44,1.85,14.46c-3.44,2.2-6.75,4.6-9.88,7.2l-12.79-6.54-13.89,15.43,7.83,12.03c-2.26,3.38-4.31,6.92-6.14,10.58l-14.56-.33-6.42,19.74,12.06,7.82c-.68,3.98-1.13,8.03-1.31,12.15l-13.44,5.62,2.17,20.65,14.17,2.23c1.01,3.99,2.29,7.87,3.77,11.65l-9.99,10.6,10.38,17.98,13.89-3.74c1.06,1.34,2.17,2.65,3.29,3.94l1.74,1.83.03.13c1.01,1.09,2.03,2.17,3.08,3.21l-4.82,13.76,16.79,12.2,11.15-9.05c3.6,1.89,7.32,3.58,11.16,5.02l1.19,14.5,20.31,4.32,6.51-12.82c2.1.13,4.22.23,6.35.23,1.97,0,3.93-.08,5.87-.19l7,12.78,20.3-4.31.74-14.32c3.85-1.42,7.58-3.1,11.18-4.98l11.59,8.83,16.79-12.2-5.17-13.42c2.92-2.85,5.65-5.87,8.2-9.06l14.19,3.36,10.38-17.98-10.16-10.14c1.5-3.77,2.8-7.65,3.83-11.63l14.28-2.7,2.17-20.65-13.43-5.14c-.16-4.12-.58-8.18-1.23-12.16l11.98-8.29-6.42-19.74-14.33.77c-1.82-3.67-3.86-7.21-6.1-10.61l7.57-12.45-13.89-15.42-12.79,6.54c-3.13-2.61-6.44-5-9.88-7.2l1.85-14.46-18.96-8.44-9.03,11.17c-3.9-1.09-7.88-1.97-11.96-2.58l-4.18-13.94h-20.76Z"/>
  <path id="Black_Backtround-5" data-name="Black Backtround" class="cls-3" d="M785.14,395.33l-4.18,13.94c-4.08.61-8.06,1.49-11.96,2.58l-9.03-11.17-18.96,8.44,1.85,14.46c-3.44,2.2-6.75,4.6-9.88,7.2l-12.79-6.54-13.89,15.43,7.83,12.03c-2.26,3.38-4.31,6.92-6.14,10.58l-14.56-.33-6.42,19.74,12.06,7.82c-.68,3.98-1.13,8.03-1.31,12.15l-13.44,5.62,2.17,20.65,14.17,2.23c1.01,3.99,2.29,7.87,3.77,11.65l-9.99,10.6,10.38,17.98,13.89-3.74c1.06,1.34,2.17,2.65,3.29,3.94l1.74,1.83.03.13c1.01,1.09,2.03,2.17,3.08,3.21l-4.82,13.76,16.79,12.2,11.15-9.05c3.6,1.89,7.32,3.58,11.16,5.02l1.19,14.5,20.31,4.32,6.51-12.82c2.1.13,4.22.23,6.35.23,1.97,0,3.93-.08,5.87-.19l7,12.78,20.3-4.31.74-14.32c3.85-1.42,7.58-3.1,11.18-4.98l11.59,8.83,16.79-12.2-5.17-13.42c2.92-2.85,5.65-5.87,8.2-9.06l14.19,3.36,10.38-17.98-10.16-10.14c1.5-3.77,2.8-7.65,3.83-11.63l14.28-2.7,2.17-20.65-13.43-5.14c-.16-4.12-.58-8.18-1.23-12.16l11.98-8.29-6.42-19.74-14.33.77c-1.82-3.67-3.86-7.21-6.1-10.61l7.57-12.45-13.89-15.42-12.79,6.54c-3.13-2.61-6.44-5-9.88-7.2l1.85-14.46-18.96-8.44-9.03,11.17c-3.9-1.09-7.88-1.97-11.96-2.58l-4.18-13.94h-20.76Z"/>
  <text class="cls-6" transform="translate(343.58 198.03)"><tspan x="0" y="0">MORADO</tspan></text>
  <text class="cls-6" transform="translate(343.58 259.23)"><tspan x="0" y="0">#582A84</tspan></text>
  <text class="cls-6" transform="translate(343.58 479.34)"><tspan x="0" y="0">AZUL</tspan></text>
  <text class="cls-6" transform="translate(343.58 540.55)"><tspan x="0" y="0">#32A1D8</tspan></text>
  <text class="cls-6" transform="translate(947.96 198.03)"><tspan x="0" y="0">VERDE</tspan></text>
  <text class="cls-6" transform="translate(947.96 259.23)"><tspan x="0" y="0">#19BA20</tspan></text>
  <text class="cls-6" transform="translate(947.96 479.34)"><tspan x="0" y="0">ROJO</tspan></text>
  <text class="cls-6" transform="translate(947.96 540.55)"><tspan x="0" y="0">#E73F32</tspan></text>
  <text class="cls-6" transform="translate(343.58 802.39)"><tspan x="0" y="0">NARANJA</tspan></text>
  <text class="cls-6" transform="translate(343.58 863.6)"><tspan x="0" y="0">#F47B0F</tspan></text>
</svg>