<?xml version="1.0" encoding="UTF-8"?>
<svg id="_ÎÓÈ_1" data-name=" ÎÓÈ 1" xmlns="http://www.w3.org/2000/svg" xmlns:xlink="http://www.w3.org/1999/xlink" version="1.1" viewBox="0 0 2834.6 2834.6">
  <defs>
    <style>
      .cls-1 {
        clip-path: url(#clippath);
      }

      .cls-2 {
        fill: none;
      }

      .cls-2, .cls-3, .cls-4, .cls-5, .cls-6 {
        stroke-width: 0px;
      }

      .cls-3 {
        fill: #e73f32;
      }

      .cls-3, .cls-4, .cls-5, .cls-6 {
        fill-rule: evenodd;
      }

      .cls-4 {
        fill: #ececec;
      }

      .cls-5 {
        fill: #868686;
      }

      .cls-6 {
        fill: #c6c6c5;
      }
    </style>
    <clipPath id="clippath">
      <rect class="cls-2" x="-1.7" y="2.1" width="2838.1" height="2830.3"/>
    </clipPath>
  </defs>
  <g class="cls-1">
    <g>
      <path class="cls-5" d="M1583.4,293.5c39.2.3,43.3,46.4,32.7,88.9-8.7,34.8-24.1,64.6-52.6,74.4-9,42.4-9.5,93.4-14.5,139.8,10.8,15.1,28.6,22.7,43.6,32.7,44.6,29.7,89.6,63.2,134.3,94.4,51,4.9,108.5,10.4,148.9,29,36.2,16.7,60.9,44.6,81.7,78.1,19.4,31.2,41.7,70.9,45.4,112.6,4.2,47.9-1.6,106.4-10.9,148.9-2.9,13.4-10.7,29.3-10.9,41.8-.2,9.7,5.8,26.5,9.1,39.9,14.8,60.6,23.7,132.9,18.1,214.2-2,28.9-9.4,59.9-7.3,87.1,1.9,23.7,15.6,48.1,23.6,69,9.3,24.4,15.4,46.9,18.1,74.4,5.5,54.4-1.9,111.5-12.7,165.2-15.2,75.7-29,155.8-36.3,241.4-2.5,28.9-6.4,60-5.4,87.1,1,27.1,9.9,56.1,14.5,83.5,6.1,36.1,18.7,75.2,7.3,107.1-3.8,10.4-8.8,15-18.2,25.4-6.3,7-9.9,17.5-16.3,25.4-6.1,7.4-15.6,11.1-23.6,20-10.3,11.5-14.1,20.2-20,21.8-16.7,4.6-39.6-3.1-54.4-7.3-13.4-3.7-33.4-9.6-41.8-18.1-9.7-10-8.6-24.7-14.5-36.3-6.9-13.6-18.2-14.7-25.4-23.6-18.6,142.1-39,280.7-88.9,395.7-9.1,20.9-21,41.6-23.6,67.2-2.9,27.8,2.4,56.2-1.8,85.3-1.8,12.5-7.6,25.6-7.3,38.1.5,22.4,12.2,46.9,18.2,70.8,16.6,66.7,32.3,145,32.7,228.7.5,110.9-30.3,210.8-58.1,305-19.3,65.4-39.6,142-52.6,219.6-5,29.9-14.3,63.4-9.1,90.8,4.4,23.1,23.3,47.1,39.9,69,12.7,16.7,22.4,28.3,39.9,41.8,6,4.6,12.6,13,18.1,14.5,28.7,8.1,64.3,16.3,63.5,43.6-.5,15.9-12,22.9-39.9,23.6-20.6.5-41.1,0-61.7,0-42.2,0-88.6,6.3-123.4,1.8-9.7-1.2-17.8-7.9-30.9-9.1-29.8-2.7-58.5,7.4-69-9.1-13.3-20.9,17.1-80.2,16.3-105.3-.4-14.5-7.6-29.2-7.3-43.6.6-22,11.3-45.1,14.5-69,15.5-115.8,10.5-276.2-10.9-386.6-8.7-45.1-26.1-87.1-29-136.1-6.2,10.5-5,22.7-7.3,34.5-6.3,33.4-17.2,66.8-23.6,101.7-20.2,111.1-24.5,268.1-7.3,386.6,1.8,12.4,4,22.3,7.3,34.5,2.7,10.1,6.8,22.7,7.3,32.7.7,15.3-7.2,29.6-7.3,43.6-.2,37.2,27.2,68.4,18.1,107.1-8.4,15.7-43.3,7.6-67.2,9.1-14.5.9-22.7,9.1-39.9,9.1h-118c-39.2,0-94.5,5.9-99.8-16.3-6.2-25.6,20.5-39.4,38.1-45.4,6.2-2.1,14.3-2.3,21.8-5.4,21.7-9,45.9-35.3,59.9-54.5,12.8-17.5,36.3-48.3,39.9-72.6,3.8-25.3-3.9-56.6-9.1-85.3-13.4-74.5-34.8-156.7-54.5-223.3-27.7-94.1-61.7-190.9-61.7-308.6s19.5-181,39.9-261.4c2.8-11.1,8.6-22.8,9.1-32.7.9-20.5-9.3-43-10.9-65.3-1.8-25.1,2.2-56.7-3.6-78.1-9.1-33.2-28.7-64.2-39.9-99.8-31.7-100.7-60.3-222.4-70.8-343.1-6.1.9-16.2,8.5-21.8,14.5-8.8,9.6-9.7,35.5-20,45.4-10.1,9.7-28.9,12.3-43.6,16.3-20.3,5.5-48.7,17.2-63.5,0-2.2-2.6-3.1-10-7.3-14.5-6.6-7.2-16.5-11.4-23.6-20-14.7-17.6-29.9-31.2-36.3-49-9.5-26.4-.9-66.3,5.4-103.5,4.7-27.4,12.7-55.5,14.5-78.1,2.2-27.3-2.8-58.3-5.4-88.9-7.2-84.5-20.6-166.9-36.3-245.1-10.7-53.2-22.6-105.7-16.3-167,2.8-27.5,9.4-51.8,18.1-76.2,8.2-22.7,21.8-46.4,23.6-69,2.1-26.5-7.4-56-9.1-85.3-4.5-77.4,1.7-152.9,16.3-216,3-13,9.1-27.2,9.1-38.1,0-12.5-6-27.2-9.1-39.9-8.7-36.5-14.9-85.4-14.5-132.5.4-50.2,20.5-90.8,41.8-127.1,19.9-34,48.2-68.1,83.5-85.3,30.5-14.9,70-20.6,107.1-25.4,12.2-1.6,16.5-.1,29.2-3.6,13-3.6,39.3-17.7,52.5-27.2,41-29.8,86.2-55.7,130.5-85.3-7.3-49.6-5.5-108.2-16.3-154.3-5-6.8-21.5-10.1-29-20-6.2-8.2-19.8-39-23.6-52.6-11.1-39.4-9.2-93.4,32.7-90.8-2.9-24.4-8.8-45.8-9.1-67.2-.7-56.2,35.2-105.8,72.6-132.5,26.5-18.9,66.2-37,103.5-39.9,81.1-6.4,163.7,57.4,185.3,130.7,10.5,35.5,2.2,69-3.6,107.1h0ZM1726.8,1404.5c-6,13-17,26.8-18.2,36.3-1,8.4,2.3,24.5,3.6,36.3,5.6,51.2,12.6,110,1.8,156.1,36.3,57.7,25.3,141.7,38.1,216,4,23.4,11.4,47.1,16.3,69,22,97.2,21.1,204.2,29,312.2,9.4-33.5,33.7-61.8,45.4-98,6.7-21,9.7-48.3,12.7-74.4,3-26.4,7.5-55.6,7.3-81.7-.3-39.4-15.5-73.4-29-110.7-12.4-34.2-22.9-71.6-32.7-107.1-17.7-64-17.9-125.2-3.6-183.4,7.2-29.5,21.3-73.8,14.5-108.9-5.4-27.9-20.5-56.3-27.2-87.1-6.6-30.1-11.1-72.5-16.3-101.7-11.1,41.4-24.4,89.3-41.7,127.1h0ZM1047.9,1386.3c-6.8,31.9-24.2,60.7-27.2,90.8-4.7,46.2,12.9,73.4,20,107.1,15.3,72.7,5.7,143.5-14.5,206.9-9.2,28.8-16.5,60.6-27.2,90.8-11.5,32.4-23.3,61.5-23.6,96.2-.2,23.7,4.1,48.4,7.3,72.6,3.1,24.4,5.1,49.3,10.9,70.8,10.8,40.4,34,74.7,50.8,110.7,4-108.3,3.6-212.2,21.8-299.5,6.3-30,16-60.1,20-87.1,8.5-58.9,3.7-118,18.1-167,4.6-15.8,15.1-32,16.3-47.2,1.2-15.2-4.8-31.8-5.4-47.2-2.1-48.1,5.2-96,10.9-143.4-30.1-44.9-44.4-105.7-63.5-161.6-3.7,37.4-7.2,73-14.5,107.1h0ZM1416.4,2172.3c-2.2,175.5-3.6,346.1-25.4,501-3.1,22.1-13.6,44.1-12.7,63.5.6,14.5,10,30,12.7,45.4,6.7,37.3,6.1,80.9,1.8,118-2.5,21.6-10.1,40.3-9.1,61.7,1.4,29.1,13.5,54.6,21.8,81.7,8.8,28.7,14.1,56.8,18.2,85.3-1.8-59.6,40.2-112.8,38.1-176.1-.8-23.1-9.5-46-10.9-69-1.9-30-3.3-63.3,0-92.6,2.1-18.7,14.4-38,14.5-56.3.1-18.6-9.3-40.1-12.7-61.7-24.5-155-26.1-331-29-502.8-2.5.6-3.5,2.6-7.3,1.8h0Z"/>
      <path class="cls-6" d="M1292.7,691.1c-8.2-3.6-9-16.6-10.9-25.4-2.3-10.9-4-22.3-5.4-32.7-47.6,26.8-105.6,60.4-149.7,90.8,28.8,2.5,38.2,15.1-4.5,18.1-83.2,3.9-161,15.8-203.3,58.1-30.7,30.7-70.5,98.3-74.4,150.7-3.6,48,3.9,106.1,12.7,143.4,3.4,14.4,8.8,29.6,9.1,43.6.4,24.9-11.2,52.6-16.3,79.9-10.6,56.1-12.3,116.8-7.3,179.7,2.5,31.2,11.2,62.5,7.3,90.8-3.7,26.1-20.4,50.1-29,76.2-21.6,65.1-13.8,138.5,0,206.9,18.9,93.8,35.4,185.5,43.6,285,1.7,20.8,4.4,43.9,3.6,63.5-1.1,26.5-10.1,56.1-14.5,83.5-2.2,13.6-5.3,27.8-7.3,41.8-2.2,15.2-5.4,32.5-3.6,45.4,3.4,24.3,28.9,34.5,38.1,58.1,17.1,3.2,22.9,29,36.3,32.7,17,4.7,69.1-13.9,76.2-21.8,8.3-9.1,6.8-26.1,12.7-36.3,9.3-16.3,25.8-17.8,29-30.9,3.3-13.5-3.1-45.2-10.9-63.5-14.4-34.2-37.2-61.7-47.2-98-4.9-17.9-6.3-40.3-9.1-63.5-2.6-21.8-7.8-44.2-9.1-65.3-3-48.6,5.5-81.7,18.1-116.2,8.6-23.4,16.6-46.1,23.6-69,14-45.7,31-96.1,30.9-152.5,0-24.1-2.7-49.7-7.3-72.6-4.2-21.2-13.8-40.8-18.1-61.7-12.5-59.4,13.4-98,23.6-143.4,15-66.9,19-145.8,18.1-225.1-.1-9.6-4.1-23.6,1.6-32.7-28.1-50.6-53.5-144.9-45.5-159.9,10.7-38.5,24.5-55.1,43-72.2-7.1,17.5-14.1,35-21.1,52.5-5.8,18-6.8,36-2.9,53.9,14.2,79,47,129.8,102,146.5,41.5,6.8,84.8,1.7,128.3-5.1-37.4,18.7-87.3,26.2-159.6,13.9-16.1-4.3-21.6-7.6-28.5-13.1-.1,6.1-.9,12.5-.9,18,0,16.7-1.4,36.3,0,49,2.6,23.1,11.8,48.2,18.1,70.8,16.8,59.9,37.6,114.6,61.7,163.4,4.8,9.6,13.2,19.5,10.9,30.9-7.7,8.1-12.2-17.8-16.3-7.3-11.8,75.6-6,157.5,12.7,217.8,3.2,10.5,12.2,22,7.3,32.7-11.9-2.3-13.6-15.8-18.1-25.4-4.6-9.7-10-20.1-14.5-29-10.7,28.6-13.8,58.2-16.3,88.9-2.7,33.1-1.9,68.7-7.3,99.8-3,17.5-8.9,35.5-12.7,52.6-12,54.5-21.8,112.4-23.6,177.9-2.4,85.7-11.8,173.4-1.8,257.8,13.6,114.9,41.9,226.5,74.4,324.9,11,33.4,32.7,63.5,38.1,96.2,3.5,21.3-1.3,39.7,0,59.9,1.4,21.2,5.4,42.7,9.1,61.7,3.8,19.6,12.4,37.8,10.9,56.3-8.5,9.9-16.2-11.2-18.2-1.8-42.6,139.7-51.9,297.9-10.9,446.6,32.5,117.8,69.7,227.2,90.8,355.8,3.2,19.6,7.9,40.3,7.3,58.1-.9,25.4-9.7,40.9-20,58.1-16.2,27.1-35.6,50.8-56.3,69-3.1,2.7-13.7,10.9-7.3,10.9,11-1,24,1.3,36.3,1.8,12,.4,26.3-3.2,34.5,3.6-13.4,6.8-32.2,5.6-50.8,7.3-42.2,3.7-87.6,1.2-98,32.7,16,6.5,33.7,3.6,50.8,3.6s36.5-.3,54.5,0c35.1.5,70.8,4.8,103.5,0,8.5-1.2,15.5-6.2,23.6-7.3,21.1-2.8,40.3,3.5,59.9-1.8,3.6-37.1-20.3-63.7-20-98,.2-14,8.1-28,7.3-43.6-.9-16.9-9.4-32.2-12.7-49-3.6-18.2-3.8-38.2-5.5-56.3-11.3-120.5-8.6-236.4,12.7-352.2,6.8-36.7,17.5-69.1,23.6-101.7,14.3-75.9,8-158.5-12.7-223.3-10.1-31.8-24-67.4-23.6-101.7.3-22.8,9.5-44.3,10.9-65.3,1.9-28.8,2.8-59.7,0-88.9-1.7-18.4-12.9-36.9-14.5-56.3-2.4-29.9,9.2-49.7,12.7-76.2,21.1-159,22.7-332.6,25.4-508.3,11.5-3.2,34.9-3.7,41.8,3.6-1.5,173.3,6.1,351.3,27.2,501,3,21.5,11,42.8,12.7,63.5,2.4,28.6-9,39.7-12.7,59.9-7.5,41.1-3.6,94.9,3.6,130.7,2.8,13.6,7.3,26.4,7.3,39.9,0,34.2-13.6,67.4-23.6,99.8-21.5,69.2-22,146.8-9.1,219.6,5.7,32.3,16.5,64.8,23.6,101.7,15.1,77.7,19.2,153.1,20,228.7.6,60.9-.8,123.1-9.1,176.1-2.6,17-11.2,33.2-12.7,50.8-1.6,17.9,7.3,31.9,7.3,49,0,14.6-7.2,32.2-10.9,47.2-3.9,15.7-9.6,30.9-9.1,49,18.8,8.4,39.6-1.9,63.5,1.8,7.3,1.1,14.1,6.2,21.8,7.3,31.6,4.6,70.2,0,105.3,0s54.7-.7,76.2-1.8c7.2-.4,18.2,3.4,23.6-3.6,4.4-11.2-9-16.3-16.3-20-25.3-12.7-78.5-10.7-108.9-14.5-7.3-.9-18.2,2.4-21.8-5.4,20.4-5,47.5-3.4,72.6-3.6-13.6-16.3-32.4-31.9-47.2-52.6-20.2-28.3-41.4-57-38.1-103.5,4.9-69.9,24.5-140,41.8-208.8,16.4-65.3,37-130.4,54.5-197.9,36.8-141.9,27-293.3-16.3-439.3-5.5-5.7-1.8,5.9-7.3,5.4-4.1,4.1-9.1-.1-12.7-1.8,5.3-34.5,17.1-68.3,20-108.9,1.5-20.7-2.5-42.8,0-65.3,3.6-31.9,25.1-64.7,36.3-98,33.4-99.6,60.6-213.2,72.6-330.4,8.8-86.4-.6-172.6-3.6-257.8-2.3-65.1-11.8-124.1-23.6-177.9-4.1-18.6-11.7-36-14.5-54.5-9.2-59.5-2.3-125.7-23.6-181.5-6.6,1.2-4.9,9.4-7.3,14.5-2.2,4.8-6.5,9.3-9.1,14.5-4.4,9-6.4,26.3-18.1,23.6.7-17.2,9.5-35.1,14.5-54.5,15.2-59,14.8-133.1,3.6-197.9-4.8-4.1-6.9,17.6-16.3,9.1,5.3-20.8,16.1-40.6,25.4-61.7,18.1-41,32.6-82.6,45.4-128.9,6.4-23.3,15.7-47.2,18.1-70.8,1.3-12.6,0-33,0-50.8s-1-14-.9-21c-9,7.5-13.3,11.1-32.2,16.2-72.4,12.4-122.3,4.9-159.6-13.9,43.5,6.8,86.8,11.9,128.3,5.1,55.1-16.8,87.8-67.5,102-146.5,3.9-18,2.9-36-2.9-53.9-7.1-17.5-14.1-35-21.1-52.5,18.5,17.1,32.3,33.7,43,72.2,7.8,14.6-15.9,103.8-43,155.3,9,10.6,4.6,27.3,4.6,39.1,0,86,4.6,163.4,21.8,228.7,7,26.7,19.5,51.6,23.6,76.2,7,42.3-8.7,79.4-16.3,110.7-4.5,18.6-7.9,38.1-9.1,58.1-4.7,81.4,24.4,157.8,45.4,219.6,15.8,46.5,32.7,83.9,29,143.4-2.9,46.3-10.5,113.6-27.2,154.3-15.7,38.3-56.7,94.4-47.2,134.3,4.1,17.2,23.2,18.5,30.9,32.7,5.6,10.4,4.2,27.6,12.7,36.3,17.2,17.5,52.4,14.8,76.2,21.8,6.7-5.7,11.5-13,18.1-20,6.4-6.7,14.2-11.2,20-18.1,2.6-3.2,2.9-9.3,5.5-12.7,8.3-11.4,23.6-20.4,27.2-32.7,7.3-24.9-4.1-62.3-9.1-92.6-4.6-28.2-12.6-56.4-14.5-81.7-3-39.7,2.9-85.8,7.3-128.9,4.1-40.1,10-81.1,16.3-119.8,13.3-81.2,38.8-158,32.7-241.4-2-28-10-54.9-20-81.7-9.4-25.2-24.1-52.3-25.4-76.2-1.4-26.3,7.4-56,9.1-85.3,3.6-61.9,1.9-122.8-9.1-176.1-5.5-26.7-18.4-54.5-18.1-78.1.1-12.8,5.8-26.4,9.1-39.9,9.4-39.4,15.5-90.5,12.7-136.1-2.2-35.2-15.1-66.5-30.9-94.4-15.8-28-31.2-53.2-52.6-72.6-47.4-42.9-122.3-43-199.7-52.6-37.6-3-32.5-15.9-7.3-16.3-51.3-32.2-96.2-70.8-150.7-99.8-2,10.7-6.3,23.2-9.1,36.3-2.4,11.1,0,29.8-12.7,32.7,4.4-48.3,8.7-96.6,12.7-145.2-28.4,22.8-52.2,64.4-88.9,79.9-24.1,10.2-47.7,12.1-76.4,0-37.7-15.9-57.3-52.5-87.1-79.9-1.1.1-2.2.3-1.8,1.8,2.9,47.3,11.1,99,10.9,143.4h0ZM1386.8,1562.6c14.3-34.4,45.1-31.1,56.8.4-34.8-31.2-53.5,13.3-56.8-.4h0ZM1335.7,758.2c9.4,2,16.4,4.7,26,4.7,14.9,0,28.4,6.7,32.6,21,1.2,4.3,16.8,40.9-2.8,19-7.5-8.4-6.6-24.1-22.5-26.9-8.6-1.5-41.3-18.6-33.2-17.8h0ZM1492.2,758.2c-9.4,2-16.4,4.7-26,4.7-14.9,0-28.4,6.7-32.6,21-1.2,4.3-16.8,40.9,2.8,19,7.5-8.4,6.6-24.1,22.5-26.9,8.6-1.5,41.3-18.6,33.2-17.8h0ZM1276.4,2699.7c20,32.7,65.7,49.7,68.5,34,1.8,3.2,9.9,18-14.2,19.5-10.9,0-31.6-12.4-39.4-20.2-10.6-10.6-13.1-22.1-14.9-33.2h0ZM1253.8,2717.8c-14.5,14.9-23.1,23.9-47.1,26.2,4.8,5,10.4,11.3,30.8,7,15.2-9.1,16.7-20.9,16.3-33.2h0ZM1218.7,2808.2c4,40.2,8.6,90.5,30.4,109.6,7.8,8.2,23.4,11.6,42.6,16.5-17.7,7.3-42.4,3.2-61.3-8.8-16.8-10.8-26.4-106.2-11.7-117.2h0ZM1346.4,2785.9c-.3,21.3.2,98.5-9,117.6-4.4,9.2-17.1,17.6-27.3,20.8,17.7,7.3,15.4,8,34.2-4,16.8-10.8,16.8-123.4,2.1-134.4h0ZM1570.5,2699.7c-20,32.7-65.7,49.7-68.5,34-1.8,3.2-9.9,18,14.2,19.5,10.9,0,31.6-12.4,39.4-20.2,10.6-10.6,13.1-22.1,14.9-33.2h0ZM1593,2717.8c14.5,14.9,23.1,23.9,47.1,26.2-4.8,5-10.4,11.3-30.8,7-15.2-9.1-16.7-20.9-16.3-33.2h0ZM1628.2,2808.2c-4,40.2-8.6,90.5-30.4,109.6-7.8,8.2-23.4,11.6-42.6,16.5,17.7,7.3,42.4,3.2,61.3-8.8,16.8-10.8,26.4-106.2,11.7-117.2h0ZM1500.5,2785.9c.3,21.3-.2,98.5,9,117.6,4.4,9.2,17.1,17.6,27.3,20.8-17.7,7.3-15.4,8-34.2-4-16.8-10.8-16.8-123.4-2.1-134.4h0ZM1568.8,304.4c2-20.8,4.6-39.7,5.4-59.9,2.3-53-15.2-86.1-39.9-112.6-26-27.8-74.8-55.1-119.8-58.1-51.1-3.4-97.5,22.4-130.9,58.1-19.2,20.6-37.3,49.8-39.9,85.3-2.5,32.8,3.3,62.3,5.5,88.9.6,7.8,7.4,21.4-3.6,27.2-12,0-2.1-22.1-16.4-20-13.9.6-16.1,22.8-14.5,41.8,2.5,30.9,19.6,70.1,36.3,79.9-.7-8.6.1-15.6,9.1-14.5,12.6,27.5,9.6,58.6,20,85.3,9.6,24.8,29.2,45,47.2,63.5,22.2,22.9,45.9,45.2,81.7,47.2,43.2,2.4,59.6-24.2,81.9-47.2,30.2-31.2,47.5-56.7,56.3-107.1,2.7-15.6,2.9-34.3,12.7-41.8,7.4-.1,7.8,6.7,7.3,14.5,17.4-10,44.4-68.3,36.3-105.3-1.8-8.2-9.1-18.8-16.3-16.3-11.6,3.9-1.5,16.9-16.3,20-7.6-8.3-2.7-20.2-1.8-29h0Z"/>
      <path class="cls-3" d="M1183.4,774.1c-93.1,41.1-179.3,125.5-237.9,271.3-11.2,5.8-28-2.9-16.6-76.1,16.4-61.1,9-96.2,71.9-184.1,51.6-54.7,195.1-32,182.6-11.1h0Z"/>
      <path class="cls-3" d="M1000,775.4c-69.1,67.9-101.9,205.4-82.8,298.4-14.1,51.7-30.4,83.9-41.4,53.1-42.5-167-8.1-268.6,71.1-333.6,9.8-7.3,47.8-25.1,53.1-17.9h0Z"/>
      <path class="cls-4" d="M1003.1,1048.4c-8.4-42.2-19.2-68.1-47.5,20.8-53.6,123.3-45.3,244.2-47.5,363.5,5.4,87.3,43.5,75.8,75.7,31.2,37.5-64.8,73.5-265.5,19.3-415.4h0Z"/>
      <path class="cls-4" d="M896.7,1148.6c23.4-30.2,28.3-24.6,14.8,16.6-14,86.6-22.8,172.4-12,278.8,0,34.2-27.4,45.1-36,17.5-18.4-129-22.3-245.6,33.2-312.9h0Z"/>
      <path class="cls-4" d="M852,1537.5c24.3-73.3,103.9-40.6,98.1,58.5,17.9,150.8-14,284.8,0,443-4.7,48-14.8,51.7-23.7,11.1-19.6-198.1-110.6-403.4-74.4-512.7h0Z"/>
      <path class="cls-4" d="M821.4,1669c10-69.6,14.6-6.5,21.2,31.4,20.6,128.2,66.9,252,75.7,377.9-.6,27.9-27.4,34.3-37.9,24,.9-126-66-387.3-59.1-433.4h0Z"/>
      <path class="cls-4" d="M989.4,1520.4c-20.9-18.8-30.4-9.2-28.7,28.7,8.9,99,17.6,197.9-2.1,294-1.4,41,4.3,46.7,17,17,41.4-110.9,63-223,13.8-339.6h0Z"/>
      <path class="cls-3" d="M1646.5,774.1c93.1,41.1,179.3,125.5,237.9,271.3,11.2,5.8,28-2.9,16.6-76.1-16.4-61.1-9-96.2-71.9-184.1-51.6-54.7-195.1-32-182.6-11.1h0Z"/>
      <path class="cls-3" d="M1829.9,775.4c69.1,67.9,101.9,205.4,82.8,298.4,14.1,51.7,30.4,83.9,41.4,53.1,42.5-167,8.1-268.6-71.1-333.6-9.8-7.3-47.8-25.1-53.1-17.9h0Z"/>
      <path class="cls-4" d="M1833.2,1048.4c8.4-42.2,19.2-68.1,47.5,20.8,53.6,123.3,45.3,244.2,47.5,363.5-5.4,87.3-43.5,75.8-75.7,31.2-37.5-64.8-73.5-265.5-19.3-415.4h0Z"/>
      <path class="cls-4" d="M1939.7,1148.6c-23.4-30.2-28.3-24.6-14.8,16.6,14,86.6,22.8,172.4,12,278.8,0,34.2,27.4,45.1,36,17.5,18.4-129,22.3-245.6-33.2-312.9h0Z"/>
      <path class="cls-4" d="M1984.4,1537.5c-24.3-73.3-103.9-40.6-98.1,58.5-17.9,150.8,14,284.8,0,443,4.7,48,14.8,51.7,23.7,11.1,19.6-198.1,110.6-403.4,74.4-512.7h0Z"/>
      <path class="cls-4" d="M2015,1669c-10-69.6-14.6-6.5-21.2,31.4-20.6,128.2-66.9,252-75.7,377.9.6,27.9,27.4,34.3,37.9,24-.9-126,66-387.3,59.1-433.4h0Z"/>
      <path class="cls-4" d="M1846.9,1520.4c20.9-18.8,30.4-9.2,28.7,28.7-8.9,99-17.6,197.9,2.1,294,1.4,41-4.3,46.7-17,17-41.4-110.9-63-223-13.8-339.6h0Z"/>
      <path class="cls-4" d="M1273.7,696.2c14.8,44.2,23.1,37.6-27.8,34-105.2-7.3-101.6-4.9-14.1-52.5,41.5-22.6,28.5-21.4,41.8,18.5h0Z"/>
      <path class="cls-4" d="M1299.2,592.4c2,41.5,22.3,104.2,40.7,132.4,26.9,41.1,59.4,35.8,55.1,16.7-32.4-45.7-35.9-98.5-46.5-114.5-25.8-16.5-45.9-57.2-49.2-34.6h0Z"/>
      <path class="cls-4" d="M1223,776.2c37.4-12,182.9,47,159.1,54.5-100,32.2-197.1,53.9-308.5,127.8-38.6,20.4-41.7,11.1-27.9-26.6,27.8-87,96.3-125.5,177.3-155.7h0Z"/>
      <path class="cls-4" d="M1104.2,950c-20.9,11.1-39.3,21.6-49.9,28.7-18.3,12.3-16.7,18.7,5,13.9,22.3-4.9,46.3-4.9,69-3.5,120.9,7.1,221.1,50.1,265,44.5,15.5,2,12-175.4-13.1-175.9-110.3,14.6-191,42.6-275.9,92.2h0Z"/>
      <path class="cls-4" d="M1080,998.7c-41.5,2.6-41.8,8.5-38.6,39.4,13.2,47.4,41.3,89.9,84.3,98.6,92.8,18.8,219.7-25.7,236.1-28.6,22-7.2,49.2-30.2,14.2-50.3-85.8-41.1-246.8-65.4-296-59.2h0Z"/>
      <path class="cls-4" d="M1253.5,1172.5c-16.2,13.1-28.7,72.9-7.5,72.9,18.2-1.3,29.8-13.7,62.4-17.4,27-3,56.3-.5,73.1-3.2,29-14.3,26.2-93.2-.9-95.3-47.4,2.4-95.3,7-127.1,43h0Z"/>
      <path class="cls-4" d="M1245.6,1263.3c29.5-19.9,103-29.7,140.6-19,17.6,8.4,17.2,86.7,6.1,115.4-12.4,21.5-85.4,8.4-137.7,22.5-36.7,14.1-40.1-96.3-9-118.9h0Z"/>
      <path class="cls-4" d="M1247.6,1406c25.1-15.1,91.7-19.7,124.1-16.2,38.4,2.9,29.5,115.4,13.8,124.7-17.8,15.1-13.8,27.8-31.6,46.2-14,9.4-50.7,12.4-72,21.9-45.6,13-59.1-166-34.3-176.5h0Z"/>
      <path class="cls-4" d="M1275,1614.7c32.7-18.8,65.4-31.7,98.1-28,21.3,5.6,24.7,17.5,24.3,29,2.9,92.3,2.6,181.4,2.8,271.1-1.9,32.7-36.5,59.8-59.8,12.2-49.2-81-100.3-268.6-65.4-284.2h0Z"/>
      <path class="cls-4" d="M1544.5,696.2c-14.8,44.2-23.1,37.6,27.8,34,105.2-7.3,101.6-4.9,14.1-52.5-41.5-22.6-28.5-21.4-41.8,18.5h0Z"/>
      <path class="cls-4" d="M1523.3,592.4c-2,41.5-22.3,104.2-40.7,132.4-26.9,41.1-59.4,35.8-55.1,16.7,32.4-45.7,35.9-98.5,46.5-114.5,25.8-16.5,45.9-57.2,49.2-34.6h0Z"/>
      <path class="cls-4" d="M1603.7,776.2c-37.4-12-182.9,47-159.1,54.5,100,32.2,197.1,53.9,308.5,127.8,38.6,20.4,41.7,11.1,27.9-26.6-27.8-87-96.3-125.5-177.3-155.7h0Z"/>
      <path class="cls-4" d="M1722.6,950c20.9,11.1,39.3,21.6,49.9,28.7,18.3,12.3,16.7,18.7-5,13.9-22.3-4.9-46.3-4.9-69-3.5-120.9,7.1-221.1,50.1-265,44.5-15.5,2-12-175.4,13.1-175.9,110.3,14.6,191,42.6,275.9,92.2h0Z"/>
      <path class="cls-4" d="M1746.8,998.7c41.5,2.6,41.8,8.5,38.6,39.4-13.2,47.4-41.3,89.9-84.3,98.6-92.8,18.8-219.7-25.7-236.1-28.6-22-7.2-49.2-30.2-14.2-50.3,85.8-41.1,246.8-65.4,296-59.2h0Z"/>
      <path class="cls-4" d="M1573.3,1172.5c16.2,13.1,28.7,72.9,7.5,72.9-18.2-1.3-29.8-13.7-62.4-17.4-27-3-56.3-.5-73.1-3.2-29-14.3-26.2-93.2.9-95.3,47.4,2.4,95.3,7,127.1,43h0Z"/>
      <path class="cls-4" d="M1581.1,1263.3c-29.5-19.9-103-29.7-140.6-19-17.6,8.4-17.2,86.7-6.1,115.4,12.4,21.5,85.4,8.4,137.7,22.5,36.7,14.1,40.1-96.3,9-118.9h0Z"/>
      <path class="cls-4" d="M1579.2,1406c-25.1-15.1-91.7-19.7-124.1-16.2-38.4,2.9-29.5,115.4-13.8,124.7,17.8,15.1,13.8,27.8,31.6,46.2,14,9.4,50.7,12.4,72,21.9,45.6,13,59.1-166,34.3-176.5h0Z"/>
      <path class="cls-4" d="M1551.8,1614.7c-32.7-18.8-65.4-31.7-98.1-28-21.3,5.6-24.7,17.5-24.3,29-2.9,92.3-2.6,181.4-2.8,271.1,1.9,32.7,36.5,59.8,59.8,12.2,49.2-81,100.3-268.6,65.4-284.2h0Z"/>
      <path class="cls-4" d="M1086.5,1165.2c-17.9-3.6-16.4,17.7-4.3,24.7,34.8,35.4,90.2,84.9,126.8,93.7,10.5,3.1,1.1-32.9,4.8-61.1,3.9-30,16.6-56.5,4.4-53.4-36.8,10.7-88.9,7.3-131.6-3.9h0Z"/>
      <path class="cls-4" d="M1083.8,1208.9c37.3,36.2,80.9,76.5,121.4,91.1,13.4,1.6,3.9,63.2,8.3,111.6,4.4,48.5,19.4,119,6.9,109.8-41.9-22-94.4-108.6-134.2-260.6-14.7-47.8-12.8-54.7-2.4-52h0Z"/>
      <path class="cls-4" d="M1174.6,1503.6c-25.6-23.9-29.5-14.9-31,26.7-3.2,85.4,20.3,138.8,70.5,189,33.5,41.6,48.4,39.5,36.3-12.8-12.4-63.2,0-114.3-75.8-202.9h0Z"/>
      <path class="cls-4" d="M1741.4,1165.2c17.9-3.6,16.4,17.7,4.3,24.7-34.8,35.4-90.2,84.9-126.8,93.7-10.5,3.1-1.1-32.9-4.8-61.1-3.9-30-16.6-56.5-4.4-53.4,36.8,10.7,88.9,7.3,131.6-3.9h0Z"/>
      <path class="cls-4" d="M1744.2,1208.9c-37.3,36.2-80.9,76.5-121.4,91.1-13.4,1.6-3.9,63.2-8.3,111.6-4.4,48.5-19.4,119-6.9,109.8,41.9-22,94.4-108.6,134.2-260.6,14.7-47.8,12.8-54.7,2.4-52h0Z"/>
      <path class="cls-4" d="M1653.4,1503.6c25.6-23.9,29.5-14.9,31,26.7,3.2,85.4-20.3,138.8-70.5,189-33.5,41.6-48.4,39.5-36.3-12.8,12.4-63.2,0-114.3,75.8-202.9h0Z"/>
      <path class="cls-4" d="M1122.7,1734.1c6.9-74.4,65.9,42.6,47,88.5-8.1,26.7-19.5,51.8-24.2,80.2-7.7,38.6-33.2,27.4-29.8-20.5,4.4-45.5-.9-101.6,7.1-148.2h0Z"/>
      <path class="cls-3" d="M1241.6,1824c91.5,155.5,88.6,213.8,28,495-8.3,64.5-17.6,106.7-34.2-6.2-16.9-160.2-107.4-282-50.7-480.5,10.7-27.6,13.1-86.3,57-8.3h0Z"/>
      <path class="cls-3" d="M1103.9,2007c11.6-77.2,25.2-79.7,40.9-7.6,57,223.7,105.1,443.9,101.4,643.3-9,59.7-23.1,103.2-72.7,33.3-88.6-188.4-118.3-408-69.6-669h0Z"/>
      <path class="cls-3" d="M1330.9,2122.1c22.7-67.1,37.3-57.5,43.9,28.8,9.1,171.5,5,349.1-16.7,514.7-6,71.1-90.8,27.2-95.4-81.7-6.9-124.3,26.4-288.8,68.1-461.7h0Z"/>
      <path class="cls-4" d="M1186.4,3002.3c21.8-103.3,76.5-42.9,102.3,116.9,26.3,156.4-34.9,325,43.6,649.8,11.1,39.1-3.9,51.5-13.4,55.2-13.9,5.4-33.4-14.1-36.1-29.4-52-300.3-185.4-509.3-96.3-792.5h0Z"/>
      <path class="cls-4" d="M1326.1,2996.8c-5.5-70.5,25.8-76.6,44.1,31.3,56.6,197.5,2.6,268.6-14.7,393.7-6.1,68.7-25.1,66.8-22.1-23.9-2.5-133.7,19-250.8-7.4-401h0Z"/>
      <path class="cls-4" d="M1715.6,1734.1c-6.9-74.4-65.9,42.6-47,88.5,8.1,26.7,19.5,51.8,24.2,80.2,7.7,38.6,33.2,27.4,29.8-20.5-4.4-45.5.9-101.6-7.1-148.2h0Z"/>
      <path class="cls-3" d="M1600.9,1824c-91.5,155.5-88.6,213.8-28,495,8.3,64.5,17.6,106.7,34.2-6.2,16.9-160.2,107.4-282,50.7-480.5-10.7-27.6-13.1-86.3-57-8.3h0Z"/>
      <path class="cls-3" d="M1738.6,2007c-11.6-77.2-25.2-79.7-40.9-7.6-57.1,223.7-105.1,443.9-101.4,643.3,9,59.7,23.1,103.2,72.7,33.3,88.6-188.4,118.3-408,69.6-669h0Z"/>
      <path class="cls-3" d="M1511.6,2122.1c-22.7-67.1-37.3-57.5-43.9,28.8-9.1,171.5-5,349.1,16.7,514.7,6,71.1,90.8,27.2,95.4-81.7,6.9-124.3-26.4-288.8-68.1-461.7h0Z"/>
      <path class="cls-4" d="M1656.1,3002.3c-21.8-103.3-76.5-42.9-102.3,116.9-26.3,156.4,34.9,325-43.6,649.8-11.1,39.1,3.9,51.5,13.4,55.2,13.9,5.4,33.4-14.1,36.1-29.4,52-300.3,185.4-509.3,96.3-792.5h0Z"/>
      <path class="cls-4" d="M1522.9,2996.8c5.5-70.5-25.8-76.6-44.1,31.3-56.6,197.5-2.6,268.6,14.7,393.7,6.1,68.7,25.1,66.8,22.1-23.9,2.5-133.7-19-250.8,7.4-401h0Z"/>
    </g>
  </g>
</svg>