<?xml version="1.0" encoding="UTF-8"?>
<svg id="_ÎÓÈ_1" data-name=" ÎÓÈ 1" xmlns="http://www.w3.org/2000/svg" xmlns:xlink="http://www.w3.org/1999/xlink" version="1.1" viewBox="0 0 2834.6 2834.6">
  <defs>
    <style>
      .cls-1 {
        clip-path: url(#clippath);
      }

      .cls-2 {
        fill: none;
      }

      .cls-2, .cls-3, .cls-4, .cls-5, .cls-6 {
        stroke-width: 0px;
      }

      .cls-3 {
        fill: #e73f32;
      }

      .cls-3, .cls-4, .cls-5, .cls-6 {
        fill-rule: evenodd;
      }

      .cls-4 {
        fill: #ececec;
      }

      .cls-5 {
        fill: #868686;
      }

      .cls-6 {
        fill: #c6c6c5;
      }
    </style>
    <clipPath id="clippath">
      <rect class="cls-2" x="-1.7" y="2.1" width="2838.1" height="2830.3"/>
    </clipPath>
  </defs>
  <g class="cls-1">
    <g>
      <path class="cls-5" d="M1690.9-1183.8c-.5,18.6,10.6,34.4,9,46.7-1.1,8.4-5.5,8.5-6.1,18.1-.4,7.2,4,16.4,3,23.6-2.8,18.8-17.3,35.9-17.7,53-.5,22.1,17.7,40.2,20.6,61.8,3.3,24.9-3.1,54.1-14.7,67.7-44.2,51.8-157.2-12.1-188.5,41.2-15.9,27.2,1.8,54.1,0,88.4-2.2,41.6-30.2,60.9-23.6,100.1,3.6,21.5,28.3,25.4,44.2,47.1,13.3,18.2,15.6,38.1,23.6,47.1,14.8,16.8,41,25.7,58.9,41.2,46.8,40.5,96.3,102.1,135.5,164.9,52.8,84.7,122.8,207.4,70.7,332.8,14.3,71,50.1,136.9,53,215,1.6,42.2-14.3,82.4-17.7,126.6-3.6,47.8,9.6,102.9,5.9,153.2-1.3,17-9.1,34.7-8.8,50.1.4,22.8,15,46.2,17.7,67.7,5.7,45.8-.6,96.9-11.8,138.4-3.4,12.5-11.6,22.3-11.8,35.3-.3,21.5,12.5,37.9,14.7,56,6.1,49.6-2.1,105-8.8,153.2-18.1,129.9-63.5,262.5-103.1,374,49.6,116.2,152,230.4,217.9,344.6,22,38.2,53.5,83.4,53,132.5-.3,25.8-13.1,47.1-20.6,79.5-7.7,33.3-6.9,70.8-17.7,94.2-9.8,21.4-32.8,42.1-53,44.2-17.6,1.8-26.9-12.3-50.1-14.7-18.2-1.9-38.9,8.6-53,5.9-23.8-4.6-25.8-22.6-38.3-35.3-27,11.2-54.8,3.7-70.7-11.8-18.8,109.7-48.9,220.7-79.5,326.9-32.5,112.7-58.7,224.9-111,315.1-35.6,61.3-30.3,46.4-19.6,115.1,7.3,46.5,7,102.1-7.9,141.2-7.7,20.2-32,32.3-44.2,56-8.7,17-13,39.1-20.6,56-11.7,26-32.5,47.2-41.2,73.6-12.7,38.2-13.9,95.1-17.7,147.3-3.8,52.9-4.9,107.5-8.8,156.1-8,98.4-31.2,187.8-44.2,285.7-13.8,103.8-8.7,206.8,0,312.2,7.6,91.3,17.6,211.9,47.1,279.8,14.2,32.7,51.1,56.4,85.4,82.4,63.3,48.1,115.7,84.3,182.6,129.6,31.2,21.1,64.3,46,97.2,58.9,43.2,16.9,106,11.9,150.2,17.7,52.8,41,5.3,135.2-67.7,126.6-10.1-1.2-17.3-8.7-29.4-8.8-17.4-.2-35.7,8.7-50.1,8.8-40,.4-88.2-13.2-141.4-17.7-109.7-9.1-251.1-22.6-371.1-8.8-27.3,3.1-52.9,9.3-70.7,5.9-48.4-9.3-82.9-76.1-82.5-132.5.3-39.2,17.8-74.9,32.4-109,5.4-12.7,13.4-23.1,14.7-32.4,2.6-18.8-2.7-49-5.9-73.6-19.2-148.3-79.7-288.6-132.5-406.4-62.8-139.9-137.7-287.9-126.6-488.9,8.1-147,70.8-254.6,126.6-359.3,18.5-34.8,40.9-69.9,56-106,13.8-33.1,19.9-73.9,29.5-111.9,9.7-38.5,20.5-77.1,20.6-117.8.1-71.1-16.7-145-23.6-217.9-13.6-145.1-17.7-302.6-17.7-465.3s16.6-192.2-3-259.2c-10.3-35.3-34.7-58.5-50.1-85.4-35.2-61.3-72.5-137.1-64.8-244.4,3.4-47.8,15.9-96.5,26.5-141.4,20.9-88.3,54-168.2,97.2-238.6,21.1-34.4,48.9-68.4,64.8-109,21.9-56,21.7-130.2,38.3-188.5-9.7-28.8-17.5-40-20.6-64.8-1.6-12.8,3.7-28.9,2.9-44.2-1.2-25.4-15.8-55.3-23.6-82.5-21.8-76.7-52.8-155.2-91.3-217.9-24.8-40.4-51.8-85.2-79.5-129.6-26.1-41.9-59-85.5-76.6-129.6-37.7-94.5-21-238.1-5.9-344.6,8.1-56.8,10.4-113.3,26.5-162,15.4-46.7,37.1-90.8,58.9-132.5,21.7-41.5,53.8-76.1,73.6-114.9,36.9-72.2,54.4-166,47.1-279.8-2.1-32.1-3.3-68.3-8.8-91.3-4-16.3-17.4-34.4-26.5-50.1-40.3-70-85.4-150.1-85.4-262.1s29.7-175.2,61.8-226.8c93.7-150.1,444.9-181.5,586.1-44.2,35.8,34.8,52.3,84.8,73.6,141.4,7.5,19.9,29.1,46.9,29.5,64.8.5,24.2-24,40.1-23.6,64.8.5,28.5,27.6,48.9,44.2,70.7,15.3,20,40.2,46.2,38.3,76.6-1.7,26.8-19.5,40.3-50.1,44.2h0Z"/>
      <path class="cls-6" d="M1128.4,936.7c-23.6,51.5-65.1,93.3-91.3,144.3-25.2,49.1-45.7,107.5-61.8,170.8-15.4,60.5-37.7,128.5-35.3,200.3,2.3,71.2,33.9,134.6,64.8,188.5,15.5,26.9,36,49.2,47.1,79.5,16.5,45.1,8.8,101.8,8.8,162,0,206.1-4.2,416.8,17.7,600.8,8.8,74,26.4,150.8,20.6,229.7-2.3,32.2-9.5,66.6-17.7,97.2-8.3,31.2-16.6,63.1-26.5,91.3-19.2,54.9-52.5,105.2-79.5,156.1-56.2,105.6-109,219.7-109,362.2s23.1,173.2,50.1,250.3c72.6,207.4,186.1,367.8,212,621.4,2.7,26.4,9.3,54.6,5.9,70.7-2,9.4-11.4,18.3-17.7,29.5-16,28.8-34.2,70.5-29.5,111.9,3.9,34.1,29.9,78,56,85.4,14.5,4.1,36.5-2.6,64.8-5.9,127.1-14.9,260.9-.6,371.1,8.8,50.2,4.3,97.3,17.2,138.4,17.7,17.2.2,35.3-8.8,56-8.8,23.3,0,38.1,11.1,56,5.9,21.8-6.4,37.8-27.4,35.3-58.9-24-14.8-54-9-79.5-11.8-84.2-9.1-119.2-38.2-176.7-76.6-70-46.7-129.3-81.7-194.4-132.5-31.7-24.7-68.5-55.2-82.5-82.5-16.9-33-24.4-84.6-32.4-135.5-23.3-147.4-40.1-315.4-20.6-471.2,11.4-91.5,35.6-190.7,44.2-294.5,4-48.3,8-104,11.8-159,3.8-55,3.7-113.9,17.7-153.2,8-22.6,32.2-43.8,44.2-70.7,8.7-19.6,9.4-41.7,17.7-58.9,12.1-25.1,40.1-42.2,47.1-64.8,12.5-40.5,10.6-146.4-11.8-159-2.9-1.7-15.1,8.4-14.7-5.9,31-50.1,65.6-97.6,88.4-156.1,22.6-57.9,39.9-122.2,58.9-185.5,37.8-126.2,71.3-260.6,97.2-394.6-2.2-12.5-12.6-3.8-17.7-5.9-4.4-1.8-7.6-7.9-11.8-11.8-28.3-26.3-13.3-61.2-14.7-100.1-.7-17.5-9.5-38.8-11.8-58.9-5.9-50.2,8.7-105.7,0-144.3-2.9-12.7-18.7-32.3-29.5-50.1-10.4-17.2-20.6-35.9-29.4-50.1-63.3-100.8-138.4-193.8-203.2-276.8-48.6-62.2-87.8-127.7-123.7-197.3-36.4-70.5-69.7-150-76.6-244.4-.2-1.8-.4-3.5-2.9-3-13.7,46.6-11.4,105.1-29.5,144.3h0ZM1190.2,4297c18.3,11.4,11.2,39.7,14.7,61.8,7,43.9,18.4,66.7,70.7,67.7-10.7,15.1-44.3,18.8-58.9,14.7-43.8-12.2-35.9-100.2-26.5-144.3h0ZM1558.4-1625.5c-120.7-117.1-428.5-103.9-530.1,23.6-37,46.4-62.5,133.2-67.7,206.1-7.8,108.7,37.6,195,73.6,259.2,13.3,23.8,35.8,50.5,38.3,76.6,15.3,159.1,7.7,302.3-56,406.4-18.6,30.5-39.5,56.8-56,88.4-16.5,31.6-35.3,62.1-50.1,97.2-27.3,64.9-34.3,167.4-44.2,247.4-5.1,41.6-10.7,87.4-8.8,135.5,1.6,40.8,3.5,90.9,17.7,129.6,13.6,37.2,41,72.6,61.8,106,22.1,35.5,42.3,69.9,64.8,103.1-20.9-65.9,14.3-135.9,3-203.2-3.7-22.1-20.7-46.2-32.4-70.7-40.5-85-81.4-183.1-70.7-312.2,6.9-82.8,57.1-174,117.8-217.9,13.2-9.5,31.2-18.1,47.1-26.5,14-7.4,33.2-22.5,50.1-14.7-28.7,29.4-56.4,37-82.5,61.8-59.1,56.3-106,135.3-106,232.6s12.7,130.1,35.3,185.5c10.7,26.1,23.3,51.2,35.3,76.6,12.4,26,25.9,52.5,32.4,79.5,9.4,39-3.8,84-5.9,120.7-9.3,167.2,88.3,264.8,111.9,406.4,4.6,13,20.4-15.4,26.5,5.9-32.8,57-11.1,133.7,23.6,179.7,16.3,21.5,49.1,32.5,47.1,58.9-14.8,9.5-41.2-30.7-47.1-17.7,31.9,176.6,106.3,306,203.2,430,43.8,56.1,93.2,111.8,138.4,179.7,28,42,62.6,100.2,91.3,147.2,10.6,17.4,29.1,34.1,32.4,47.1,9.9,39.1-7.6,94.6-2.9,144.3,2,21.3,10.2,40.9,11.8,58.9,2.7,31-11.3,63.6,5.9,91.3,14.9,8.3,27.2,0,41.2,8.8,15.1,9.6,12,30.5,26.5,41.2,21.6-.2,32.9-7,47.1-2.9,20.7,5.9,19.7,24.6,38.3,35.3,12.3-3.6,29.9-9,53-5.9,18,2.4,26.1,13.2,38.3,11.8,28.8-3.3,37.3-43.4,41.2-73.6,2.3-17.6,1.4-36.2,5.9-53,7.2-27,21-42.5,20.6-64.8-.8-50.2-58.5-127.7-79.5-159-99.7-148.9-200.8-268.9-250.3-465.3-16.7-66.1-30.5-132.2-44.2-194.4-14.7-67-26.5-131.9-50.1-188.5-23-55.3-54.8-106.9-82.5-156.1-28.1-49.9-78.4-96.3-70.7-162,15.4-7,16.6,26.5,20.6,11.8,29.9-119.9,14.4-295.5-8.8-412.3-9-45.2-25.2-90.2-23.6-129.6,1.7-43.1,47.1-138.5,82.5-138.4,25.1,0,43.1,26.9,41.2,50.1-21.3-.3-20.4-22.8-44.2-20.6-17,31.1-47,64.2-50.1,106-3.1,42.8,17.4,95.1,26.5,150.2,22.9,138,31.6,313.7-3,444.7,59.4,101.2,138.2,210.6,170.8,344.6,33.8,138.6,50.9,283.7,106,409.4,32-106.8,70.4-220.2,88.4-341.6,6.2-41.9,14.3-90,11.8-132.5-1.4-23.8-17.9-47.8-17.7-73.6.3-24,13.3-47.8,17.7-70.7,4.6-24.6,10.1-52.2,8.8-79.5-1.1-25.6-15.3-51.3-17.7-79.5-1.5-18.5,4.2-35.3,5.9-56,4.1-50.8-8.4-107.4-5.9-156.1,2.6-50.1,22.3-93.3,17.7-141.4-6.1-63.4-33.4-113.3-44.2-176.7-93.1,56.1-196-26.1-223.8-97.2,43.8,29.2,87.7,93.3,162,88.4,53.3-3.5,72.9-52.8,73.6-103.1,1.4-100.6-52-185.9-100.1-256.2-24.2-35.4-52.1-66.8-79.5-97.2-13.4-14.8-28.6-31.9-44.2-44.2-18-14.1-38.4-21.5-53-38.3-8.9-10.2-11.9-28.3-23.6-44.2-17.1-23.4-44-31.2-50.1-53-11.3-40.4,18.8-81.3,20.6-117.8,1.1-20.8-7.5-39.6-5.9-58.9,2.2-27.5,15.9-55.3,41.2-67.7,53.2-26,101.7,13,162-20.6,21.4-36.7-8.5-60.7-11.8-97.2-2.9-32.5,10.6-44.8,14.7-67.7,2.7-14.8,4.7-36.8,3-53-2-19.3-19.2-33.3-11.8-53,19.1-13.8,46.9-1.2,53-23.6,4.1-15.2-23.3-48-38.3-67.7-15.7-20.7-37.6-40.8-41.2-64.8-4.7-31.2,7.2-43.7,20.6-79.5-36.1-68.5-45.7-138.4-94.2-185.5h0ZM1258,651h8.8c30.5,15.6,29.9,86.1,2.9,106-17.7-2.7-5.6-22.9-5.9-35.3-.5-21.9-3.1-45.6-8.8-61.8-.8-4.8,2.8-5.1,2.9-8.8h0ZM1296.3-1278c-25.9-3.7-26.6-33.8-53-38.3-33.1-5.6-80.1,28.1-85.4,53-9.6,45.1,37.9,109.2,61.8,129.6,13.6,11.7,38.6,14.5,44.2,35.3-21.2.4-49.5-7.8-67.7-20.6-27.9-19.6-73.7-90.7-67.7-141.4,9.3-78.3,170.7-130.2,167.9-17.7h0ZM1293.3-1068.9h8.8c13.2,50.9,35,85.6,73.6,111.9,13,8.9,28.6,16.1,38.3,29.5-78.3,2.6-127.4-49.2-120.8-141.4h0ZM1654.4,405.7c15.5-35.7,30.9-71.4,46.4-107.1,17.8-31.5,47.6-60.7,89.2-87.4-48.4,59.4-99.3,118.2-108.9,187.4-16.1,47.6-25,50-26.8,7.1h0ZM1644.9,648.4c12.1,69.4,19.9,137.7,21.2,204.4.4,49.1,15.5,42.7,13.2-32.4,3.7-53.6-19.1-187.9-34.4-172h0Z"/>
      <path class="cls-4" d="M1100.7-1019.8c23.3,225.8-26.3,339.7-78.3,408.1-22.4,28.5-15.1,32.2,21.9,10.9,61.7-38.7,95.9-67,182-71.7,35.8-11.5,44.9-28,27.3-49.2-36.4-96-36.3-220.4-76.4-290.9-15.2-42.5-92.2-103.3-76.5-7.3h0Z"/>
      <path class="cls-4" d="M1259.3-991.8c10.5-37,34.5,67,76.5,73.5,56.5,63.5,87,131.1,91.5,202.6-2,79.3-11,74.2-21,57-25.7-104.4-149.3-194.6-147-333.2h0Z"/>
      <path class="cls-4" d="M1001.7-454c-90.1,173.2-49.5,314.1,54,449.3,45.7,36.1,154.9,56,133.4,4-19-53.5-7.6-125.6-74.2-208.5-46.5-57.8-41.5-149.5-49.6-231-10.1-65.6-31.6-56.3-63.5-13.8h0Z"/>
      <path class="cls-4" d="M1086.3-504.1c10.9-72,104.6-61,141.5-7.9,96.6,152.2,76,378.9,24.5,512.1-16.1,35-25.7,61.1-47.5-24.3-31.2-264.5-83.3-156.2-104.7-310.2-4.9-35.5-13.5-100.4-13.8-169.5h0Z"/>
      <path class="cls-4" d="M1226.8-556.9c-27.7-53.2-35.8-90,93.2-13.3,115.9,80.5,156.1,272.2,73.7,389.5-78.7,95.1-79,47.1-71.6-3.3-7.9-142.2-19.9-289.3-95.3-372.9h0Z"/>
      <path class="cls-4" d="M1392.6-582.9c-13.9-76,74.3-23.2,154.1,58.4,6.8,6.9,22.7,22.5,27.4,31,23.4,55.4-10.4,152.9-62.4,246.7-22.1,45-54-9.8-41-41-7.2-222.8-51.4-185.7-78.1-295.1h0Z"/>
      <path class="cls-4" d="M1054.9,103.3c2.2-119.6,165.8-12.7,187.5,62,37,133.5,84,268.5,87.1,397.2.8,87.4-26,85.8-65.3,43.6-58.5-181.2-111-138.1-154-194.4-71.3-108.1-64-219.4-55.2-308.4h0Z"/>
      <path class="cls-4" d="M1366.3-45.9c-32.5-112.7-115.4,51.2-102.1,150.8,7.4,106.2,59.6,158.7,73.7,303.3,16.2,50.8,49.1,51.4,58.6-8.4,24.6-103.9,12.3-298.3-30.1-445.8h0Z"/>
      <path class="cls-4" d="M1599.9-410.1c2.3-115.2,87.4,45.1,105.5,75.3,21.3,28,2.9,56.2-50.6,68.9-124,26.1-117.5,14.4-87.5-52.6,10-22.3,30.3-55.1,32.6-91.6h0Z"/>
      <path class="cls-4" d="M1720.4-270.3c-36.2,17.8-71.7,26.9-139.5,32.1-68,7.2-35.3,62.9-6.5,99.6,126.4,138.7,173.7,85.5,192.2,56.6,38.5-78.5-15.2-212-46.1-188.4h0Z"/>
      <path class="cls-4" d="M913.3-113.6c-7.9-42.9-48-70.9-36.7,34.9,1.2,82.1,20.8,136.7,58.8,191.3,36.2,49.1,54.6-31.2,31.2-79.1-30-49.1-47.8-98.1-53.3-147.1h0Z"/>
      <path class="cls-3" d="M1129.1,988.7c31.2-65,44.6-42.4,63.1,20.1,35,86.1,68.4,134.3,120.3,198.5,44.7,44.9,12.5,91.9-11.3,113.9-103.7,94.3-147.3,225.4-169.1,369.7-12.5,33.7-27.8,54.2-63.1-17.2-134.2-144.5-124-367.5,60.2-685h0Z"/>
      <path class="cls-4" d="M1749.5,20.4c-23.6,4-47.4,4.5-38.3,63.6-1.7,50.8-6.9,101.9,21.5,123.7,38.1-1,67.5-22.8,71.3-53.5,5.6-46.3-20.3-156.6-54.4-133.8h0Z"/>
      <path class="cls-4" d="M1726.5,359.8c45.1-91.7,61-118.4,64.3-29.7,5.9,58.7,13.8,93.7-7.9,131.6-16.3,35.4-93.2,33.6-86-2,4.1-33.3,12.4-66.6,29.7-100h0Z"/>
      <path class="cls-4" d="M1694.8,551.5c0-53,94.5-54.7,107.5-2.8,11.3,58.3,4.8,98.4-14.3,135.1-28.7,59-68.6,24.6-73.8-2.8-13.5-44.1-22.7-86.8-19.5-129.5h0Z"/>
      <path class="cls-4" d="M1718.7,790.1c9.9-56.7,63.5-57.4,69.8,9.1,10.9,147.9-61.2,409.1-70.8,388.6-8.4-7.9-16.8-18.1-25.3-94.1,0-101.2,1.9-202.4,26.3-303.6h0Z"/>
      <path class="cls-4" d="M1646.1,10.2c-32.9-36.5-47.5,2.7-62.7,12.8-21.9,14.4-47.5,23.7-36.9,36.2,29.4,42.7,56.1,88.6,49.7,117.9-7.2,33.2-102.9,26.2-105.9,70.6-6.6,87.7.9,174.3-13.3,257.6-10.1,30.2-1.4,49.5,17.6,65.5,55.9,65.4,86.2,131.6,113,217.4,21.3,64.1,29.6,56.9,24.8-21.5-3.2-105.1-49.9-243.9-24.8-345.8,14.4-55.6,64.8-85.1,69.4-153.9,12.9-119.4,11.4-216-30.9-256.9h0Z"/>
      <path class="cls-4" d="M1468.4,54.3c-10.8,22.2,10.8,72.7,13.1,135.3,4.1,30.4,94.5-9.7,94.8-21.8,1.1-41.8-88.3-156.7-107.9-113.4h0Z"/>
      <path class="cls-4" d="M1504.3-121.4c-20.8-32.2-23.8-26.1-47.2,12.4-24.3,35.1-24.6,77.7-9.9,108.6,26,49.8,114.9,12.4,130.1-7.5,27.6-18.8,13-39.3-6.6-48.9-26.1-13.5-53.4-35.7-66.3-64.7h0Z"/>
      <path class="cls-4" d="M1312.8,784.6c-17.4-16.6-37.4,11.8-48.6,35.3-11.9,24.8-48.2,17.6-42,33.1,85.4,311.7,263.2,382.2,424.9,687.7,23.1,36,128.8,11.3,96.2-42.2-185.4-254.5-252.3-566.9-430.5-713.9h0Z"/>
      <path class="cls-4" d="M1394.1,552c-44.9-58.4-48.1-29.5-43.8,39.6.9,36.8-.9,46.7-12.7,76.4-25.9,30.2-26.4,73.1,21.2,126,98.9,96.7,165.7,239,230.5,385,32.1,64.5,64.7,100.5,32.5-39.6-46.1-199.1-47.5-338.5-227.7-587.4h0Z"/>
      <path class="cls-4" d="M1097.1,1835.1c6.3-61,76.4-82,115.6,101.2,20.8,108.7,35.7,322.9,31.8,433.6-10.8,101.9-26.7,198.7-60.7,277.5-27,50.3-52.1,81.3-63.6-23.1-33.1-264-44-525.1-23.1-789.1h0Z"/>
      <path class="cls-3" d="M1465.8,1552.7c5.8-56,18.3-81.9,45.5-62.9,39.7,27.8,96.3,126.5,88.9,161.1-.4,125.9-9.6,263.1,29.4,307,31.4,49.5-122.2,634.9-215.6,669.1-80.8,26.4-85.2-80.8-84.9-157-38-289,93.5-609.1,136.7-917.2h0Z"/>
      <path class="cls-4" d="M1245.6,3100.7c28.9-61.2,54.7-94.2,58.5,70.2,8.6,227.9-69.5,397.2-51.5,725.7.8,117-7.8,166.2-25.7,42.1-29.3-248.9-39.5-514.2,18.7-838.1h0Z"/>
      <path class="cls-4" d="M979.9,3105.4c42.1-85.1,56.2-73.4,42.1,35.1-34.6,164.9-23.2,334.5,4.7,505.7,31.2,151.4-38.2,109.3-81.9,32.8-73-191.2-66.7-382.4,35.1-573.5h0Z"/>
      <path class="cls-4" d="M1085.7,3012.9c64.8-124.9,151.3,11.9,122.9,101.1-47.7,302.7-62.1,629.7,27.8,1033,23.9,91.4-62.6,103.2-105.1-101.1-68.9-358.5-162.4-723.6-45.6-1033h0Z"/>
      <path class="cls-4" d="M1174.4,1694.1c-3-29.1,9.3-57.3,21.4-83.9,23.1-51,46.2-102.1,69.4-153.1,14.3-31.5,29-63.7,52.6-89,14.1-15.1,34.1-28.2,54.3-23.8,13.7,3,24.5,13.3,34.4,23.2,12.7,12.7,25.7,25.7,33.3,42,23.3,49.9,9.1,97.6-6,154.8-16.3,61.3-37,125.6-53.7,186.8-7.4,27-71.9,188.8-105.4,188.9-16.4,0-42.2-87.3-45.2-103.7-8.2-45.3-52.4-116.7-55-142.2h0Z"/>
    </g>
  </g>
</svg>