<?xml version="1.0" encoding="UTF-8"?>
<svg id="_ÎÓÈ_1" data-name=" ÎÓÈ 1" xmlns="http://www.w3.org/2000/svg" xmlns:xlink="http://www.w3.org/1999/xlink" version="1.1" viewBox="0 0 2834.6 2834.6">
  <defs>
    <style>
      .cls-1 {
        clip-path: url(#clippath);
      }

      .cls-2 {
        fill: none;
      }

      .cls-2, .cls-3, .cls-4, .cls-5, .cls-6 {
        stroke-width: 0px;
      }

      .cls-3 {
        fill: #e73f32;
      }

      .cls-3, .cls-4, .cls-5, .cls-6 {
        fill-rule: evenodd;
      }

      .cls-4 {
        fill: #ececec;
      }

      .cls-5 {
        fill: #868686;
      }

      .cls-6 {
        fill: #c6c6c5;
      }
    </style>
    <clipPath id="clippath">
      <rect class="cls-2" x="-1.7" y="2.1" width="2838.1" height="2830.3"/>
    </clipPath>
  </defs>
  <g class="cls-1">
    <g>
      <path class="cls-5" d="M1658.7-1057.3c-.5,16.4,9.4,30.3,8,41.2-1,7.4-4.9,7.5-5.4,16-.4,6.4,3.6,14.4,2.6,20.8-2.5,16.6-15.3,31.7-15.6,46.8-.4,19.5,15.6,35.5,18.2,54.6,2.9,22-2.7,47.7-13,59.8-39,45.7-138.7-10.6-166.3,36.4-14.1,24,1.6,47.7,0,78-1.9,36.7-26.7,53.7-20.8,88.4,3.2,19,25,22.4,39,41.6,11.8,16.1,13.8,33.6,20.8,41.6,13.1,14.9,36.2,22.7,52,36.4,41.3,35.7,85,90.1,119.5,145.5,46.6,74.7,108.4,183,62.4,293.7,12.6,62.7,44.2,120.8,46.8,189.7,1.4,37.3-12.6,72.7-15.6,111.7-3.2,42.2,8.5,90.8,5.2,135.1-1.1,15-8,30.6-7.8,44.2.3,20.1,13.3,40.8,15.6,59.8,5,40.4-.5,85.5-10.4,122.1-3,11-10.2,19.7-10.4,31.2-.2,18.9,11,33.4,13,49.4,5.4,43.8-1.9,92.6-7.8,135.1-16,114.6-56,231.7-90.9,330,43.8,102.5,134.2,203.3,192.3,304.1,19.4,33.7,47.2,73.6,46.8,117-.2,22.8-11.6,41.5-18.2,70.2-6.8,29.4-6.1,62.5-15.6,83.2-8.7,18.9-28.9,37.1-46.8,39-15.5,1.6-23.7-10.8-44.2-13-16-1.7-34.3,7.6-46.8,5.2-21-4.1-22.8-19.9-33.8-31.2-23.8,9.9-48.4,3.2-62.4-10.4-16.6,96.8-43.2,194.8-70.1,288.5-28.6,99.5-51.8,198.5-97.9,278-31.4,54-26.8,40.9-17.3,101.6,6.4,41.1,6.2,90.1-7,124.6-6.8,17.8-28.2,28.5-39,49.4-7.7,15-11.5,34.5-18.2,49.4-10.3,22.9-28.6,41.7-36.4,65-11.2,33.7-12.3,83.9-15.6,129.9-3.4,46.6-4.3,94.8-7.8,137.7-7.1,86.8-27.5,165.7-39,252.1-12.2,91.6-7.7,182.5,0,275.5,6.7,80.6,15.5,187,41.6,246.9,12.5,28.8,45.1,49.8,75.4,72.8,55.9,42.4,102.1,74.3,161.1,114.3,27.5,18.6,56.7,40.6,85.7,52,38.1,14.9,93.6,10.5,132.5,15.6,46.6,36.1,4.6,119.3-59.8,111.7-8.9-1.1-15.3-7.7-26-7.8-15.3-.2-31.5,7.7-44.2,7.8-35.3.3-77.8-11.7-124.8-15.6-96.8-8.1-221.6-19.9-327.4-7.8-24.1,2.8-46.7,8.2-62.4,5.2-42.7-8.2-73.1-67.1-72.8-117,.2-34.6,15.7-66.1,28.6-96.2,4.8-11.2,11.9-20.4,13-28.6,2.3-16.6-2.4-43.2-5.2-65-16.9-130.9-70.3-254.7-117-358.6-55.4-123.4-121.5-254.1-111.7-431.4,7.2-129.7,62.5-224.7,111.7-317.1,16.4-30.7,36.1-61.7,49.4-93.6,12.2-29.2,17.6-65.2,26-98.7,8.5-34,18.1-68,18.2-104,0-62.7-14.7-127.9-20.8-192.3-12-128-15.6-267-15.6-410.6s14.6-169.6-2.6-228.7c-9.1-31.2-30.6-51.6-44.2-75.4-31-54.1-64-121-57.2-215.7,3-42.2,14-85.2,23.4-124.7,18.4-77.9,47.7-148.4,85.7-210.5,18.6-30.4,43.1-60.4,57.2-96.2,19.4-49.4,19.1-114.9,33.8-166.3-8.5-25.5-15.4-35.3-18.2-57.2-1.4-11.3,3.2-25.5,2.6-39-1.1-22.4-14-48.8-20.8-72.8-19.3-67.7-46.6-137-80.6-192.3-21.9-35.7-45.7-75.2-70.2-114.3-23-36.9-52.1-75.5-67.6-114.3-33.3-83.3-18.5-210.1-5.2-304.1,7.1-50.1,9.2-99.9,23.4-142.9,13.6-41.2,32.7-80.2,52-117,19.2-36.6,47.5-67.1,65-101.4,32.6-63.8,48-146.5,41.6-246.9-1.8-28.3-2.9-60.3-7.8-80.6-3.5-14.4-15.4-30.3-23.4-44.2-35.6-61.7-75.4-132.4-75.4-231.3s26.2-154.6,54.6-200.1c82.7-132.4,392.6-160.1,517.1-39,31.6,30.7,46.1,74.8,65,124.7,6.6,17.5,25.6,41.3,26,57.2.5,21.3-21.1,35.3-20.8,57.2.4,25.1,24.3,43.2,39,62.4,13.5,17.6,35.5,40.8,33.8,67.6-1.5,23.7-17.2,35.6-44.2,39h.4Z"/>
      <path class="cls-6" d="M1162.3,813.8c-20.8,45.5-57.4,82.3-80.6,127.3-22.3,43.3-40.3,94.9-54.6,150.7-13.6,53.4-33.3,113.4-31.2,176.7,2.1,62.9,29.9,118.8,57.2,166.3,13.6,23.8,31.8,43.4,41.6,70.2,14.5,39.8,7.8,89.8,7.8,142.9,0,181.8-3.7,367.8,15.6,530.1,7.8,65.3,23.3,133.1,18.2,202.7-2.1,28.4-8.4,58.7-15.6,85.7-7.3,27.5-14.7,55.7-23.4,80.6-16.9,48.4-46.3,92.8-70.2,137.7-49.6,93.2-96.2,193.8-96.2,319.7s20.3,152.8,44.2,220.9c64.1,183,164.2,324.6,187.1,548.3,2.4,23.3,8.2,48.2,5.2,62.4-1.8,8.3-10.1,16.1-15.6,26-14.2,25.4-30.1,62.2-26,98.7,3.4,30.1,26.4,68.9,49.4,75.4,12.8,3.6,32.2-2.3,57.2-5.2,112.2-13.2,230.2-.6,327.4,7.8,44.3,3.8,85.9,15.1,122.1,15.6,15.2.2,31.2-7.8,49.4-7.8s33.6,9.8,49.4,5.2c19.2-5.6,33.3-24.2,31.2-52-21.1-13.1-47.7-8-70.1-10.4-74.3-8-105.2-33.7-155.9-67.6-61.8-41.2-114.1-72.1-171.5-117-28-21.8-60.4-48.7-72.8-72.8-14.9-29.1-21.5-74.7-28.6-119.5-20.5-130.1-35.3-278.3-18.2-415.8,10.1-80.7,31.4-168.3,39-259.9,3.5-42.6,7.1-91.8,10.4-140.3,3.3-48.6,3.3-100.5,15.6-135.1,7.1-19.9,28.4-38.6,39-62.4,7.7-17.3,8.3-36.8,15.6-52,10.7-22.1,35.4-37.3,41.6-57.2,11-35.7,9.3-129.1-10.4-140.3-2.6-1.5-13.4,7.4-13-5.2,27.4-44.2,57.9-86.1,78-137.7,19.9-51.1,35.2-107.8,52-163.7,33.4-111.3,62.9-230,85.7-348.2-1.9-11.1-11.2-3.3-15.6-5.2-3.8-1.6-6.7-7-10.4-10.4-25-23.2-11.7-54-13-88.4-.6-15.5-8.3-34.2-10.4-52-5.2-44.3,7.7-93.3,0-127.3-2.5-11.2-16.5-28.5-26-44.2-9.2-15.2-18.2-31.7-26-44.2-55.8-88.9-122.1-171-179.3-244.3-42.9-54.9-77.5-112.7-109.2-174.1-32.1-62.2-61.5-132.3-67.6-215.7,0-1.6-.4-3.1-2.6-2.6-12.1,41.2-10.1,92.7-26,127.3h0v.3ZM1216.9,3779c16.1,10,9.9,35.1,13,54.6,6.1,38.7,16.3,58.9,62.4,59.8-9.5,13.4-39.1,16.6-52,13-38.7-10.8-31.7-88.4-23.4-127.3h0ZM1541.8-1447.1c-106.5-103.3-378.1-91.7-467.8,20.8-32.7,41-55.2,117.6-59.8,181.9-6.9,96,33.2,172,65,228.7,11.8,21,31.6,44.5,33.8,67.6,13.5,140.4,6.8,266.7-49.4,358.6-16.4,26.9-34.8,50.1-49.4,78-14.6,27.9-31.2,54.8-44.2,85.7-24.1,57.3-30.3,147.7-39,218.3-4.5,36.7-9.5,77.2-7.8,119.5,1.4,36,3.1,80.2,15.6,114.3,12,32.8,36.2,64,54.6,93.6,19.5,31.3,37.4,61.6,57.2,91-18.4-58.1,12.6-119.9,2.6-179.3-3.3-19.5-18.3-40.8-28.6-62.4-35.7-75-71.9-161.6-62.4-275.5,6.1-73.1,50.4-153.5,103.9-192.3,11.6-8.4,27.5-15.9,41.6-23.4,12.4-6.5,29.3-19.9,44.2-13-25.4,25.9-49.8,32.7-72.8,54.6-52.2,49.7-93.6,119.4-93.6,205.3s11.2,114.8,31.2,163.7c9.4,23.1,20.5,45.2,31.2,67.6,10.9,23,22.8,46.3,28.6,70.2,8.3,34.4-3.4,74.1-5.2,106.5-8.2,147.6,77.9,233.6,98.7,358.6,4,11.4,18-13.6,23.4,5.2-29,50.3-9.8,118,20.8,158.5,14.4,19,43.3,28.7,41.6,52-13,8.4-36.4-27.1-41.6-15.6,28.1,155.9,93.8,270,179.3,379.4,38.7,49.5,82.2,98.7,122.1,158.5,24.7,37,55.2,88.4,80.6,129.9,9.4,15.3,25.7,30.1,28.6,41.6,8.7,34.5-6.7,83.5-2.6,127.3,1.7,18.8,9,36.1,10.4,52,2.4,27.4-10,56.1,5.2,80.6,13.1,7.3,24,0,36.4,7.8,13.3,8.5,10.6,26.9,23.4,36.4,19-.2,29-6.2,41.6-2.6,18.2,5.2,17.4,21.7,33.8,31.2,10.9-3.2,26.3-7.9,46.8-5.2,15.9,2.1,23.1,11.6,33.8,10.4,25.4-2.9,32.9-38.3,36.4-65,2-15.5,1.2-31.9,5.2-46.8,6.4-23.8,18.5-37.5,18.2-57.2-.7-44.3-51.6-112.7-70.2-140.3-88-131.4-177.2-237.2-220.9-410.6-14.7-58.3-26.9-116.7-39-171.5-13-59.2-23.4-116.4-44.2-166.3-20.3-48.8-48.3-94.3-72.8-137.7-24.8-44.1-69.2-85-62.4-142.9,13.6-6.2,14.7,23.4,18.2,10.4,26.3-105.8,12.7-260.7-7.8-363.8-7.9-39.9-22.2-79.6-20.8-114.3,1.5-38,41.6-122.3,72.8-122.1,22.1,0,38,23.7,36.4,44.2-18.8-.3-18-20.1-39-18.2-15,27.4-41.5,56.6-44.2,93.6-2.8,37.7,15.3,83.9,23.4,132.5,20.2,121.8,27.9,276.8-2.6,392.4,52.5,89.3,121.9,185.9,150.7,304.1,29.8,122.3,44.9,250.4,93.6,361.2,28.2-94.3,62.1-194.3,78-301.4,5.5-37,12.6-79.4,10.4-117-1.3-21-15.8-42.2-15.6-65,.2-21.2,11.8-42.2,15.6-62.4,4.1-21.7,8.9-46.1,7.8-70.2-1-22.6-13.5-45.3-15.6-70.2-1.3-16.4,3.7-31.1,5.2-49.4,3.6-44.8-7.4-94.8-5.2-137.7,2.3-44.2,19.7-82.3,15.6-124.7-5.4-55.9-29.5-100-39-155.9-82.2,49.5-173-23.1-197.5-85.7,38.6,25.8,77.4,82.3,142.9,78,47.1-3.1,64.3-46.6,65-91,1.2-88.7-45.9-164-88.4-226.1-21.3-31.2-46-58.9-70.2-85.7-11.8-13.1-25.3-28.2-39-39-15.9-12.5-33.9-19-46.8-33.8-7.8-9-10.5-25-20.8-39-15.1-20.6-38.8-27.5-44.2-46.8-10-35.7,16.6-71.7,18.2-103.9,1-18.4-6.6-34.9-5.2-52,2-24.3,14-48.8,36.4-59.8,46.9-23,89.7,11.5,142.9-18.2,18.9-32.4-7.5-53.6-10.4-85.7-2.5-28.7,9.3-39.5,13-59.8,2.4-13.1,4.1-32.5,2.6-46.8-1.8-17-16.9-29.4-10.4-46.8,16.8-12.2,41.4-1,46.8-20.8,3.6-13.4-20.6-42.4-33.8-59.8-13.9-18.3-33.2-36-36.4-57.2-4.1-27.5,6.3-38.6,18.2-70.2-31.9-60.4-40.3-122.1-83.2-163.7h.3ZM1276.7,561.8h7.8c26.9,13.8,26.3,76,2.6,93.6-15.6-2.4-4.9-20.2-5.2-31.2-.5-19.3-2.7-40.2-7.8-54.6-.7-4.2,2.4-4.5,2.6-7.8h0ZM1310.5-1140.4c-22.8-3.3-23.5-29.8-46.8-33.8-29.2-5-70.7,24.8-75.4,46.8-8.5,39.8,33.5,96.3,54.6,114.3,12,10.3,34,12.8,39,31.2-18.7.4-43.7-6.9-59.8-18.2-24.6-17.3-65.1-80-59.8-124.7,8.2-69.1,150.6-114.9,148.1-15.6h.1ZM1307.9-955.9h7.8c11.7,44.9,30.9,75.6,65,98.8,11.5,7.8,25.2,14.2,33.8,26-69.1,2.3-112.4-43.5-106.6-124.7h0ZM1626.5,345.3c13.6-31.5,27.3-63,40.9-94.5,15.7-27.8,42-53.5,78.7-77.2-42.7,52.4-87.6,104.3-96.1,165.3-14.2,42-22,44.1-23.6,6.3h0ZM1618.1,559.4c10.7,61.2,17.5,121.5,18.7,180.4.3,43.3,13.7,37.7,11.6-28.6,3.2-47.3-16.8-165.8-30.3-151.8h0Z"/>
      <path class="cls-4" d="M1137.9-912.7c20.6,199.2-23.2,299.8-69.1,360.2-19.7,25.2-13.3,28.4,19.3,9.6,54.5-34.2,84.7-59.2,160.6-63.3,31.6-10.2,39.6-24.7,24.1-43.4-32.1-84.7-32.1-194.5-67.4-256.7-13.4-37.5-81.4-91.1-67.5-6.4h0Z"/>
      <path class="cls-4" d="M1277.9-887.9c9.3-32.7,30.4,59.2,67.5,64.9,49.8,56.1,76.7,115.7,80.7,178.8-1.8,70-9.7,65.5-18.5,50.3-22.7-92.1-131.8-171.7-129.7-294h0Z"/>
      <path class="cls-4" d="M1050.6-413.3c-79.5,152.9-43.7,277.2,47.6,396.5,40.4,31.8,136.7,49.5,117.7,3.5-16.8-47.2-6.7-110.8-65.5-184-41-51-36.6-131.9-43.8-203.9-8.9-57.9-27.9-49.6-56-12.2h0Z"/>
      <path class="cls-4" d="M1125.2-457.6c9.6-63.5,92.3-53.8,124.8-7,85.2,134.3,67.1,334.3,21.6,451.8-14.2,30.9-22.6,53.9-41.9-21.5-27.5-233.4-73.5-137.9-92.4-273.8-4.3-31.3-11.9-88.6-12.2-149.6h0Z"/>
      <path class="cls-4" d="M1249.2-504.2c-24.4-46.9-31.6-79.5,82.3-11.8,102.3,71,137.7,240.2,65,343.7-69.4,83.9-69.8,41.5-63.2-2.9-6.9-125.5-17.6-255.2-84.1-329h0Z"/>
      <path class="cls-4" d="M1395.5-527c-12.3-67.1,65.5-20.5,136,51.6,6,6.1,20.1,19.8,24.2,27.4,20.7,48.9-9.2,134.9-55.1,217.7-19.5,39.7-47.7-8.6-36.2-36.2-6.3-196.6-45.4-163.8-68.9-260.4h0Z"/>
      <path class="cls-4" d="M1097.5,78.5c1.9-105.5,146.3-11.2,165.5,54.7,32.6,117.8,74.2,236.9,76.8,350.5.7,77.2-22.9,75.7-57.6,38.4-51.6-159.9-98-121.9-135.9-171.6-62.9-95.4-56.5-193.6-48.8-272.1h0Z"/>
      <path class="cls-4" d="M1372.3-53.2c-28.7-99.5-101.9,45.2-90.1,133.1,6.5,93.7,52.6,140,65,267.7,14.3,44.9,43.3,45.4,51.7-7.4,21.7-91.7,10.8-263.2-26.6-393.4h0Z"/>
      <path class="cls-4" d="M1578.4-374.6c2-101.6,77.1,39.8,93.1,66.5,18.8,24.7,2.6,49.6-44.7,60.8-109.4,23.1-103.7,12.7-77.2-46.4,8.8-19.7,26.8-48.6,28.7-80.9h0Z"/>
      <path class="cls-4" d="M1684.7-251.2c-31.9,15.7-63.3,23.7-123.1,28.3-60,6.4-31.2,55.5-5.8,87.9,111.6,122.4,153.3,75.5,169.6,50,34-69.3-13.5-187.1-40.7-166.2h0Z"/>
      <path class="cls-4" d="M972.5-113c-7-37.9-42.4-62.5-32.4,30.8,1.1,72.5,18.4,120.6,51.9,168.8,31.9,43.3,48.2-27.5,27.6-69.8-26.5-43.3-42.2-86.6-47-129.8h0Z"/>
      <path class="cls-3" d="M1163,859.7c27.6-57.4,39.4-37.4,55.6,17.7,30.9,76,60.3,118.5,106.1,175.2,39.5,39.6,11,81.1-10,100.5-91.5,83.2-130,198.9-149.2,326.3-11,29.7-24.5,47.9-55.6-15.2-118.4-127.5-109.4-324.3,53.1-604.5h0Z"/>
      <path class="cls-4" d="M1710.4,5.3c-20.8,3.5-41.9,4-33.8,56.1-1.5,44.8-6.1,89.9,19,109.1,33.6-.8,59.6-20.1,62.9-47.2,4.9-40.9-17.9-138.2-48-118.1h0Z"/>
      <path class="cls-4" d="M1690.2,304.8c39.8-80.9,53.8-104.5,56.7-26.2,5.2,51.8,12.2,82.7-7,116.1-14.3,31.2-82.2,29.6-75.9-1.7,3.6-29.4,10.9-58.8,26.2-88.2h0Z"/>
      <path class="cls-4" d="M1662.1,473.9c0-46.8,83.3-48.3,94.8-2.5,10,51.5,4.2,86.8-12.6,119.2-25.4,52-60.6,21.7-65.1-2.5-11.9-38.9-20.1-76.6-17.2-114.3h0Z"/>
      <path class="cls-4" d="M1683.3,684.5c8.8-50,56.1-50.6,61.6,8,9.6,130.5-54,361-62.5,342.9-7.4-7-14.9-15.9-22.3-83,0-89.3,1.7-178.6,23.2-267.9h0Z"/>
      <path class="cls-4" d="M1619.2-3.7c-29.1-32.2-41.9,2.4-55.3,11.3-19.3,12.7-41.9,20.9-32.5,32,25.9,37.7,49.5,78.2,43.9,104.1-6.4,29.3-90.8,23.2-93.4,62.3-5.8,77.4.8,153.8-11.8,227.3-8.9,26.6-1.2,43.6,15.5,57.8,49.4,57.7,76,116.1,99.7,191.9,18.8,56.6,26.1,50.2,21.9-19-2.8-92.8-44-215.2-21.9-305.1,12.7-49.1,57.2-75.1,61.2-135.8,11.4-105.4,10.1-190.6-27.3-226.7h0Z"/>
      <path class="cls-4" d="M1462.4,35.2c-9.5,19.6,9.5,64.1,11.5,119.4,3.6,26.8,83.4-8.5,83.6-19.2,1-36.9-77.9-138.3-95.2-100.1h0Z"/>
      <path class="cls-4" d="M1494.1-119.8c-18.3-28.4-21-23-41.7,11-21.4,31-21.7,68.6-8.8,95.9,22.9,43.9,101.4,11,114.8-6.6,24.4-16.6,11.5-34.6-5.9-43.2-23-11.9-47.2-31.5-58.5-57.1h0Z"/>
      <path class="cls-4" d="M1325.1,679.6c-15.4-14.6-33,10.4-42.9,31.1-10.5,21.9-42.5,15.5-37,29.2,75.3,275,232.3,337.3,375,606.8,20.3,31.8,113.6,9.9,84.9-37.2-163.6-224.6-222.6-500.2-379.9-629.9h0Z"/>
      <path class="cls-4" d="M1396.8,474.4c-39.6-51.5-42.5-26-38.7,35,.8,32.5-.8,41.2-11.2,67.5-22.9,26.7-23.3,64.5,18.7,111.2,87.3,85.3,146.2,210.9,203.4,339.7,28.4,56.9,57.1,88.7,28.7-35-40.7-175.7-41.9-298.7-200.9-518.3h0Z"/>
      <path class="cls-3" d="M1134.8,1606.6c5.5-53.9,67.4-72.4,102,89.3,18.3,95.9,31.5,284.9,28.1,382.6-9.6,89.9-23.6,175.4-53.6,244.9-23.8,44.4-46,71.7-56.1-20.4-29.2-233-38.8-463.4-20.4-696.3h0Z"/>
      <path class="cls-3" d="M1460.1,1357.4c5.1-49.4,16.2-72.3,40.2-55.5,35.1,24.5,84.9,111.7,78.4,142.1-.3,111.1-8.5,232.2,25.9,270.9,27.7,43.7-107.8,560.2-190.2,590.4-71.3,23.3-75.2-71.3-74.9-138.5-33.5-255.1,82.5-537.5,120.6-809.4h0Z"/>
      <path class="cls-4" d="M1265.8,2723.4c25.5-54,48.3-83.1,51.6,62,7.6,201.1-61.3,350.5-45.4,640.4.7,103.3-6.9,146.7-22.7,37.2-25.9-219.6-34.8-453.7,16.5-739.5h0Z"/>
      <path class="cls-4" d="M1031.3,2727.5c37.2-75.1,49.6-64.7,37.2,31-30.5,145.6-20.5,295.1,4.1,446.2,27.5,133.6-33.7,96.4-72.3,28.9-64.4-168.7-58.9-337.4,31-506.1h0Z"/>
      <path class="cls-4" d="M1124.7,2645.9c57.2-110.2,133.5,10.5,108.5,89.2-42.1,267.1-54.8,555.7,24.5,911.5,21.1,80.7-55.3,91-92.7-89.2-60.8-316.4-143.3-638.5-40.2-911.5h-.1Z"/>
      <path class="cls-3" d="M1201.2,1482.1c-2.7-25.6,8.2-50.5,18.9-74,20.4-45,40.8-90.1,61.2-135.1,12.6-27.8,25.6-56.2,46.4-78.6,12.5-13.3,30.1-24.9,47.9-21,12.1,2.6,21.6,11.7,30.4,20.4,11.2,11.2,22.7,22.7,29.4,37.1,20.6,44,8.1,86.1-5.3,136.6-14.4,54.1-32.6,110.8-47.4,164.9-6.5,23.8-63.5,166.6-93,166.7-14.5,0-37.2-77-39.9-91.5-7.2-40-46.2-103-48.6-125.5h0Z"/>
    </g>
  </g>
</svg>