<?xml version="1.0" encoding="UTF-8"?>
<svg id="_ÎÓÈ_1" data-name=" ÎÓÈ 1" xmlns="http://www.w3.org/2000/svg" xmlns:xlink="http://www.w3.org/1999/xlink" version="1.1" viewBox="0 0 2834.6 2834.6">
  <defs>
    <style>
      .cls-1 {
        clip-path: url(#clippath);
      }

      .cls-2 {
        fill: none;
      }

      .cls-2, .cls-3, .cls-4, .cls-5, .cls-6 {
        stroke-width: 0px;
      }

      .cls-3 {
        fill: #e73f32;
      }

      .cls-3, .cls-4, .cls-5, .cls-6 {
        fill-rule: evenodd;
      }

      .cls-4 {
        fill: #ececec;
      }

      .cls-5 {
        fill: #868686;
      }

      .cls-6 {
        fill: #c6c6c5;
      }
    </style>
    <clipPath id="clippath">
      <rect class="cls-2" x="-1.7" y="2.1" width="2838.1" height="2830.3"/>
    </clipPath>
  </defs>
  <g class="cls-1">
    <g>
      <path class="cls-5" d="M1631-366.5c50.4.4,55.7,59.7,42.1,114.5-11.2,44.8-31,83.2-67.8,95.8-11.6,54.5-12.2,120.2-18.7,179.9,13.8,19.4,36.9,29.2,56.1,42.1,57.3,38.2,115.3,81.4,172.9,121.5,65.7,6.3,139.6,13.4,191.6,37.4,46.6,21.5,78.4,57.4,105.2,100.5,24.9,40.1,53.7,91.3,58.4,144.9,5.4,61.7-2,136.9-14,191.6-3.8,17.2-13.8,37.7-14,53.7-.2,12.5,7.5,34.2,11.7,51.4,19,78,30.5,171,23.4,275.7-2.5,37.2-12.1,77.1-9.4,112.2,2.4,30.5,20.1,61.9,30.4,88.8,12,31.4,19.8,60.4,23.4,95.8,7.1,70-2.5,143.5-16.4,212.6-19.6,97.5-37.4,200.5-46.7,310.8-3.2,37.2-8.3,77.2-7,112.2,1.3,34.8,12.7,72.2,18.7,107.5,7.9,46.5,24.1,96.8,9.4,137.9-4.8,13.4-11.3,19.3-23.4,32.7-8.1,9-12.7,22.5-21,32.7-7.8,9.6-20.1,14.2-30.4,25.7-13.2,14.8-18.1,26-25.7,28-21.4,5.9-51-4-70.1-9.4-17.2-4.8-43-12.3-53.7-23.4-12.5-12.8-11.1-31.8-18.7-46.7-8.9-17.5-23.4-18.9-32.7-30.4-24,182.9-50.2,361.3-114.5,509.4-11.7,26.9-27,53.6-30.4,86.4-3.7,35.7,3,72.4-2.3,109.8-2.3,16.1-9.7,33-9.4,49.1.7,28.8,15.7,60.4,23.4,91.1,21.3,85.9,41.6,186.6,42.1,294.4.7,142.7-39,271.4-74.8,392.6-24.8,84.1-50.9,182.8-67.8,282.7-6.5,38.5-18.4,81.6-11.7,116.8,5.6,29.7,30,60.6,51.4,88.8,16.3,21.5,28.8,36.4,51.4,53.7,7.7,5.9,16.2,16.7,23.4,18.7,37,10.4,82.8,21,81.8,56.1-.6,20.4-15.4,29.5-51.4,30.4-26.5.7-52.9,0-79.5,0-54.4,0-114,8.1-158.9,2.3-12.5-1.6-22.9-10.2-39.7-11.7-38.4-3.5-75.3,9.5-88.8-11.7-17.1-26.9,22-103.3,21-135.5-.5-18.7-9.8-37.6-9.4-56.1.7-28.3,14.6-58,18.7-88.8,19.9-149.1,13.5-355.5-14-497.7-11.2-58-33.6-112.2-37.4-175.2-7.9,13.6-6.4,29.2-9.4,44.4-8.2,43-22.2,85.9-30.4,130.9-26.1,143-31.5,345.1-9.3,497.7,2.3,16,5.1,28.7,9.3,44.4,3.5,12.9,8.8,29.2,9.4,42.1.9,19.6-9.2,38.1-9.4,56.1-.3,47.9,35,88,23.4,137.9-10.9,20.2-55.7,9.8-86.5,11.7-18.6,1.1-29.3,11.7-51.4,11.7h-151.9c-50.5,0-121.6,7.5-128.5-21-7.9-33,26.4-50.8,49.1-58.4,8-2.7,18.4-3,28-7,27.9-11.6,59.1-45.5,77.1-70.1,16.5-22.5,46.7-62.1,51.4-93.5,4.9-32.6-5.1-72.8-11.7-109.8-17.2-95.9-44.9-201.8-70.1-287.4-35.7-121.1-79.4-245.7-79.4-397.2s25.1-233,51.4-336.5c3.6-14.2,11.1-29.4,11.7-42.1,1.2-26.4-11.9-55.3-14-84.1-2.4-32.3,2.9-73-4.7-100.5-11.7-42.8-37-82.6-51.4-128.5-40.8-129.7-77.6-286.3-91.1-441.6-7.9,1.2-20.9,10.9-28,18.7-11.3,12.3-12.5,45.7-25.7,58.4-13,12.5-37.2,15.9-56.1,21-26.1,7.1-62.7,22.1-81.8,0-2.9-3.4-4-12.8-9.3-18.7-8.5-9.3-21.2-14.7-30.4-25.7-18.9-22.7-38.5-40.2-46.7-63.1-12.2-34-1.1-85.3,7-133.2,6-35.3,16.3-71.5,18.7-100.5,2.8-35.1-3.6-75.1-7-114.5-9.3-108.7-26.5-214.8-46.7-315.4-13.7-68.4-29-136.1-21-215,3.6-35.4,12-66.6,23.4-98.1,10.5-29.3,28.1-59.7,30.4-88.8,2.7-34.1-9.5-72.1-11.7-109.8-5.8-99.7,2.2-196.8,21-278.1,3.9-16.7,11.7-35,11.7-49.1,0-16.1-7.8-35-11.7-51.4-11.2-47-19.2-110-18.7-170.6.5-64.6,26.4-116.8,53.7-163.6,25.6-43.8,62-87.7,107.5-109.8,39.2-19.1,90.2-26.6,137.9-32.7,15.7-2,21.3-.1,37.6-4.7,16.8-4.6,50.6-22.8,67.5-35.1,52.8-38.3,111-71.7,168-109.8-9.4-63.8-7.1-139.3-21-198.6-6.4-8.8-27.7-13-37.4-25.7-8-10.5-25.4-50.3-30.4-67.8-14.3-50.8-11.8-120.2,42.1-116.8-3.8-31.4-11.3-59-11.7-86.4-1-72.4,45.3-136.2,93.5-170.6,34.1-24.3,85.3-47.6,133.2-51.4,104.4-8.2,210.7,73.9,238.5,168.2,13.5,45.6,2.9,88.8-4.7,137.9h0ZM1815.6,1063.4c-7.7,16.7-21.8,34.5-23.4,46.7-1.3,10.8,3,31.5,4.7,46.7,7.3,65.8,16.2,141.5,2.3,201,46.8,74.2,32.5,182.4,49.1,278.1,5.2,30.1,14.7,60.7,21,88.8,28.4,125.1,27.2,262.8,37.4,401.9,12.2-43.1,43.4-79.5,58.4-126.2,8.7-27,12.5-62.1,16.4-95.8,3.9-33.9,9.6-71.6,9.4-105.2-.4-50.7-20-94.4-37.4-142.5-15.9-44-29.5-92.2-42.1-137.9-22.7-82.4-23-161.1-4.7-236,9.3-37.9,27.4-95,18.7-140.2-6.9-35.9-26.4-72.5-35.1-112.2-8.4-38.7-14.2-93.3-21-130.9-14.3,53.3-31.4,115-53.7,163.5h0ZM941.7,1040.1c-8.8,41.1-31.1,78.2-35.1,116.8-6.1,59.5,16.6,94.5,25.7,137.9,19.7,93.6,7.3,184.7-18.7,266.4-11.8,37.1-21.3,78.1-35.1,116.8-14.8,41.7-29.9,79.2-30.4,123.8-.3,30.5,5.3,62.3,9.4,93.5,4,31.4,6.6,63.5,14,91.1,13.9,52,43.8,96.1,65.4,142.5,5.1-139.4,4.6-273.1,28-385.5,8.1-38.7,20.7-77.3,25.7-112.2,11-75.8,4.8-151.9,23.4-215,6-20.3,19.5-41.3,21-60.7,1.6-19.6-6.1-40.9-7-60.7-2.7-61.9,6.6-123.5,14-184.6-38.7-57.8-57.1-136-81.8-208-4.7,48.1-9.3,93.9-18.7,137.9h0ZM1416.1,2051.8c-2.8,225.8-4.6,445.5-32.7,644.9-4,28.5-17.5,56.8-16.3,81.8.8,18.7,12.8,38.6,16.3,58.4,8.6,48,7.9,104.1,2.3,151.9-3.2,27.8-13,51.9-11.7,79.4,1.8,37.4,17.3,70.3,28,105.2,11.4,37,18.1,73.1,23.4,109.8-2.3-76.7,51.8-145.1,49.1-226.7-1-29.7-12.2-59.2-14-88.8-2.4-38.7-4.2-81.4,0-119.2,2.7-24.1,18.6-48.9,18.7-72.4.1-24-12-51.6-16.4-79.4-31.5-199.6-33.6-426.1-37.4-647.2-3.2.7-4.5,3.3-9.3,2.3h0Z"/>
      <path class="cls-6" d="M1256.9,145.2c-10.6-4.6-11.6-21.4-14-32.7-3-14.1-5.1-28.6-7-42.1-61.3,34.5-135.9,77.8-192.6,116.8,37,3.2,49.2,19.5-5.7,23.4-107.1,5.1-207.2,20.3-261.7,74.8-39.5,39.5-90.7,126.5-95.8,193.9-4.7,61.8,5,136.5,16.4,184.6,4.4,18.6,11.4,38.1,11.7,56.1.6,32.1-14.4,67.7-21,102.8-13.7,72.3-15.9,150.4-9.4,231.3,3.2,40.2,14.5,80.4,9.4,116.8-4.7,33.6-26.3,64.5-37.4,98.1-27.7,83.8-17.7,178.2,0,266.4,24.3,120.8,45.6,238.7,56.1,366.8,2.2,26.8,5.7,56.6,4.7,81.8-1.4,34.1-12.9,72.2-18.7,107.5-2.9,17.6-6.8,35.7-9.3,53.7-2.8,19.6-7,41.8-4.7,58.4,4.4,31.3,37.2,44.4,49.1,74.8,22,4.2,29.5,37.3,46.7,42.1,21.9,6.1,89-17.9,98.1-28,10.6-11.7,8.8-33.6,16.4-46.7,12-21,33.3-22.9,37.4-39.7,4.3-17.4-4.1-58.2-14-81.8-18.6-44-47.9-79.5-60.7-126.2-6.3-23-8.1-51.9-11.7-81.8-3.3-28-10-57-11.7-84.1-3.9-62.5,7-105.2,23.4-149.5,11.1-30.1,21.3-59.3,30.4-88.8,18-58.8,39.9-123.6,39.7-196.3,0-31.1-3.5-63.9-9.4-93.5-5.4-27.3-17.7-52.5-23.4-79.4-16-76.5,17.3-126.1,30.4-184.6,19.3-86.1,24.4-187.7,23.4-289.7-.1-12.3-5.3-30.4,2-42.1-36.2-65.1-68.8-186.5-58.5-205.8,13.8-49.5,31.6-70.9,55.4-92.9-9.1,22.5-18.1,45-27.2,67.6-7.5,23.1-8.8,46.3-3.8,69.4,18.3,101.6,60.5,167,131.4,188.6,53.5,8.8,109.2,2.2,165.1-6.6-48.1,24.1-112.4,33.8-205.5,17.8-20.7-5.5-27.8-9.8-36.7-16.9-.2,7.8-1.2,16.1-1.2,23.1,0,21.6-1.8,46.7,0,63.1,3.3,29.7,15.2,62,23.4,91.1,21.6,77.1,48.4,147.5,79.5,210.3,6.1,12.4,17,25,14,39.7-9.9,10.5-15.8-23-21-9.3-15.1,97.3-7.8,202.8,16.4,280.4,4.2,13.5,15.6,28.3,9.3,42.1-15.4-3-17.5-20.3-23.4-32.7-5.9-12.5-12.8-25.9-18.7-37.4-13.8,36.8-17.8,74.9-21,114.5-3.5,42.7-2.4,88.5-9.3,128.5-3.9,22.5-11.5,45.7-16.4,67.8-15.5,70.1-28,144.6-30.4,229-3.1,110.3-15.2,223.2-2.3,331.8,17.5,148,53.9,291.5,95.8,418.2,14.2,43,42.1,81.8,49.1,123.8,4.5,27.4-1.7,51.1,0,77.1,1.8,27.3,7,55,11.7,79.4,4.9,25.3,15.9,48.6,14,72.4-11,12.7-20.8-14.4-23.4-2.3-54.8,179.9-66.8,383.4-14,574.8,41.8,151.6,89.7,292.5,116.8,458,4.1,25.2,10.1,51.9,9.4,74.8-1.1,32.7-12.5,52.6-25.7,74.8-20.9,34.9-45.9,65.4-72.4,88.8-4,3.5-17.6,14-9.3,14,14.2-1.3,30.9,1.7,46.7,2.3,15.4.6,33.8-4.2,44.4,4.7-17.3,8.8-41.4,7.2-65.4,9.4-54.3,4.8-112.8,1.6-126.2,42.1,20.6,8.4,43.4,4.7,65.4,4.7s47-.3,70.1,0c45.2.6,91.2,6.2,133.2,0,10.9-1.6,20-8,30.4-9.3,27.2-3.6,51.9,4.5,77.1-2.3,4.6-47.8-26.2-82-25.7-126.2.2-18,10.4-36,9.3-56.1-1.1-21.8-12.1-41.4-16.3-63.1-4.6-23.5-4.8-49.2-7-72.4-14.6-155.1-11.1-304.3,16.4-453.3,8.7-47.3,22.5-88.9,30.4-130.9,18.5-97.7,10.3-204.1-16.4-287.4-13.1-40.9-30.9-86.8-30.4-130.9.3-29.3,12.2-57,14-84.1,2.5-37,3.5-76.8,0-114.5-2.2-23.7-16.7-47.5-18.7-72.4-3.1-38.4,11.8-64,16.4-98.1,27.1-204.6,29.2-428.1,32.7-654.2,14.8-4.1,44.9-4.8,53.7,4.7-1.9,223.1,7.9,452.2,35.1,644.9,3.9,27.7,14.1,55.1,16.3,81.8,3.1,36.8-11.6,51-16.3,77.1-9.7,52.9-4.7,122.1,4.7,168.2,3.5,17.5,9.4,34,9.4,51.4,0,44.1-17.4,86.8-30.4,128.5-27.6,89.1-28.3,188.9-11.7,282.7,7.4,41.6,21.2,83.5,30.4,130.9,19.4,100,24.7,197.1,25.7,294.4.8,78.4-1.1,158.5-11.7,226.7-3.4,21.9-14.4,42.7-16.3,65.4-2,23,9.4,41,9.3,63.1,0,18.8-9.2,41.4-14,60.7-5,20.2-12.3,39.8-11.7,63.1,24.2,10.8,50.9-2.4,81.8,2.3,9.4,1.4,18.2,7.9,28,9.3,40.7,5.9,90.4,0,135.5,0s70.4-.8,98.1-2.3c9.3-.5,23.4,4.4,30.4-4.7,5.6-14.4-11.6-21-21-25.7-32.6-16.3-101-13.8-140.2-18.7-9.3-1.2-23.4,3.1-28-7,26.2-6.5,61.1-4.3,93.5-4.7-17.5-21-41.7-41.1-60.7-67.8-26-36.5-53.3-73.3-49.1-133.2,6.4-90,31.5-180.2,53.7-268.7,21.1-84.1,47.6-167.8,70.1-254.7,47.3-182.6,34.8-377.6-21-565.5-7.1-7.3-2.3,7.6-9.3,7-5.2,5.3-11.7-.1-16.3-2.3,6.8-44.5,22-87.9,25.7-140.2,1.9-26.6-3.2-55.1,0-84.1,4.6-41.1,32.3-83.3,46.7-126.2,43-128.1,78-274.5,93.5-425.3,11.4-111.3-.8-222.1-4.7-331.8-3-83.8-15.1-159.8-30.4-229-5.3-24-15-46.3-18.7-70.1-11.8-76.5-2.9-161.8-30.4-233.7-8.5,1.6-6.3,12.1-9.3,18.7-2.8,6.2-8.4,12-11.7,18.7-5.6,11.5-8.2,33.9-23.4,30.4.9-22.2,12.3-45.2,18.7-70.1,19.6-75.9,19-171.3,4.7-254.7-6.2-5.3-8.9,22.7-21,11.7,6.9-26.8,20.7-52.3,32.7-79.4,23.3-52.8,41.9-106.4,58.4-165.9,8.3-29.9,20.3-60.7,23.4-91.1,1.7-16.2,0-42.5,0-65.4s-1.3-18-1.2-27.1c-11.5,9.6-17.2,14.3-41.4,20.8-93.1,15.9-157.4,6.3-205.5-17.8,56,8.8,111.7,15.4,165.1,6.6,70.9-21.6,113-86.9,131.4-188.6,5-23.2,3.8-46.3-3.8-69.4-9.1-22.5-18.2-45-27.2-67.6,23.8,22,41.6,43.4,55.4,92.9,10,18.7-20.4,133.6-55.3,199.9,11.6,13.7,5.9,35.1,5.9,50.3,0,110.7,6,210.3,28,294.4,9,34.4,25.1,66.4,30.4,98.1,9,54.5-11.3,102.2-21,142.5-5.8,23.9-10.2,49-11.7,74.8-6.1,104.7,31.4,203.2,58.4,282.7,20.3,59.9,42.1,108,37.4,184.6-3.7,59.6-13.5,146.3-35.1,198.6-20.2,49.3-72.9,121.5-60.7,172.9,5.2,22.2,29.8,23.8,39.7,42.1,7.3,13.4,5.4,35.6,16.4,46.7,22.1,22.5,67.4,19.1,98.1,28,8.7-7.4,14.8-16.7,23.4-25.7,8.3-8.6,18.3-14.4,25.7-23.4,3.4-4.1,3.8-12,7-16.4,10.7-14.7,30.4-26.3,35-42.1,9.4-32-5.3-80.2-11.7-119.2-6-36.3-16.2-72.5-18.7-105.2-3.9-51.1,3.7-110.5,9.4-165.9,5.2-51.6,12.9-104.4,21-154.2,17.1-104.5,49.9-203.3,42.1-310.8-2.6-36.1-12.9-70.7-25.7-105.2-12.1-32.5-31-67.3-32.7-98.1-1.8-33.9,9.5-72.1,11.7-109.8,4.7-79.7,2.5-158.1-11.7-226.6-7.1-34.3-23.7-70.2-23.4-100.5.2-16.5,7.5-34,11.7-51.4,12.1-50.7,20-116.5,16.4-175.2-2.8-45.2-19.4-85.5-39.7-121.5-20.3-36-40.2-68.5-67.8-93.5-61-55.2-157.4-55.4-257-67.8-48.4-3.8-41.8-20.5-9.3-21-66-41.5-123.8-91.1-193.9-128.5-2.6,13.8-8.1,29.9-11.7,46.7-3.1,14.3,0,38.3-16.4,42.1,5.6-62.1,11.2-124.3,16.4-186.9-36.6,29.3-67.2,82.9-114.5,102.8-31.1,13.1-61.5,15.5-98.4,0-48.5-20.4-73.7-67.6-112.1-102.8-1.4.1-2.8.4-2.4,2.3,3.8,60.9,14.3,127.4,14,184.6h0ZM1378,1267c18.4-44.3,58.1-40.1,73.1.5-44.9-40.1-68.9,17.1-73.1-.5h0ZM1312.2,231.6c12,2.5,21.1,6,33.5,6,19.2,0,36.6,8.7,41.9,27,1.6,5.5,21.6,52.7-3.6,24.5-9.7-10.8-8.5-31.1-29-34.6-11.1-1.9-53.1-24-42.8-22.9h0ZM1513.8,231.6c-12,2.5-21.1,6-33.5,6-19.2,0-36.6,8.7-41.9,27-1.6,5.5-21.6,52.7,3.6,24.5,9.7-10.8,8.5-31.1,29-34.6,11.1-1.9,53.1-24,42.8-22.9h0ZM1235.9,2730.7c25.7,42.1,84.5,64,88.2,43.7,2.3,4.1,12.7,23.2-18.3,25.1-14,0-40.7-16-50.7-26-13.7-13.7-16.9-28.5-19.1-42.8h0ZM1206.9,2753.9c-18.7,19.2-29.7,30.7-60.6,33.7,6.2,6.5,13.4,14.5,39.6,9,19.5-11.7,21.5-27,21-42.7h0ZM1161.6,2870.3c5.1,51.8,11.1,116.5,39.1,141,10,10.5,30.2,14.9,54.8,21.2-22.8,9.4-54.6,4.1-78.8-11.4-21.6-13.9-34-136.8-15.1-150.9h0ZM1326,2841.6c-.3,27.4.2,126.8-11.5,151.3-5.7,11.9-22.1,22.7-35.2,26.8,22.8,9.4,19.8,10.3,44-5.2,21.6-13.9,21.6-158.8,2.7-173h0ZM1614.5,2730.7c-25.7,42.1-84.5,64-88.2,43.7-2.3,4.1-12.7,23.2,18.3,25.1,14,0,40.7-16,50.7-26,13.7-13.7,16.9-28.5,19.1-42.8h0ZM1643.5,2753.9c18.7,19.2,29.7,30.7,60.6,33.7-6.2,6.5-13.4,14.5-39.6,9-19.5-11.7-21.5-27-21-42.7h0ZM1688.8,2870.3c-5.1,51.8-11.1,116.5-39.1,141-10,10.5-30.2,14.9-54.8,21.2,22.8,9.4,54.6,4.1,78.8-11.4,21.6-13.9,34-136.8,15.1-150.9h0ZM1524.4,2841.6c.3,27.4-.2,126.8,11.5,151.3,5.7,11.9,22.1,22.7,35.2,26.8-22.8,9.4-19.8,10.3-44-5.2-21.6-13.9-21.6-158.8-2.7-173h0ZM1612.3-352.5c2.6-26.8,5.9-51.1,7-77.1,3-68.2-19.6-110.9-51.4-144.9-33.5-35.8-96.3-70.9-154.2-74.8-65.7-4.4-125.5,28.8-168.4,74.8-24.8,26.5-48,64.1-51.4,109.8-3.2,42.2,4.2,80.2,7,114.5.8,10.1,9.5,27.5-4.7,35.1-15.5,0-2.7-28.5-21-25.7-17.9.8-20.7,29.3-18.7,53.7,3.2,39.8,25.2,90.3,46.7,102.8-.9-11,.2-20.1,11.7-18.7,16.2,35.4,12.4,75.4,25.7,109.8,12.4,32,37.6,57.9,60.7,81.8,28.5,29.4,59,58.2,105.2,60.7,55.6,3.1,76.7-31.1,105.4-60.7,38.9-40.2,61.2-73,72.4-137.9,3.5-20,3.8-44.2,16.4-53.7,9.5-.2,10.1,8.6,9.3,18.7,22.3-12.9,57.2-88,46.7-135.5-2.3-10.6-11.7-24.2-21-21-15,5-2,21.8-21,25.7-9.8-10.7-3.4-26.1-2.3-37.4h0Z"/>
      <path class="cls-4" d="M1116.3,252.1c-119.9,52.9-230.9,161.6-306.2,349.3-14.4,7.5-36-3.7-21.4-98,21.1-78.6,11.6-123.9,92.6-237,66.4-70.5,251.2-41.2,235-14.2h0Z"/>
      <path class="cls-4" d="M880.2,253.7c-88.9,87.5-131.1,264.4-106.6,384-18.2,66.5-39.2,108-53.3,68.4-54.7-214.9-10.4-345.7,91.5-429.3,12.7-9.4,61.5-32.3,68.3-23.1h0Z"/>
      <path class="cls-4" d="M884.2,605.1c-10.8-54.4-24.8-87.6-61.1,26.7-68.9,158.7-58.3,314.3-61.1,467.9,6.9,112.4,55.9,97.6,97.4,40.1,48.3-83.4,94.5-341.8,24.8-534.7h0Z"/>
      <path class="cls-4" d="M747.2,734.1c30.1-38.8,36.4-31.7,19,21.4-18,111.4-29.4,221.9-15.4,358.9,0,44.1-35.2,58-46.3,22.6-23.7-166.1-28.7-316.2,42.7-402.8h0Z"/>
      <path class="cls-4" d="M689.6,1234.7c31.2-94.4,133.7-52.3,126.3,75.4,23,194.1-18.1,366.6,0,570.3-6.1,61.8-19,66.5-30.6,14.2-25.3-255-142.3-519.2-95.7-659.9h0Z"/>
      <path class="cls-4" d="M650.3,1403.9c12.8-89.5,18.8-8.4,27.3,40.4,26.5,165,86.1,324.3,97.4,486.4-.8,35.9-35.3,44.2-48.7,30.9,1.1-162.2-85-498.6-76-557.8h0Z"/>
      <path class="cls-4" d="M866.5,1212.6c-26.9-24.1-39.2-11.8-36.9,36.9,11.5,127.4,22.7,254.7-2.7,378.4-1.8,52.8,5.5,60.1,21.8,21.8,53.3-142.7,81.1-287.1,17.8-437.1h0Z"/>
      <path class="cls-4" d="M1712.3,252.1c119.9,52.9,230.9,161.6,306.2,349.3,14.4,7.5,36-3.7,21.4-98-21.1-78.6-11.6-123.9-92.6-237-66.4-70.5-251.2-41.2-235-14.2h0Z"/>
      <path class="cls-4" d="M1948.4,253.7c88.9,87.5,131.1,264.4,106.6,384,18.2,66.5,39.2,108,53.3,68.4,54.7-214.9,10.4-345.7-91.5-429.3-12.7-9.4-61.5-32.3-68.3-23.1h0Z"/>
      <path class="cls-4" d="M1952.7,605.1c10.8-54.4,24.8-87.6,61.1,26.7,68.9,158.7,58.3,314.3,61.1,467.9-6.9,112.4-55.9,97.6-97.4,40.1-48.3-83.4-94.5-341.8-24.8-534.7h0Z"/>
      <path class="cls-4" d="M2089.7,734.1c-30.1-38.8-36.4-31.7-19,21.4,18,111.4,29.4,221.9,15.4,358.9,0,44.1,35.2,58,46.3,22.6,23.7-166.1,28.7-316.2-42.7-402.8h0Z"/>
      <path class="cls-4" d="M2147.2,1234.7c-31.2-94.4-133.7-52.3-126.3,75.4-23,194.1,18.1,366.6,0,570.3,6.1,61.8,19,66.5,30.6,14.2,25.3-255,142.3-519.2,95.7-659.9h0Z"/>
      <path class="cls-4" d="M2186.6,1403.9c-12.8-89.5-18.8-8.4-27.3,40.4-26.5,165-86.1,324.3-97.4,486.4.8,35.9,35.3,44.2,48.7,30.9-1.1-162.2,85-498.6,76-557.8h0Z"/>
      <path class="cls-4" d="M1970.3,1212.6c26.9-24.1,39.2-11.8,36.9,36.9-11.5,127.4-22.7,254.7,2.7,378.4,1.8,52.8-5.5,60.1-21.8,21.8-53.3-142.7-81.1-287.1-17.8-437.1h0Z"/>
      <path class="cls-4" d="M1232.4,151.8c19,56.9,29.8,48.3-35.8,43.8-135.5-9.4-130.8-6.3-18.1-67.6,53.5-29.1,36.7-27.5,53.9,23.8h0Z"/>
      <path class="cls-4" d="M1265.3,18.2c2.6,53.4,28.7,134.1,52.4,170.4,34.6,53,76.5,46.1,70.9,21.5-41.6-58.8-46.2-126.8-59.9-147.3-33.2-21.2-59-73.6-63.3-44.5h0Z"/>
      <path class="cls-4" d="M1167.2,254.7c48.2-15.4,235.4,60.5,204.8,70.2-128.7,41.4-253.8,69.4-397.1,164.5-49.6,26.3-53.6,14.3-35.9-34.3,35.8-112,124-161.6,228.3-200.4h0Z"/>
      <path class="cls-4" d="M1014.3,478.4c-26.9,14.3-50.6,27.8-64.3,37-23.5,15.8-21.5,24.1,6.4,17.9,28.7-6.3,59.6-6.3,88.8-4.6,155.6,9.2,284.6,64.5,341.1,57.3,20,2.6,15.4-225.8-16.9-226.4-142,18.7-245.9,54.8-355.1,118.7h0Z"/>
      <path class="cls-4" d="M983.1,541.2c-53.4,3.3-53.8,11-49.7,50.8,16.9,61,53.1,115.7,108.6,126.9,119.5,24.2,282.8-33,303.9-36.8,28.4-9.3,63.3-38.9,18.3-64.7-110.4-52.9-317.7-84.2-381-76.2h0Z"/>
      <path class="cls-4" d="M1206.5,764.9c-20.9,16.8-36.9,93.9-9.6,93.9,23.4-1.6,38.4-17.7,80.3-22.4,34.8-3.9,72.4-.7,94.2-4.1,37.3-18.5,33.7-119.9-1.2-122.7-61,3.1-122.7,9-163.6,55.4h0Z"/>
      <path class="cls-4" d="M1196.3,881.8c38-25.6,132.6-38.2,181-24.5,22.7,10.8,22.1,111.6,7.9,148.6-15.9,27.7-109.9,10.9-177.3,29-47.3,18.2-51.6-124-11.6-153h0Z"/>
      <path class="cls-4" d="M1198.8,1065.4c32.3-19.5,118-25.4,159.7-20.8,49.4,3.7,38,148.5,17.7,160.5-22.9,19.5-17.7,35.8-40.6,59.4-18.1,12.2-65.3,16-92.7,28.1-58.7,16.7-76-213.7-44.1-227.2h0Z"/>
      <path class="cls-4" d="M1234.1,1334c42.1-24.2,84.2-40.8,126.3-36.1,27.4,7.2,31.7,22.5,31.3,37.3,3.7,118.8,3.3,233.5,3.6,348.9-2.4,42.1-46.9,77-77,15.6-63.4-104.3-129.2-345.7-84.2-365.8h0Z"/>
      <path class="cls-4" d="M1581.1,151.8c-19,56.9-29.8,48.3,35.8,43.8,135.5-9.4,130.8-6.3,18.1-67.6-53.5-29.1-36.7-27.5-53.9,23.8h0Z"/>
      <path class="cls-4" d="M1553.7,18.2c-2.6,53.4-28.7,134.1-52.4,170.4-34.6,53-76.5,46.1-70.9,21.5,41.6-58.8,46.2-126.8,59.9-147.3,33.2-21.2,59-73.6,63.3-44.5h0Z"/>
      <path class="cls-4" d="M1657.3,254.7c-48.2-15.4-235.4,60.5-204.8,70.2,128.7,41.4,253.8,69.4,397.1,164.5,49.6,26.3,53.6,14.3,35.9-34.3-35.8-112-124-161.6-228.3-200.4h0Z"/>
      <path class="cls-4" d="M1810.2,478.4c26.9,14.3,50.6,27.8,64.3,37,23.5,15.8,21.5,24.1-6.4,17.9-28.7-6.3-59.6-6.3-88.8-4.6-155.6,9.2-284.6,64.5-341.1,57.3-20,2.6-15.4-225.8,16.9-226.4,142,18.7,245.9,54.8,355.1,118.7h0Z"/>
      <path class="cls-4" d="M1841.4,541.2c53.4,3.3,53.8,11,49.7,50.8-16.9,61-53.1,115.7-108.6,126.9-119.5,24.2-282.8-33-303.9-36.8-28.4-9.3-63.3-38.9-18.3-64.7,110.4-52.9,317.7-84.2,381-76.2h0Z"/>
      <path class="cls-4" d="M1618,764.9c20.9,16.8,36.9,93.9,9.6,93.9-23.4-1.6-38.4-17.7-80.3-22.4-34.8-3.9-72.4-.7-94.2-4.1-37.3-18.5-33.7-119.9,1.2-122.7,61,3.1,122.7,9,163.6,55.4h0Z"/>
      <path class="cls-4" d="M1628.2,881.8c-38-25.6-132.6-38.2-181-24.5-22.7,10.8-22.1,111.6-7.9,148.6,15.9,27.7,109.9,10.9,177.3,29,47.3,18.2,51.6-124,11.6-153h0Z"/>
      <path class="cls-4" d="M1625.7,1065.4c-32.3-19.5-118-25.4-159.7-20.8-49.4,3.7-38,148.5-17.7,160.5,22.9,19.5,17.7,35.8,40.6,59.4,18.1,12.2,65.3,16,92.7,28.1,58.7,16.7,76-213.7,44.1-227.2h0Z"/>
      <path class="cls-4" d="M1590.4,1334c-42.1-24.2-84.2-40.8-126.3-36.1-27.4,7.2-31.7,22.5-31.3,37.3-3.7,118.8-3.3,233.5-3.6,348.9,2.4,42.1,46.9,77,77,15.6,63.4-104.3,129.2-345.7,84.2-365.8h0Z"/>
      <path class="cls-4" d="M991.5,755.5c-23.1-4.6-21.1,22.7-5.5,31.8,44.8,45.5,116.1,109.2,163.2,120.6,13.5,4,1.4-42.4,6.1-78.7,5-38.6,21.4-72.7,5.7-68.8-47.4,13.8-114.5,9.3-169.4-5h0Z"/>
      <path class="cls-4" d="M988.1,811.7c48,46.6,104.2,98.4,156.3,117.3,17.3,2.1,5.1,81.3,10.7,143.7,5.6,62.4,25,153.2,8.9,141.4-54-28.3-121.5-139.8-172.7-335.5-19-61.6-16.5-70.4-3.1-66.9h0Z"/>
      <path class="cls-4" d="M1104.8,1191c-33-30.7-38-19.2-39.9,34.4-4.1,110,26.1,178.7,90.7,243.3,43.1,53.6,62.3,50.9,46.7-16.5-16-81.4,0-147.1-97.6-261.1h0Z"/>
      <path class="cls-4" d="M1834.5,755.5c23.1-4.6,21.1,22.7,5.5,31.8-44.8,45.5-116.1,109.2-163.2,120.6-13.5,4-1.4-42.4-6.1-78.7-5-38.6-21.4-72.7-5.7-68.8,47.4,13.8,114.5,9.3,169.4-5h0Z"/>
      <path class="cls-4" d="M1838,811.7c-48,46.6-104.2,98.4-156.3,117.3-17.3,2.1-5.1,81.3-10.7,143.7-5.6,62.4-25,153.2-8.9,141.4,54-28.3,121.5-139.8,172.7-335.5,19-61.6,16.5-70.4,3.1-66.9h0Z"/>
      <path class="cls-4" d="M1721.2,1191c33-30.7,38-19.2,39.9,34.4,4.1,110-26.1,178.7-90.7,243.3-43.1,53.6-62.3,50.9-46.7-16.5,16-81.4,0-147.1,97.6-261.1h0Z"/>
      <path class="cls-4" d="M1038,1487.7c8.9-95.7,84.8,54.8,60.5,114-10.4,34.4-25.1,66.7-31.2,103.3-10,49.7-42.7,35.2-38.4-26.4,5.6-58.6-1.2-130.8,9.2-190.8h0Z"/>
      <path class="cls-3" d="M1191.2,1603.4c117.7,200.2,114.1,275.3,36,637.1-10.6,83-22.6,137.4-44-8-21.8-206.2-138.2-363-65.3-618.5,13.8-35.5,16.9-111.1,73.3-10.7h0Z"/>
      <path class="cls-3" d="M1013.9,1839.1c14.9-99.4,32.5-102.6,52.6-9.7,73.4,288,135.3,571.3,130.5,828.1-11.6,76.9-29.7,132.9-93.5,42.9-114.1-242.5-152.2-525.2-89.6-861.2h0Z"/>
      <path class="cls-3" d="M1306.1,1987.1c29.2-86.4,48-74,56.5,37,11.7,220.8,6.5,449.4-21.4,662.5-7.8,91.6-116.9,35.1-122.7-105.2-8.9-160,34-371.8,87.7-594.3h0Z"/>
      <path class="cls-4" d="M1120.1,3120.1c28.1-132.9,98.5-55.2,131.7,150.5,33.9,201.3-44.9,418.3,56.1,836.4,14.3,50.3-5,66.3-17.3,71-17.9,6.9-43-18.2-46.5-37.9-66.9-386.5-238.6-655.5-124-1020.1h0Z"/>
      <path class="cls-4" d="M1299.9,3113.1c-7.1-90.8,33.1-98.7,56.8,40.3,72.8,254.2,3.3,345.8-18.9,506.7-7.9,88.4-32.4,86-28.4-30.8-3.2-172.1,24.5-322.8-9.5-516.2h0Z"/>
      <path class="cls-4" d="M1801.2,1487.7c-8.9-95.7-84.8,54.8-60.5,114,10.4,34.4,25.1,66.7,31.2,103.3,10,49.7,42.7,35.2,38.4-26.4-5.6-58.6,1.2-130.8-9.2-190.8h0Z"/>
      <path class="cls-3" d="M1653.6,1603.4c-117.7,200.2-114.1,275.3-36,637.1,10.6,83,22.6,137.4,44-8,21.8-206.2,138.2-363,65.3-618.5-13.8-35.5-16.9-111.1-73.3-10.7h0Z"/>
      <path class="cls-3" d="M1830.9,1839.1c-14.9-99.4-32.5-102.6-52.6-9.7-73.4,288-135.3,571.3-130.5,828.1,11.6,76.9,29.7,132.9,93.5,42.9,114.1-242.5,152.2-525.2,89.6-861.2h0Z"/>
      <path class="cls-3" d="M1538.7,1987.1c-29.2-86.4-48-74-56.5,37-11.7,220.8-6.5,449.4,21.4,662.5,7.8,91.6,116.9,35.1,122.7-105.2,8.9-160-34-371.8-87.7-594.3h0Z"/>
      <path class="cls-4" d="M1724.7,3120.1c-28.1-132.9-98.5-55.2-131.7,150.5-33.9,201.3,44.9,418.3-56.1,836.4-14.3,50.3,5,66.3,17.3,71,17.9,6.9,43-18.2,46.5-37.9,66.9-386.5,238.6-655.5,124-1020.1h0Z"/>
      <path class="cls-4" d="M1553.2,3113.1c7.1-90.8-33.1-98.7-56.8,40.3-72.8,254.2-3.3,345.8,18.9,506.7,7.9,88.4,32.4,86,28.4-30.8,3.2-172.1-24.5-322.8,9.5-516.2h0Z"/>
    </g>
  </g>
</svg>