<?xml version="1.0" encoding="UTF-8"?>
<svg id="_ÎÓÈ_1" data-name=" ÎÓÈ 1" xmlns="http://www.w3.org/2000/svg" version="1.1" viewBox="0 0 2834.6 2834.6">
  <defs>
    <style>
      .cls-1 {
        fill: #ececec;
      }

      .cls-1, .cls-2, .cls-3, .cls-4 {
        fill-rule: evenodd;
        stroke-width: 0px;
      }

      .cls-2 {
        fill: #868686;
      }

      .cls-3 {
        fill: #19ba20;
      }

      .cls-4 {
        fill: #c6c6c5;
      }
    </style>
  </defs>
  <path class="cls-2" d="M1669.2,765.1c-4.7,57.6-23.6,100.9-41.5,145.3,9,36.4,8.6,82.3,20.8,115.7,92.2,51.2,184.5,102.2,266.9,163.1,85.6,7.2,163.4,14.5,225.4,56.4,33.8,22.8,60.3,51.8,89,83,60.9,66.5,118.5,122.6,127.5,240.2,3.3,43.3.6,93.3-3,139.4-3.4,43.5-5,87.7-20.7,121.6,29,55.5,61.6,115,77.1,183.9,16,71.2,26.6,155.8,20.8,240.2-5.6,81.1-12.8,162.6,8.9,240.2,19.6,69.9,39.8,137.5,44.5,213.5,7.5,120.2-30.3,232.6-62.3,338.1-15.5,51.2-31.8,100.8-50.4,148.3-19.1,48.6-46.9,94-59.3,139.4-6.8,24.9-5.7,56.2-11.9,77.1-7.3,24.8-31.4,46.1-35.6,71.2-5.3,32.4,3.3,85,6,121.6,3.4,46.5,10.5,101.5,0,136.4-8.8,29.1-36.2,50.4-53.4,74.1-17.7,24.5-28.7,61.9-59.3,71.2-62,18.7-104.8-33.3-142.4-56.4-30.3,239.6-65.3,474.4-160.2,649.5,7.3,98.2-4.1,200.8-17.8,290.6-4.5,29.3-6,60-20.8,83,90.9,208.6,106.7,499.5,44.5,732.5-29,108.6-75.8,211.4-106.8,320.3-26.6,93.6-49.5,197.5-53.4,320.3-.5,17.5-5.1,37.1-3,50.4,3.3,20.4,24.8,40.9,41.5,62.3,15.8,20.2,32,41.8,44.5,56.4,26.2,30.4,93.6,72,91.9,109.7-3,71.8-151.4,30.4-219.5,35.6-46.3,3.5-120.1,26.2-175,8.9-71.9-22.7-44.2-118.7-29.7-195.7,23.9-127,33.6-272.1,38.6-415.2,7.5-218.6-42.5-362.3-74.1-530.9-31.1,163.9-81.6,314.8-74.1,530.9,4.9,141.5,13.9,284.4,38.6,415.2,13.8,73.3,45.2,173-29.7,195.7-54.4,16.5-120.5-4.4-172-8.9-62-5.4-215.5,35.6-222.4-32.6-3.8-37.1,71.8-89.3,91.9-112.7,13.9-16.2,29.3-36.9,44.5-56.4,15.8-20.2,38.1-41,41.5-59.3,3.9-20.5-1.5-73.7-3-103.8-1.7-34.6-7.1-67.8-11.9-94.9-22.7-128.8-54.8-223.9-94.9-332.2-19.6-52.9-35.5-107.3-50.4-163.1-31.7-118.7-44.6-244.9-38.6-382.6,5.4-123.7,37.2-243.8,80.1-347-20.1-52.1-25.9-112.3-32.6-178-4.9-48.3-8.7-97.2-8.9-148.3,0-15.4,4.9-34.4,2.9-47.5-2.3-15.2-24.1-51.8-32.6-71.2-71.2-161.8-99.8-370.7-127.5-578.3-11.3.5-21.6,12.7-32.6,20.8-21.6,15.9-67.6,45.4-109.7,32.6-27.9-8.4-37.4-40.4-56.4-68.2-20-29.4-50.6-46-59.3-80.1-8.1-31.9-2.4-86,0-127.5,2.4-40.7,14.4-85.3,8.9-124.6-3.5-25-24.2-44.5-32.6-68.2-7.5-21.3-8-53.6-14.8-80.1-11.7-45.4-37.2-93.2-56.3-142.4-18.4-47.1-38-94.5-53.4-145.3-31.6-104.5-68-215.9-62.3-335.1,3.7-76,21.7-148.5,41.5-219.5,21.6-77.5,21-157.3,14.8-240.2-12.2-165,26.4-306.9,91.9-421.1-28.5-137.5-34.7-315.4,20.8-406.3,21.5-35.2,56.6-65.7,86-97.9,35.3-38.6,66.7-78.7,112.7-100.8,43.8-21.1,93.1-24.7,145.3-32.6,16.9-2.6,37.7-1.7,53.4-5.9,21.1-5.7,41.7-28.4,65.3-44.5,61.9-42.3,143.5-81.7,204.7-118.6,12.2-32.3,11-78,20.8-112.7-16.2-46.1-36.2-88.3-41.5-145.3-12.3,1.2-30,4.1-44.5-5.9-31-21.4-99.8-216-14.8-246.2-27.4-129.1,12.8-247.3,74.1-320.3,56.5-67.2,147-110.2,269.9-100.8,65.7,5,132.4,32.7,178,71.2,84.7,71.7,122.6,201.2,103.8,347-2.2,10.1,13.3,10.9,20.8,20.8,30,39.6,16.4,113.4-3,163.1-18,46.2-33.1,82.9-80.1,68.2h0ZM1378.6,4413c-7.3,53.1-16.3,108.7-14.8,160.2,1.6,55.8,20.6,112.3,23.7,169.1,4.3,78-11.5,148.2-26.7,222.4,18.3,68.7,41.1,132.9,53.4,207.6,9.8-2.5,7.4-17.2,8.9-23.7,15.2-64.2,34.3-124.9,50.4-183.9-15.2-75.1-31.6-146.6-26.7-225.4,3.6-57.2,22.7-112.6,23.7-169.1,1-50.6-8.1-104.4-14.8-157.2-20.5-161.1-29.4-322.8-38.6-480.5-2.3,167.3-17.9,329.9-38.6,480.5h0ZM1912.4,2405.2c18.5,102.4,14.6,251.6-6,338.1,36.1,72.9,70.4,140.1,77.1,234.3,2.9,40.5-8,86.6-3,121.6,3,21.1,21.5,50.2,32.6,77.1,10.9,26.4,23.9,54.5,29.6,83,12.9,64,2.9,120.2-8.9,180.9,18.9-17.1,46.2-42.2,47.5-65.3,4.6-84,21.2-173.4,20.8-261-.6-105.8-37.8-185.5-50.4-275.8-23.7-170.2-1.2-318.3,53.4-438.9-34.6-72.2-49.1-164.4-68.2-252.1-28.7,98.8-80.3,174.7-124.5,258h0ZM729,2399.3c55.5,124,77.7,274.7,53.4,441.9-10.6,73-39,143.3-47.5,219.5-7.2,65.5,1.4,122.9,8.9,183.9,7.9,64.4,2.1,134.5,29.7,172,6,8.1,18.6,20.4,26.7,20.8-10-42.2-15.2-77.1-14.8-118.6.5-59.9,18.3-100.7,35.6-142.4,11.7-28.2,29.9-57.5,32.6-80.1,5.1-42.1-5.9-83.3-2.9-121.6,7.2-93.6,43.3-159.9,77.1-234.3-21.4-84.8-23.9-234.1-5.9-335.1-46.1-82.4-93.6-163.4-127.5-258-13.1,92.7-32.7,178.8-65.3,252.1h0Z"/>
  <path class="cls-4" d="M1672.2,602c17.7-45.5,32.7-93.1,35.6-145.3,4.9-89-21.9-164.4-56.3-219.5-33.5-53.7-103.1-95.8-178-109.7-129.8-24.1-247.3,40.3-290.6,109.7-29.8,47.8-52.1,107.8-56.4,172-7.1,105.5,29.3,192.4,65.3,255,10.5,18.3,28.2,36.6,26.7,59.3-18-3.2-26.5-23.6-35.6-35.6-31.3-41.6-57.1-85.8-74.1-139.4-28.1,43.3-10,99.1,5.9,139.4,8.2,20.8,17.2,55.5,38.6,47.5,16.8-5.4-9.4-38.4,11.9-41.5,24.5,43.7,28.6,107.8,50.4,154.2,2.6-18.2-3.5-45,17.8-44.5,8.4,16,4.6,38.6,2.9,59.3-1.7,20.6-3.6,43.8-5.9,65.3-3.6,32.6-5.5,97.3-20.8,118.6-11.4,15.9-61.2,35.6-83,47.5-32.1,17.5-59.1,33.2-83,47.5-62.4,37-114.4,72.1-166.1,97.9-15.1-.2,0-22.7-11.9-14.8-53.3,7.4-100.4,14.1-142.4,35.6-36.9,19-67.3,53-94.9,83-29.8,32.4-58.1,61.6-80.1,97.9-50.7,83.3-48.8,222.7-29.6,347,3.1,4.5,10.7-22.9,23.7-8.9-48.5,110.4-98.3,226.4-106.8,361.8-5.6,90.2,7.7,172.8,3,263.9-3.1,61.1-25.3,111.7-38.6,169.1-13.6,59.2-24.4,125.1-20.7,189.8,3.2,56.1,18,116.4,32.6,175,13.8,55,28.6,112.6,47.5,163.1,29.3,78.5,67.1,147.7,89,222.4,8.4,28.8,6.5,61.8,17.8,89,8.1,19.6,24.8,33.6,29.6,53.4,6.7,27.2,2.9,67.4,0,103.8-2.5,31.3-4.6,65.6-5.9,94.9-.8,18.4-5.7,35.7-3,53.4,5.9,37.9,37.3,51.3,59.3,86,11.7,18.4,21,45,35.6,50.4,49,18.2,106.9-41.2,130.5-68.2-6-95.9-7.5-196.1-8.9-296.6-28.1-34.1-60.4-54.5-74.1-97.9-6.8-21.6-3.8-49.5-5.9-77.1-5.8-75.4-26.3-149.7-20.8-225.4,5.1-69.6,25.1-137.7,38.6-204.6,32.4-162,26.1-302.2-23.7-438.9-6.3-5.2-9.5,30.6-23.7,17.8.1-30.5,12.3-61.4,20.8-91.9,17.6-63.7,32.6-124.4,44.5-195.7,5.1-30.9,19.3-76.1,17.8-103.8-.8-15.1-10.1-36.6-14.8-56.4-13.4-55.2-18.6-132-35.6-177.9-7.2-19.6-21.2-34.6-26.7-53.4-5.1-17.6-7-39.6-8.9-59.3-2.1-21.9-8.4-50.8,5.9-56.4,13.4,10,12.1,28.5,14.8,41.5,3.2,15.2,7.2,29.1,11.9,44.5,8.8,29,23.7,53.9,32.6,80.1,21,61.3,20.8,126.3,35.6,186.8,14.3,58.6,31,117.6,53.4,172,39,94.7,97.9,168.3,127.5,263.9,3.7,11.9,11.9,29,3,41.5-21.6-2.2-17.3-30.2-29.7-41.5-8.3,87.7-11.9,200.1,14.8,269.9-55.4,98.3-92.4,243.2-77.1,394.5,2.3,23,10.4,47,0,68.2-19-.7-10.5-29.1-20.8-38.6-16.3,48.6-43.4,91.3-47.5,148.3-3.6,49.9,11.9,100.8,17.8,154.2,9,81.7-.8,158,3,240.2,7.1,155.8,32.9,308.4,62.3,447.8,30.3,143.7,71.8,273.7,127.5,382.6,2.2,12.8-26.9,4.2-17.8,14.8-4.8,89.8,13.1,182.6,23.7,266.9,9.3,6.4,10.7-33.6,26.7-20.8,2.9,17.8-6.5,35.7-11.9,50.4-42.6,118.1-76.7,263.8-83,409.3-7.5,171.3,33,325.8,86,471.6,24.9,68.5,50,139.4,68.2,210.6,19.6,76.6,39.1,156.9,44.5,237.3,1.8,27.3,6.8,96.4,3,118.6-3.6,20.5-26.4,49.2-41.5,68.2-30.3,38.3-59.1,74-91.9,103.8-16.1,14.7-42.2,25.5-41.5,50.4,57.2,28.8,137.8-12.1,201.7,5.9-29.3-28.2-15-83.2-3-115.7,6.4-17.1,12.3-36.8,23.7-41.5,8.4,35.9-18.6,80.4-8.9,118.6,6.3,24.9,31.7,30.8,47.5,47.5,38.6-5.5,75.4,8.6,100.8-5.9,39.6-22.7,10-105.5,0-157.2-8-41.2-14-84.9-17.8-121.6-14-136.3-27.4-275.2-20.8-421.1,9.3-204.8,97.7-377.4,83-578.3-4.7-65.2-29.1-129.3-44.5-192.8-12.1-50.1-20.9-99.9-29.7-148.3-2.6-14.2-12-36.6,3-47.5,15.8,6.9,10.2,35.3,20.8,47.5,4.4-53.9,15.1-102.3,11.9-154.2-4.3-68.3-28.3-133.7-23.7-207.6,5.2-84.4,22.5-169.7,32.6-258,25.6-222.7,29.1-459.5,23.7-702.9-12.1,4-24.3,16.6-38.6,23.7-47,23.7-102.4,28.2-160.2,23.7-126.3-9.7-243.5-88.8-246.2-198.7,19.7,8.8,26.1,33,38.6,50.4,11.6,16.4,24.2,36.4,38.6,50.4,76.3,74.5,262,93.4,344,32.6,22.8-16.9,31.5-42.5,56.4-62.3,40.3,132.6,295.7,120.4,388.5,29.7,21.6-21.1,40.9-53.9,56.4-77.1,5.7-8.5,7-27.5,23.7-23.7-16.3,122.3-126.7,189.7-252.1,198.7-76.9,5.5-127.8-8.9-169.1-32.6-9.8-5.6-22.3-17.2-23.7-8.9-4.9,238.8-2.1,481.9,23.7,697,10.8,89.5,25,176,29.7,261,.8,14.6,1.1,29.8,0,44.5-7.7,105.9-44.3,209.1-8.9,314.4,5.7-17,2.3-43.2,20.7-47.5,9.5,13.7,2.7,32.4,0,47.5-9.4,52.1-17.8,99.4-29.6,148.3-15.6,64.4-40,128.7-44.5,195.7-13.4,200.8,74,373.1,83,578.3,2.3,51.9,2.5,107.3,0,163.1-5.8,126.9-16.3,261.9-38.5,376.7-8.1,41.7-24,87.9-20.8,118.6,5.9,55.9,63.8,42.6,124.6,44.5,13.1-19.6,38.1-22.2,44.5-47.5,10.2-40.2-21.4-89.8-5.9-118.6,14.1,27.1,41.8,76.6,35.6,118.6-2.4,16.4-14.2,25.3-14.8,38.6,43-14.7,98.8,6.5,145.3,5.9,17.9-.2,41.4-1.7,53.4-14.8-4.1-22.2-25.1-35.3-41.5-50.4-17.1-15.8-31.6-31.5-47.5-50.4-25.5-30.5-72.8-74.3-83-112.7-4.5-16.9-1.1-32,0-56.4,1.1-25.6-1.2-53.8,0-71.2,5.8-79.1,25.1-158.7,44.5-234.3,18.3-71.4,43.1-141.7,68.2-210.6,53.2-146.4,93.8-303.7,86-474.5-6.7-147.6-42.1-296.3-83-409.3-5.3-14.6-19.6-33.4-8.9-50.4,15.2-3.3,16.5,35.6,23.7,20.8,11.6-83.3,28.4-177.1,23.7-266.9,5.9-5.2-23.1-.4-17.8-14.8,58.6-107.2,97-239.2,127.5-382.6,29.8-139.9,55.4-291.5,62.3-447.8,3.8-87.1-6.4-159.9,3-240.2,6.3-54,21.9-104.4,17.8-154.2-4.7-56.4-30.4-99.9-50.4-145.3-3.2,14.4-3.5,44.9-20.8,35.6,3.2-70.1,11.4-139.7,5.9-210.6-7.4-96.5-52.6-180.9-80.1-252.1,13.3-28.4,18.6-71.7,20.7-115.7,2.5-51.1-.4-109.7-8.9-151.3-7.8,15.9-6.4,41.1-29.7,41.5,3.5-59.9,33.1-108.4,59.3-157.2,52-96.8,98.7-202.1,127.5-320.3,15.1-61.9,15.1-131.9,35.6-189.8,8.7-24.7,27.1-48.6,35.6-77.1,4.6-15.4,5.6-31.6,8.9-47.5,2.3-11,1.1-33.8,17.8-38.6,12,16.9,1.8,38,0,56.4-2,20.8.1,42.4-5.9,62.3-5.3,17.5-20.1,32.6-26.7,50.4-11.5,31.3-16.3,78.2-23.7,118.6-3.7,20-7.1,39.6-11.9,59.3-4.6,18.8-14,41.4-14.8,56.4-.8,14.3,6.3,33.4,8.9,50.4,14,91.3,31.3,173,53.4,252.1,9.2,32.9,26.3,65.4,17.8,91.9-14.1,4-15.8-32-20.8-17.8-52,139-55.2,278.8-23.7,436,13.7,68.3,33.8,137.1,38.6,207.6,5.1,76.3-15.7,151.4-20.7,228.4-1.3,20.3,3,37.9,0,56.4-5.1,31.2-23.9,47.3-41.5,68.2-13.9,16.5-34.7,33.4-38.6,47.5-6.2,22.5,1.1,50.6,0,74.1-3.4,75.1-4.4,156.1-8.9,222.4,28.4,26.4,70.4,70.9,118.6,68.2,28.9-1.6,32.5-32.6,47.5-56.4,16.9-26.8,44.6-41.3,53.4-62.3,9.4-22.2,4.1-50.6,3-77.1-1.3-29.2-3.4-60.7-6-91.9-2.7-33.7-6.8-70.2-2.9-97.9,3.3-23.5,24.4-39.5,32.6-59.3,10.8-26,9.6-57.7,17.8-86,7.5-25.9,16.6-52.3,26.7-77.1,39.7-97.8,81.6-199,109.7-311.4,14.9-59.4,29.8-120.4,32.6-177.9,3.2-63.5-7.2-128.1-20.8-186.8-13.5-58.4-35.8-109.6-38.5-172-2.4-55.5,4-118.4,5.9-163.1,6.8-155.2-32.7-278.2-77.1-379.6-11.8-27-28.6-53-29.7-83,16.6-9,17.1,24.1,20.7,8.9,8.2-67.6,16.6-142.1,11.9-207.6-5.3-73.5-32.1-134.9-77.1-186.8-18.5-21.4-42.6-44.7-65.2-68.2-23-23.9-47.1-49.6-71.2-62.3-41.9-22.1-100.1-29-148.3-35.6-4.9-6.2,4.5,18.2-11.9,14.8-72.2-42.6-163.8-100.4-246.2-145.3-25.6-14-71-32.3-83-50.4-17.2-25.8-16.3-76.9-20.7-118.6-2.2-20.8-4.2-41.4-5.9-62.3-1.5-19-8-46.9,5.9-59.3,19.7,1.1,9,32.5,17.8,44.5,10.5-38.6,22.4-83.7,32.6-118.6,3.8-12.9,4-30.6,17.8-35.6,17.4,6.8-10.4,40.4,11.9,41.5,20.7,5.2,27.3-28.9,35.6-50.4,16.4-42.6,36.4-99.3,3-136.4-13,54.7-43,104.7-71.2,142.4-8.8,11.8-21.3,34.6-38.6,29.7,17.5-38.8,42.6-75.6,59.3-118.6h-.2ZM1562.4,4650.3c3.5-.5,5.3.6,5.9,3-1.1,45.8,26.5,90.4,11.9,130.5-19.9-35.3-28-81-17.8-133.5h0ZM1734.4,4588c39.2,43.2,37.5,115.3,35.6,186.8-15.4-8.3-11.2-36.3-23.7-47.5.2-50.6-.8-100-11.9-139.4h0ZM1265.9,4650.3c3.5-.5,5.3.6,5.9,3,11.8,51.7-.9,91.4-14.8,130.5-22.7-36.4,13.1-88.1,8.9-133.5h0ZM1096.8,4588c7.9,11.8-4.2,19.6-6,32.6-4.3,30.9,2.5,72.4-3,103.8-1.7,9.5-8.1,17.4-11.9,26.7-3.3,8.2.1,25-11.9,23.7-2.8-71.8-1.6-139.5,32.7-186.8h0ZM1423,1995.9c2.5-.5,2.8,1.2,3,3-1.3,157,10.2,328.1,3,492.3-2.3,52,2.1,104.9-11.9,151.3-19-17.4-14.4-46.4-14.8-71.2-1.5-78.2-3.9-165.3,0-249.1,5.4-116.3,1.5-235.7,20.8-326.2h0ZM1411.2,818.5h6c11.2,7.1,5.7,24.8,5.9,35.6,1.3,62.8,14.8,140.5-2.9,192.8-.6-.4-2.4.5-3,0-34.8-31.9,6-154.7-6-219.5v-8.9h0ZM1535.7,750.3c-9.6,11.6-27.1,14.4-38.6,14.8-24.6,1-51.3-16.5-74.1-17.8-38.3-2.2-86,36.6-124.6,5.9,4.8-8,16.6-4.1,23.7-5.9,9.1-2.3,16.8-6,26.7-8.9,26.6-7.8,53.2-22.8,86-17.8,16.2,2.4,34.6,13.2,50.4,17.8,17.7,5.2,33,10.1,50.4,11.9h0ZM504.2,2414.5c-4.7,33.8-24.7,61-16.3,98.1-.7,26.9,26.9,55.9,30.5,77.3-7.3-12-58.1-50.1-57.7-68.6,7.3-36.7,20-94,43.6-106.8h0ZM617.5,2441.7c-11.8,18.7-6.1,48-11.1,78.2-2.9,17.2-28.1,10.9-28.1,31.9s-.7,22,1.1,20.7c24.5-18.1,43.6-25,43.6-61s2.8-30.2,0-40.3c-1.8-6.6-5.9-12.1-3-17.8,7-13.9-3.8-12-2.4-11.6h0ZM2208.2,2441.7c11.8,18.7,6.1,48,11.1,78.2,2.9,17.2,28.1,10.9,28.1,31.9s.7,22-1.1,20.7c-24.5-18.1-43.6-25-43.6-61s-2.8-30.2,0-40.3c1.8-6.6,5.9-12.1,3-17.8-7-13.9,3.8-12,2.4-11.6h0ZM2321.5,2414.5c4.7,33.8,24.7,61,16.3,98.1.7,26.9-26.9,55.9-30.5,77.3,7.3-12,58.1-50.1,57.7-68.6-7.3-36.7-20-94-43.6-106.8h0Z"/>
  <path class="cls-1" d="M795,1269.9c23.1-11.6,38.1-13.3,58.3-5,36.1,14.7,71,54.7,83.8,87,10.2,25.8,3.3,32.7-21.8,45.8-151.1,86.1-241.2,209.6-303.5,350.1-14.2,39.5-54.3,79-61.1-37.1-17.7-76-16.2-169.9,31.2-257.5,43.1-79.8,127-155.7,213.1-183.3h0Z"/>
  <path class="cls-3" d="M755,1583.5c2.7-29.5,102.7-139.7,143.6-120.9,42.2,9.4,24.1,127.2,58.3,202.9,14.8,61-93.2,87.8-130.7,62.3-43-27.2-77.4-106.2-71.2-144.3h0Z"/>
  <path class="cls-1" d="M589.3,1826.4c65.6-81,68.1-68.5,92.4-18.7,24.4,34.7,85.4,188.6,54,334.2-16.3,73.2-32.6,146.4-48.8,219.7-19.4,66.6-38.8,110.6-58.2-3.8-18.1-52-67-87-56.9-155.8,3.1-50.7-40.4-58.6-59.5-1.9-6.3,41.9-12.5,83.9-18.8,125.8-26.3,95.1-40.2,92-37.5-7.5-12.2-254,43.4-400.2,133.3-491.9h0Z"/>
  <path class="cls-3" d="M789.3,1856.7c-5.8-43.9-55.9-122.1,44.5-86.2,43.3,12.7,110.2-3.7,151.8-38.6,19.4-27,38.7-25.8,58,3.5,93.9,82.6,162.2,209.2,223.3,348.2,33.1,43.4,29.5,80.3,12.3,114.3-38.4,94.9-78.5,186.2-130.1,251.5-37.5,40.9-107,40.5-144.5-17.1-82.9-119.2-191.4-303.6-215.4-575.5h0Z"/>
  <path class="cls-3" d="M907.7,1254.8c-.9-27,264.3-79,410.5-87.1,56.9-5.8,70.5,3.6,73.2,44.5,8.7,272.6,13.1,543.1,0,805.3-3.4,81.3-21.9,206.5-69.8,78.9-59.9-147.3-206.6-365.4-331.3-463.1-19-15.2-39.1-53.6-32.1-83.4,10.2-48.9,84.6-93.1,90.5-130,4.8-33-15.6-35.2-46-56.9-35.2-31.6-98.5-70.8-95.1-108.3h0Z"/>
  <path class="cls-1" d="M1026.8,1167.7c97.8-65.6,195.7-74.4,207.7-110.9,33.5-136.5,13.2-226.6,30.5-242.5,14-26.1,85.2-20.3,98.3-5.5,30.9,48.5,5.1,171.8,9.7,256.4,0,37,6.9,71.1-47.1,80.4-65.5,4.6-149.1,10.6-261.7,37.4-73.8,24-82.6,13.4-37.4-15.3h0Z"/>
  <path class="cls-1" d="M1116.7,2513.9c-38.2,8.3-48.2,109,16.1,126.9,61.8,26.8,121.3,61.4,172.8,123.8,40.7,50.3,55.2,33.2,58.4-44.5,16.1-116.7,5.4-325.8,5.1-510.3-6-36.2-32.5-26.5-44.9-7.2-59.4,95.5-101.1,291.6-207.4,311.5h0Z"/>
  <path class="cls-1" d="M975.1,2530c16.9-24.1,85.7-35,83.2,0-4.4,30.6,2,64.8,8.5,95.4,2,27.8-70.8,93-86.9,48.3-12.1-28.5-20.5-79.8-4.8-143.7h0Z"/>
  <path class="cls-1" d="M1250.3,2862.5c-107.1,42.4-148.9,161.5-220.5,239.4-34.3,36.8-120.8,150.3-123.3-9.3,1-186.7,25.7-372.6,203.7-394.6,52.7-5.8,248.9,112,140.1,164.6h0Z"/>
  <path class="cls-1" d="M1286.4,2889c93.6-46.4,105.1,29,101.8,77-1.7,150.7-3.3,301.3-5,452-8.3,55.5-26.5,123.3-161.4,134.1-198.7,23.2-355.2-286.4-228.5-360.1,112.6-43.9,187.9-261.6,293.1-303h0Z"/>
  <path class="cls-1" d="M570,2691c8.4-79.2,30.8-61.7,48.7-99.6,30.5-64.4,86.1-105.9,103.4-21.6,62.8,233.5-98.1,460-21.3,722.2,12.5,48.6-4.4,180.7-40.9,22.9-30-208-87.8-401.2-90-623.9h0Z"/>
  <path class="cls-1" d="M422.8,2632c29-88.4,76.8-58.4,117.8,127.7,11.2,52.5,11.5,108,25.7,204.8,17.7,120.6,50.5,288.3,79,394.5,15.5,78.4-16.1,106.8-72-27.8-76.6-254.6-203.3-485.6-150.5-699.3h0Z"/>
  <path class="cls-1" d="M2038.5,1269.9c-23.1-11.6-38.1-13.3-58.3-5-36.1,14.7-71,54.7-83.8,87-10.2,25.8-3.3,32.7,21.8,45.8,151.1,86.1,241.2,209.6,303.5,350.1,14.2,39.5,54.3,79,61.1-37.1,17.7-76,16.2-169.9-31.2-257.5-43.1-79.8-127-155.7-213.1-183.3h0Z"/>
  <path class="cls-3" d="M2078.5,1583.5c-2.7-29.5-102.7-139.7-143.6-120.9-42.2,9.4-24.1,127.2-58.3,202.9-14.8,61,93.2,87.8,130.7,62.3,43-27.2,77.4-106.2,71.2-144.3h0Z"/>
  <path class="cls-1" d="M2244.3,1826.4c-65.6-81-68.1-68.5-92.4-18.7-24.4,34.7-85.4,188.6-54,334.2,16.3,73.2,32.6,146.4,48.8,219.7,19.4,66.6,38.8,110.6,58.2-3.8,18.1-52,67-87,56.9-155.8-3.1-50.7,40.4-58.6,59.5-1.9,6.3,41.9,12.5,83.9,18.8,125.8,26.3,95.1,40.2,92,37.5-7.5,12.2-254-43.4-400.2-133.3-491.9h0Z"/>
  <path class="cls-3" d="M2044.2,1856.7c5.8-43.9,55.9-122.1-44.5-86.2-43.3,12.7-110.2-3.7-151.8-38.6-19.4-27-38.7-25.8-58,3.5-93.9,82.6-162.2,209.2-223.3,348.2-33.1,43.4-29.5,80.3-12.3,114.3,38.4,94.9,78.5,186.2,130.1,251.5,37.5,40.9,107,40.5,144.5-17.1,82.9-119.2,191.4-303.6,215.4-575.5h0Z"/>
  <path class="cls-3" d="M1925.8,1254.8c.8-27-259.2-79-402.6-87.1-55.8-5.8-69.2,3.6-71.8,44.5-8.5,272.6-12.8,543.1,0,805.3,3.3,81.3,21.5,206.5,68.4,78.9,58.7-147.3,202.6-365.4,324.8-463.1,18.6-15.2,38.4-53.6,31.5-83.4-10-48.9-82.9-93.1-88.8-130-4.7-33,15.3-35.2,45.1-56.9,34.6-31.6,96.6-70.8,93.3-108.3h0Z"/>
  <path class="cls-1" d="M1806.7,1167.7c-97.8-65.6-195.7-74.4-207.7-110.9-33.5-136.5-13.2-226.6-30.5-242.5-14-26.1-85.2-20.3-98.3-5.5-30.9,48.5-5.1,171.8-9.7,256.4,0,37-6.9,71.1,47.1,80.4,65.5,4.6,149.1,10.6,261.7,37.4,73.8,24,82.6,13.4,37.4-15.3h0Z"/>
  <path class="cls-1" d="M1717,2513.9c37.9,8.3,47.9,109-15.9,126.9-61.3,26.8-120.4,61.4-171.5,123.8-40.4,50.3-54.8,33.2-57.9-44.5-16-116.7-5.3-325.8-5-510.3,6-36.2,32.2-26.5,44.5-7.2,58.9,95.5,100.3,291.6,205.8,311.5h0Z"/>
  <path class="cls-1" d="M1858.5,2530c-16.9-24.1-85.7-35-83.2,0,4.4,30.6-2,64.8-8.5,95.4-2,27.8,70.8,93,86.9,48.3,12.1-28.5,20.5-79.8,4.8-143.7h0Z"/>
  <path class="cls-1" d="M1583.2,2862.5c107.1,42.4,148.9,161.5,220.5,239.4,34.3,36.8,120.8,150.3,123.3-9.3-1-186.7-25.7-372.6-203.7-394.6-52.7-5.8-248.9,112-140.1,164.6h0Z"/>
  <path class="cls-1" d="M1547.1,2889c-93.6-46.4-105.1,29-101.8,77,1.7,150.7,3.3,301.3,5,452,8.3,55.5,26.5,123.3,161.4,134.1,198.7,23.2,355.2-286.4,228.5-360.1-112.6-43.9-187.9-261.6-293.1-303h0Z"/>
  <path class="cls-1" d="M2263.5,2691c-8.4-79.2-30.8-61.7-48.7-99.6-30.5-64.4-86.1-105.9-103.4-21.6-62.8,233.5,98.1,460,21.3,722.2-12.5,48.6,4.4,180.7,40.9,22.9,30-208,87.8-401.2,90-623.9h0Z"/>
  <path class="cls-1" d="M2410.8,2632c-29-88.4-76.8-58.4-117.8,127.7-11.2,52.5-11.5,108-25.7,204.8-17.7,120.6-50.5,288.3-79,394.5-15.5,78.4,16.1,106.8,72-27.8,76.6-254.6,203.3-485.6,150.5-699.3h0Z"/>
  <path class="cls-1" d="M929,3573.3c3.8-62.3,48.8-4.4,100.1,26.1,45.3,26.9,100.8,7.8,95.1,83.4,10.2,213.9,39.2,456.2,30.6,641.7-3.7,122.4-45.6,192.1-69.1,204.1-23.5,12-47.4-27.3-71.6-103.5-61.9-250.9-114-535.3-85.1-851.8h0Z"/>
  <path class="cls-1" d="M1167.9,3642.2c19.2,2.1,28,2.5,55.3,3.7,27.4,1.2,52.2-12.5,53.7,11.4,47.9,297.7,58.3,574.8,19.4,816.3-8.6,71.9-30.1,75.7-46.5,67.1-16.5-8.6-34.2-58.4-54.1-180.3-23.3-310.2-42.2-592.1-39.3-685,.4-14.6-1-34.9,11.5-33.3h0Z"/>
  <path class="cls-1" d="M1071.6,4867.8c50.3-116.2,81.3-91.7,79.8,59.9-11.8,164.3-23.7,341.9-8.9,519.4,9.6,88.8-122.7,131-144.1-46.6-10-194.8,12.2-373.5,73.2-532.8h0Z"/>
  <path class="cls-1" d="M1201.7,4911.3c26.7-150,62.9-97.7,103.4,46.5,53.7,227.5,74.4,440.6,22.4,622.2-53.4,189-139.6,10.9-148.2-84.5-12.6-210.8-6.3-405.6,22.4-584.2h0Z"/>
  <path class="cls-1" d="M1902.3,3573.3c-3.8-62.3-48.8-4.4-100.1,26.1-45.3,26.9-100.8,7.8-95.1,83.4-10.2,213.9-39.2,456.2-30.6,641.7,3.7,122.4,45.6,192.1,69.1,204.1,23.5,12,47.4-27.3,71.6-103.5,61.9-250.9,114-535.3,85.1-851.8h0Z"/>
  <path class="cls-1" d="M1663.4,3642.2c-19.2,2.1-28,2.5-55.3,3.7-27.4,1.2-52.2-12.5-53.7,11.4-47.9,297.7-58.3,574.8-19.4,816.3,8.6,71.9,30.1,75.7,46.5,67.1,16.5-8.6,34.2-58.4,54.1-180.3,23.3-310.2,42.2-592.1,39.3-685-.4-14.6,1-34.9-11.5-33.3h0Z"/>
  <path class="cls-1" d="M1759.7,4867.8c-50.3-116.2-81.3-91.7-79.8,59.9,11.8,164.3,23.7,341.9,8.9,519.4-9.6,88.8,122.7,131,144.1-46.6,10-194.8-12.2-373.5-73.2-532.8h0Z"/>
  <path class="cls-1" d="M1629.6,4911.3c-26.7-150-62.9-97.7-103.4,46.5-53.7,227.5-74.4,440.6-22.4,622.2,53.4,189,139.6,10.9,148.2-84.5,12.6-210.8,6.3-405.6-22.4-584.2h0Z"/>
</svg>