<?xml version="1.0" encoding="UTF-8"?>
<svg id="_ÎÓÈ_1" data-name=" ÎÓÈ 1" xmlns="http://www.w3.org/2000/svg" xmlns:xlink="http://www.w3.org/1999/xlink" version="1.1" viewBox="0 0 2834.6 2834.6">
  <defs>
    <style>
      .cls-1 {
        clip-path: url(#clippath);
      }

      .cls-2 {
        fill: none;
      }

      .cls-2, .cls-3, .cls-4, .cls-5, .cls-6 {
        stroke-width: 0px;
      }

      .cls-3 {
        fill: #e73f32;
      }

      .cls-3, .cls-4, .cls-5, .cls-6 {
        fill-rule: evenodd;
      }

      .cls-4 {
        fill: #ececec;
      }

      .cls-5 {
        fill: #868686;
      }

      .cls-6 {
        fill: #c6c6c5;
      }
    </style>
    <clipPath id="clippath">
      <rect class="cls-2" x="-1.7" y="2.1" width="2838.1" height="2830.3"/>
    </clipPath>
  </defs>
  <g class="cls-1">
    <g>
      <path class="cls-5" d="M1607.6-468c-3.5,43.5-17.8,76.2-31.3,109.8,6.8,27.5,6.5,62.2,15.7,87.4,69.6,38.6,139.4,77.2,201.6,123.2,64.7,5.5,123.4,11,170.2,42.6,25.5,17.2,45.6,39.1,67.2,62.7,46,50.2,89.5,92.6,96.3,181.5,2.5,32.7.5,70.4-2.2,105.3-2.6,32.9-3.8,66.3-15.7,91.9,21.9,41.9,46.6,86.9,58.2,138.9,12.1,53.8,20.1,117.7,15.7,181.5-4.2,61.2-9.7,122.8,6.7,181.5,14.8,52.8,30,103.9,33.6,161.3,5.6,90.8-22.9,175.7-47,255.4-11.7,38.6-24,76.2-38.1,112-14.4,36.7-35.4,71-44.8,105.3-5.2,18.8-4.3,42.4-9,58.2-5.5,18.7-23.7,34.8-26.9,53.8-4,24.4,2.5,64.2,4.5,91.9,2.5,35.1,7.9,76.7,0,103.1-6.6,22-27.4,38.1-40.3,56-13.4,18.5-21.7,46.8-44.8,53.8-46.8,14.1-79.2-25.1-107.5-42.6-22.9,181-49.3,358.4-121,490.6,5.5,74.2-3.1,151.7-13.4,219.5-3.4,22.1-4.5,45.3-15.7,62.7,68.7,157.6,80.6,377.3,33.6,553.3-21.9,82-57.2,159.7-80.7,241.9-20.1,70.7-37.4,149.2-40.3,241.9-.4,13.2-3.8,28-2.2,38.1,2.5,15.4,18.7,30.9,31.4,47,11.9,15.2,24.1,31.6,33.6,42.6,19.8,23,70.7,54.4,69.5,82.9-2.3,54.2-114.4,23-165.8,26.9-35,2.7-90.7,19.8-132.2,6.7-54.3-17.2-33.4-89.7-22.4-147.8,18.1-95.9,25.4-205.5,29.1-313.6,5.7-165.2-32.1-273.7-56-401-23.5,123.8-61.6,237.8-56,401,3.7,106.9,10.5,214.8,29.1,313.6,10.4,55.4,34.1,130.7-22.4,147.8-41.1,12.5-91-3.3-129.9-6.7-46.8-4.1-162.8,26.9-168-24.6-2.8-28,54.2-67.4,69.5-85.1,10.5-12.2,22.1-27.9,33.6-42.6,11.9-15.3,28.8-31,31.4-44.8,2.9-15.5-1.2-55.6-2.2-78.4-1.3-26.2-5.3-51.2-9-71.7-17.2-97.3-41.4-169.1-71.7-250.9-14.8-40-26.8-81.1-38.1-123.2-24-89.7-33.7-185-29.1-289,4.1-93.5,28.1-184.2,60.5-262.1-15.2-39.4-19.6-84.8-24.6-134.4-3.7-36.5-6.5-73.4-6.7-112,0-11.6,3.7-26,2.2-35.8-1.7-11.5-18.2-39.1-24.6-53.8-53.8-122.2-75.4-280-96.3-436.8-8.5.4-16.3,9.6-24.6,15.7-16.3,12-51.1,34.3-82.9,24.6-21.1-6.3-28.2-30.5-42.6-51.5-15.1-22.2-38.2-34.7-44.8-60.5-6.1-24.1-1.8-64.9,0-96.3,1.8-30.7,10.9-64.4,6.7-94.1-2.7-18.9-18.3-33.6-24.6-51.5-5.7-16.1-6-40.5-11.2-60.5-8.8-34.3-28.1-70.4-42.5-107.5-13.9-35.5-28.7-71.4-40.3-109.8-23.9-79-51.4-163.1-47-253.1,2.8-57.4,16.4-112.2,31.4-165.8,16.3-58.5,15.8-118.9,11.2-181.5-9.2-124.6,19.9-231.8,69.4-318.1-21.5-103.8-26.2-238.2,15.7-306.9,16.2-26.6,42.7-49.6,65-73.9,26.7-29.1,50.4-59.5,85.1-76.2,33.1-15.9,70.3-18.6,109.8-24.6,12.7-1.9,28.5-1.3,40.3-4.5,15.9-4.3,31.5-21.5,49.3-33.6,46.7-32,108.4-61.7,154.6-89.6,9.2-24.4,8.3-58.9,15.7-85.1-12.2-34.8-27.4-66.7-31.4-109.8-9.3.9-22.6,3.1-33.6-4.5-23.4-16.2-75.4-163.2-11.2-186-20.7-97.5,9.7-186.8,56-241.9,42.6-50.8,111.1-83.2,203.9-76.2,49.6,3.8,100,24.7,134.4,53.8,64,54.1,92.6,152,78.4,262.1-1.6,7.6,10,8.2,15.7,15.7,22.7,29.9,12.4,85.6-2.2,123.2-13.6,34.9-25,62.6-60.5,51.5h0ZM1388,2287.5c-5.5,40.1-12.3,82.1-11.2,121,1.2,42.2,15.6,84.8,17.9,127.7,3.3,58.9-8.7,111.9-20.2,168,13.8,51.9,31,100.4,40.3,156.8,7.4-1.9,5.6-13,6.7-17.9,11.4-48.5,25.9-94.3,38.1-138.9-11.5-56.8-23.9-110.7-20.2-170.2,2.7-43.2,17.1-85.1,17.9-127.7.7-38.2-6.1-78.8-11.2-118.7-15.5-121.7-22.2-243.8-29.1-362.9-1.7,126.4-13.5,249.2-29.1,362.9h0ZM1791.3,770.8c13.9,77.3,11.1,190.1-4.5,255.4,27.3,55.1,53.2,105.8,58.2,177,2.2,30.6-6,65.4-2.2,91.9,2.3,16,16.2,37.9,24.6,58.2,8.3,20,18,41.1,22.4,62.7,9.8,48.3,2.2,90.8-6.7,136.6,14.3-12.9,34.9-31.9,35.8-49.3,3.5-63.5,16-131,15.7-197.1-.4-79.9-28.6-140.1-38.1-208.3-17.9-128.6-.9-240.4,40.3-331.6-26.1-54.5-37.1-124.2-51.5-190.4-21.7,74.6-60.7,132-94.1,194.9h0ZM897.4,766.4c41.9,93.7,58.7,207.5,40.3,333.8-8,55.1-29.5,108.2-35.8,165.8-5.5,49.5,1.1,92.8,6.7,138.9,6,48.6,1.6,101.6,22.4,129.9,4.5,6.1,14.1,15.4,20.2,15.7-7.5-31.9-11.5-58.3-11.2-89.6.4-45.2,13.8-76.1,26.9-107.5,8.8-21.3,22.6-43.4,24.6-60.5,3.8-31.8-4.5-62.9-2.2-91.9,5.5-70.7,32.7-120.8,58.2-177-16.1-64-18-176.8-4.5-253.1-34.8-62.3-70.7-123.4-96.3-194.9-9.9,70-24.7,135.1-49.3,190.4h0Z"/>
      <path class="cls-6" d="M1609.8-591.2c13.4-34.4,24.7-70.3,26.9-109.8,3.7-67.2-16.6-124.2-42.5-165.8-25.3-40.6-77.9-72.4-134.4-82.9-98.1-18.2-186.8,30.5-219.5,82.9-22.5,36.1-39.3,81.4-42.6,129.9-5.3,79.7,22.1,145.3,49.3,192.7,7.9,13.9,21.3,27.6,20.2,44.8-13.6-2.4-20-17.8-26.9-26.9-23.7-31.4-43.1-64.8-56-105.3-21.2,32.7-7.5,74.8,4.5,105.3,6.2,15.7,13,41.9,29.1,35.8,12.7-4.1-7.1-29,9-31.4,18.5,33,21.6,81.4,38.1,116.5,1.9-13.8-2.6-34,13.5-33.6,6.4,12.1,3.5,29.2,2.2,44.8-1.3,15.6-2.7,33.1-4.5,49.3-2.7,24.6-4.1,73.5-15.7,89.6-8.6,12-46.3,26.9-62.7,35.8-24.3,13.2-44.6,25.1-62.7,35.8-47.2,28-86.4,54.5-125.5,73.9-11.4-.1,0-17.2-9-11.2-40.3,5.6-75.9,10.6-107.5,26.9-27.9,14.3-50.8,40-71.7,62.7-22.5,24.4-43.9,46.6-60.5,73.9-38.3,62.9-36.9,168.2-22.4,262.1,2.3,3.4,8-17.3,17.9-6.7-36.6,83.4-74.3,171-80.7,273.3-4.2,68.1,5.8,130.5,2.2,199.4-2.4,46.2-19.1,84.4-29.1,127.7-10.3,44.7-18.4,94.5-15.7,143.4,2.4,42.4,13.6,88,24.6,132.2,10.4,41.6,21.6,85.1,35.8,123.2,22.1,59.3,50.7,111.6,67.2,168,6.4,21.7,4.9,46.7,13.5,67.2,6.1,14.8,18.7,25.4,22.4,40.3,5,20.6,2.2,50.9,0,78.4-1.9,23.6-3.5,49.5-4.5,71.7-.6,13.9-4.3,27-2.2,40.3,4.4,28.7,28.2,38.8,44.8,65,8.8,13.9,15.9,34,26.9,38.1,37,13.8,80.7-31.1,98.6-51.5-4.5-72.4-5.7-148.1-6.7-224-21.2-25.8-45.6-41.2-56-73.9-5.2-16.3-2.9-37.4-4.5-58.2-4.4-57-19.8-113.1-15.7-170.2,3.8-52.5,19-104,29.1-154.6,24.5-122.3,19.7-228.3-17.9-331.6-4.8-4-7.2,23.1-17.9,13.4.1-23,9.3-46.4,15.7-69.5,13.3-48.1,24.6-94,33.6-147.8,3.9-23.4,14.6-57.4,13.4-78.4-.6-11.4-7.6-27.6-11.2-42.6-10.1-41.7-14.1-99.7-26.9-134.4-5.5-14.8-16-26.1-20.2-40.3-3.8-13.3-5.3-29.9-6.7-44.8-1.6-16.5-6.3-38.4,4.5-42.6,10.1,7.6,9.1,21.5,11.2,31.4,2.4,11.5,5.4,22,9,33.6,6.7,21.9,17.9,40.7,24.6,60.5,15.9,46.3,15.7,95.4,26.9,141.1,10.8,44.3,23.4,88.8,40.3,129.9,29.5,71.5,74,127.1,96.3,199.4,2.8,9,9,21.9,2.2,31.4-16.3-1.6-13-22.8-22.4-31.4-6.3,66.2-9,151.1,11.2,203.9-41.8,74.3-69.8,183.7-58.2,298,1.8,17.3,7.9,35.5,0,51.5-14.4-.6-7.9-22-15.7-29.1-12.3,36.7-32.8,69-35.8,112-2.7,37.7,9,76.1,13.4,116.5,6.8,61.7-.6,119.4,2.2,181.5,5.4,117.7,24.8,232.9,47,338.3,22.9,108.6,54.2,206.7,96.3,289,1.6,9.7-20.3,3.2-13.4,11.2-3.6,67.9,9.9,137.9,17.9,201.6,7,4.8,8.1-25.4,20.2-15.7,2.2,13.5-4.9,26.9-9,38.1-32.2,89.2-57.9,199.2-62.7,309.2-5.7,129.4,24.9,246.1,65,356.2,18.8,51.7,37.8,105.3,51.5,159,14.8,57.9,29.5,118.6,33.6,179.2,1.4,20.6,5.2,72.8,2.2,89.6-2.7,15.5-20,37.1-31.3,51.5-22.9,28.9-44.7,55.9-69.5,78.4-12.2,11.1-31.9,19.2-31.4,38.1,43.2,21.8,104.1-9.1,152.3,4.5-22.2-21.3-11.3-62.8-2.2-87.4,4.8-12.9,9.3-27.8,17.9-31.4,6.3,27.1-14,60.7-6.7,89.6,4.8,18.8,24,23.3,35.8,35.8,29.2-4.1,57,6.5,76.2-4.5,29.9-17.1,7.6-79.7,0-118.7-6-31.1-10.6-64.1-13.4-91.9-10.5-103-20.7-207.9-15.7-318.1,7-154.7,73.8-285,62.7-436.8-3.6-49.3-22-97.7-33.6-145.6-9.1-37.8-15.8-75.5-22.4-112-1.9-10.8-9.1-27.6,2.2-35.8,12,5.2,7.7,26.7,15.7,35.8,3.3-40.7,11.4-77.3,9-116.5-3.2-51.6-21.4-101-17.9-156.8,3.9-63.8,17-128.2,24.6-194.9,19.3-168.2,22-347.1,17.9-530.9-9.1,3-18.4,12.5-29.1,17.9-35.5,17.9-77.4,21.3-121,17.9-95.4-7.4-183.9-67.1-185.9-150.1,14.9,6.6,19.8,24.9,29.1,38.1,8.8,12.4,18.3,27.5,29.1,38.1,57.6,56.3,197.9,70.5,259.9,24.6,17.2-12.7,23.8-32.1,42.6-47,30.4,100.2,223.3,91,293.5,22.4,16.3-16,30.9-40.7,42.6-58.2,4.3-6.4,5.3-20.8,17.9-17.9-12.3,92.4-95.7,143.3-190.4,150.1-58.1,4.2-96.5-6.8-127.7-24.6-7.4-4.2-16.9-13-17.9-6.7-3.7,180.3-1.6,364,17.9,526.4,8.1,67.6,18.9,132.9,22.4,197.1.6,11.1.8,22.5,0,33.6-5.8,80-33.5,157.9-6.7,237.5,4.3-12.8,1.8-32.6,15.7-35.8,7.2,10.4,2.1,24.5,0,35.8-7.1,39.3-13.5,75.1-22.4,112-11.8,48.7-30.2,97.3-33.6,147.8-10.2,151.7,55.9,281.9,62.7,436.8,1.7,39.2,1.9,81,0,123.2-4.3,95.9-12.3,197.8-29.1,284.5-6.1,31.5-18.1,66.4-15.7,89.6,4.5,42.2,48.2,32.1,94.1,33.6,9.9-14.8,28.8-16.8,33.6-35.8,7.7-30.4-16.2-67.8-4.5-89.6,10.6,20.5,31.6,57.9,26.9,89.6-1.8,12.4-10.8,19.1-11.2,29.1,32.4-11.1,74.6,4.9,109.8,4.5,13.5-.2,31.2-1.3,40.3-11.2-3.1-16.7-19-26.6-31.3-38.1-12.9-11.9-23.9-23.8-35.8-38.1-19.3-23-55-56.2-62.7-85.1-3.4-12.8-.8-24.1,0-42.6.8-19.3-.9-40.6,0-53.8,4.3-59.8,19-119.9,33.6-177,13.8-53.9,32.6-107,51.5-159,40.2-110.6,70.8-229.4,65-358.4-5.1-111.5-31.8-223.8-62.7-309.2-4-11-14.8-25.2-6.7-38.1,11.5-2.5,12.4,26.9,17.9,15.7,8.8-63,21.4-133.8,17.9-201.6,4.5-3.9-17.5-.3-13.4-11.2,44.2-81,73.3-180.7,96.3-289,22.5-105.7,41.8-220.2,47-338.3,2.9-65.8-4.8-120.8,2.2-181.5,4.7-40.8,16.6-78.9,13.4-116.5-3.5-42.6-22.9-75.5-38.1-109.8-2.4,10.9-2.6,33.9-15.7,26.9,2.4-52.9,8.6-105.5,4.5-159-5.6-72.9-39.7-136.6-60.5-190.4,10-21.5,14-54.2,15.7-87.4,1.9-38.6-.3-82.8-6.7-114.3-5.9,12-4.8,31-22.4,31.4,2.7-45.3,25-81.9,44.8-118.7,39.3-73.1,74.5-152.6,96.3-241.9,11.4-46.7,11.4-99.6,26.9-143.4,6.6-18.7,20.5-36.7,26.9-58.2,3.5-11.6,4.2-23.9,6.7-35.8,1.8-8.3.8-25.5,13.4-29.1,9.1,12.8,1.3,28.7,0,42.6-1.5,15.7,0,32-4.5,47-4,13.3-15.2,24.6-20.2,38.1-8.7,23.6-12.3,59.1-17.9,89.6-2.8,15.1-5.4,29.9-9,44.8-3.5,14.2-10.6,31.2-11.2,42.6-.6,10.8,4.7,25.3,6.7,38.1,10.6,68.9,23.7,130.7,40.3,190.4,6.9,24.8,19.9,49.4,13.4,69.5-10.7,3-11.9-24.2-15.7-13.4-39.2,105-41.7,210.6-17.9,329.3,10.3,51.6,25.6,103.6,29.1,156.8,3.9,57.7-11.9,114.4-15.7,172.5-1,15.3,2.3,28.6,0,42.6-3.9,23.6-18,35.7-31.4,51.5-10.5,12.5-26.2,25.2-29.1,35.8-4.7,17,.8,38.3,0,56-2.6,56.7-3.4,117.9-6.7,168,21.5,20,53.2,53.5,89.6,51.5,21.9-1.2,24.5-24.6,35.8-42.6,12.8-20.2,33.7-31.2,40.3-47,7.1-16.8,3.1-38.3,2.2-58.2-1-22.1-2.6-45.9-4.5-69.5-2-25.4-5.2-53-2.2-73.9,2.5-17.7,18.4-29.8,24.6-44.8,8.2-19.7,7.3-43.6,13.4-65,5.6-19.6,12.6-39.5,20.2-58.2,30-73.9,61.7-150.3,82.9-235.2,11.2-44.9,22.5-90.9,24.6-134.4,2.4-48-5.5-96.8-15.7-141.1-10.2-44.1-27.1-82.8-29.1-129.9-1.8-41.9,3-89.4,4.5-123.2,5.2-117.3-24.7-210.1-58.2-286.7-8.9-20.4-21.6-40-22.4-62.7,12.6-6.8,12.9,18.2,15.7,6.7,6.2-51.1,12.6-107.4,9-156.8-4-55.5-24.3-101.9-58.2-141.1-14-16.2-32.2-33.8-49.3-51.5-17.4-18.1-35.6-37.5-53.8-47-31.7-16.7-75.6-21.9-112-26.9-3.7-4.6,3.4,13.7-9,11.2-54.6-32.2-123.8-75.9-185.9-109.8-19.3-10.5-53.6-24.4-62.7-38.1-13-19.5-12.3-58.1-15.7-89.6-1.7-15.7-3.2-31.3-4.5-47-1.2-14.3-6-35.5,4.5-44.8,14.9.8,6.8,24.6,13.4,33.6,7.9-29.2,16.9-63.2,24.6-89.6,2.8-9.8,3-23.1,13.4-26.9,13.1,5.1-7.9,30.5,9,31.4,15.6,3.9,20.6-21.9,26.9-38.1,12.4-32.2,27.5-75,2.2-103.1-9.8,41.4-32.5,79.1-53.8,107.5-6.6,8.9-16.1,26.2-29.1,22.4,13.2-29.3,32.1-57.1,44.8-89.6h-.1ZM1526.9,2466.7c2.6-.4,4,.5,4.5,2.2-.8,34.6,20.1,68.3,9,98.6-15-26.7-21.2-61.2-13.5-100.8h0ZM1656.9,2419.6c29.6,32.6,28.3,87.1,26.9,141.1-11.7-6.2-8.4-27.4-17.9-35.8.2-38.3-.6-75.5-9-105.3h0ZM1302.9,2466.7c2.6-.4,4,.5,4.5,2.2,8.9,39-.7,69-11.2,98.6-17.1-27.5,9.9-66.6,6.7-100.8h0ZM1175.2,2419.6c6,8.9-3.1,14.8-4.5,24.6-3.2,23.3,1.9,54.7-2.2,78.4-1.3,7.2-6.1,13.1-9,20.2-2.5,6.2.1,18.9-9,17.9-2.1-54.2-1.2-105.4,24.7-141.1h0ZM1421.6,461.7c1.9-.4,2.1.9,2.2,2.2-1,118.6,7.7,247.8,2.2,371.9-1.7,39.2,1.5,79.2-9,114.3-14.4-13.2-10.8-35.1-11.2-53.8-1.2-59.1-2.9-124.8,0-188.2,4.1-87.8,1.1-178,15.7-246.4h0ZM1412.7-427.7h4.5c8.5,5.4,4.3,18.8,4.5,26.9,1,47.5,11.2,106.2-2.2,145.6-.5-.3-1.8.4-2.2,0-26.3-24.1,4.6-116.9-4.5-165.8v-6.7h0ZM1506.8-479.2c-7.2,8.7-20.5,10.9-29.1,11.2-18.6.7-38.8-12.5-56-13.4-28.9-1.6-65,27.6-94.1,4.5,3.7-6,12.5-3.1,17.9-4.5,6.9-1.8,12.7-4.6,20.2-6.7,20.1-5.9,40.2-17.2,65-13.4,12.2,1.8,26.1,10,38.1,13.4,13.4,3.9,24.9,7.7,38.1,9h0ZM727.6,777.8c-3.6,25.5-18.7,46.1-12.3,74.1-.5,20.3,20.3,42.2,23,58.4-5.5-9.1-43.9-37.8-43.6-51.8,5.5-27.7,15.1-71,32.9-80.6h0ZM813.1,798.4c-8.9,14.1-4.6,36.2-8.4,59-2.2,13-21.2,8.3-21.2,24.1s-.5,16.6.8,15.6c18.5-13.7,32.9-18.9,32.9-46.1s2.1-22.8,0-30.5c-1.4-5-4.5-9.1-2.3-13.5,5.3-10.5-2.8-9.1-1.8-8.7h0ZM2014.7,798.4c8.9,14.1,4.6,36.2,8.4,59,2.2,13,21.2,8.3,21.2,24.1s.5,16.6-.8,15.6c-18.5-13.7-32.9-18.9-32.9-46.1s-2.1-22.8,0-30.5c1.4-5,4.5-9.1,2.3-13.5-5.3-10.5,2.8-9.1,1.8-8.7h0ZM2100.3,777.8c3.6,25.5,18.7,46.1,12.3,74.1.5,20.3-20.3,42.2-23,58.4,5.5-9.1,43.9-37.8,43.6-51.8-5.5-27.7-15.1-71-32.9-80.6h0Z"/>
      <path class="cls-4" d="M947.3-86.7c17.4-8.8,28.8-10,44-3.8,27.3,11.1,53.6,41.3,63.3,65.7,7.7,19.5,2.5,24.7-16.5,34.6-114.2,65-182.2,158.3-229.2,264.4-10.7,29.8-41,59.7-46.1-28-13.4-57.4-12.2-128.3,23.5-194.5,32.5-60.3,95.9-117.6,161-138.5h0Z"/>
      <path class="cls-4" d="M917.1,150.1c2-22.3,77.6-105.5,108.5-91.3,31.9,7.1,18.2,96.1,44,153.3,11.1,46.1-70.4,66.3-98.7,47.1-32.5-20.6-58.5-80.2-53.8-109h0Z"/>
      <path class="cls-4" d="M791.9,333.7c49.6-61.2,51.4-51.8,69.8-14.2,18.4,26.2,64.5,142.5,40.8,252.4-12.3,55.3-24.6,110.6-36.9,165.9-14.7,50.3-29.3,83.5-44-2.8-13.7-39.2-50.6-65.7-43-117.7,2.3-38.3-30.5-44.3-44.9-1.4-4.7,31.7-9.4,63.3-14.2,95-19.9,71.8-30.4,69.5-28.4-5.7-9.2-191.8,32.8-302.3,100.7-371.6h0Z"/>
      <path class="cls-4" d="M943,356.5c-4.4-33.1-42.2-92.3,33.6-65.1,32.7,9.6,83.2-2.8,114.7-29.1,14.6-20.4,29.2-19.5,43.8,2.7,71,62.4,122.5,158,168.7,263,25,32.8,22.3,60.7,9.3,86.3-29,71.7-59.3,140.6-98.3,189.9-28.3,30.9-80.8,30.6-109.2-12.9-62.7-90-144.5-229.3-162.7-434.7h0Z"/>
      <path class="cls-4" d="M1032.4-98.1c-.7-20.4,199.6-59.6,310.1-65.8,43-4.4,53.3,2.7,55.3,33.6,6.5,205.9,9.9,410.2,0,608.3-2.6,61.4-16.5,155.9-52.7,59.6-45.2-111.3-156.1-276-250.2-349.8-14.3-11.4-29.6-40.5-24.2-63,7.7-36.9,63.9-70.3,68.4-98.2,3.7-25-11.8-26.6-34.7-43-26.6-23.9-74.4-53.5-71.8-81.8h0Z"/>
      <path class="cls-4" d="M1122.3-163.9c73.9-49.5,147.8-56.2,156.9-83.7,25.3-103.1,10-171.1,23-183.2,10.6-19.7,64.4-15.3,74.2-4.2,23.4,36.6,3.8,129.8,7.3,193.6,0,27.9,5.2,53.7-35.5,60.7-49.5,3.5-112.6,8-197.7,28.3-55.8,18.1-62.4,10.1-28.2-11.5h0Z"/>
      <path class="cls-4" d="M1190.3,852.9c-28.8,6.3-36.4,82.3,12.1,95.8,46.7,20.3,91.6,46.4,130.5,93.5,30.7,38,41.7,25.1,44.1-33.6,12.2-88.1,4.1-246.1,3.8-385.5-4.5-27.3-24.5-20-33.9-5.5-44.9,72.1-76.4,220.3-156.7,235.3h0Z"/>
      <path class="cls-4" d="M1083.3,865.1c12.8-18.2,64.7-26.5,62.9,0-3.3,23.1,1.5,49,6.4,72.1,1.5,21-53.5,70.2-65.6,36.5-9.1-21.5-15.5-60.3-3.6-108.5h0Z"/>
      <path class="cls-4" d="M1291.2,1116.3c-80.9,32-112.4,122-166.6,180.8-25.9,27.8-91.3,113.5-93.2-7.1.7-141,19.4-281.4,153.9-298.1,39.8-4.4,188,84.6,105.9,124.3h0Z"/>
      <path class="cls-4" d="M1318.5,1136.3c70.7-35,79.4,21.9,76.9,58.2-1.3,113.8-2.5,227.6-3.8,341.4-6.3,41.9-20,93.2-121.9,101.3-150.1,17.5-268.3-216.4-172.6-272,85-33.1,141.9-197.6,221.4-228.9h0Z"/>
      <path class="cls-4" d="M777.3,986.7c6.3-59.8,23.3-46.6,36.8-75.2,23-48.7,65-80,78.1-16.3,47.5,176.4-74.1,347.5-16.1,545.5,9.5,36.7-3.3,136.5-30.9,17.3-22.7-157.1-66.3-303.1-68-471.3h0Z"/>
      <path class="cls-4" d="M666.1,942.2c21.9-66.8,58-44.1,89,96.5,8.4,39.7,8.7,81.6,19.4,154.7,13.4,91.1,38.2,217.7,59.6,298,11.7,59.2-12.2,80.6-54.4-21-57.9-192.3-153.5-366.8-113.7-528.2h0Z"/>
      <path class="cls-4" d="M1886.6-86.7c-17.4-8.8-28.8-10-44-3.8-27.3,11.1-53.6,41.3-63.3,65.7-7.7,19.5-2.5,24.7,16.5,34.6,114.2,65,182.2,158.3,229.2,264.4,10.7,29.8,41,59.7,46.1-28,13.4-57.4,12.2-128.3-23.5-194.5-32.5-60.3-95.9-117.6-161-138.5h0Z"/>
      <path class="cls-4" d="M1916.8,150.1c-2-22.3-77.6-105.5-108.5-91.3-31.9,7.1-18.2,96.1-44,153.3-11.1,46.1,70.4,66.3,98.7,47.1,32.5-20.6,58.5-80.2,53.8-109h0Z"/>
      <path class="cls-4" d="M2020.5,333.7c-49.6-61.2-51.4-51.8-69.8-14.2-18.4,26.2-64.5,142.5-40.8,252.4,12.3,55.3,24.6,110.6,36.9,165.9,14.7,50.3,29.3,83.5,44-2.8,13.7-39.2,50.6-65.7,43-117.7-2.3-38.3,30.5-44.3,44.9-1.4,4.7,31.7,9.4,63.3,14.2,95,19.9,71.8,30.4,69.5,28.4-5.7,9.2-191.8-32.8-302.3-100.7-371.6h0Z"/>
      <path class="cls-4" d="M1890.8,356.5c4.4-33.1,42.2-92.3-33.6-65.1-32.7,9.6-83.2-2.8-114.7-29.1-14.6-20.4-29.2-19.5-43.8,2.7-71,62.4-122.5,158-168.7,263-25,32.8-22.3,60.7-9.3,86.3,29,71.7,59.3,140.6,98.3,189.9,28.3,30.9,80.8,30.6,109.2-12.9,62.7-90,144.5-229.3,162.7-434.7h0Z"/>
      <path class="cls-4" d="M1801.4-98.1c.6-20.4-195.8-59.6-304.1-65.8-42.1-4.4-52.2,2.7-54.2,33.6-6.4,205.9-9.7,410.2,0,608.3,2.5,61.4,16.2,155.9,51.7,59.6,44.3-111.3,153.1-276,245.4-349.8,14.1-11.4,29-40.5,23.8-63-7.5-36.9-62.6-70.3-67.1-98.2-3.6-25,11.6-26.6,34.1-43,26.1-23.9,73-53.5,70.5-81.8h0Z"/>
      <path class="cls-4" d="M1711.5-163.9c-73.9-49.5-147.8-56.2-156.9-83.7-25.3-103.1-10-171.1-23-183.2-10.6-19.7-64.4-15.3-74.2-4.2-23.4,36.6-3.8,129.8-7.3,193.6,0,27.9-5.2,53.7,35.5,60.7,49.5,3.5,112.6,8,197.7,28.3,55.8,18.1,62.4,10.1,28.2-11.5h0Z"/>
      <path class="cls-4" d="M1643.7,852.9c28.6,6.3,36.1,82.3-12,95.8-46.3,20.3-90.9,46.4-129.5,93.5-30.5,38-41.4,25.1-43.8-33.6-12.1-88.1-4-246.1-3.8-385.5,4.5-27.3,24.3-20,33.6-5.5,44.5,72.1,75.8,220.3,155.5,235.3h0Z"/>
      <path class="cls-4" d="M1750.6,865.1c-12.8-18.2-64.7-26.5-62.9,0,3.3,23.1-1.5,49-6.4,72.1-1.5,21,53.5,70.2,65.6,36.5,9.1-21.5,15.5-60.3,3.6-108.5h0Z"/>
      <path class="cls-4" d="M1542.6,1116.3c80.9,32,112.4,122,166.6,180.8,25.9,27.8,91.3,113.5,93.2-7.1-.7-141-19.4-281.4-153.9-298.1-39.8-4.4-188,84.6-105.9,124.3h0Z"/>
      <path class="cls-4" d="M1515.4,1136.3c-70.7-35-79.4,21.9-76.9,58.2,1.3,113.8,2.5,227.6,3.8,341.4,6.3,41.9,20,93.2,121.9,101.3,150.1,17.5,268.3-216.4,172.6-272-85-33.1-141.9-197.6-221.4-228.9h0Z"/>
      <path class="cls-4" d="M2059.8,986.7c-6.3-59.8-23.3-46.6-36.8-75.2-23-48.7-65-80-78.1-16.3-47.5,176.4,74.1,347.5,16.1,545.5-9.5,36.7,3.3,136.5,30.9,17.3,22.7-157.1,66.3-303.1,68-471.3h0Z"/>
      <path class="cls-4" d="M2167,942.2c-21.9-66.8-58-44.1-89,96.5-8.4,39.7-8.7,81.6-19.4,154.7-13.4,91.1-38.2,217.7-59.6,298-11.7,59.2,12.2,80.6,54.4-21,57.9-192.3,153.5-366.8,113.7-528.2h0Z"/>
      <path class="cls-3" d="M1048.5,1653.2c2.8-47.1,36.9-3.3,75.6,19.7,34.2,20.3,76.1,5.9,71.8,63,7.7,161.6,29.6,344.6,23.1,484.7-2.8,92.5-34.4,145.1-52.2,154.2-17.7,9-35.8-20.6-54.1-78.2-46.8-189.5-86.1-404.3-64.3-643.4h0Z"/>
      <path class="cls-3" d="M1228.9,1705.2c14.5,1.5,21.1,1.9,41.8,2.8s39.4-9.4,40.6,8.6c36.2,224.9,44.1,434.1,14.7,616.6-6.5,54.3-22.7,57.2-35.1,50.7-12.4-6.5-25.8-44.1-40.8-136.2-17.6-234.3-31.9-447.2-29.7-517.4.3-11-.8-26.4,8.7-25.1h0Z"/>
      <path class="cls-4" d="M1156.2,2631c38-87.7,61.4-69.3,60.3,45.3-8.9,124.1-17.9,258.2-6.7,392.4,7.3,67.1-92.7,98.9-108.9-35.2-7.5-147.1,9.2-282.1,55.3-402.4h0Z"/>
      <path class="cls-4" d="M1254.4,2663.8c20.2-113.3,47.5-73.8,78.1,35.2,40.6,171.8,56.2,332.8,16.9,470-40.4,142.8-105.4,8.3-112-63.8-9.5-159.3-4.8-306.4,16.9-441.3h0Z"/>
      <path class="cls-3" d="M1783.7,1653.2c-2.8-47.1-36.9-3.3-75.6,19.7-34.2,20.3-76.1,5.9-71.8,63-7.7,161.6-29.6,344.6-23.1,484.7,2.8,92.5,34.4,145.1,52.2,154.2,17.7,9,35.8-20.6,54.1-78.2,46.8-189.5,86.1-404.3,64.3-643.4h0Z"/>
      <path class="cls-3" d="M1603.2,1705.2c-14.5,1.5-21.1,1.9-41.8,2.8s-39.4-9.4-40.6,8.6c-36.2,224.9-44.1,434.1-14.7,616.6,6.5,54.3,22.7,57.2,35.1,50.7,12.4-6.5,25.8-44.1,40.8-136.2,17.6-234.3,31.9-447.2,29.7-517.4-.3-11,.8-26.4-8.7-25.1h0Z"/>
      <path class="cls-4" d="M1675.9,2631c-38-87.7-61.4-69.3-60.3,45.3,8.9,124.1,17.9,258.2,6.7,392.4-7.3,67.1,92.7,98.9,108.9-35.2,7.5-147.1-9.2-282.1-55.3-402.4h0Z"/>
      <path class="cls-4" d="M1577.7,2663.8c-20.2-113.3-47.5-73.8-78.1,35.2-40.6,171.8-56.2,332.8-16.9,470,40.4,142.8,105.4,8.3,112-63.8,9.5-159.3,4.8-306.4-16.9-441.3h0Z"/>
    </g>
  </g>
</svg>