<?xml version="1.0" encoding="UTF-8"?>
<svg id="_ÎÓÈ_1" data-name=" ÎÓÈ 1" xmlns="http://www.w3.org/2000/svg" xmlns:xlink="http://www.w3.org/1999/xlink" version="1.1" viewBox="0 0 2834.6 2834.6">
  <defs>
    <style>
      .cls-1 {
        clip-path: url(#clippath);
      }

      .cls-2 {
        fill: none;
      }

      .cls-2, .cls-3, .cls-4, .cls-5, .cls-6 {
        stroke-width: 0px;
      }

      .cls-3 {
        fill: #e73f32;
      }

      .cls-3, .cls-4, .cls-5, .cls-6 {
        fill-rule: evenodd;
      }

      .cls-4 {
        fill: #ececec;
      }

      .cls-5 {
        fill: #868686;
      }

      .cls-6 {
        fill: #c6c6c5;
      }
    </style>
    <clipPath id="clippath">
      <rect class="cls-2" x="-1.7" y="2.1" width="2838.1" height="2830.3"/>
    </clipPath>
  </defs>
  <g class="cls-1">
    <g>
      <path class="cls-5" d="M1629.8,67.8c-4,48.6-19.9,85.2-35,122.6,7.6,30.7,7.3,69.5,17.5,97.6,77.8,43.2,155.6,86.2,225.2,137.6,72.2,6.1,137.8,12.2,190.2,47.5,28.5,19.2,50.9,43.7,75.1,70.1,51.4,56.1,99.9,103.4,107.6,202.7,2.8,36.5.5,78.7-2.5,117.6-2.9,36.7-4.2,74-17.5,102.6,24.5,46.8,52,97,65,155.1,13.5,60.1,22.5,131.4,17.5,202.7-4.7,68.4-10.8,137.1,7.5,202.7,16.5,59,33.6,116,37.5,180.1,6.3,101.4-25.5,196.2-52.5,285.2-13.1,43.2-26.8,85.1-42.5,125.1-16.1,41-39.6,79.3-50,117.6-5.8,21-4.8,47.4-10,65.1-6.2,20.9-26.5,38.9-30,60.1-4.5,27.3,2.8,71.7,5,102.6,2.8,39.2,8.8,85.6,0,115.1-7.4,24.6-30.5,42.6-45,62.6-15,20.6-24.2,52.3-50,60.1-52.3,15.8-88.4-28.1-120.1-47.5-25.5,202.1-55.1,400.3-135.1,548,6.2,82.9-3.5,169.4-15,245.2-3.8,24.7-5.1,50.6-17.5,70.1,76.7,176,90,421.4,37.5,618-24.4,91.6-63.9,178.4-90.1,270.2-22.5,78.9-41.8,166.7-45,270.2-.5,14.8-4.3,31.3-2.5,42.5,2.8,17.2,20.9,34.5,35,52.5,13.3,17,27,35.3,37.5,47.5,22.1,25.6,78.9,60.7,77.6,92.6-2.6,60.6-127.7,25.7-185.2,30-39.1,3-101.3,22.1-147.6,7.5-60.7-19.2-37.3-100.2-25-165.1,20.2-107.1,28.4-229.6,32.5-350.3,6.4-184.5-35.9-305.7-62.6-447.9-26.3,138.3-68.9,265.6-62.6,447.9,4.1,119.4,11.7,239.9,32.5,350.3,11.7,61.9,38.1,145.9-25,165.1-45.9,14-101.7-3.7-145.1-7.5-52.3-4.6-181.8,30.1-187.7-27.5-3.2-31.3,60.5-75.3,77.6-95.1,11.8-13.7,24.7-31.2,37.5-47.5,13.3-17.1,32.1-34.6,35-50,3.3-17.3-1.3-62.1-2.5-87.6-1.4-29.2-6-57.2-10-80.1-19.2-108.7-46.2-188.9-80.1-280.2-16.5-44.6-29.9-90.5-42.5-137.6-26.8-100.1-37.6-206.6-32.5-322.8,4.6-104.4,31.4-205.7,67.5-292.7-17-44-21.9-94.8-27.5-150.1-4.1-40.8-7.3-82-7.5-125.1,0-13,4.2-29,2.5-40-1.9-12.8-20.3-43.7-27.5-60.1-60-136.5-84.2-312.7-107.6-487.9-9.5.5-18.2,10.7-27.5,17.5-18.2,13.4-57,38.3-92.6,27.5-23.5-7.1-31.5-34.1-47.5-57.6-16.9-24.8-42.7-38.8-50-67.6-6.9-26.9-2.1-72.5,0-107.6,2-34.3,12.2-72,7.5-105.1-3-21.1-20.4-37.6-27.5-57.6-6.4-18-6.8-45.2-12.5-67.6-9.9-38.3-31.4-78.7-47.5-120.1-15.5-39.7-32.1-79.8-45-122.6-26.7-88.2-57.4-182.2-52.5-282.7,3.1-64.1,18.3-125.3,35-185.1,18.2-65.4,17.7-132.7,12.5-202.7-10.3-139.2,22.2-258.9,77.5-355.3-24-116-29.2-266.1,17.5-342.8,18.1-29.7,47.7-55.4,72.6-82.6,29.8-32.5,56.3-66.4,95.1-85.1,37-17.8,78.5-20.8,122.6-27.5,14.2-2.2,31.8-1.4,45-5,17.8-4.8,35.2-24,55.1-37.5,52.2-35.7,121-68.9,172.7-100.1,10.3-27.2,9.3-65.8,17.5-95.1-13.7-38.9-30.5-74.5-35-122.6-10.4,1-25.3,3.4-37.5-5-26.2-18.1-84.2-182.2-12.5-207.7-23.1-109,10.8-208.6,62.6-270.2,47.6-56.7,124.1-92.9,227.7-85.1,55.4,4.2,111.7,27.6,150.1,60.1,71.5,60.5,103.4,169.7,87.6,292.7-1.8,8.5,11.2,9.2,17.5,17.5,25.3,33.4,13.8,95.6-2.5,137.6-15.2,39-27.9,69.9-67.6,57.6h0ZM1384.6,3145.4c-6.2,44.8-13.8,91.7-12.5,135.1,1.4,47.1,17.4,94.8,20,142.6,3.6,65.8-9.7,125-22.5,187.7,15.5,57.9,34.7,112.1,45,175.1,8.2-2.1,6.2-14.5,7.5-20,12.8-54.2,28.9-105.3,42.5-155.1-12.8-63.4-26.6-123.7-22.5-190.2,3-48.2,19.1-95,20-142.6.8-42.7-6.8-88-12.5-132.6-17.3-135.9-24.8-272.3-32.5-405.3-1.9,141.1-15.1,278.4-32.5,405.3h0ZM1835,1451.4c15.6,86.3,12.3,212.3-5,285.2,30.5,61.5,59.4,118.2,65.1,197.7,2.4,34.2-6.7,73.1-2.5,102.6,2.5,17.8,18.1,42.4,27.5,65.1,9.2,22.3,20.1,46,25,70.1,10.9,54,2.5,101.4-7.5,152.6,15.9-14.5,39-35.6,40-55.1,3.9-70.9,17.9-146.3,17.5-220.2-.5-89.3-31.9-156.5-42.5-232.7-20-143.6-1-268.6,45-370.3-29.2-60.9-41.4-138.7-57.5-212.7-24.3,83.3-67.7,147.4-105.1,217.7h0ZM836.7,1446.4c46.8,104.6,65.6,231.7,45,372.8-8.9,61.6-32.9,120.9-40,185.1-6.1,55.2,1.2,103.7,7.5,155.1,6.7,54.3,1.8,113.5,25,145.1,5,6.9,15.7,17.2,22.5,17.5-8.4-35.6-12.8-65.1-12.5-100.1.4-50.5,15.5-85,30-120.1,9.9-23.8,25.2-48.5,27.5-67.6,4.3-35.5-5-70.3-2.5-102.6,6.1-79,36.6-134.9,65-197.7-18-71.5-20.1-197.5-5-282.7-38.9-69.5-79-137.9-107.6-217.7-11,78.2-27.6,150.9-55.1,212.7h0Z"/>
      <path class="cls-6" d="M1632.3-69.8c14.9-38.4,27.6-78.5,30-122.6,4.2-75.1-18.5-138.7-47.5-185.1-28.3-45.3-87-80.8-150.1-92.6-109.5-20.4-208.6,34-245.2,92.6-25.1,40.3-43.9,90.9-47.5,145.1-6,89,24.7,162.3,55.1,215.2,8.9,15.5,23.8,30.9,22.5,50-15.2-2.7-22.4-19.9-30-30-26.4-35.1-48.1-72.4-62.6-117.6-23.7,36.5-8.4,83.6,5,117.6,6.9,17.6,14.5,46.8,32.5,40,14.2-4.6-7.9-32.4,10-35,20.7,36.8,24.2,90.9,42.5,130.1,2.2-15.4-2.9-38,15-37.5,7.1,13.5,3.9,32.6,2.5,50-1.4,17.4-3,37-5,55.1-3,27.5-4.6,82.1-17.5,100.1-9.6,13.4-51.7,30-70.1,40-27.1,14.8-49.8,28-70.1,40-52.7,31.2-96.5,60.8-140.1,82.6-12.8-.1,0-19.2-10-12.5-45,6.2-84.7,11.9-120.1,30-31.1,16-56.8,44.7-80.1,70.1-25.1,27.3-49,52-67.6,82.6-42.8,70.3-41.2,187.9-25,292.7,2.6,3.8,9-19.3,20-7.5-40.9,93.1-83,191-90.1,305.3-4.7,76.1,6.5,145.8,2.5,222.7-2.6,51.6-21.4,94.3-32.5,142.6-11.5,49.9-20.6,105.6-17.5,160.1,2.7,47.3,15.2,98.2,27.5,147.6,11.6,46.4,24.1,95,40,137.6,24.7,66.2,56.6,124.6,75.1,187.7,7.1,24.3,5.5,52.1,15,75.1,6.9,16.5,20.9,28.4,25,45,5.6,23,2.5,56.9,0,87.6-2.1,26.4-3.9,55.3-5,80.1-.7,15.6-4.8,30.2-2.5,45,5,32,31.5,43.3,50,72.6,9.8,15.5,17.7,38,30,42.5,41.3,15.4,90.2-34.7,110.1-57.6-5-80.9-6.4-165.4-7.5-250.2-23.7-28.8-51-46-62.6-82.6-5.8-18.2-3.2-41.8-5-65.1-4.9-63.6-22.2-126.3-17.5-190.2,4.3-58.7,21.2-116.2,32.5-172.6,27.3-136.6,22-254.9-20-370.3-5.3-4.4-8,25.8-20,15,.1-25.7,10.4-51.8,17.5-77.6,14.9-53.7,27.5-105,37.5-165.1,4.3-26.1,16.3-64.2,15-87.6-.7-12.7-8.5-30.9-12.5-47.5-11.3-46.5-15.7-111.4-30-150.1-6.1-16.5-17.9-29.2-22.5-45-4.3-14.8-5.9-33.4-7.5-50-1.8-18.5-7.1-42.9,5-47.5,11.3,8.5,10.2,24.1,12.5,35,2.7,12.8,6.1,24.6,10,37.5,7.4,24.5,20,45.4,27.5,67.6,17.7,51.7,17.6,106.5,30,157.6,12.1,49.5,26.1,99.2,45,145.1,32.9,79.9,82.6,142,107.6,222.7,3.1,10,10.1,24.4,2.5,35-18.2-1.8-14.6-25.5-25-35-7,74-10,168.8,12.5,227.7-46.7,83-78,205.1-65.1,332.8,2,19.4,8.8,39.7,0,57.6-16.1-.6-8.8-24.5-17.5-32.5-13.8,41-36.6,77-40,125.1-3,42.1,10,85,15,130.1,7.6,69-.6,133.3,2.5,202.7,6,131.5,27.7,260.2,52.5,377.8,25.6,121.3,60.6,230.9,107.6,322.8,1.8,10.8-22.7,3.6-15,12.5-4,75.8,11.1,154,20,225.2,7.8,5.4,9-28.3,22.5-17.5,2.4,15.1-5.5,30.1-10,42.5-35.9,99.6-64.7,222.5-70.1,345.3-6.4,144.5,27.8,274.9,72.6,397.8,21,57.8,42.2,117.6,57.5,177.6,16.6,64.7,33,132.4,37.5,200.2,1.5,23.1,5.8,81.4,2.5,100.1-3,17.3-22.3,41.5-35,57.6-25.5,32.3-49.9,62.4-77.6,87.6-13.6,12.4-35.6,21.5-35,42.5,48.3,24.3,116.3-10.2,170.1,5-24.8-23.8-12.6-70.2-2.5-97.6,5.4-14.4,10.4-31.1,20-35,7.1,30.3-15.7,67.8-7.5,100.1,5.3,21,26.8,26,40,40,32.6-4.6,63.6,7.3,85.1-5,33.4-19.1,8.4-89,0-132.6-6.7-34.7-11.8-71.6-15-102.6-11.8-115-23.1-232.2-17.5-355.3,7.9-172.8,82.4-318.4,70.1-487.9-4-55-24.6-109.1-37.5-162.6-10.2-42.2-17.6-84.3-25-125.1-2.2-12-10.2-30.9,2.5-40,13.4,5.8,8.6,29.8,17.5,40,3.7-45.5,12.7-86.3,10-130.1-3.6-57.7-23.9-112.8-20-175.1,4.4-71.2,19-143.2,27.5-217.7,21.6-187.9,24.6-387.6,20-593-10.2,3.3-20.5,14-32.5,20-39.6,20-86.4,23.8-135.1,20-106.6-8.2-205.4-74.9-207.7-167.6,16.7,7.4,22.1,27.8,32.5,42.5,9.8,13.8,20.5,30.7,32.5,42.5,64.3,62.9,221,78.8,290.2,27.5,19.2-14.2,26.6-35.9,47.5-52.5,34,111.9,249.4,101.6,327.8,25,18.2-17.8,34.5-45.5,47.5-65.1,4.8-7.2,5.9-23.2,20-20-13.7,103.2-106.9,160.1-212.7,167.6-64.9,4.7-107.8-7.5-142.6-27.5-8.2-4.7-18.9-14.5-20-7.5-4.1,201.4-1.8,406.6,20,588,9.1,75.5,21.1,148.4,25,220.2.7,12.3.9,25.1,0,37.5-6.5,89.3-37.4,176.4-7.5,265.2,4.8-14.3,2-36.4,17.5-40,8,11.6,2.3,27.4,0,40-8,43.9-15,83.8-25,125.1-13.2,54.3-33.7,108.6-37.5,165.1-11.3,169.4,62.5,314.8,70.1,487.9,1.9,43.7,2.1,90.5,0,137.6-4.9,107.1-13.8,221-32.5,317.8-6.8,35.2-20.2,74.2-17.5,100.1,5,47.2,53.8,35.9,105.1,37.5,11.1-16.5,32.1-18.7,37.5-40,8.6-33.9-18.1-75.8-5-100.1,11.9,22.9,35.3,64.7,30,100.1-2,13.8-12,21.3-12.5,32.5,36.2-12.4,83.4,5.5,122.6,5,15.1-.2,34.9-1.5,45-12.5-3.5-18.7-21.2-29.8-35-42.5-14.4-13.3-26.7-26.6-40-42.5-21.5-25.7-61.5-62.7-70.1-95.1-3.8-14.3-.9-27,0-47.5.9-21.6-1-45.4,0-60.1,4.9-66.8,21.2-133.9,37.5-197.7,15.4-60.2,36.4-119.5,57.5-177.6,44.9-123.5,79.1-256.2,72.6-400.3-5.7-124.5-35.6-249.9-70-345.3-4.5-12.3-16.5-28.2-7.5-42.5,12.8-2.8,13.9,30,20,17.5,9.8-70.3,23.9-149.4,20-225.2,5-4.4-19.5-.4-15-12.5,49.4-90.5,81.9-201.8,107.6-322.8,25.1-118,46.7-246,52.5-377.8,3.2-73.5-5.4-134.9,2.5-202.7,5.3-45.6,18.5-88.1,15-130.1-4-47.6-25.6-84.3-42.5-122.6-2.7,12.1-2.9,37.9-17.5,30,2.7-59.1,9.6-117.8,5-177.6-6.3-81.4-44.4-152.6-67.5-212.7,11.2-24,15.7-60.5,17.5-97.6,2.1-43.1-.3-92.5-7.5-127.6-6.6,13.4-5.4,34.7-25,35,3-50.5,27.9-91.5,50-132.6,43.9-81.6,83.2-170.5,107.6-270.2,12.7-52.2,12.8-111.2,30-160.1,7.4-20.8,22.9-41,30-65.1,3.9-13,4.7-26.7,7.5-40,2-9.3.9-28.5,15-32.5,10.2,14.3,1.5,32.1,0,47.5-1.7,17.5.1,35.7-5,52.5-4.5,14.8-17,27.5-22.5,42.5-9.7,26.4-13.7,66-20,100.1-3.1,16.9-6,33.4-10,50-3.9,15.9-11.8,34.9-12.5,47.5-.6,12,5.3,28.2,7.5,42.5,11.8,77,26.4,145.9,45,212.7,7.7,27.8,22.2,55.2,15,77.6-11.9,3.4-13.3-27-17.5-15-43.8,117.3-46.5,235.2-20,367.8,11.6,57.7,28.5,115.7,32.5,175.1,4.3,64.4-13.2,127.7-17.5,192.7-1.1,17.1,2.6,32,0,47.5-4.3,26.3-20.1,39.9-35,57.6-11.7,13.9-29.3,28.2-32.5,40-5.2,19,.9,42.7,0,62.6-2.9,63.3-3.8,131.7-7.5,187.7,24,22.3,59.4,59.8,100.1,57.6,24.4-1.3,27.4-27.5,40-47.5,14.3-22.6,37.6-34.9,45-52.5,7.9-18.7,3.5-42.7,2.5-65.1-1.1-24.6-2.9-51.2-5-77.6-2.3-28.4-5.8-59.2-2.5-82.6,2.8-19.8,20.6-33.3,27.5-50,9.1-22,8.1-48.7,15-72.6,6.3-21.9,14-44.1,22.5-65.1,33.5-82.5,68.9-167.9,92.6-262.7,12.5-50.1,25.1-101.6,27.5-150.1,2.7-53.6-6.1-108.1-17.5-157.6-11.4-49.2-30.2-92.5-32.5-145.1-2.1-46.8,3.3-99.9,5-137.6,5.8-131-27.6-234.7-65.1-320.3-9.9-22.8-24.1-44.7-25-70.1,14-7.6,14.4,20.3,17.5,7.5,6.9-57,14-119.9,10-175.1-4.5-62-27.1-113.8-65.1-157.6-15.6-18.1-35.9-37.7-55-57.6-19.4-20.2-39.8-41.9-60.1-52.5-35.4-18.6-84.5-24.5-125.1-30-4.2-5.2,3.8,15.3-10,12.5-60.9-35.9-138.2-84.7-207.7-122.6-21.6-11.8-59.9-27.3-70.1-42.5-14.5-21.7-13.7-64.9-17.5-100.1-1.9-17.6-3.6-34.9-5-52.5-1.3-16-6.8-39.6,5-50,16.6.9,7.6,27.4,15,37.5,8.8-32.6,18.9-70.6,27.5-100.1,3.2-10.9,3.3-25.8,15-30,14.7,5.7-8.8,34.1,10,35,17.5,4.4,23.1-24.4,30-42.5,13.8-35.9,30.7-83.8,2.5-115.1-11,46.2-36.3,88.4-60,120.1-7.4,9.9-18,29.2-32.5,25,14.8-32.7,35.9-63.8,50-100.1h-.1ZM1539.8,3345.5c2.9-.4,4.5.5,5,2.5-.9,38.7,22.4,76.3,10,110.1-16.8-29.8-23.6-68.3-15-112.6h0ZM1684.9,3293c33,36.4,31.7,97.3,30,157.6-13-7-9.4-30.6-20-40,.2-42.7-.7-84.3-10-117.6h0ZM1289.5,3345.5c2.9-.4,4.4.5,5,2.5,10,43.6-.8,77.1-12.5,110.1-19.1-30.7,11.1-74.4,7.5-112.6h0ZM1146.9,3293c6.7,9.9-3.5,16.5-5,27.5-3.6,26.1,2.1,61.1-2.5,87.6-1.4,8-6.9,14.7-10,22.5-2.8,6.9.1,21.1-10,20-2.4-60.6-1.4-117.7,27.5-157.6h0ZM1422.1,1106.1c2.1-.5,2.4,1,2.5,2.5-1.1,132.5,8.6,276.8,2.5,415.4-1.9,43.8,1.7,88.5-10,127.6-16-14.7-12.1-39.2-12.5-60.1-1.3-66-3.3-139.4,0-210.2,4.6-98.1,1.3-198.8,17.5-275.2h0ZM1412.1,112.8h5c9.5,6,4.8,21,5,30,1.1,53,12.5,118.6-2.5,162.6-.5-.3-2.1.4-2.5,0-29.4-26.9,5.1-130.5-5-185.1v-7.5h0ZM1517.2,55.3c-8.1,9.8-22.9,12.1-32.5,12.5-20.7.8-43.3-13.9-62.6-15-32.3-1.8-72.6,30.9-105.1,5,4.1-6.7,14-3.5,20-5,7.7-2,14.2-5.1,22.5-7.5,22.5-6.5,44.9-19.2,72.6-15,13.6,2.1,29.2,11.1,42.5,15,14.9,4.4,27.8,8.5,42.5,10h0ZM646.9,1459.3c-4,28.5-20.8,51.5-13.8,82.7-.6,22.7,22.7,47.2,25.7,65.2-6.1-10.1-49-42.3-48.7-57.9,6.1-30.9,16.8-79.3,36.8-90.1h0ZM742.5,1482.2c-10,15.8-5.1,40.5-9.4,65.9-2.4,14.5-23.7,9.2-23.7,26.9s-.6,18.6.9,17.5c20.7-15.3,36.8-21.1,36.8-51.5s2.4-25.5,0-34c-1.5-5.6-5-10.2-2.5-15.1,5.9-11.7-3.2-10.1-2-9.8h0ZM2084.6,1482.2c10,15.8,5.1,40.5,9.4,65.9,2.4,14.5,23.7,9.2,23.7,26.9s.6,18.6-.9,17.5c-20.7-15.3-36.8-21.1-36.8-51.5s-2.4-25.5,0-34c1.5-5.6,5-10.2,2.5-15.1-5.9-11.7,3.2-10.1,2-9.8h0ZM2180.2,1459.3c4,28.5,20.8,51.5,13.8,82.7.6,22.7-22.7,47.2-25.7,65.2,6.1-10.1,49-42.3,48.7-57.9-6.1-30.9-16.8-79.3-36.8-90.1h0Z"/>
      <path class="cls-4" d="M892.3,493.7c19.5-9.8,32.1-11.2,49.2-4.3,30.5,12.4,59.9,46.2,70.7,73.4,8.6,21.7,2.8,27.6-18.4,38.7-127.5,72.6-203.5,176.8-256,295.3-12,33.3-45.8,66.7-51.5-31.3-15-64.1-13.6-143.3,26.3-217.2,36.3-67.3,107.1-131.3,179.8-154.7h0Z"/>
      <path class="cls-4" d="M858.6,758.2c2.3-24.9,86.7-117.8,121.2-102,35.6,7.9,20.4,107.3,49.2,171.2,12.4,51.5-78.6,74.1-110.3,52.6-36.3-23-65.3-89.6-60.1-121.8h0Z"/>
      <path class="cls-4" d="M718.7,963.1c55.4-68.4,57.4-57.8,78-15.8,20.6,29.3,72.1,159.1,45.6,281.9-13.7,61.8-27.5,123.6-41.2,185.3-16.4,56.2-32.7,93.3-49.1-3.2-15.3-43.8-56.5-73.4-48-131.5,2.6-42.8-34.1-49.4-50.2-1.6-5.3,35.4-10.6,70.8-15.8,106.1-22.2,80.2-33.9,77.7-31.7-6.3-10.3-214.3,36.6-337.6,112.5-415h0Z"/>
      <path class="cls-4" d="M887.5,988.7c-4.9-37-47.1-103.1,37.6-72.8,36.5,10.7,93-3.1,128.1-32.6,16.3-22.7,32.6-21.7,49,3,79.3,69.7,136.9,176.5,188.4,293.7,27.9,36.6,24.9,67.7,10.4,96.4-32.4,80.1-66.2,157.1-109.8,212.2-31.7,34.5-90.3,34.2-121.9-14.4-70-100.5-161.4-256.1-181.7-485.6h0Z"/>
      <path class="cls-4" d="M987.4,480.9c-.7-22.8,223-66.6,346.3-73.5,48-4.9,59.5,3,61.7,37.6,7.3,230,11,458.2,0,679.4-2.9,68.6-18.5,174.2-58.9,66.6-50.5-124.3-174.3-308.3-279.5-390.7-16-12.8-33-45.2-27.1-70.4,8.6-41.3,71.3-78.6,76.4-109.7,4.1-27.9-13.2-29.7-38.8-48-29.7-26.7-83.1-59.8-80.2-91.3h0Z"/>
      <path class="cls-4" d="M1087.9,407.4c82.5-55.3,165.1-62.7,175.2-93.5,28.2-115.1,11.1-191.1,25.7-204.6,11.8-22,71.9-17.1,82.9-4.7,26.1,40.9,4.3,145,8.2,216.3,0,31.2,5.8,60-39.7,67.8-55.3,3.9-125.8,9-220.8,31.6-62.3,20.3-69.7,11.3-31.5-12.9h0Z"/>
      <path class="cls-4" d="M1163.7,1543.1c-32.2,7-40.7,91.9,13.6,107,52.1,22.6,102.3,51.8,145.8,104.4,34.3,42.5,46.6,28,49.3-37.6,13.6-98.4,4.5-274.9,4.3-430.6-5-30.5-27.4-22.4-37.8-6.1-50.1,80.6-85.3,246-175,262.8h0Z"/>
      <path class="cls-4" d="M1044.2,1556.7c14.2-20.4,72.3-29.5,70.2,0-3.7,25.8,1.7,54.7,7.1,80.5,1.7,23.4-59.7,78.4-73.3,40.7-10.2-24-17.3-67.3-4.1-121.2h0Z"/>
      <path class="cls-3" d="M1276.5,1837.3c-90.4,35.8-125.6,136.2-186,202-28.9,31-101.9,126.8-104.1-7.9.8-157.5,21.7-314.3,171.8-333,44.5-4.9,210,94.5,118.2,138.9h0Z"/>
      <path class="cls-3" d="M1306.9,1859.6c78.9-39.1,88.7,24.4,85.9,65-1.4,127.1-2.8,254.2-4.2,381.3-7,46.8-22.4,104.1-136.2,113.1-167.6,19.6-299.6-241.7-192.8-303.8,95-37,158.5-220.7,247.2-255.6h0Z"/>
      <path class="cls-4" d="M702.5,1692.5c7.1-66.8,26-52.1,41.1-84,25.7-54.4,72.6-89.3,87.3-18.2,53,197-82.7,388.1-18,609.3,10.6,41-3.7,152.4-34.5,19.4-25.3-175.5-74.1-338.5-75.9-526.4h0Z"/>
      <path class="cls-4" d="M578.3,1642.8c24.5-74.6,64.8-49.3,99.4,107.8,9.4,44.3,9.7,91.1,21.7,172.8,14.9,101.8,42.6,243.2,66.6,332.9,13.1,66.1-13.6,90.1-60.7-23.5-64.6-214.8-171.5-409.6-127-590h0Z"/>
      <path class="cls-4" d="M1941.4,493.7c-19.5-9.8-32.1-11.2-49.2-4.3-30.5,12.4-59.9,46.2-70.7,73.4-8.6,21.7-2.8,27.6,18.4,38.7,127.5,72.6,203.5,176.8,256,295.3,12,33.3,45.8,66.7,51.5-31.3,15-64.1,13.6-143.3-26.3-217.2-36.3-67.3-107.1-131.3-179.8-154.7h0Z"/>
      <path class="cls-4" d="M1975.2,758.2c-2.3-24.9-86.7-117.8-121.2-102-35.6,7.9-20.4,107.3-49.2,171.2-12.4,51.5,78.6,74.1,110.3,52.6,36.3-23,65.3-89.6,60.1-121.8h0Z"/>
      <path class="cls-4" d="M2115,963.1c-55.4-68.4-57.4-57.8-78-15.8-20.6,29.3-72.1,159.1-45.6,281.9,13.7,61.8,27.5,123.6,41.2,185.3,16.4,56.2,32.7,93.3,49.1-3.2,15.3-43.8,56.5-73.4,48-131.5-2.6-42.8,34.1-49.4,50.2-1.6,5.3,35.4,10.6,70.8,15.8,106.1,22.2,80.2,33.9,77.7,31.7-6.3,10.3-214.3-36.6-337.6-112.5-415h0Z"/>
      <path class="cls-4" d="M1946.2,988.7c4.9-37,47.1-103.1-37.6-72.8-36.5,10.7-93-3.1-128.1-32.6-16.3-22.7-32.6-21.7-49,3-79.3,69.7-136.9,176.5-188.4,293.7-27.9,36.6-24.9,67.7-10.4,96.4,32.4,80.1,66.2,157.1,109.8,212.2,31.7,34.5,90.3,34.2,121.9-14.4,70-100.5,161.4-256.1,181.7-485.6h0Z"/>
      <path class="cls-4" d="M1846.3,480.9c.7-22.8-218.7-66.6-339.6-73.5-47.1-4.9-58.3,3-60.5,37.6-7.2,230-10.8,458.2,0,679.4,2.8,68.6,18.1,174.2,57.7,66.6,49.5-124.3,170.9-308.3,274.1-390.7,15.7-12.8,32.4-45.2,26.5-70.4-8.4-41.3-70-78.6-74.9-109.7-4-27.9,12.9-29.7,38-48,29.2-26.7,81.5-59.8,78.7-91.3h0Z"/>
      <path class="cls-4" d="M1745.9,407.4c-82.5-55.3-165.1-62.7-175.2-93.5-28.2-115.1-11.1-191.1-25.7-204.6-11.8-22-71.9-17.1-82.9-4.7-26.1,40.9-4.3,145-8.2,216.3,0,31.2-5.8,60,39.7,67.8,55.3,3.9,125.8,9,220.8,31.6,62.3,20.3,69.7,11.3,31.5-12.9h0Z"/>
      <path class="cls-4" d="M1670.2,1543.1c32,7,40.4,91.9-13.4,107-51.7,22.6-101.6,51.8-144.7,104.4-34.1,42.5-46.3,28-48.9-37.6-13.5-98.4-4.5-274.9-4.2-430.6,5-30.5,27.2-22.4,37.6-6.1,49.7,80.6,84.7,246,173.7,262.8h0Z"/>
      <path class="cls-4" d="M1789.5,1556.7c-14.2-20.4-72.3-29.5-70.2,0,3.7,25.8-1.7,54.7-7.1,80.5-1.7,23.4,59.7,78.4,73.3,40.7,10.2-24,17.3-67.3,4.1-121.2h0Z"/>
      <path class="cls-3" d="M1557.3,1837.3c90.4,35.8,125.6,136.2,186,202,28.9,31,101.9,126.8,104.1-7.9-.8-157.5-21.7-314.3-171.8-333-44.5-4.9-210,94.5-118.2,138.9h0Z"/>
      <path class="cls-3" d="M1526.8,1859.6c-78.9-39.1-88.7,24.4-85.9,65,1.4,127.1,2.8,254.2,4.2,381.3,7,46.8,22.4,104.1,136.2,113.1,167.6,19.6,299.6-241.7,192.8-303.8-95-37-158.5-220.7-247.2-255.6h0Z"/>
      <path class="cls-4" d="M2131.2,1692.5c-7.1-66.8-26-52.1-41.1-84-25.7-54.4-72.6-89.3-87.3-18.2-53,197,82.7,388.1,18,609.3-10.6,41,3.7,152.4,34.5,19.4,25.3-175.5,74.1-338.5,75.9-526.4h0Z"/>
      <path class="cls-4" d="M2255.4,1642.8c-24.5-74.6-64.8-49.3-99.4,107.8-9.4,44.3-9.7,91.1-21.7,172.8-14.9,101.8-42.6,243.2-66.6,332.9-13.1,66.1,13.6,90.1,60.7-23.5,64.6-214.8,171.5-409.6,127-590h0Z"/>
      <path class="cls-4" d="M1005.3,2436.9c3.2-52.6,41.2-3.7,84.5,22,38.2,22.7,85,6.6,80.2,70.4,8.6,180.5,33.1,384.9,25.8,541.4-3.1,103.3-38.5,162.1-58.3,172.2s-40-23-60.4-87.3c-52.2-211.7-96.2-451.6-71.8-718.7h0Z"/>
      <path class="cls-4" d="M1206.9,2495.1c16.2,1.7,23.6,2.1,46.7,3.1s44.1-10.5,45.3,9.6c40.4,251.1,49.2,484.9,16.4,688.7-7.2,60.7-25.4,63.8-39.2,56.6-13.9-7.2-28.8-49.2-45.6-152.1-19.7-261.7-35.6-499.5-33.2-577.9.4-12.3-.9-29.5,9.7-28.1h0Z"/>
      <path class="cls-4" d="M1125.7,3529.1c42.4-98,68.6-77.4,67.4,50.6-10,138.6-20,288.4-7.5,438.2,8.1,74.9-103.5,110.5-121.6-39.3-8.4-164.3,10.3-315.1,61.7-449.5h0Z"/>
      <path class="cls-4" d="M1235.4,3565.7c22.5-126.5,53.1-82.4,87.2,39.3,45.3,191.9,62.8,371.7,18.9,524.9-45.1,159.5-117.8,9.2-125.1-71.3-10.7-177.9-5.3-342.2,18.9-492.9h0Z"/>
      <path class="cls-4" d="M1826.5,2436.9c-3.2-52.6-41.2-3.7-84.5,22-38.2,22.7-85,6.6-80.2,70.4-8.6,180.5-33.1,384.9-25.8,541.4,3.1,103.3,38.5,162.1,58.3,172.2,19.8,10.1,40-23,60.4-87.3,52.2-211.7,96.2-451.6,71.8-718.7h0Z"/>
      <path class="cls-4" d="M1624.9,2495.1c-16.2,1.7-23.6,2.1-46.7,3.1s-44.1-10.5-45.3,9.6c-40.4,251.1-49.2,484.9-16.4,688.7,7.2,60.7,25.4,63.8,39.2,56.6,13.9-7.2,28.8-49.2,45.6-152.1,19.7-261.7,35.6-499.5,33.2-577.9-.4-12.3.9-29.5-9.7-28.1h0Z"/>
      <path class="cls-4" d="M1706.2,3529.1c-42.4-98-68.6-77.4-67.4,50.6,10,138.6,20,288.4,7.5,438.2-8.1,74.9,103.5,110.5,121.6-39.3,8.4-164.3-10.3-315.1-61.7-449.5h0Z"/>
      <path class="cls-4" d="M1596.5,3565.7c-22.5-126.5-53.1-82.4-87.2,39.3-45.3,191.9-62.8,371.7-18.9,524.9,45.1,159.5,117.8,9.2,125.1-71.3,10.7-177.9,5.3-342.2-18.9-492.9h0Z"/>
    </g>
  </g>
</svg>