<?xml version="1.0" encoding="UTF-8"?>
<svg id="_ÎÓÈ_1" data-name=" ÎÓÈ 1" xmlns="http://www.w3.org/2000/svg" xmlns:xlink="http://www.w3.org/1999/xlink" version="1.1" viewBox="0 0 2834.6 2834.6">
  <defs>
    <style>
      .cls-1 {
        clip-path: url(#clippath);
      }

      .cls-2 {
        fill: none;
      }

      .cls-2, .cls-3, .cls-4, .cls-5, .cls-6 {
        stroke-width: 0px;
      }

      .cls-3 {
        fill: #ececec;
      }

      .cls-3, .cls-4, .cls-5, .cls-6 {
        fill-rule: evenodd;
      }

      .cls-4 {
        fill: #32a1d8;
      }

      .cls-5 {
        fill: #868686;
      }

      .cls-6 {
        fill: #c6c6c5;
      }
    </style>
    <clipPath id="clippath">
      <rect class="cls-2" x="-1.7" y="2.1" width="2838.1" height="2830.3"/>
    </clipPath>
  </defs>
  <g class="cls-1">
    <g>
      <path class="cls-5" d="M1670,834.7c-4.7,57.8-23.7,101.3-41.6,145.8,9.1,36.5,8.6,82.6,20.8,116.1,92.5,51.3,185.1,102.5,267.8,163.7,85.9,7.2,163.9,14.6,226.1,56.5,33.9,22.9,60.5,51.9,89.3,83.3,61.1,66.7,118.9,123,128,241,3.3,43.4.6,93.6-3,139.9-3.4,43.6-5,88-20.8,122,29.1,55.7,61.8,115.4,77.3,184.5,16,71.4,26.7,156.3,20.8,241-5.6,81.3-12.9,163.1,8.9,241,19.6,70.2,39.9,138,44.6,214.2,7.5,120.6-30.4,233.4-62.5,339.2-15.5,51.3-31.9,101.2-50.6,148.8-19.1,48.8-47.1,94.4-59.5,139.9-6.8,25-5.7,56.4-11.9,77.4-7.4,24.8-31.5,46.2-35.7,71.4-5.4,32.5,3.3,85.3,6,122,3.4,46.6,10.5,101.8,0,136.9-8.8,29.2-36.3,50.6-53.6,74.4-17.8,24.6-28.8,62.1-59.5,71.4-62.2,18.8-105.2-33.4-142.8-56.5-30.4,240.4-65.5,476-160.7,651.7,7.4,98.6-4.1,201.4-17.8,291.6-4.5,29.4-6,60.2-20.8,83.3,91.2,209.3,107,501.2,44.6,735-29.1,108.9-76,212.2-107.1,321.4-26.7,93.9-49.7,198.2-53.5,321.4-.5,17.6-5.1,37.2-3,50.6,3.3,20.5,24.9,41.1,41.7,62.5,15.8,20.2,32.1,41.9,44.6,56.5,26.3,30.5,93.9,72.2,92.3,110.1-3.1,72-151.9,30.5-220.2,35.7-46.5,3.5-120.5,26.3-175.6,8.9-72.2-22.8-44.3-119.1-29.8-196.4,24-127.4,33.7-273,38.7-416.6,7.6-219.4-42.7-363.6-74.4-532.6-31.2,164.5-81.9,315.9-74.4,532.6,4.9,142,14,285.4,38.7,416.6,13.9,73.6,45.3,173.6-29.8,196.4-54.6,16.6-120.9-4.4-172.6-8.9-62.2-5.4-216.2,35.8-223.2-32.7-3.8-37.2,72-89.5,92.3-113.1,14-16.3,29.4-37,44.6-56.5,15.9-20.3,38.2-41.1,41.7-59.5,3.9-20.6-1.5-73.9-3-104.2-1.7-34.7-7.1-68-11.9-95.2-22.8-129.3-55-224.7-95.2-333.3-19.7-53.1-35.6-107.7-50.6-163.7-31.8-119.1-44.8-245.7-38.7-383.9,5.5-124.1,37.4-244.6,80.3-348.2-20.2-52.3-26-112.7-32.7-178.6-4.9-48.5-8.7-97.6-8.9-148.8,0-15.5,5-34.5,3-47.6-2.3-15.2-24.2-52-32.7-71.4-71.4-162.4-100.1-371.9-128-580.2-11.3.5-21.7,12.7-32.7,20.8-21.7,16-67.8,45.5-110.1,32.7-28-8.4-37.5-40.5-56.5-68.4-20.1-29.5-50.8-46.2-59.5-80.3-8.2-32-2.5-86.3,0-128,2.4-40.8,14.5-85.6,8.9-125-3.5-25.1-24.3-44.7-32.7-68.4-7.6-21.4-8-53.8-14.9-80.3-11.7-45.6-37.3-93.5-56.5-142.8-18.4-47.2-38.2-94.9-53.6-145.8-31.7-104.9-68.2-216.7-62.5-336.2,3.7-76.3,21.8-149,41.7-220.2,21.7-77.7,21-157.9,14.9-241-12.3-165.5,26.5-307.9,92.2-422.5-28.6-137.9-34.8-316.4,20.8-407.7,21.6-35.3,56.8-65.9,86.3-98.2,35.4-38.7,67-79,113.1-101.2,43.9-21.2,93.4-24.7,145.8-32.7,16.9-2.6,37.8-1.7,53.5-6,21.2-5.7,41.9-28.5,65.5-44.6,62.1-42.5,143.9-82,205.3-119,12.3-32.4,11-78.2,20.8-113.1-16.2-46.3-36.3-88.6-41.7-145.8-12.4,1.2-30.1,4.1-44.6-6-31.1-21.5-100.1-216.7-14.9-247-27.5-129.6,12.8-248.1,74.4-321.4,56.6-67.4,147.5-110.5,270.8-101.2,65.9,5,132.8,32.8,178.6,71.4,85,71.9,123,201.9,104.1,348.2-2.2,10.1,13.3,10.9,20.8,20.8,30.1,39.8,16.4,113.7-3,163.6-18,46.4-33.2,83.2-80.3,68.4h0ZM1378.4,4494.8c-7.3,53.2-16.4,109.1-14.9,160.7,1.6,56,20.7,112.7,23.8,169.6,4.3,78.3-11.5,148.7-26.8,223.2,18.4,68.9,41.2,133.3,53.6,208.3,9.8-2.5,7.4-17.2,8.9-23.8,15.2-64.5,34.4-125.3,50.6-184.5-15.3-75.4-31.7-147.1-26.8-226.1,3.6-57.4,22.7-113,23.8-169.6,1-50.8-8.1-104.7-14.9-157.7-20.5-161.6-29.5-323.9-38.7-482.1-2.3,167.9-17.9,331-38.7,482.1h0ZM1914.1,2480.2c18.5,102.7,14.7,252.5-6,339.2,36.2,73.1,70.6,140.5,77.4,235.1,2.9,40.6-8,86.9-3,122,3,21.2,21.5,50.4,32.7,77.4,11,26.5,24,54.7,29.7,83.3,13,64.2,3,120.6-8.9,181.5,18.9-17.2,46.3-42.4,47.6-65.5,4.6-84.3,21.3-174,20.8-261.9-.6-106.2-37.9-186.1-50.6-276.7-23.8-170.8-1.2-319.4,53.6-440.4-34.7-72.4-49.3-165-68.4-252.9-28.8,99.1-80.6,175.3-125,258.9h0ZM726.8,2474.3c55.7,124.4,78,275.6,53.6,443.4-10.6,73.2-39.2,143.7-47.6,220.2-7.3,65.7,1.4,123.3,8.9,184.5,7.9,64.6,2.1,135,29.8,172.6,6,8.2,18.7,20.5,26.8,20.8-10-42.3-15.3-77.4-14.9-119,.5-60.1,18.4-101,35.7-142.8,11.7-28.3,30-57.7,32.7-80.3,5.1-42.2-6-83.5-3-122,7.2-93.9,43.5-160.5,77.3-235.1-21.5-85-24-234.9-6-336.2-46.2-82.7-93.9-163.9-128-258.9-13.1,93-32.8,179.4-65.5,252.9h0Z"/>
      <path class="cls-6" d="M1673,671.1c17.8-45.7,32.8-93.4,35.7-145.8,5-89.3-22-164.9-56.5-220.2-33.7-53.9-103.4-96.1-178.6-110.1-130.2-24.2-248.1,40.4-291.6,110.1-29.9,47.9-52.2,108.1-56.5,172.6-7.1,105.9,29.4,193,65.5,255.9,10.5,18.4,28.3,36.7,26.8,59.5-18.1-3.2-26.6-23.6-35.7-35.7-31.4-41.8-57.3-86.1-74.4-139.9-28.2,43.4-10,99.4,6,139.9,8.3,20.9,17.2,55.6,38.7,47.6,16.9-5.4-9.4-38.5,11.9-41.7,24.6,43.8,28.7,108.1,50.6,154.7,2.6-18.3-3.5-45.1,17.9-44.6,8.5,16.1,4.7,38.7,3,59.5-1.7,20.7-3.6,43.9-6,65.5-3.6,32.7-5.5,97.6-20.8,119-11.4,15.9-61.5,35.7-83.3,47.6-32.2,17.6-59.3,33.4-83.3,47.6-62.6,37.1-114.8,72.3-166.6,98.2-15.2-.2,0-22.8-11.9-14.9-53.5,7.4-100.8,14.1-142.8,35.7-37,19-67.5,53.2-95.2,83.3-29.9,32.5-58.3,61.8-80.3,98.2-50.9,83.6-49,223.4-29.7,348.2,3.1,4.5,10.7-23,23.8-8.9-48.7,110.8-98.7,227.2-107.1,363-5.6,90.5,7.7,173.4,3,264.8-3.1,61.3-25.4,112.1-38.7,169.6-13.7,59.4-24.5,125.6-20.8,190.5,3.2,56.3,18.1,116.8,32.7,175.6,13.8,55.2,28.7,113,47.6,163.7,29.4,78.7,67.4,148.2,89.3,223.2,8.5,28.9,6.5,62,17.9,89.3,8.2,19.6,24.9,33.8,29.7,53.6,6.7,27.3,2.9,67.7,0,104.2-2.5,31.4-4.6,65.8-6,95.2-.8,18.5-5.7,35.9-3,53.6,5.9,38.1,37.4,51.5,59.5,86.3,11.7,18.4,21.1,45.2,35.7,50.6,49.2,18.3,107.2-41.3,130.9-68.4-6-96.2-7.6-196.8-8.9-297.6-28.2-34.2-60.6-54.7-74.4-98.2-6.8-21.7-3.8-49.7-6-77.4-5.8-75.7-26.4-150.2-20.8-226.1,5.1-69.8,25.2-138.2,38.7-205.3,32.5-162.5,26.2-303.2-23.8-440.4-6.3-5.3-9.5,30.7-23.8,17.9.1-30.6,12.3-61.6,20.8-92.3,17.7-63.9,32.7-124.8,44.6-196.4,5.2-31,19.3-76.3,17.9-104.2-.8-15.1-10.1-36.7-14.9-56.5-13.4-55.4-18.7-132.5-35.7-178.5-7.3-19.7-21.3-34.7-26.8-53.6-5.1-17.7-7-39.8-8.9-59.5-2.1-21.9-8.4-51,6-56.5,13.5,10.1,12.1,28.6,14.9,41.7,3.2,15.3,7.2,29.2,11.9,44.6,8.9,29.1,23.7,54,32.7,80.3,21.1,61.5,20.9,126.7,35.7,187.5,14.4,58.8,31.1,118,53.6,172.6,39.1,95,98.2,168.8,128,264.8,3.7,11.9,12,29.1,3,41.7-21.6-2.2-17.3-30.3-29.8-41.7-8.3,88-11.9,200.7,14.9,270.8-55.5,98.7-92.7,244-77.4,395.8,2.4,23,10.4,47.2,0,68.4-19.1-.7-10.5-29.2-20.8-38.7-16.4,48.8-43.5,91.6-47.6,148.8-3.6,50,11.9,101.1,17.8,154.7,9.1,82-.8,158.5,3,241,7.1,156.3,33,309.4,62.5,449.3,30.4,144.2,72,274.6,127.9,383.9,2.2,12.8-27,4.2-17.9,14.9-4.8,90.1,13.2,183.2,23.8,267.8,9.3,6.4,10.7-33.7,26.8-20.8,2.9,17.9-6.6,35.8-11.9,50.6-42.7,118.5-76.9,264.7-83.3,410.6-7.6,171.9,33.1,326.9,86.3,473.1,25,68.7,50.1,139.9,68.4,211.3,19.7,76.9,39.2,157.5,44.6,238,1.8,27.4,6.9,96.8,3,119-3.6,20.6-26.5,49.3-41.6,68.4-30.4,38.4-59.3,74.2-92.3,104.2-16.2,14.7-42.4,25.5-41.7,50.6,57.4,28.9,138.3-12.1,202.3,6-29.4-28.2-15-83.4-3-116.1,6.4-17.2,12.3-36.9,23.8-41.7,8.4,36-18.6,80.6-8.9,119,6.3,25,31.8,30.9,47.6,47.6,38.8-5.5,75.7,8.7,101.2-6,39.7-22.8,10-105.8,0-157.7-8-41.3-14.1-85.2-17.9-122-14-136.8-27.5-276.1-20.8-422.5,9.3-205.5,98-378.6,83.3-580.2-4.8-65.4-29.2-129.7-44.6-193.4-12.2-50.2-20.9-100.3-29.8-148.8-2.6-14.3-12.1-36.7,3-47.6,15.9,6.9,10.2,35.4,20.8,47.6,4.4-54.1,15.1-102.6,11.9-154.7-4.3-68.6-28.4-134.1-23.8-208.3,5.2-84.7,22.5-170.2,32.7-258.9,25.6-223.4,29.2-461,23.8-705.2-12.2,4-24.4,16.6-38.7,23.8-47.1,23.8-102.8,28.3-160.7,23.8-126.7-9.8-244.3-89.1-247-199.4,19.8,8.8,26.2,33.1,38.7,50.6,11.7,16.4,24.3,36.6,38.7,50.6,76.5,74.8,262.9,93.7,345.2,32.7,22.8-16.9,31.6-42.7,56.5-62.5,40.4,133.1,296.6,120.8,389.8,29.8,21.7-21.2,41-54.1,56.5-77.4,5.7-8.5,7-27.6,23.8-23.8-16.3,122.7-127.1,190.4-252.9,199.4-77.2,5.5-128.2-9-169.6-32.7-9.8-5.6-22.4-17.3-23.8-8.9-4.9,239.6-2.1,483.5,23.8,699.3,10.8,89.8,25.1,176.5,29.8,261.9.8,14.7,1.1,29.9,0,44.6-7.7,106.2-44.5,209.8-8.9,315.4,5.8-17,2.3-43.3,20.8-47.6,9.5,13.8,2.8,32.5,0,47.6-9.5,52.2-17.9,99.7-29.7,148.8-15.6,64.6-40.1,129.2-44.6,196.4-13.5,201.4,74.3,374.4,83.3,580.2,2.3,52,2.6,107.7,0,163.7-5.8,127.3-16.4,262.8-38.7,377.9-8.1,41.9-24.1,88.2-20.8,119,5.9,56.1,64,42.7,125,44.6,13.2-19.7,38.2-22.3,44.6-47.6,10.2-40.4-21.5-90.1-6-119,14.1,27.2,41.9,76.9,35.7,119-2.4,16.4-14.3,25.4-14.9,38.7,43.1-14.8,99.1,6.6,145.8,6,18-.2,41.5-1.7,53.5-14.9-4.1-22.2-25.2-35.4-41.6-50.6-17.2-15.8-31.7-31.6-47.6-50.6-25.6-30.6-73.1-74.6-83.3-113.1-4.5-17-1.1-32.1,0-56.5,1.1-25.7-1.2-54,0-71.4,5.8-79.4,25.2-159.3,44.6-235.1,18.3-71.6,43.3-142.1,68.4-211.3,53.4-146.9,94.1-304.7,86.3-476.1-6.7-148.1-42.3-297.2-83.3-410.6-5.3-14.7-19.7-33.5-8.9-50.6,15.3-3.3,16.5,35.7,23.8,20.8,11.7-83.6,28.5-177.7,23.8-267.8,6-5.2-23.2-.4-17.9-14.9,58.8-107.6,97.4-240,128-383.9,29.9-140.4,55.6-292.5,62.5-449.3,3.8-87.4-6.4-160.4,3-241,6.3-54.2,22-104.8,17.9-154.7-4.7-56.6-30.5-100.2-50.6-145.8-3.2,14.4-3.5,45.1-20.8,35.7,3.2-70.3,11.4-140.1,5.9-211.3-7.4-96.8-52.8-181.5-80.3-252.9,13.3-28.5,18.6-72,20.8-116.1,2.6-51.3-.4-110-8.9-151.8-7.8,16-6.4,41.2-29.8,41.7,3.5-60.1,33.2-108.8,59.5-157.7,52.2-97.1,99-202.7,128-321.4,15.2-62.1,15.2-132.3,35.7-190.4,8.8-24.8,27.2-48.7,35.7-77.4,4.6-15.4,5.6-31.7,9-47.6,2.3-11.1,1.1-33.9,17.8-38.7,12.1,17,1.8,38.2,0,56.5-2,20.9.1,42.5-5.9,62.5-5.3,17.6-20.2,32.7-26.8,50.6-11.6,31.4-16.3,78.5-23.8,119-3.7,20.1-7.1,39.7-11.9,59.5-4.6,18.9-14.1,41.5-14.9,56.5-.8,14.3,6.3,33.6,8.9,50.6,14.1,91.6,31.4,173.6,53.6,252.9,9.2,33,26.4,65.6,17.9,92.3-14.2,4-15.8-32.1-20.8-17.9-52.1,139.4-55.4,279.8-23.8,437.4,13.7,68.6,33.9,137.6,38.7,208.3,5.1,76.6-15.7,151.9-20.8,229.1-1.3,20.4,3.1,38,0,56.5-5.1,31.3-24,47.5-41.7,68.4-14,16.6-34.8,33.5-38.7,47.6-6.2,22.6,1.1,50.8,0,74.4-3.4,75.3-4.5,156.7-8.9,223.2,28.5,26.5,70.6,71.1,119,68.4,29-1.6,32.6-32.7,47.6-56.5,17-26.9,44.7-41.5,53.6-62.5,9.4-22.3,4.1-50.8,3-77.4-1.3-29.3-3.4-60.9-6-92.3-2.7-33.8-6.9-70.4-3-98.2,3.3-23.5,24.5-39.6,32.7-59.5,10.9-26.1,9.7-57.9,17.9-86.3,7.5-26,16.7-52.5,26.8-77.4,39.8-98.1,81.9-199.6,110.1-312.4,14.9-59.6,29.9-120.8,32.7-178.5,3.2-63.7-7.2-128.6-20.8-187.5-13.5-58.5-35.9-110-38.7-172.6-2.5-55.6,4-118.8,6-163.7,6.8-155.8-32.9-279.1-77.4-380.9-11.8-27.1-28.7-53.1-29.8-83.3,16.7-9.1,17.1,24.2,20.8,8.9,8.2-67.8,16.7-142.6,11.9-208.3-5.4-73.7-32.2-135.3-77.4-187.5-18.6-21.5-42.8-44.9-65.4-68.4-23.1-24-47.3-49.8-71.4-62.5-42.1-22.1-100.5-29.1-148.8-35.7-5-6.2,4.6,18.2-11.9,14.9-72.5-42.7-164.4-100.8-247-145.8-25.7-14-71.2-32.4-83.3-50.6-17.2-25.9-16.3-77.2-20.8-119-2.3-20.9-4.2-41.5-6-62.5-1.5-19-8-47.1,6-59.5,19.8,1.1,9,32.6,17.9,44.6,10.5-38.8,22.5-84,32.7-119,3.8-13,4-30.7,17.9-35.7,17.4,6.8-10.5,40.5,11.9,41.7,20.8,5.2,27.4-29,35.7-50.6,16.4-42.8,36.5-99.7,3-136.9-13,54.9-43.1,105.1-71.4,142.8-8.8,11.8-21.4,34.7-38.7,29.8,17.6-38.9,42.7-75.8,59.5-119h-.2ZM1562.9,4732.8c3.5-.5,5.3.6,6,3-1.1,46,26.6,90.7,11.9,130.9-20-35.4-28.1-81.2-17.9-133.9h0ZM1735.5,4670.3c39.3,43.3,37.6,115.7,35.7,187.5-15.5-8.3-11.2-36.4-23.8-47.6.2-50.8-.8-100.3-11.9-139.9h0ZM1265.4,4732.8c3.5-.5,5.3.6,6,3,11.9,51.8-.9,91.7-14.9,130.9-22.7-36.5,13.2-88.4,8.9-133.9h0ZM1095.8,4670.3c8,11.8-4.2,19.6-6,32.7-4.3,31,2.5,72.7-3,104.2-1.7,9.5-8.2,17.4-11.9,26.8-3.3,8.2.1,25-11.9,23.8-2.9-72-1.6-140,32.8-187.5h0ZM1423.1,2069.6c2.5-.5,2.8,1.2,3,3-1.3,157.5,10.2,329.2,3,494-2.3,52.1,2.1,105.2-11.9,151.8-19.1-17.5-14.4-46.6-14.9-71.4-1.5-78.4-3.9-165.8,0-249.9,5.4-116.7,1.5-236.5,20.8-327.3h0ZM1411.2,888.3h6c11.3,7.1,5.7,24.9,6,35.7,1.3,63,14.9,141-3,193.4-.6-.4-2.5.5-3,0-34.9-32,6.1-155.2-6-220.2v-8.9h0ZM1536.1,819.8c-9.6,11.6-27.2,14.4-38.7,14.9-24.7,1-51.5-16.6-74.4-17.9-38.4-2.2-86.3,36.7-125,6,4.9-8,16.6-4.1,23.8-6,9.1-2.3,16.9-6.1,26.8-8.9,26.7-7.8,53.4-22.8,86.3-17.9,16.2,2.5,34.7,13.2,50.6,17.9,17.8,5.2,33.1,10.2,50.6,11.9h0ZM501.1,2489.5c-4.7,33.9-24.8,61.2-16.4,98.4-.7,27,27,56.1,30.6,77.6-7.3-12-58.3-50.3-57.9-68.9,7.3-36.8,20-94.4,43.7-107.1h0ZM614.8,2516.9c-11.9,18.7-6.1,48.1-11.2,78.4-2.9,17.3-28.1,11-28.1,32s-.7,22.1,1.1,20.8c24.6-18.2,43.7-25,43.7-61.2s2.8-30.3,0-40.4c-1.8-6.6-5.9-12.2-3-17.9,7-14-3.8-12.1-2.4-11.6h0ZM2210.8,2516.9c11.9,18.7,6.1,48.1,11.2,78.4,2.9,17.3,28.1,11,28.1,32s.7,22.1-1.1,20.8c-24.6-18.2-43.7-25-43.7-61.2s-2.8-30.3,0-40.4c1.8-6.6,5.9-12.2,3-17.9-7-14,3.8-12.1,2.4-11.6h0ZM2324.5,2489.5c4.7,33.9,24.8,61.2,16.4,98.4.7,27-27,56.1-30.6,77.6,7.3-12,58.3-50.3,57.9-68.9-7.3-36.8-20-94.4-43.7-107.1h0Z"/>
      <path class="cls-4" d="M792.9,1341.2c23.2-11.7,38.2-13.3,58.5-5.1,36.2,14.7,71.2,54.9,84.1,87.3,10.3,25.9,3.3,32.8-21.9,46-151.6,86.4-242,210.3-304.5,351.2-14.2,39.6-54.5,79.3-61.3-37.2-17.8-76.2-16.2-170.4,31.3-258.4,43.2-80.1,127.4-156.2,213.8-183.9h0Z"/>
      <path class="cls-3" d="M752.8,1655.7c2.7-29.6,103.1-140.1,144.1-121.3,42.4,9.4,24.2,127.6,58.5,203.6,14.8,61.2-93.5,88.1-131.1,62.5-43.1-27.3-77.6-106.6-71.4-144.8h0Z"/>
      <path class="cls-3" d="M586.5,1899.5c65.9-81.3,68.3-68.8,92.7-18.8,24.5,34.8,85.7,189.2,54.2,335.3-16.3,73.5-32.7,146.9-49,220.4-19.5,66.8-38.9,110.9-58.4-3.8-18.2-52.1-67.2-87.3-57.1-156.4,3.1-50.9-40.6-58.8-59.7-1.9-6.3,42.1-12.5,84.1-18.8,126.2-26.4,95.4-40.3,92.4-37.7-7.5-12.3-254.8,43.5-401.5,133.7-493.5h0Z"/>
      <path class="cls-3" d="M787.2,1929.9c-5.8-44-56-122.6,44.7-86.5,43.4,12.7,110.6-3.7,152.3-38.7,19.4-27.1,38.8-25.9,58.2,3.5,94.3,82.9,162.8,209.9,224.1,349.3,33.2,43.5,29.6,80.6,12.3,114.7-38.6,95.3-78.8,186.8-130.6,252.3-37.6,41-107.4,40.7-145-17.1-83.2-119.6-192-304.6-216.1-577.5h0Z"/>
      <path class="cls-3" d="M906,1326c-.9-27.1,265.1-79.2,411.9-87.4,57.1-5.8,70.8,3.6,73.4,44.7,8.7,273.5,13.1,544.9,0,808-3.4,81.6-22,207.1-70,79.2-60.1-147.8-207.3-366.7-332.4-464.6-19-15.2-39.3-53.7-32.2-83.7,10.2-49.1,84.8-93.4,90.8-130.4,4.9-33.2-15.7-35.4-46.1-57.1-35.3-31.7-98.8-71.1-95.4-108.6h0Z"/>
      <path class="cls-3" d="M1025.5,1238.6c98.2-65.8,196.3-74.6,208.4-111.2,33.6-136.9,13.2-227.3,30.6-243.3,14-26.2,85.5-20.4,98.6-5.6,31,48.7,5.1,172.4,9.7,257.2,0,37.1,6.9,71.4-47.2,80.6-65.7,4.6-149.6,10.7-262.5,37.5-74.1,24.1-82.9,13.4-37.5-15.3h0Z"/>
      <path class="cls-3" d="M1115.7,2589.3c-38.3,8.4-48.4,109.3,16.1,127.3,62,26.9,121.7,61.6,173.4,124.2,40.8,50.5,55.4,33.3,58.6-44.7,16.1-117.1,5.4-326.9,5.1-512-6-36.3-32.6-26.6-45-7.3-59.6,95.8-101.5,292.6-208.1,312.5h0Z"/>
      <path class="cls-3" d="M973.6,2605.4c16.9-24.2,86-35.1,83.5,0-4.4,30.7,2,65,8.5,95.7,2,27.9-71,93.3-87.2,48.5-12.1-28.6-20.6-80.1-4.8-144.2h0Z"/>
      <path class="cls-3" d="M1249.8,2939.1c-107.5,42.5-149.4,162-221.2,240.2-34.4,36.9-121.2,150.8-123.7-9.4,1-187.3,25.8-373.8,204.4-396,52.9-5.8,249.7,112.4,140.6,165.1h0Z"/>
      <path class="cls-3" d="M1286,2965.7c93.9-46.5,105.5,29.1,102.2,77.2-1.7,151.2-3.3,302.3-5,453.5-8.3,55.6-26.6,123.7-162,134.6-199.3,23.3-356.3-287.4-229.2-361.3,113-44,188.5-262.5,294-304h0Z"/>
      <path class="cls-3" d="M567.2,2767c8.4-79.5,30.9-61.9,48.9-99.9,30.6-64.7,86.3-106.2,103.8-21.7,63,234.3-98.4,461.6-21.4,724.6,12.6,48.8-4.4,181.3-41,23-30.1-208.7-88.1-402.6-90.3-626h0Z"/>
      <path class="cls-3" d="M419.5,2707.8c29.1-88.7,77-58.6,118.2,128.2,11.2,52.7,11.6,108.3,25.8,205.5,17.8,121,50.7,289.2,79.2,395.9,15.6,78.6-16.1,107.1-72.2-27.9-76.9-255.4-203.9-487.2-151-701.6h0Z"/>
      <path class="cls-4" d="M2040.6,1341.2c-23.2-11.7-38.2-13.3-58.5-5.1-36.2,14.7-71.2,54.9-84.1,87.3-10.3,25.9-3.3,32.8,21.9,46,151.6,86.4,242,210.3,304.5,351.2,14.2,39.6,54.5,79.3,61.3-37.2,17.8-76.2,16.2-170.4-31.3-258.4-43.2-80.1-127.4-156.2-213.8-183.9h0Z"/>
      <path class="cls-3" d="M2080.7,1655.7c-2.7-29.6-103.1-140.1-144.1-121.3-42.4,9.4-24.2,127.6-58.5,203.6-14.8,61.2,93.5,88.1,131.1,62.5,43.1-27.3,77.6-106.6,71.4-144.8h0Z"/>
      <path class="cls-3" d="M2247,1899.5c-65.9-81.3-68.3-68.8-92.7-18.8-24.5,34.8-85.7,189.2-54.2,335.3,16.3,73.5,32.7,146.9,49,220.4,19.5,66.8,38.9,110.9,58.4-3.8,18.2-52.1,67.2-87.3,57.1-156.4-3.1-50.9,40.6-58.8,59.7-1.9,6.3,42.1,12.5,84.1,18.8,126.2,26.4,95.4,40.3,92.4,37.7-7.5,12.3-254.8-43.5-401.5-133.7-493.5h0Z"/>
      <path class="cls-3" d="M2046.3,1929.9c5.8-44,56-122.6-44.7-86.5-43.4,12.7-110.6-3.7-152.3-38.7-19.4-27.1-38.8-25.9-58.2,3.5-94.3,82.9-162.8,209.9-224.1,349.3-33.2,43.5-29.6,80.6-12.3,114.7,38.6,95.3,78.8,186.8,130.6,252.3,37.6,41,107.4,40.7,145-17.1,83.2-119.6,192-304.6,216.1-577.5h0Z"/>
      <path class="cls-3" d="M1927.5,1326c.8-27.1-260-79.2-403.9-87.4-56-5.8-69.4,3.6-72,44.7-8.5,273.5-12.8,544.9,0,808,3.3,81.6,21.6,207.1,68.7,79.2,58.9-147.8,203.3-366.7,325.9-464.6,18.7-15.2,38.5-53.7,31.6-83.7-10-49.1-83.2-93.4-89.1-130.4-4.8-33.2,15.4-35.4,45.2-57.1,34.7-31.7,96.9-71.1,93.6-108.6h0Z"/>
      <path class="cls-3" d="M1808,1238.6c-98.2-65.8-196.3-74.6-208.4-111.2-33.6-136.9-13.2-227.3-30.6-243.3-14-26.2-85.5-20.4-98.6-5.6-31,48.7-5.1,172.4-9.7,257.2,0,37.1-6.9,71.4,47.2,80.6,65.7,4.6,149.6,10.7,262.5,37.5,74.1,24.1,82.9,13.4,37.5-15.3h0Z"/>
      <path class="cls-3" d="M1718,2589.3c38,8.4,48,109.3-16,127.3-61.5,26.9-120.8,61.6-172.1,124.2-40.5,50.5-55,33.3-58.1-44.7-16-117.1-5.4-326.9-5-512,6-36.3,32.3-26.6,44.7-7.3,59.1,95.8,100.7,292.6,206.5,312.5h0Z"/>
      <path class="cls-3" d="M1860,2605.4c-16.9-24.2-86-35.1-83.5,0,4.4,30.7-2,65-8.5,95.7-2,27.9,71,93.3,87.2,48.5,12.1-28.6,20.6-80.1,4.8-144.2h0Z"/>
      <path class="cls-3" d="M1583.8,2939.1c107.5,42.5,149.4,162,221.2,240.2,34.4,36.9,121.2,150.8,123.7-9.4-1-187.3-25.8-373.8-204.4-396-52.9-5.8-249.7,112.4-140.6,165.1h0Z"/>
      <path class="cls-3" d="M1547.5,2965.7c-93.9-46.5-105.5,29.1-102.2,77.2,1.7,151.2,3.3,302.3,5,453.5,8.3,55.6,26.6,123.7,162,134.6,199.3,23.3,356.3-287.4,229.2-361.3-113-44-188.5-262.5-294-304h0Z"/>
      <path class="cls-3" d="M2266.3,2767c-8.4-79.5-30.9-61.9-48.9-99.9-30.6-64.7-86.3-106.2-103.8-21.7-63,234.3,98.4,461.6,21.4,724.6-12.6,48.8,4.4,181.3,41,23,30.1-208.7,88.1-402.6,90.3-626h0Z"/>
      <path class="cls-3" d="M2414.1,2707.8c-29.1-88.7-77-58.6-118.2,128.2-11.2,52.7-11.6,108.3-25.8,205.5-17.8,121-50.7,289.2-79.2,395.9-15.6,78.6,16.1,107.1,72.2-27.9,76.9-255.4,203.9-487.2,151-701.6h0Z"/>
      <path class="cls-3" d="M927.4,3652.2c3.8-62.5,49-4.4,100.5,26.2,45.4,27,101.1,7.8,95.4,83.7,10.2,214.6,39.4,457.7,30.7,643.8-3.7,122.9-45.8,192.8-69.3,204.8-23.6,12-47.5-27.4-71.8-103.8-62.1-251.7-114.4-537-85.4-854.7h0Z"/>
      <path class="cls-3" d="M1167.1,3721.4c19.3,2.1,28,2.5,55.5,3.7s52.4-12.5,53.9,11.5c48.1,298.7,58.5,576.7,19.5,819.1-8.6,72.2-30.2,75.9-46.7,67.4-16.5-8.6-34.3-58.5-54.3-180.9-23.4-311.2-42.3-594.1-39.5-687.3.4-14.6-1-35.1,11.6-33.4h0Z"/>
      <path class="cls-3" d="M1070.5,4951.1c50.4-116.6,81.6-92.1,80.1,60.1-11.9,164.8-23.7,343-8.9,521.2,9.6,89.1-123.1,131.4-144.6-46.8-10-195.4,12.3-374.7,73.4-534.5h0Z"/>
      <path class="cls-3" d="M1200.9,4994.6c26.8-150.5,63.1-98,103.8,46.7,53.9,228.2,74.6,442.1,22.5,624.2-53.6,189.6-140.1,11-148.7-84.7-12.7-211.5-6.3-406.9,22.5-586.2h0Z"/>
      <path class="cls-3" d="M1903.9,3652.2c-3.8-62.5-49-4.4-100.5,26.2-45.4,27-101.1,7.8-95.4,83.7-10.2,214.6-39.4,457.7-30.7,643.8,3.7,122.9,45.8,192.8,69.3,204.8,23.6,12,47.5-27.4,71.8-103.8,62.1-251.7,114.4-537,85.4-854.7h0Z"/>
      <path class="cls-3" d="M1664.2,3721.4c-19.3,2.1-28,2.5-55.5,3.7s-52.4-12.5-53.9,11.5c-48.1,298.7-58.5,576.7-19.5,819.1,8.6,72.2,30.2,75.9,46.7,67.4,16.5-8.6,34.3-58.5,54.3-180.9,23.4-311.2,42.3-594.1,39.5-687.3-.4-14.6,1-35.1-11.6-33.4h0Z"/>
      <path class="cls-3" d="M1760.8,4951.1c-50.4-116.6-81.6-92.1-80.1,60.1,11.9,164.8,23.7,343,8.9,521.2-9.6,89.1,123.1,131.4,144.6-46.8,10-195.4-12.3-374.7-73.4-534.5h0Z"/>
      <path class="cls-3" d="M1630.4,4994.6c-26.8-150.5-63.1-98-103.8,46.7-53.9,228.2-74.6,442.1-22.5,624.2,53.6,189.6,140.1,11,148.7-84.7,12.7-211.5,6.3-406.9-22.5-586.2h0Z"/>
    </g>
  </g>
</svg>