<?xml version="1.0" encoding="UTF-8"?>
<svg id="_ÎÓÈ_1" data-name=" ÎÓÈ 1" xmlns="http://www.w3.org/2000/svg" xmlns:xlink="http://www.w3.org/1999/xlink" version="1.1" viewBox="0 0 2834.6 2834.6">
  <defs>
    <style>
      .cls-1 {
        clip-path: url(#clippath);
      }

      .cls-2 {
        fill: none;
      }

      .cls-2, .cls-3, .cls-4, .cls-5, .cls-6 {
        stroke-width: 0px;
      }

      .cls-3 {
        fill: #ececec;
      }

      .cls-3, .cls-4, .cls-5, .cls-6 {
        fill-rule: evenodd;
      }

      .cls-4 {
        fill: #32a1d8;
      }

      .cls-5 {
        fill: #868686;
      }

      .cls-6 {
        fill: #c6c6c5;
      }
    </style>
    <clipPath id="clippath">
      <rect class="cls-2" x="-1.7" y="2.1" width="2838.1" height="2830.3"/>
    </clipPath>
  </defs>
  <g class="cls-1">
    <g>
      <path class="cls-5" d="M1701.1,506.1c66.9.5,74,79.3,55.8,152-14.9,59.5-41.3,110.5-90,127.2-15.5,72.4-16.2,159.6-24.8,238.9,18.4,25.8,48.9,38.9,74.5,55.8,76.2,50.8,153.2,108.1,229.7,161.3,87.2,8.3,185.4,17.9,254.4,49.7,61.9,28.6,104.1,76.2,139.7,133.4,33.2,53.3,71.3,121.2,77.5,192.4,7.2,82-2.7,181.8-18.6,254.4-5,22.9-18.3,50.1-18.6,71.4-.3,16.6,10,45.3,15.5,68.3,25.3,103.5,40.5,227.1,31.1,366.1-3.3,49.5-16.1,102.4-12.5,148.9,3.2,40.5,26.7,82.2,40.3,118,15.9,41.8,26.3,80.2,31.1,127.2,9.5,93-3.2,190.6-21.7,282.4-26.1,129.4-49.7,266.3-62,412.7-4.2,49.5-10.9,102.6-9.2,148.9,1.7,46.2,16.9,95.8,24.8,142.7,10.4,61.7,32,128.5,12.5,183-6.4,17.9-15.1,25.6-31.1,43.4-10.7,12-16.8,29.9-28,43.4-10.4,12.7-26.7,18.9-40.3,34.1-17.6,19.6-24,34.5-34.1,37.2-28.5,7.8-67.7-5.3-93.1-12.5-22.9-6.4-57.1-16.3-71.4-31.1-16.6-17-14.8-42.3-24.8-62-11.8-23.3-31.1-25-43.4-40.3-31.9,242.9-66.6,479.7-152,676.5-15.5,35.6-35.9,71.2-40.3,114.8-4.9,47.4,4.1,96.1-3.1,145.8-3.1,21.3-12.9,43.9-12.5,65.2.9,38.2,20.9,80.2,31.1,121,28.3,114.1,55.2,247.9,55.8,391,.9,189.6-51.8,360.4-99.2,521.3-32.9,111.7-67.7,242.8-90,375.5-8.6,51.1-24.4,108.4-15.5,155.2,7.5,39.4,39.8,80.4,68.3,118,21.7,28.6,38.2,48.4,68.3,71.4,10.3,7.9,21.5,22.1,31.1,24.8,49.1,13.8,110,27.9,108.6,74.5-.8,27.1-20.5,39.2-68.3,40.3-35.2.9-70.3,0-105.5,0-72.2,0-151.4,10.8-211,3.1-16.6-2.2-30.3-13.5-52.8-15.5-51-4.7-100.1,12.6-118-15.5-22.7-35.6,29.2-137.1,28-180-.7-24.8-13-49.9-12.5-74.5.9-37.5,19.3-77,24.8-118,26.5-198,17.9-472.1-18.6-660.9-14.9-77-44.6-148.9-49.7-232.7-10.5,18-8.5,38.8-12.5,58.9-10.8,57.1-29.4,114.1-40.3,173.8-34.6,190-41.9,458.3-12.4,660.9,3.1,21.2,6.8,38.1,12.4,58.9,4.7,17.1,11.6,38.8,12.5,55.8,1.1,26.1-12.3,50.6-12.5,74.5-.4,63.7,46.5,116.9,31.1,183-14.4,26.8-74,13-114.8,15.5-24.7,1.6-38.9,15.5-68.3,15.5h-201.7c-67,0-161.5,10-170.6-28-10.5-43.8,35.1-67.4,65.2-77.5,10.6-3.6,24.4-3.9,37.2-9.2,37-15.4,78.5-60.4,102.4-93.1,21.9-29.9,61.9-82.5,68.3-124.1,6.5-43.3-6.8-96.8-15.5-145.8-22.9-127.4-59.5-267.9-93.1-381.6-47.4-160.8-105.5-326.3-105.5-527.5s33.4-309.4,68.3-446.8c4.8-18.9,14.8-39.1,15.5-55.8,1.6-35.1-15.8-73.5-18.6-111.7-3.1-42.9,3.8-96.9-6.2-133.4-15.5-56.8-49.1-109.6-68.3-170.6-54.1-172.2-103.1-380.2-121-586.5-10.4,1.6-27.7,14.4-37.2,24.8-15,16.3-16.5,60.7-34.1,77.5-17.3,16.6-49.4,21.1-74.5,28-34.7,9.4-83.2,29.4-108.6,0-3.8-4.5-5.3-17-12.4-24.8-11.3-12.3-28.2-19.5-40.3-34.1-25-30.1-51.1-53.4-62-83.8-16.2-45.2-1.6-113.3,9.2-176.9,8-46.9,21.7-94.9,24.8-133.4,3.7-46.7-4.8-99.7-9.2-152-12.4-144.4-35.2-285.2-62-418.9-18.2-90.9-38.6-180.7-28-285.5,4.8-47,16-88.4,31.1-130.3,14-38.9,37.3-79.3,40.3-118,3.5-45.3-12.6-95.7-15.5-145.8-7.7-132.4,2.9-261.4,28-369.3,5.2-22.2,15.5-46.5,15.5-65.2s-10.3-46.5-15.5-68.3c-14.9-62.5-25.5-146-24.8-226.6.6-85.7,35-155.2,71.4-217.2,34-58.1,82.3-116.4,142.7-145.8,52.1-25.4,119.7-35.3,183-43.4,20.8-2.7,28.3-.2,50-6.2,22.3-6.1,67.2-30.2,89.7-46.6,70.2-50.9,147.4-95.2,223.1-145.8-12.5-84.8-9.5-185-28-263.8-8.5-11.6-36.8-17.3-49.7-34.1-10.6-14-33.8-66.7-40.3-90-19-67.4-15.7-159.6,55.8-155.2-5-41.7-15.1-78.3-15.5-114.8-1.2-96.1,60.2-180.8,124.1-226.6,45.2-32.3,113.3-63.3,176.9-68.3,138.5-10.9,279.8,98.1,316.8,223.4,18,60.6,3.8,118-6.2,183h0v.4h0ZM1946.3,2405c-10.2,22.1-29,45.7-31.1,62-1.8,14.3,3.9,41.9,6.2,62,9.7,87.4,21.5,187.9,3.1,266.9,62,98.6,43.2,242.1,65.2,369.3,7,40,19.4,80.5,28,118,37.6,166.1,36.2,349,49.7,533.7,16.1-57.2,57.7-105.6,77.5-167.5,11.5-35.9,16.6-82.5,21.7-127.2,5.2-45.1,12.8-95,12.5-139.7-.5-67.2-26.5-125.4-49.7-189.3-21.1-58.4-39.2-122.4-55.8-183-30.1-109.4-30.6-214-6.2-313.4,12.4-50.4,36.4-126.2,24.8-186.1-9.1-47.7-35-96.2-46.6-148.9-11.2-51.3-18.9-123.9-28-173.8-18.9,70.8-41.7,152.7-71.3,217.2h-.1ZM785.7,2373.9c-11.6,54.6-41.3,103.8-46.6,155.2-8.1,79,22,125.5,34.1,183,26.2,124.3,9.7,245.2-24.8,353.8-15.7,49.3-28.3,103.6-46.6,155.2-19.6,55.4-39.8,105.2-40.3,164.4-.4,40.5,7.1,82.7,12.5,124.1,5.4,41.7,8.7,84.3,18.6,121,18.5,69.1,58.2,127.6,86.9,189.3,6.9-185.1,6.1-362.7,37.2-511.9,10.7-51.3,27.4-102.7,34.1-148.9,14.7-100.7,6.4-201.7,31.1-285.5,7.9-26.9,25.9-54.8,28-80.6,2.1-26.1-8.2-54.4-9.2-80.6-3.6-82.2,8.8-164,18.6-245.2-51.4-76.8-75.9-180.6-108.6-276.1-6.3,63.8-12.4,124.7-24.8,183h0ZM1415.6,3717.5c-3.7,299.9-6.1,591.7-43.4,856.4-5.3,37.8-23.2,75.5-21.7,108.6,1,24.8,17,51.3,21.7,77.5,11.4,63.7,10.5,138.2,3.1,201.7-4.3,36.9-17.3,68.9-15.5,105.5,2.4,49.7,23,93.3,37.2,139.7,15.1,49.1,24,97.1,31.1,145.8-3-101.8,68.8-192.8,65.2-301-1.4-39.5-16.2-78.6-18.6-118-3.2-51.3-5.6-108.1,0-158.3,3.6-32,24.6-64.9,24.8-96.2.2-31.9-15.9-68.5-21.7-105.5-41.9-265-44.6-565.9-49.7-859.5-4.2,1-5.9,4.4-12.4,3.1h-.1Z"/>
      <path class="cls-6" d="M1204.4,1185.5c-14-6.1-15.4-28.4-18.6-43.4-3.9-18.7-6.9-38-9.2-55.8-81.5,45.7-180.4,103.3-255.9,155.2,49.2,4.2,65.3,25.9-7.6,31.1-142.3,6.8-275.2,27-347.5,99.2-52.5,52.5-120.5,168-127.2,257.5-6.2,82.1,6.7,181.4,21.7,245.2,5.8,24.7,15.1,50.6,15.5,74.5.7,42.6-19.1,89.9-28,136.6-18.2,95.9-21.1,199.7-12.5,307.2,4.3,53.4,19.2,106.7,12.5,155.2-6.2,44.6-34.8,85.6-49.7,130.3-36.9,111.3-23.5,236.7,0,353.8,32.2,160.4,60.6,317,74.5,487.1,2.9,35.6,7.6,75.1,6.2,108.6-1.9,45.2-17.1,95.9-24.8,142.7-3.8,23.3-8.9,47.4-12.4,71.4-3.7,26-9.2,55.5-6.2,77.5,5.8,41.6,49.5,59,65.2,99.2,29.3,5.5,39.2,49.6,62,55.8,29.1,8,118.2-23.8,130.3-37.2,14.1-15.6,11.6-44.6,21.7-62,16-27.9,44.2-30.5,49.7-52.8,5.6-23.1-5.4-77.2-18.6-108.6-24.6-58.4-63.7-105.5-80.6-167.5-8.4-30.6-10.8-68.9-15.5-108.6-4.4-37.2-13.3-75.7-15.5-111.7-5.1-83,9.4-139.7,31.1-198.6,14.8-40,28.4-78.8,40.3-118,23.9-78,53-164.2,52.8-260.6,0-41.3-4.6-84.9-12.5-124.1-7.2-36.3-23.5-69.7-31.1-105.5-21.3-101.5,23-167.4,40.3-245.2,25.7-114.4,32.4-249.3,31.1-384.7-.2-16.4-7.1-40.3,2.7-55.9-48.1-86.5-91.4-247.7-77.7-273.2,18.3-65.8,41.9-94.2,73.5-123.4-12.1,29.9-24.1,59.9-36.2,89.7-10,30.8-11.6,61.5-5,92.2,24.3,135,80.3,221.8,174.4,250.5,71,11.6,145,2.9,219.3-8.7-63.8,32-149.2,44.9-272.9,23.7-27.5-7.4-37-13-48.7-22.4-.2,10.4-1.7,21.4-1.7,30.8,0,28.6-2.4,61.9,0,83.8,4.4,39.5,20.2,82.3,31.1,121,28.8,102.4,64.2,195.9,105.5,279.3,8.1,16.5,22.6,33.3,18.6,52.8-13.1,13.9-20.9-30.5-28-12.4-20.2,129.3-10.4,269.3,21.7,372.4,5.5,17.9,20.8,37.6,12.4,55.8-20.4-3.9-23.2-26.9-31.1-43.4-7.9-16.6-17-34.4-24.8-49.7-18.4,48.9-23.6,99.6-28,152-4.7,56.6-3.2,117.4-12.4,170.6-5.1,29.8-15.3,60.7-21.7,90-20.6,93.1-37.2,192.1-40.3,304.1-4.1,146.4-20.2,296.4-3.1,440.5,23.3,196.5,71.6,387.1,127.2,555.4,18.9,57.1,55.9,108.6,65.2,164.4,6,36.4-2.3,67.9,0,102.4,2.5,36.3,9.2,73,15.5,105.5,6.4,33.6,21.2,64.6,18.6,96.2-14.5,16.8-27.6-19.1-31.1-3.1-72.7,238.8-88.8,509.1-18.6,763.3,55.6,201.4,119.1,388.4,155.2,608.2,5.5,33.5,13.5,68.9,12.5,99.2-1.5,43.3-16.5,69.8-34.1,99.2-27.7,46.4-60.9,86.9-96.1,118-5.3,4.7-23.4,18.6-12.4,18.6,18.8-1.7,41.1,2.3,62,3.1,20.5.7,44.9-5.5,58.9,6.2-23,11.7-55,9.6-86.9,12.5-72.1,6.3-149.8,2.2-167.5,55.8,27.3,11.1,57.6,6.2,86.9,6.2s62.5-.4,93.1,0c60.1.8,121.1,8.2,176.9,0,14.4-2.2,26.5-10.6,40.3-12.4,36.1-4.8,69,6,102.4-3.1,6.1-63.4-34.8-108.8-34.1-167.5.3-23.9,13.7-47.8,12.4-74.5-1.5-28.9-16.1-55-21.7-83.8-6-31.2-6.4-65.3-9.4-96.2-19.3-206-14.8-404.2,21.7-601.9,11.5-62.8,29.8-118.1,40.3-173.8,24.5-129.8,13.6-271-21.7-381.6-17.4-54.4-41.1-115.3-40.3-173.8.4-38.9,16.2-75.7,18.6-111.7,3.3-49.2,4.7-102,0-152-2.9-31.5-22.1-63.2-24.8-96.2-4.2-51,15.7-84.9,21.7-130.3,36-271.8,38.8-568.5,43.4-868.8,19.6-5.5,59.7-6.3,71.4,6.2-2.5,296.3,10.4,600.6,46.6,856.4,5.2,36.8,18.7,73.2,21.7,108.6,4.1,48.8-15.4,67.8-21.7,102.4-12.9,70.3-6.2,162.1,6.2,223.4,4.7,23.3,12.5,45.2,12.5,68.3,0,58.5-23.2,115.3-40.3,170.6-36.7,118.3-37.6,250.9-15.5,375.5,9.8,55.2,28.2,110.8,40.3,173.8,25.8,132.8,32.7,261.8,34.1,391,1,104.1-1.5,210.5-15.5,301-4.5,29-19.1,56.7-21.7,86.9-2.7,30.6,12.5,54.5,12.4,83.8,0,25-12.3,55-18.6,80.6-6.7,26.8-16.4,52.9-15.5,83.8,32.1,14.3,67.7-3.2,108.6,3.1,12.6,1.9,24.1,10.5,37.2,12.4,54,7.9,120,0,180,0s93.4-1.1,130.3-3.1c12.4-.6,31.1,5.8,40.3-6.2,7.5-19.1-15.4-27.9-28-34.1-43.3-21.6-134.1-18.3-186.1-24.8-12.4-1.6-31.1,4.1-37.2-9.2,34.8-8.6,81.2-5.7,124.1-6.2-23.2-27.9-55.4-54.6-80.6-90-34.5-48.4-70.8-97.4-65.2-176.9,8.4-119.5,41.9-239.3,71.4-356.8,28.1-111.6,63.2-222.9,93.1-338.2,62.9-242.5,46.1-501.3-28-750.9-9.4-9.7-3,10.2-12.4,9.2-7,7-15.6-.2-21.7-3.1,9-59,29.2-116.8,34.1-186.1,2.5-35.3-4.4-73.2,0-111.7,6.1-54.6,42.9-110.7,62-167.5,57.2-170.1,103.6-364.5,124.1-564.7,15.2-147.8-1-294.9-6.2-440.5-3.9-111.3-20.2-212.2-40.3-304.1-7.1-31.8-20-61.5-24.8-93.1-15.7-101.6-3.8-214.8-40.3-310.3-11.2,2.1-8.4,16-12.4,24.8-3.7,8.2-11.1,15.9-15.5,24.8-7.5,15.3-10.9,45-31.1,40.3,1.1-29.4,16.3-60,24.8-93.1,26-100.8,25.3-227.5,6.2-338.2-8.2-7.1-11.7,30.1-28,15.5,9.1-35.5,27.5-69.4,43.4-105.5,31-70.2,55.7-141.2,77.5-220.3,11-39.8,26.9-80.6,31.1-121,2.2-21.6,0-56.4,0-86.9s-1.7-23.9-1.6-36c-15.3,12.8-22.9,19-55,27.6-123.7,21.2-209,8.3-272.9-23.7,74.3,11.6,148.3,20.4,219.3,8.7,94.2-28.7,150.1-115.5,174.4-250.5,6.7-30.8,5-61.5-5-92.2-12.1-29.9-24.1-59.9-36.2-89.7,31.6,29.2,55.3,57.6,73.5,123.4,13.3,24.8-27.1,177.4-73.5,265.4,15.4,18.2,7.8,46.6,7.8,66.8,0,147,7.9,279.3,37.2,391,12,45.7,33.4,88.2,40.3,130.3,12,72.3-15,135.7-28,189.3-7.7,31.7-13.5,65.1-15.5,99.2-8.1,139.1,41.8,269.8,77.5,375.5,27,79.5,56,143.5,49.7,245.2-4.9,79.1-18,194.2-46.6,263.8-26.9,65.5-96.9,161.3-80.6,229.6,7,29.4,39.6,31.6,52.8,55.8,9.7,17.8,7.2,47.3,21.7,62,29.3,29.9,89.6,25.4,130.3,37.2,11.5-9.8,19.6-22.2,31.1-34.1,11-11.4,24.3-19.1,34.1-31.1,4.5-5.5,5-15.9,9.4-21.7,14.2-19.4,40.3-34.8,46.6-55.8,12.5-42.5-7-106.4-15.5-158.3-7.9-48.1-21.5-96.3-24.8-139.7-5.1-68,4.9-146.7,12.5-220.3,7-68.5,17.1-138.6,28-204.7,22.8-138.7,66.2-270,55.8-412.7-3.5-47.9-17.1-93.8-34.1-139.7-16-43.1-41.2-89.4-43.4-130.3-2.5-45,12.6-95.7,15.5-145.8,6.2-105.8,3.2-209.9-15.5-301-9.4-45.6-31.5-93.1-31.1-133.4.2-21.9,10-45.1,15.5-68.3,16.1-67.3,26.6-154.6,21.7-232.7-3.7-60.1-25.8-113.6-52.8-161.3-27-47.8-53.4-91-90-124.1-81.1-73.4-209-73.5-341.3-90-64.3-5.1-55.6-27.2-12.4-28-87.7-55.1-164.4-121-257.5-170.6-3.4,18.4-10.7,39.7-15.5,62-4.1,19,0,50.9-21.7,55.8,7.5-82.5,14.9-165,21.7-248.3-48.6,39-89.2,110.1-152,136.6-41.3,17.4-81.6,20.6-130.6,0-64.4-27.1-97.9-89.7-148.9-136.6-1.9.2-3.7.5-3.1,3.1,5,80.9,19,169.2,18.6,245.2h0v.2h0ZM1365.1,2675.3c24.4-58.8,77.1-53.2,97.2.7-59.5-53.3-91.5,22.8-97.2-.7h0ZM1277.8,1300.4c16,3.3,28.1,8,44.5,8,25.6,0,48.6,11.5,55.7,35.9,2.2,7.4,28.7,69.9-4.8,32.5-12.9-14.4-11.3-41.3-38.6-45.9-14.8-2.5-70.6-31.8-56.8-30.3h0ZM1545.3,1300.4c-16,3.3-28.1,8-44.5,8-25.6,0-48.6,11.5-55.7,35.9-2.2,7.4-28.7,69.9,4.8,32.5,12.9-14.4,11.3-41.3,38.6-45.9,14.8-2.5,70.6-31.8,56.8-30.3h0ZM1176.4,4619c34.2,55.9,112.2,85,117.1,58.1,3.1,5.4,16.9,30.8-24.3,33.3-18.6,0-54-21.3-67.3-34.6-13.3-13.3-22.3-37.8-25.5-56.7h0ZM1137.9,4649.8c-24.8,25.6-39.4,40.7-80.4,44.8,8.2,8.6,17.9,19.2,52.7,12,25.9-15.6,28.5-35.9,27.9-56.6h-.1ZM1077.8,4804.4c6.8,68.7,14.8,154.7,51.9,187.3,13.3,13.9,40,19.7,72.9,28.2-30.2,12.5-72.5,5.5-104.7-15.1-28.7-18.4-45.1-181.6-20.1-200.4h0ZM1296,4766.3c-.4,36.4.3,168.5-15.3,201-7.6,15.8-29.3,30.1-46.7,35.5,30.2,12.5,26.3,13.7,58.4-6.9,28.7-18.4,28.7-210.9,3.5-229.7h0ZM1679.2,4619c-34.2,55.9-112.2,85-117.1,58.1-3.1,5.4-16.9,30.8,24.3,33.3,18.6,0,54-21.3,67.3-34.6,18.2-18.2,22.3-37.8,25.5-56.7h0ZM1717.6,4649.8c24.8,25.6,39.4,40.7,80.4,44.8-8.2,8.6-17.9,19.2-52.7,12-25.9-15.6-28.5-35.9-27.9-56.6h.1ZM1777.8,4804.4c-6.8,68.7-14.8,154.7-51.9,187.3-13.3,13.9-40,19.7-72.9,28.2,30.2,12.5,72.5,5.5,104.7-15.1,28.7-18.4,45.1-181.6,20.1-200.4h0ZM1559.6,4766.3c.4,36.4-.3,168.5,15.3,201,7.6,15.8,29.3,30.1,46.7,35.5-30.2,12.5-26.3,13.7-58.4-6.9-28.7-18.4-28.7-210.9-3.5-229.7h0ZM1676.3,524.7c3.4-35.6,7.8-68,9.2-102.4,3.9-90.5-26.1-147.2-68.3-192.4-44.5-47.6-127.9-94.2-204.7-99.2-87.3-5.8-166.7,38.2-223.6,99.2-32.8,35.2-63.7,85.2-68.3,145.8-4.3,56.1,5.6,106.5,9.4,152,1,13.4,12.6,36.6-6.2,46.6-20.6,0-3.5-37.8-28-34.1-23.8,1-27.4,39-24.8,71.4,4.3,52.8,33.5,119.9,62,136.6-1.1-14.7.2-26.6,15.5-24.8,21.5,47,16.5,100.2,34.1,145.8,16.4,42.5,50,76.8,80.6,108.6,37.8,39.1,78.4,77.3,139.7,80.6,73.8,4.2,101.8-41.4,139.9-80.6,51.7-53.3,81.3-97,96.2-183,4.7-26.6,5-58.6,21.7-71.4,12.6-.2,13.4,11.4,12.4,24.8,29.6-17,76-116.8,62-180-3.1-14-15.5-32.1-28-28-19.8,6.7-2.6,29-28,34.1-13.1-14.2-4.6-34.6-3.1-49.7h.2Z"/>
      <path class="cls-4" d="M1017.5,1327.6c-159.2,70.3-306.6,214.6-406.7,463.8-19.1,9.9-47.8-4.9-28.4-130.1,28.1-104.3,15.4-164.5,122.9-314.7,88.2-93.5,333.5-54.7,312.1-18.9h0Z"/>
      <path class="cls-4" d="M704,1329.8c-118.1,116.1-174.2,351.1-141.5,510-24.2,88.3-52,143.4-70.8,90.8-72.6-285.4-13.8-459,121.5-570.1,16.8-12.5,81.7-42.8,90.7-30.7h.1Z"/>
      <path class="cls-3" d="M709.3,1796.4c-14.3-72.2-32.8-116.4-81.2,35.5-91.6,210.8-77.3,417.4-81.2,621.4,9.1,149.2,74.3,129.6,129.4,53.3,64.1-110.8,125.5-453.8,32.9-710.1h0Z"/>
      <path class="cls-3" d="M527.5,1967.7c39.9-51.5,48.3-42.1,25.3,28.4-23.9,148-39.1,294.7-20.5,476.5,0,58.5-46.8,77-61.5,29.9-31.5-220.5-38.1-419.9,56.7-534.9h0Z"/>
      <path class="cls-3" d="M451,2632.4c41.5-125.3,177.6-69.4,167.7,100.1,30.6,257.7-24,486.8,0,757.3-8.1,82-25.3,88.3-40.5,18.9-33.6-338.6-189-689.6-127.1-876.3h-.1Z"/>
      <path class="cls-3" d="M398.7,2857.2c17-118.9,24.9-11.1,36.3,53.7,35.2,219.2,114.3,430.7,129.4,646-1,47.7-46.9,58.7-64.7,41.1,1.5-215.4-112.9-662.1-101-740.7h.1Z"/>
      <path class="cls-3" d="M686,2603.1c-35.6-32.1-52-15.7-48.9,48.9,15.3,169.2,30,338.3-3.6,502.5-2.4,70.2,7.3,79.8,29,29,70.8-189.6,107.8-381.2,23.6-580.5h0Z"/>
      <path class="cls-4" d="M1809.1,1327.6c159.2,70.3,306.6,214.6,406.7,463.8,19.1,9.9,47.8-4.9,28.4-130.1-28.1-104.3-15.4-164.5-122.9-314.7-88.2-93.5-333.5-54.7-312.1-18.9h0Z"/>
      <path class="cls-4" d="M2122.5,1329.8c118.1,116.1,174.2,351.1,141.5,510,24.2,88.3,52,143.4,70.8,90.8,72.6-285.4,13.8-459-121.5-570.1-16.8-12.5-81.7-42.8-90.7-30.7h-.1Z"/>
      <path class="cls-3" d="M2128.3,1796.4c14.3-72.2,32.8-116.4,81.2,35.5,91.6,210.8,77.3,417.4,81.2,621.4-9.1,149.2-74.3,129.6-129.4,53.3-64.1-110.8-125.5-453.8-32.9-710.1h0Z"/>
      <path class="cls-3" d="M2310.1,1967.7c-39.9-51.5-48.3-42.1-25.3,28.4,23.9,148,39.1,294.7,20.5,476.5,0,58.5,46.8,77,61.5,29.9,31.5-220.5,38.1-419.9-56.7-534.9h0Z"/>
      <path class="cls-3" d="M2386.6,2632.4c-41.5-125.3-177.6-69.4-167.7,100.1-30.6,257.7,24,486.8,0,757.3,8.1,82,25.3,88.3,40.5,18.9,33.6-338.6,189-689.6,127.1-876.3h.1Z"/>
      <path class="cls-3" d="M2438.9,2857.2c-17-118.9-24.9-11.1-36.3,53.7-35.2,219.2-114.3,430.7-129.4,646,1,47.7,46.9,58.7,64.7,41.1-1.5-215.4,112.9-662.1,101-740.7h-.1Z"/>
      <path class="cls-3" d="M2151.6,2603.1c35.6-32.1,52-15.7,48.9,48.9-15.3,169.2-30,338.3,3.6,502.5,2.4,70.2-7.3,79.8-29,29-70.8-189.6-107.8-381.2-23.6-580.5h0Z"/>
      <path class="cls-3" d="M1171.7,1194.5c25.3,75.6,39.5,64.2-47.5,58.2-179.9-12.5-173.7-8.3-24-89.8,71-38.7,48.7-36.5,71.5,31.7h0Z"/>
      <path class="cls-3" d="M1215.5,1017c3.5,70.9,38,178.1,69.5,226.2,45.9,70.4,101.5,61.2,94.2,28.6-55.3-78.2-61.4-168.4-79.5-195.7-44.1-28.2-78.4-97.8-84.1-59.1h-.1Z"/>
      <path class="cls-3" d="M1085.1,1331c63.9-20.5,312.6,80.3,271.9,93.1-171,55-337,92.2-527.3,218.3-65.9,34.9-71.2,18.9-47.7-45.5,47.5-148.7,164.6-214.5,303.2-266.1h0Z"/>
      <path class="cls-3" d="M882.1,1628.1c-35.8,19-67.2,36.9-85.3,49.1-31.3,21-28.6,32,8.5,23.8,38.1-8.4,79.1-8.3,117.9-6,206.6,12.2,377.9,85.6,452.9,76.1,26.6,3.4,20.5-299.9-22.4-300.6-188.6,24.8-326.5,72.9-471.6,157.7h.1Z"/>
      <path class="cls-3" d="M840.6,1711.4c-71,4.4-71.4,14.5-66.1,67.4,22.4,81,70.6,153.6,144.1,168.5,158.7,32.1,375.6-43.9,403.5-48.8,37.6-12.4,84.1-51.7,24.3-85.9-146.6-70.3-421.9-111.8-505.9-101.1h0Z"/>
      <path class="cls-3" d="M1137.3,2008.5c-27.7,22.3-49.1,124.6-12.8,124.6,31.1-2.2,50.9-23.5,106.6-29.7,46.1-5.2,96.1-.8,125-5.4,49.6-24.5,44.7-159.2-1.6-163-81,4.1-162.9,12-217.3,73.5h0Z"/>
      <path class="cls-3" d="M1123.8,2163.7c50.5-34.1,176.2-50.7,240.3-32.5,30,14.3,29.4,148.1,10.5,197.3-21.1,36.8-145.9,14.4-235.4,38.5-62.8,24.1-68.5-164.7-15.4-203.2h0Z"/>
      <path class="cls-3" d="M1127.1,2407.5c42.9-25.9,156.7-33.7,212.1-27.6,65.7,4.9,50.4,197.1,23.5,213.2-30.5,25.9-23.5,47.5-53.9,78.9-24,16.1-86.7,21.2-123,37.4-77.9,22.1-101-283.7-58.6-301.8h0Z"/>
      <path class="cls-3" d="M1174.1,2764.3c55.9-32.1,111.8-54.1,167.7-47.9,36.4,9.6,42.2,29.8,41.6,49.6,4.9,157.8,4.4,310.1,4.8,463.4-3.2,55.9-62.4,102.3-102.3,20.8-84.2-138.4-171.5-459.1-111.8-485.8h0Z"/>
      <path class="cls-3" d="M1634.7,1194.5c-25.3,75.6-39.5,64.2,47.5,58.2,179.9-12.5,173.7-8.3,24-89.8-71-38.7-48.7-36.5-71.5,31.7h0Z"/>
      <path class="cls-3" d="M1598.4,1017c-3.5,70.9-38,178.1-69.5,226.2-45.9,70.4-101.5,61.2-94.2,28.6,55.3-78.2,61.4-168.4,79.5-195.7,44.1-28.2,78.4-97.8,84.1-59.1h.1Z"/>
      <path class="cls-3" d="M1735.9,1331c-63.9-20.5-312.6,80.3-271.9,93.1,171,55,337,92.2,527.3,218.3,65.9,34.9,71.2,18.9,47.7-45.5-47.5-148.7-164.6-214.5-303.2-266.1h0Z"/>
      <path class="cls-3" d="M1939.1,1628.1c35.8,19,67.2,36.9,85.3,49.1,31.3,21,28.6,32-8.5,23.8-38.1-8.4-79.1-8.3-117.9-6-206.6,12.2-377.9,85.6-452.9,76.1-26.6,3.4-20.5-299.9,22.4-300.6,188.6,24.8,326.5,72.9,471.6,157.7h-.1Z"/>
      <path class="cls-3" d="M1980.5,1711.4c71,4.4,71.4,14.5,66.1,67.4-22.4,81-70.6,153.6-144.1,168.5-158.7,32.1-375.6-43.9-403.5-48.8-37.6-12.4-84.1-51.7-24.3-85.9,146.6-70.3,421.9-111.8,505.9-101.1h0Z"/>
      <path class="cls-3" d="M1683.9,2008.5c27.7,22.3,49.1,124.6,12.8,124.6-31.1-2.2-50.9-23.5-106.6-29.7-46.1-5.2-96.1-.8-125-5.4-49.6-24.5-44.7-159.2,1.6-163,81,4.1,162.9,12,217.3,73.5h0Z"/>
      <path class="cls-3" d="M1697.4,2163.7c-50.5-34.1-176.2-50.7-240.3-32.5-30,14.3-29.4,148.1-10.5,197.3,21.1,36.8,145.9,14.4,235.4,38.5,62.8,24.1,68.5-164.7,15.4-203.2h0Z"/>
      <path class="cls-3" d="M1694.1,2407.5c-42.9-25.9-156.7-33.7-212.1-27.6-65.6,4.9-50.4,197.1-23.5,213.2,30.5,25.9,23.5,47.5,53.9,78.9,24,16.1,86.7,21.2,123,37.4,77.9,22.1,101-283.7,58.6-301.8h0Z"/>
      <path class="cls-3" d="M1647.1,2764.3c-55.9-32.1-111.8-54.1-167.7-47.9-36.4,9.6-42.2,29.8-41.6,49.6-4.9,157.8-4.4,310.1-4.8,463.4,3.2,55.9,62.4,102.3,102.3,20.8,84.2-138.4,171.5-459.1,111.8-485.8h0Z"/>
      <path class="cls-3" d="M851.9,1996.1c-30.7-6-28.1,30.2-7.4,42.3,59.4,60.5,154.2,145.1,216.7,160.2,18,5.3,1.9-56.2,8.1-104.4,6.7-51.2,28.4-96.4,7.5-91.4-62.9,18.3-152,12.4-225-6.5h.1Z"/>
      <path class="cls-3" d="M847.3,2070.8c63.7,61.9,138.3,130.7,207.5,155.8,23,2.7,6.8,108,14.1,190.8,7.5,82.8,33.2,203.4,11.7,187.7-71.7-37.6-161.3-185.6-229.4-445.4-25.2-81.7-21.9-93.5-4.1-88.8h0Z"/>
      <path class="cls-3" d="M1002.3,2574.4c-43.8-40.7-50.5-25.6-52.9,45.6-5.5,146,34.7,237.3,120.5,323,57.2,71.2,82.7,67.6,62-21.9-21.2-108.1,0-195.4-129.6-346.8h0Z"/>
      <path class="cls-3" d="M1971.3,1996.1c30.7-6,28.1,30.2,7.4,42.3-59.4,60.5-154.2,145.1-216.7,160.2-18,5.3-1.9-56.2-8.1-104.4-6.7-51.2-28.4-96.4-7.5-91.4,62.9,18.3,152,12.4,225-6.5h-.1Z"/>
      <path class="cls-3" d="M1976,2070.8c-63.7,61.9-138.3,130.7-207.5,155.8-23,2.7-6.8,108-14.1,190.8-7.5,82.8-33.2,203.4-11.7,187.7,71.7-37.6,161.3-185.6,229.4-445.4,25.2-81.7,21.9-93.5,4.1-88.8h0Z"/>
      <path class="cls-3" d="M1820.8,2574.4c43.8-40.7,50.5-25.6,52.9,45.6,5.5,146-34.7,237.3-120.5,323-57.2,71.2-82.7,67.6-62-21.9,21.2-108.1,0-195.4,129.6-346.8h0Z"/>
      <path class="cls-3" d="M913.7,2968.4c11.8-127.1,112.7,72.9,80.3,151.3-13.8,45.7-33.3,88.5-41.5,137.1-13.2,66-56.7,46.8-51-35,7.5-77.8-1.6-173.7,12.2-253.4h0Z"/>
      <path class="cls-3" d="M1116.9,3122.1c156.3,265.8,151.5,365.5,47.8,846.1-14.1,110.2-30,182.5-58.4-10.6-28.9-273.7-183.5-482-86.8-821.3,18.3-47.2,22.4-147.5,97.4-14.1h0Z"/>
      <path class="cls-3" d="M881.6,3434.9c19.8-132,43.1-136.2,69.8-13,97.5,382.4,179.6,758.7,173.3,1099.6-15.4,102.1-39.5,176.5-124.2,57-151.4-322.1-202.1-697.5-119-1143.6h0Z"/>
      <path class="cls-3" d="M1269.7,3631.6c38.8-114.7,63.8-98.3,75,49.2,15.5,293.2,8.6,596.9-28.5,879.7-10.4,121.6-155.3,46.6-163-139.7-11.7-212.4,45.2-493.7,116.4-789.1h0Z"/>
      <path class="cls-3" d="M1022.6,5136.2c37.3-176.5,130.8-73.3,174.8,199.9,45,267.4-59.7,555.5,74.5,1110.7,18.9,66.8-6.7,88-22.9,94.3-23.7,9.1-57.1-24.1-61.7-50.3-88.9-513.3-316.9-870.5-164.7-1354.6h0Z"/>
      <path class="cls-3" d="M1261.3,5126.9c-9.5-120.6,44.1-131.1,75.5,53.4,96.8,337.7,4.4,459.1-25.2,672.9-10.5,117.4-43,114.2-37.7-40.8-4.2-228.5,32.5-428.7-12.6-685.5h0Z"/>
      <path class="cls-3" d="M1927.2,2968.4c-11.8-127.1-112.7,72.9-80.3,151.3,13.8,45.7,33.3,88.5,41.5,137.1,13.2,66,56.7,46.8,51-35-7.5-77.8,1.6-173.7-12.2-253.4h0Z"/>
      <path class="cls-3" d="M1731.2,3122.1c-156.3,265.8-151.5,365.5-47.8,846.1,14.1,110.2,30,182.5,58.4-10.6,28.9-273.7,183.5-482,86.8-821.3-18.3-47.2-22.4-147.5-97.4-14.1h0Z"/>
      <path class="cls-3" d="M1966.5,3434.9c-19.8-132-43.1-136.2-69.8-13-97.5,382.4-179.6,758.7-173.3,1099.6,15.4,102.1,39.5,176.5,124.2,57,151.4-322.1,202.1-697.5,119-1143.6h0Z"/>
      <path class="cls-3" d="M1578.5,3631.6c-38.8-114.7-63.8-98.3-75,49.2-15.5,293.2-8.6,596.9,28.5,879.7,10.4,121.6,155.3,46.6,163-139.7,11.7-212.4-45.2-493.7-116.4-789.1h0Z"/>
      <path class="cls-3" d="M1825.5,5136.2c-37.3-176.5-130.8-73.3-174.8,199.9-45,267.4,59.7,555.5-74.5,1110.7-18.9,66.8,6.7,88,22.9,94.3,23.7,9.1,57.1-24.1,61.7-50.3,88.9-513.3,316.9-870.5,164.7-1354.6h0Z"/>
      <path class="cls-3" d="M1597.8,5126.9c9.5-120.6-44.1-131.1-75.5,53.4-96.8,337.7-4.4,459.1,25.2,672.9,10.5,117.4,43,114.2,37.7-40.8,4.2-228.5-32.5-428.7,12.6-685.5h0Z"/>
    </g>
  </g>
</svg>