<?xml version="1.0" encoding="UTF-8"?>
<svg id="_ÎÓÈ_1" data-name=" ÎÓÈ 1" xmlns="http://www.w3.org/2000/svg" xmlns:xlink="http://www.w3.org/1999/xlink" version="1.1" viewBox="0 0 2834.6 2834.6">
  <defs>
    <style>
      .cls-1 {
        clip-path: url(#clippath);
      }

      .cls-2 {
        fill: none;
      }

      .cls-2, .cls-3, .cls-4, .cls-5, .cls-6 {
        stroke-width: 0px;
      }

      .cls-3 {
        fill: #ececec;
      }

      .cls-3, .cls-4, .cls-5, .cls-6 {
        fill-rule: evenodd;
      }

      .cls-4 {
        fill: #868686;
      }

      .cls-5 {
        fill: #19ba20;
      }

      .cls-6 {
        fill: #c6c6c5;
      }
    </style>
    <clipPath id="clippath">
      <rect class="cls-2" x="-1.7" y="2.1" width="2838.1" height="2830.3"/>
    </clipPath>
  </defs>
  <g class="cls-1">
    <g>
      <path class="cls-4" d="M1634.9,123.8c-4.1,49.7-20.4,87.2-35.9,125.5,7.8,31.5,7.4,71.1,17.9,99.9,79.6,44.2,159.4,88.3,230.6,140.9,74,6.2,141.1,12.5,194.7,48.7,29.2,19.7,52.1,44.7,76.9,71.7,52.6,57.5,102.3,105.9,110.2,207.5,2.9,37.4.5,80.6-2.6,120.4-2.9,37.6-4.3,75.8-17.9,105.1,25,47.9,53.3,99.3,66.6,158.8,13.8,61.5,23,134.6,17.9,207.5-4.8,70-11.1,140.4,7.7,207.5,16.9,60.4,34.4,118.8,38.4,184.5,6.4,103.9-26.2,200.9-53.8,292.1-13.4,44.2-27.5,87.1-43.5,128.1-16.5,42-40.5,81.2-51.2,120.4-5.9,21.5-4.9,48.5-10.2,66.6-6.3,21.4-27.1,39.8-30.7,61.5-4.6,27.9,2.8,73.4,5.1,105.1,2.9,40.1,9.1,87.7,0,117.9-7.6,25.2-31.3,43.6-46.1,64.1-15.3,21.1-24.8,53.5-51.2,61.5-53.6,16.2-90.6-28.7-123-48.7-26.2,207-56.4,409.9-138.4,561.1,6.3,84.9-3.6,173.4-15.4,251.1-3.9,25.3-5.2,51.8-17.9,71.7,78.6,180.2,92.1,431.5,38.4,632.8-25,93.8-65.5,182.7-92.2,276.7-23,80.8-42.8,170.6-46.1,276.7-.5,15.1-4.4,32-2.6,43.6,2.8,17.7,21.4,35.4,35.9,53.8,13.6,17.4,27.6,36.1,38.4,48.7,22.6,26.3,80.8,62.2,79.4,94.8-2.6,62-130.8,26.3-189.6,30.7-40,3-103.8,22.6-151.2,7.7-62.2-19.6-38.2-102.6-25.6-169.1,20.6-109.7,29-235.1,33.3-358.7,6.5-188.9-36.7-313-64.1-458.6-26.9,141.6-70.5,272-64.1,458.6,4.2,122.3,12,245.7,33.3,358.7,11.9,63.4,39,149.4-25.6,169.1-47,14.3-104.1-3.8-148.6-7.7-53.6-4.7-186.1,30.8-192.1-28.2-3.2-32,62-77.1,79.4-97.4,12-14,25.3-31.9,38.4-48.7,13.7-17.5,32.9-35.4,35.9-51.2,3.4-17.7-1.3-63.6-2.6-89.7-1.4-29.9-6.1-58.6-10.2-82-19.6-111.3-47.3-193.4-82-286.9-16.9-45.7-30.7-92.7-43.5-140.9-27.4-102.5-38.5-211.5-33.3-330.5,4.7-106.9,32.2-210.6,69.2-299.8-17.4-45-22.4-97-28.2-153.7-4.2-41.7-7.5-84-7.7-128.1,0-13.3,4.3-29.7,2.5-41-2-13.1-20.8-44.7-28.2-61.5-61.5-139.8-86.2-320.2-110.2-499.6-9.7.5-18.7,10.9-28.2,17.9-18.7,13.8-58.4,39.2-94.8,28.2-24.1-7.3-32.3-34.9-48.7-58.9-17.3-25.4-43.7-39.7-51.2-69.2-7-27.5-2.1-74.3,0-110.2,2.1-35.1,12.4-73.7,7.7-107.6-3-21.6-20.9-38.5-28.2-58.9-6.5-18.4-6.9-46.3-12.8-69.2-10.1-39.2-32.1-80.5-48.7-123-15.9-40.7-32.9-81.7-46.1-125.5-27.3-90.3-58.7-186.6-53.8-289.5,3.2-65.7,18.8-128.3,35.9-189.6,18.7-66.9,18.1-135.9,12.8-207.5-10.5-142.5,22.8-265.1,79.4-363.8-24.6-118.8-29.9-272.5,17.9-351,18.6-30.4,48.9-56.8,74.3-84.6,30.5-33.3,57.7-68,97.3-87.1,37.8-18.2,80.4-21.3,125.5-28.2,14.6-2.2,32.6-1.5,46.1-5.1,18.2-4.9,36-24.5,56.4-38.4,53.4-36.6,123.9-70.6,176.8-102.5,10.5-27.9,9.5-67.3,17.9-97.4-14-39.8-31.3-76.3-35.9-125.5-10.7,1-25.9,3.5-38.4-5.1-26.8-18.5-86.2-186.6-12.8-212.7-23.6-111.6,11.1-213.6,64.1-276.7,48.8-58.1,127-95.2,233.1-87.1,56.7,4.3,114.4,28.2,153.7,61.5,73.2,61.9,105.9,173.8,89.7,299.8-1.9,8.7,11.5,9.4,17.9,17.9,25.9,34.2,14.2,97.9-2.6,140.9-15.5,39.9-28.6,71.6-69.2,58.9h0ZM1383.8,3275.1c-6.3,45.8-14.1,93.9-12.8,138.4,1.4,48.2,17.8,97,20.5,146,3.7,67.4-9.9,128-23.1,192.1,15.8,59.3,35.5,114.8,46.1,179.3,8.4-2.2,6.4-14.8,7.7-20.5,13.1-55.5,29.6-107.9,43.6-158.8-13.1-64.9-27.3-126.7-23.1-194.7,3.1-49.4,19.6-97.3,20.5-146,.8-43.7-7-90.1-12.8-135.8-17.7-139.2-25.4-278.9-33.3-415.1-2,144.5-15.4,285-33.3,415.1h0ZM1845,1540.6c15.9,88.4,12.6,217.4-5.1,292.1,31.2,63,60.8,121,66.6,202.4,2.5,35-6.9,74.8-2.6,105.1,2.6,18.3,18.5,43.4,28.2,66.6,9.5,22.8,20.6,47.1,25.6,71.7,11.2,55.3,2.5,103.9-7.7,156.3,16.3-14.8,39.9-36.5,41-56.4,4-72.6,18.3-149.8,17.9-225.5-.5-91.4-32.7-160.2-43.6-238.3-20.5-147.1-1.1-275,46.1-379.2-29.8-62.4-42.4-142.1-58.9-217.8-24.8,85.3-69.4,151-107.6,222.9h0ZM822.7,1535.5c47.9,107.1,67.2,237.3,46.1,381.8-9.2,63.1-33.7,123.8-41,189.6-6.3,56.6,1.2,106.2,7.7,158.8,6.8,55.6,1.8,116.2,25.6,148.6,5.2,7,16.1,17.6,23.1,17.9-8.6-36.4-13.1-66.6-12.8-102.5.4-51.7,15.8-87,30.7-123,10.1-24.4,25.8-49.7,28.2-69.2,4.4-36.3-5.1-71.9-2.5-105.1,6.2-80.9,37.4-138.2,66.6-202.4-18.5-73.2-20.6-202.2-5.1-289.5-39.8-71.2-80.9-141.2-110.2-222.9-11.3,80.1-28.2,154.5-56.4,217.8h0Z"/>
      <path class="cls-6" d="M1637.5-17.1c15.3-39.3,28.2-80.4,30.7-125.5,4.3-76.9-18.9-142-48.7-189.6-29-46.4-89.1-82.8-153.7-94.8-112.1-20.8-213.6,34.8-251.1,94.8-25.8,41.3-45,93.1-48.7,148.6-6.1,91.2,25.3,166.2,56.4,220.3,9.1,15.8,24.4,31.6,23.1,51.2-15.5-2.8-22.9-20.3-30.7-30.7-27.1-36-49.3-74.1-64.1-120.4-24.3,37.4-8.6,85.6,5.1,120.4,7.1,18,14.8,47.9,33.3,41,14.5-4.7-8.1-33.2,10.2-35.9,21.2,37.7,24.7,93.1,43.6,133.2,2.2-15.7-3-38.9,15.4-38.4,7.3,13.8,4,33.4,2.5,51.2-1.5,17.8-3.1,37.8-5.1,56.4-3.1,28.1-4.7,84.1-17.9,102.5-9.8,13.7-52.9,30.7-71.7,41-27.8,15.1-51,28.7-71.7,41-53.9,32-98.8,62.3-143.5,84.6-13.1-.1,0-19.6-10.2-12.8-46.1,6.4-86.8,12.1-123,30.7-31.9,16.4-58.1,45.8-82,71.7-25.7,27.9-50.2,53.3-69.2,84.6-43.8,72-42.2,192.4-25.6,299.8,2.7,3.9,9.2-19.8,20.5-7.7-41.9,95.4-85,195.6-92.2,312.6-4.8,77.9,6.6,149.3,2.6,228-2.7,52.8-21.9,96.5-33.3,146-11.8,51.1-21.1,108.1-17.9,164,2.8,48.5,15.5,100.6,28.2,151.2,11.9,47.6,24.7,97.3,41,140.9,25.3,67.8,58,127.6,76.9,192.1,7.3,24.9,5.6,53.4,15.4,76.9,7,16.9,21.4,29.1,25.6,46.1,5.8,23.5,2.5,58.2,0,89.7-2.2,27-4,56.7-5.1,82-.7,15.9-4.9,30.9-2.6,46.1,5.1,32.8,32.2,44.3,51.2,74.3,10.1,15.9,18.2,38.9,30.7,43.6,42.3,15.8,92.3-35.6,112.7-58.9-5.2-82.8-6.5-169.4-7.7-256.2-24.3-29.5-52.2-47.1-64.1-84.6-5.9-18.7-3.3-42.8-5.1-66.6-5-65.2-22.7-129.3-17.9-194.7,4.4-60.1,21.7-119,33.3-176.8,28-139.9,22.5-261-20.5-379.2-5.5-4.5-8.2,26.4-20.5,15.4.1-26.3,10.6-53,17.9-79.4,15.2-55,28.2-107.5,38.4-169.1,4.4-26.7,16.7-65.7,15.4-89.7-.7-13-8.7-31.6-12.8-48.7-11.6-47.7-16.1-114.1-30.7-153.7-6.3-16.9-18.3-29.9-23.1-46.1-4.4-15.2-6-34.2-7.7-51.2-1.8-18.9-7.3-43.9,5.1-48.7,11.6,8.7,10.4,24.6,12.8,35.9,2.8,13.1,6.2,25.2,10.2,38.4,7.6,25,20.4,46.5,28.2,69.2,18.1,53,18,109.1,30.7,161.4,12.4,50.6,26.8,101.6,46.1,148.6,33.7,81.8,84.6,145.4,110.2,228,3.2,10.2,10.3,25,2.6,35.9-18.6-1.9-14.9-26.1-25.6-35.9-7.2,75.8-10.3,172.8,12.8,233.1-47.8,85-79.9,210.1-66.6,340.8,2,19.8,9,40.6,0,58.9-16.4-.6-9-25.1-17.9-33.3-14.1,42-37.5,78.9-41,128.1-3.1,43.1,10.2,87.1,15.4,133.2,7.8,70.6-.7,136.5,2.6,207.5,6.1,134.6,28.4,266.4,53.8,386.9,26.2,124.2,62,236.4,110.2,330.5,1.9,11.1-23.3,3.7-15.4,12.8-4.1,77.6,11.3,157.7,20.5,230.6,8,5.5,9.2-29,23.1-17.9,2.5,15.4-5.7,30.8-10.2,43.6-36.8,102-66.2,227.9-71.7,353.6-6.5,148,28.5,281.4,74.3,407.4,21.5,59.2,43.2,120.4,58.9,181.9,17,66.2,33.8,135.6,38.4,205,1.6,23.6,5.9,83.3,2.6,102.5-3.1,17.7-22.8,42.5-35.9,58.9-26.1,33.1-51.1,63.9-79.4,89.7-13.9,12.7-36.5,22-35.9,43.6,49.5,24.9,119.1-10.4,174.2,5.1-25.3-24.3-12.9-71.8-2.6-99.9,5.5-14.8,10.6-31.8,20.5-35.9,7.3,31-16.1,69.4-7.7,102.5,5.5,21.5,27.4,26.6,41,41,33.4-4.7,65.2,7.5,87.1-5.1,34.2-19.6,8.6-91.1,0-135.8-6.9-35.6-12.1-73.3-15.4-105.1-12.1-117.8-23.7-237.7-17.9-363.8,8-176.9,84.4-326,71.7-499.6-4.1-56.3-25.2-111.7-38.4-166.5-10.5-43.3-18-86.3-25.6-128.1-2.2-12.3-10.4-31.6,2.6-41,13.7,6,8.8,30.5,17.9,41,3.8-46.6,13-88.4,10.2-133.2-3.7-59-24.4-115.5-20.5-179.3,4.5-72.9,19.4-146.6,28.2-222.9,22.1-192.4,25.2-396.9,20.5-607.2-10.5,3.4-21,14.3-33.3,20.5-40.6,20.5-88.5,24.3-138.4,20.5-109.1-8.4-210.3-76.7-212.6-171.6,17.1,7.6,22.6,28.5,33.3,43.6,10.1,14.1,20.9,31.5,33.3,43.6,65.9,64.4,226.3,80.7,297.2,28.2,19.7-14.6,27.2-36.7,48.7-53.8,34.8,114.6,255.4,104,335.6,25.6,18.7-18.3,35.3-46.5,48.7-66.6,4.9-7.3,6-23.8,20.5-20.5-14,105.6-109.4,163.9-217.8,171.6-66.5,4.8-110.4-7.7-146-28.2-8.4-4.8-19.3-14.9-20.5-7.7-4.2,206.3-1.8,416.3,20.5,602.1,9.3,77.3,21.6,152,25.6,225.5.7,12.6.9,25.8,0,38.4-6.6,91.5-38.3,180.6-7.7,271.6,5-14.7,2-37.3,17.9-41,8.2,11.9,2.4,28,0,41-8.2,45-15.4,85.9-25.6,128.1-13.5,55.6-34.5,111.2-38.4,169.1-11.6,173.4,63.9,322.4,71.7,499.6,2,44.8,2.2,92.7,0,140.9-5,109.6-14.1,226.3-33.3,325.4-7,36-20.7,76-17.9,102.5,5.1,48.3,55.1,36.8,107.6,38.4,11.3-16.9,32.9-19.2,38.4-41,8.8-34.8-18.5-77.6-5.1-102.5,12.1,23.4,36.1,66.2,30.7,102.5-2.1,14.2-12.3,21.8-12.8,33.3,37.1-12.7,85.4,5.7,125.5,5.1,15.5-.2,35.7-1.5,46.1-12.8-3.6-19.2-21.7-30.5-35.9-43.6-14.8-13.6-27.3-27.2-41-43.6-22.1-26.3-62.9-64.2-71.7-97.4-3.9-14.6-.9-27.6,0-48.7,1-22.1-1.1-46.5,0-61.5,5-68.4,21.7-137.1,38.4-202.4,15.8-61.7,37.3-122.4,58.9-181.9,46-126.5,81-262.3,74.3-409.9-5.8-127.5-36.4-255.9-71.7-353.6-4.6-12.6-16.9-28.8-7.7-43.6,13.1-2.9,14.2,30.7,20.5,17.9,10.1-72,24.5-153,20.5-230.6,5.1-4.5-20-.4-15.4-12.8,50.6-92.6,83.8-206.7,110.2-330.5,25.7-120.9,47.8-251.8,53.8-386.9,3.3-75.2-5.5-138.1,2.6-207.5,5.4-46.7,18.9-90.2,15.4-133.2-4.1-48.7-26.2-86.3-43.6-125.5-2.7,12.4-3,38.8-17.9,30.7,2.7-60.6,9.8-120.7,5.1-181.9-6.4-83.3-45.4-156.2-69.2-217.8,11.5-24.6,16-62,17.9-99.9,2.2-44.2-.3-94.7-7.7-130.7-6.7,13.8-5.5,35.5-25.6,35.9,3.1-51.8,28.6-93.7,51.2-135.8,44.9-83.6,85.2-174.6,110.2-276.7,13-53.4,13.1-113.9,30.7-164,7.5-21.3,23.4-42,30.7-66.6,4-13.3,4.8-27.3,7.7-41,2-9.5,1-29.2,15.4-33.3,10.4,14.6,1.5,32.9,0,48.7-1.7,18,.1,36.6-5.1,53.8-4.6,15.2-17.4,28.2-23.1,43.6-10,27-14.1,67.6-20.5,102.5-3.2,17.3-6.1,34.2-10.2,51.2-4,16.3-12.1,35.7-12.8,48.7-.7,12.3,5.4,28.9,7.7,43.6,12.1,78.9,27.1,149.4,46.1,217.8,7.9,28.4,22.8,56.5,15.4,79.4-12.2,3.5-13.6-27.6-17.9-15.4-44.9,120.1-47.7,240.9-20.5,376.6,11.8,59,29.2,118.4,33.3,179.3,4.4,65.9-13.6,130.8-17.9,197.3-1.2,17.6,2.6,32.7,0,48.7-4.4,27-20.6,40.9-35.9,58.9-12,14.3-30,28.8-33.3,41-5.3,19.5.9,43.8,0,64.1-2.9,64.9-3.8,134.9-7.7,192.1,24.6,22.8,60.8,61.2,102.5,58.9,25-1.4,28.1-28.2,41-48.7,14.6-23.1,38.5-35.7,46.1-53.8,8.1-19.2,3.6-43.8,2.6-66.6-1.1-25.2-3-52.4-5.1-79.4-2.3-29.1-5.9-60.6-2.5-84.6,2.8-20.3,21.1-34.1,28.2-51.2,9.4-22.5,8.3-49.9,15.4-74.3,6.4-22.4,14.4-45.2,23.1-66.6,34.3-84.5,70.5-171.9,94.8-269,12.8-51.3,25.7-104,28.2-153.7,2.7-54.9-6.2-110.7-17.9-161.4-11.6-50.4-30.9-94.7-33.3-148.6-2.1-47.9,3.4-102.3,5.1-140.9,5.9-134.1-28.3-240.3-66.6-327.9-10.2-23.3-24.7-45.8-25.6-71.7,14.4-7.8,14.7,20.8,17.9,7.7,7.1-58.4,14.4-122.8,10.2-179.3-4.6-63.5-27.8-116.5-66.6-161.4-16-18.5-36.8-38.6-56.3-58.9-19.9-20.7-40.7-42.9-61.5-53.8-36.2-19.1-86.5-25.1-128.1-30.7-4.3-5.3,3.9,15.7-10.2,12.8-62.4-36.8-141.5-86.8-212.6-125.5-22.1-12.1-61.3-27.9-71.7-43.6-14.8-22.3-14-66.5-17.9-102.5-1.9-18-3.7-35.7-5.1-53.8-1.3-16.4-6.9-40.5,5.1-51.2,17,.9,7.8,28.1,15.4,38.4,9-33.4,19.4-72.3,28.2-102.5,3.2-11.2,3.4-26.4,15.4-30.7,15,5.9-9,34.9,10.2,35.9,17.9,4.5,23.6-25,30.7-43.6,14.1-36.8,31.4-85.8,2.6-117.9-11.2,47.3-37.1,90.5-61.5,123-7.6,10.2-18.4,29.9-33.3,25.6,15.1-33.5,36.8-65.3,51.2-102.5h-.1ZM1542.7,3480.1c3-.4,4.6.6,5.1,2.6-1,39.6,22.9,78.1,10.2,112.7-17.2-30.5-24.2-69.9-15.4-115.3h0ZM1691.3,3426.3c33.8,37.3,32.4,99.6,30.7,161.4-13.3-7.1-9.7-31.3-20.5-41,.2-43.8-.7-86.4-10.2-120.4h0ZM1286.5,3480.1c3-.4,4.5.6,5.1,2.6,10.2,44.6-.8,79-12.8,112.7-19.6-31.4,11.4-76.1,7.7-115.3h0ZM1140.5,3426.3c6.9,10.2-3.6,16.9-5.1,28.2-3.7,26.7,2.2,62.6-2.6,89.7-1.4,8.2-7,15-10.2,23.1-2.8,7.1.1,21.6-10.2,20.5-2.5-62-1.4-120.6,28.2-161.4h0ZM1422.3,1187.1c2.2-.5,2.4,1,2.6,2.6-1.1,135.6,8.8,283.4,2.6,425.3-2,44.9,1.8,90.6-10.2,130.7-16.4-15.1-12.4-40.1-12.8-61.5-1.3-67.5-3.4-142.8,0-215.2,4.7-100.5,1.3-203.6,17.9-281.8h0ZM1412,169.9h5.1c9.7,6.1,4.9,21.5,5.1,30.7,1.1,54.3,12.8,121.4-2.5,166.5-.6-.3-2.1.4-2.6,0-30.1-27.5,5.2-133.7-5.1-189.6v-7.7h0ZM1519.6,111c-8.3,10-23.4,12.4-33.3,12.8-21.2.9-44.3-14.3-64.1-15.4-33.1-1.9-74.3,31.6-107.6,5.1,4.2-6.9,14.3-3.5,20.5-5.1,7.8-2,14.5-5.2,23.1-7.7,23-6.7,46-19.7,74.3-15.4,14,2.1,29.9,11.4,43.6,15.4,15.3,4.5,28.5,8.8,43.6,10.2h0ZM628.5,1548.6c-4.1,29.2-21.3,52.7-14.1,84.7-.6,23.2,23.2,48.3,26.3,66.8-6.3-10.4-50.2-43.3-49.9-59.3,6.3-31.7,17.3-81.2,37.6-92.2h0ZM726.3,1572.1c-10.2,16.1-5.3,41.4-9.6,67.5-2.5,14.9-24.2,9.5-24.2,27.5s-.6,19,.9,17.9c21.2-15.6,37.6-21.6,37.6-52.7s2.4-26.1,0-34.8c-1.6-5.7-5.1-10.5-2.6-15.4,6.1-12-3.2-10.4-2.1-10h0ZM2100.5,1572.1c10.2,16.1,5.3,41.4,9.6,67.5,2.5,14.9,24.2,9.5,24.2,27.5s.6,19-.9,17.9c-21.2-15.6-37.6-21.6-37.6-52.7s-2.4-26.1,0-34.8c1.6-5.7,5.1-10.5,2.6-15.4-6.1-12,3.2-10.4,2.1-10h0ZM2198.4,1548.6c4.1,29.2,21.3,52.7,14.1,84.7.6,23.2-23.2,48.3-26.3,66.8,6.3-10.4,50.2-43.3,49.9-59.3-6.3-31.7-17.3-81.2-37.6-92.2h0Z"/>
      <path class="cls-3" d="M879.7,559.9c19.9-10.1,32.9-11.5,50.4-4.4,31.2,12.7,61.3,47.3,72.4,75.2,8.8,22.3,2.9,28.2-18.9,39.6-130.6,74.4-208.4,181.1-262.2,302.4-12.3,34.1-46.9,68.3-52.8-32-15.3-65.6-14-146.7,26.9-222.4,37.2-68.9,109.7-134.5,184.1-158.4h0Z"/>
      <path class="cls-3" d="M845.2,830.7c2.3-25.5,88.7-120.7,124.1-104.5,36.5,8.1,20.8,109.9,50.4,175.3,12.7,52.7-80.5,75.8-112.9,53.8-37.1-23.5-66.9-91.7-61.5-124.7h0Z"/>
      <path class="cls-3" d="M702,1040.6c56.7-70,58.8-59.2,79.8-16.2,21.1,30,73.8,162.9,46.7,288.7-14,63.3-28.1,126.5-42.2,189.8-16.8,57.5-33.5,95.5-50.3-3.2-15.7-44.9-57.8-75.2-49.2-134.6,2.7-43.8-34.9-50.6-51.4-1.6-5.4,36.2-10.8,72.4-16.2,108.7-22.7,82.2-34.7,79.5-32.4-6.5-10.5-219.4,37.5-345.7,115.2-424.9h0Z"/>
      <path class="cls-3" d="M874.8,1066.8c-5-37.9-48.3-105.5,38.5-74.5,37.4,11,95.2-3.2,131.2-33.3,16.7-23.3,33.4-22.3,50.1,3,81.2,71.4,140.1,180.7,192.9,300.8,28.6,37.5,25.5,69.4,10.6,98.7-33.2,82-67.8,160.8-112.4,217.2-32.4,35.3-92.4,35-124.8-14.7-71.7-102.9-165.3-262.2-186.1-497.2h0Z"/>
      <path class="cls-3" d="M977.1,546.8c-.7-23.3,228.3-68.2,354.6-75.3,49.2-5,60.9,3.1,63.2,38.5,7.5,235.5,11.3,469.2,0,695.7-2.9,70.2-18.9,178.4-60.3,68.2-51.7-127.3-178.5-315.7-286.2-400.1-16.4-13.1-33.8-46.3-27.7-72.1,8.8-42.3,73-80.4,78.2-112.3,4.2-28.5-13.5-30.4-39.7-49.2-30.4-27.3-85.1-61.2-82.2-93.5h0Z"/>
      <path class="cls-3" d="M1080,471.5c84.5-56.7,169-64.2,179.4-95.8,28.9-117.9,11.4-195.7,26.3-209.5,12.1-22.5,73.6-17.5,84.9-4.8,26.7,41.9,4.4,148.4,8.4,221.5,0,31.9,6,61.5-40.7,69.4-56.6,4-128.8,9.2-226.1,32.3-63.8,20.8-71.4,11.6-32.3-13.2h0Z"/>
      <path class="cls-5" d="M1157.6,1634.5c-33,7.2-41.7,94.1,13.9,109.6,53.4,23.2,104.8,53.1,149.3,106.9,35.1,43.5,47.7,28.7,50.4-38.5,13.9-100.8,4.6-281.4,4.4-440.9-5.2-31.2-28.1-22.9-38.8-6.3-51.3,82.5-87.4,251.9-179.2,269.1h0Z"/>
      <path class="cls-3" d="M1035.3,1648.4c14.6-20.9,74-30.3,71.9,0-3.8,26.4,1.7,56,7.3,82.4,1.7,24-61.2,80.3-75.1,41.7-10.4-24.6-17.7-68.9-4.2-124.1h0Z"/>
      <path class="cls-5" d="M1273.1,1935.7c-92.5,36.6-128.6,139.5-190.5,206.8-29.6,31.8-104.4,129.8-106.5-8.1.8-161.3,22.2-321.9,176-340.9,45.6-5,215,96.7,121.1,142.2h0Z"/>
      <path class="cls-5" d="M1304.3,1958.6c80.8-40.1,90.8,25,88,66.5-1.4,130.2-2.9,260.3-4.3,390.5-7.2,47.9-22.9,106.5-139.4,115.9-171.6,20-306.8-247.4-197.4-311.1,97.3-37.9,162.3-226,253.2-261.8h0Z"/>
      <path class="cls-3" d="M685.4,1787.5c7.2-68.4,26.6-53.3,42.1-86,26.3-55.7,74.3-91.5,89.4-18.7,54.3,201.7-84.7,397.4-18.4,623.9,10.8,42-3.8,156.1-35.3,19.8-25.9-179.7-75.9-346.6-77.7-539h0Z"/>
      <path class="cls-3" d="M558.2,1736.6c25.1-76.4,66.3-50.5,101.8,110.3,9.7,45.4,10,93.3,22.2,176.9,15.3,104.2,43.7,249,68.2,340.8,13.4,67.7-13.9,92.2-62.2-24-66.2-219.9-175.6-419.5-130-604.1h0Z"/>
      <path class="cls-3" d="M1954,559.9c-19.9-10.1-32.9-11.5-50.4-4.4-31.2,12.7-61.3,47.3-72.4,75.2-8.8,22.3-2.9,28.2,18.9,39.6,130.6,74.4,208.4,181.1,262.2,302.4,12.3,34.1,46.9,68.3,52.8-32,15.3-65.6,14-146.7-26.9-222.4-37.2-68.9-109.7-134.5-184.1-158.4h0Z"/>
      <path class="cls-3" d="M1988.5,830.7c-2.3-25.5-88.7-120.7-124.1-104.5-36.5,8.1-20.8,109.9-50.4,175.3-12.7,52.7,80.5,75.8,112.9,53.8,37.1-23.5,66.9-91.7,61.5-124.7h0Z"/>
      <path class="cls-3" d="M2131.7,1040.6c-56.7-70-58.8-59.2-79.8-16.2-21.1,30-73.8,162.9-46.7,288.7,14,63.3,28.1,126.5,42.2,189.8,16.8,57.5,33.5,95.5,50.3-3.2,15.7-44.9,57.8-75.2,49.2-134.6-2.7-43.8,34.9-50.6,51.4-1.6,5.4,36.2,10.8,72.4,16.2,108.7,22.7,82.2,34.7,79.5,32.4-6.5,10.5-219.4-37.5-345.7-115.2-424.9h0Z"/>
      <path class="cls-3" d="M1958.9,1066.8c5-37.9,48.3-105.5-38.5-74.5-37.4,11-95.2-3.2-131.2-33.3-16.7-23.3-33.4-22.3-50.1,3-81.2,71.4-140.1,180.7-192.9,300.8-28.6,37.5-25.5,69.4-10.6,98.7,33.2,82,67.8,160.8,112.4,217.2,32.4,35.3,92.4,35,124.8-14.7,71.7-102.9,165.3-262.2,186.1-497.2h0Z"/>
      <path class="cls-3" d="M1856.6,546.8c.7-23.3-223.9-68.2-347.8-75.3-48.2-5-59.7,3.1-62,38.5-7.3,235.5-11.1,469.2,0,695.7,2.9,70.2,18.6,178.4,59.1,68.2,50.7-127.3,175-315.7,280.6-400.1,16.1-13.1,33.2-46.3,27.2-72.1-8.6-42.3-71.6-80.4-76.7-112.3-4.1-28.5,13.2-30.4,38.9-49.2,29.8-27.3,83.5-61.2,80.6-93.5h0Z"/>
      <path class="cls-3" d="M1753.7,471.5c-84.5-56.7-169-64.2-179.4-95.8-28.9-117.9-11.4-195.7-26.3-209.5-12.1-22.5-73.6-17.5-84.9-4.8-26.7,41.9-4.4,148.4-8.4,221.5,0,31.9-6,61.5,40.7,69.4,56.6,4,128.8,9.2,226.1,32.3,63.8,20.8,71.4,11.6,32.3-13.2h0Z"/>
      <path class="cls-5" d="M1676.2,1634.5c32.7,7.2,41.3,94.1-13.8,109.6-53,23.2-104,53.1-148.1,106.9-34.9,43.5-47.4,28.7-50-38.5-13.8-100.8-4.6-281.4-4.3-440.9,5.1-31.2,27.8-22.9,38.5-6.3,50.9,82.5,86.7,251.9,177.8,269.1h0Z"/>
      <path class="cls-3" d="M1798.4,1648.4c-14.6-20.9-74-30.3-71.9,0,3.8,26.4-1.7,56-7.3,82.4-1.7,24,61.2,80.3,75.1,41.7,10.4-24.6,17.7-68.9,4.2-124.1h0Z"/>
      <path class="cls-5" d="M1560.6,1935.7c92.5,36.6,128.6,139.5,190.5,206.8,29.6,31.8,104.4,129.8,106.5-8.1-.8-161.3-22.2-321.9-176-340.9-45.6-5-215,96.7-121.1,142.2h0Z"/>
      <path class="cls-5" d="M1529.4,1958.6c-80.8-40.1-90.8,25-88,66.5,1.4,130.2,2.9,260.3,4.3,390.5,7.2,47.9,22.9,106.5,139.4,115.9,171.6,20,306.8-247.4,197.4-311.1-97.3-37.9-162.3-226-253.2-261.8h0Z"/>
      <path class="cls-3" d="M2148.3,1787.5c-7.2-68.4-26.6-53.3-42.1-86-26.3-55.7-74.3-91.5-89.4-18.7-54.3,201.7,84.7,397.4,18.4,623.9-10.8,42,3.8,156.1,35.3,19.8,25.9-179.7,75.9-346.6,77.7-539h0Z"/>
      <path class="cls-3" d="M2275.5,1736.6c-25.1-76.4-66.3-50.5-101.8,110.3-9.7,45.4-10,93.3-22.2,176.9-15.3,104.2-43.7,249-68.2,340.8-13.4,67.7,13.9,92.2,62.2-24,66.2-219.9,175.6-419.5,130-604.1h0Z"/>
      <path class="cls-3" d="M995.5,2549.7c3.2-53.8,42.1-3.8,86.5,22.5,39.1,23.2,87.1,6.7,82.1,72,8.8,184.8,33.9,394.1,26.4,554.3-3.2,105.8-39.4,166-59.7,176.3-20.3,10.3-40.9-23.6-61.9-89.4-53.5-216.7-98.5-462.4-73.5-735.9h0Z"/>
      <path class="cls-3" d="M1201.8,2609.2c16.6,1.8,24.1,2.1,47.8,3.2,23.7,1.1,45.1-10.8,46.4,9.9,41.4,257.2,50.4,496.5,16.8,705.2-7.4,62.1-26,65.4-40.2,58-14.2-7.4-29.5-50.4-46.7-155.8-20.2-268-36.4-511.5-34-591.8.4-12.6-.9-30.2,10-28.8h0Z"/>
      <path class="cls-3" d="M1118.7,3668c43.4-100.4,70.2-79.3,69,51.8-10.2,141.9-20.4,295.3-7.7,448.7,8.3,76.7-106,113.1-124.5-40.3-8.6-168.3,10.5-322.6,63.2-460.2h0Z"/>
      <path class="cls-3" d="M1231,3705.5c23.1-129.6,54.3-84.4,89.3,40.2,46.4,196.5,64.3,380.6,19.3,537.5-46.2,163.3-120.6,9.4-128-73-10.9-182.1-5.5-350.4,19.3-504.7h0Z"/>
      <path class="cls-3" d="M1836.3,2549.7c-3.2-53.8-42.1-3.8-86.5,22.5-39.1,23.2-87.1,6.7-82.1,72-8.8,184.8-33.9,394.1-26.4,554.3,3.2,105.8,39.4,166,59.7,176.3,20.3,10.3,40.9-23.6,61.9-89.4,53.5-216.7,98.5-462.4,73.5-735.9h0Z"/>
      <path class="cls-3" d="M1629.9,2609.2c-16.6,1.8-24.1,2.1-47.8,3.2-23.7,1.1-45.1-10.8-46.4,9.9-41.4,257.2-50.4,496.5-16.8,705.2,7.4,62.1,26,65.4,40.2,58,14.2-7.4,29.5-50.4,46.7-155.8,20.2-268,36.4-511.5,34-591.8-.4-12.6.9-30.2-10-28.8h0Z"/>
      <path class="cls-3" d="M1713.1,3668c-43.4-100.4-70.2-79.3-69,51.8,10.2,141.9,20.4,295.3,7.7,448.7-8.3,76.7,106,113.1,124.5-40.3,8.6-168.3-10.5-322.6-63.2-460.2h0Z"/>
      <path class="cls-3" d="M1600.7,3705.5c-23.1-129.6-54.3-84.4-89.3,40.2-46.4,196.5-64.3,380.6-19.3,537.5,46.2,163.3,120.6,9.4,128-73,10.9-182.1,5.5-350.4-19.3-504.7h0Z"/>
    </g>
  </g>
</svg>