<?xml version="1.0" encoding="UTF-8"?>
<svg id="_ÎÓÈ_1" data-name=" ÎÓÈ 1" xmlns="http://www.w3.org/2000/svg" xmlns:xlink="http://www.w3.org/1999/xlink" version="1.1" viewBox="0 0 2834.6 2834.6">
  <defs>
    <style>
      .cls-1 {
        clip-path: url(#clippath);
      }

      .cls-2 {
        fill: none;
      }

      .cls-2, .cls-3, .cls-4, .cls-5, .cls-6 {
        stroke-width: 0px;
      }

      .cls-3 {
        fill: #ececec;
      }

      .cls-3, .cls-4, .cls-5, .cls-6 {
        fill-rule: evenodd;
      }

      .cls-4 {
        fill: #868686;
      }

      .cls-5 {
        fill: #19ba20;
      }

      .cls-6 {
        fill: #c6c6c5;
      }
    </style>
    <clipPath id="clippath">
      <rect class="cls-2" x="-1.7" y="2.1" width="2838.1" height="2830.3"/>
    </clipPath>
  </defs>
  <g class="cls-1">
    <g>
      <path class="cls-4" d="M1637.7,243.2c-4.1,50.4-20.7,88.3-36.3,127.2,7.9,31.9,7.5,72,18.2,101.2,80.7,44.8,161.4,89.4,233.6,142.7,74.9,6.3,142.9,12.7,197.2,49.3,29.6,19.9,52.8,45.3,77.9,72.7,53.3,58.2,103.7,107.3,111.6,210.2,2.9,37.9.5,81.6-2.6,122-3,38.1-4.3,76.8-18.1,106.4,25.4,48.6,53.9,100.6,67.5,160.9,14,62.3,23.3,136.3,18.2,210.2-4.9,70.9-11.2,142.2,7.8,210.2,17.1,61.2,34.8,120.3,38.9,186.8,6.5,105.2-26.5,203.5-54.5,295.8-13.6,44.8-27.8,88.2-44.1,129.8-16.7,42.5-41,82.3-51.9,122-6,21.8-5,49.2-10.4,67.5-6.4,21.7-27.5,40.3-31.1,62.3-4.7,28.3,2.9,74.4,5.2,106.4,2.9,40.7,9.2,88.8,0,119.4-7.7,25.5-31.7,44.1-46.7,64.9-15.5,21.4-25.1,54.2-51.9,62.3-54.2,16.4-91.7-29.1-124.6-49.3-26.5,209.7-57.2,415.1-140.1,568.3,6.4,85.9-3.6,175.7-15.5,254.3-3.9,25.6-5.3,52.5-18.2,72.7,79.6,182.5,93.3,437.1,38.9,641-25.3,95-66.3,185-93.4,280.3-23.3,81.9-43.3,172.8-46.7,280.3-.5,15.3-4.5,32.4-2.6,44.1,2.9,17.9,21.7,35.8,36.3,54.5,13.8,17.6,28,36.6,38.9,49.3,22.9,26.6,81.9,63,80.5,96-2.7,62.8-132.5,26.6-192,31.1-40.5,3.1-105.1,22.9-153.1,7.8-63-19.9-38.6-103.9-26-171.3,20.9-111.1,29.4-238.1,33.7-363.3,6.6-191.3-37.2-317.1-64.9-464.5-27.2,143.4-71.4,275.5-64.9,464.5,4.3,123.8,12.2,248.9,33.7,363.3,12.1,64.2,39.5,151.4-26,171.3-47.6,14.5-105.5-3.9-150.5-7.8-54.3-4.7-188.5,31.2-194.6-28.5-3.3-32.4,62.8-78.1,80.5-98.6,12.2-14.2,25.6-32.3,38.9-49.3,13.8-17.7,33.3-35.9,36.3-51.9,3.4-17.9-1.3-64.4-2.6-90.8-1.4-30.3-6.2-59.3-10.4-83-19.9-112.7-47.9-195.9-83-290.6-17.2-46.3-31.1-93.9-44.1-142.7-27.8-103.9-39-214.3-33.7-334.8,4.8-108.3,32.6-213.4,70.1-303.6-17.6-45.6-22.7-98.3-28.5-155.7-4.3-42.3-7.6-85.1-7.8-129.8,0-13.5,4.3-30.1,2.6-41.5-2-13.3-21.1-45.3-28.5-62.3-62.3-141.6-87.3-324.3-111.6-506-9.9.5-18.9,11.1-28.5,18.2-18.9,13.9-59.2,39.7-96,28.5-24.4-7.4-32.7-35.4-49.3-59.7-17.5-25.7-44.3-40.2-51.9-70.1-7.1-27.9-2.1-75.2,0-111.6,2.1-35.6,12.6-74.6,7.8-109-3.1-21.9-21.2-39-28.5-59.7-6.6-18.6-7-46.9-13-70.1-10.2-39.8-32.5-81.6-49.3-124.6-16.1-41.2-33.3-82.7-46.7-127.2-27.7-91.5-59.5-189-54.5-293.2,3.2-66.5,19-130,36.3-192,18.9-67.8,18.3-137.7,13-210.2-10.7-144.3,23.1-268.5,80.4-368.5-24.9-120.3-30.3-276,18.2-355.5,18.8-30.8,49.5-57.5,75.3-85.6,30.9-33.7,58.4-68.9,98.6-88.2,38.3-18.4,81.4-21.6,127.2-28.5,14.7-2.2,33-1.5,46.7-5.2,18.4-5,36.5-24.8,57.1-38.9,54.1-37,125.5-71.5,179.1-103.8,10.7-28.2,9.6-68.2,18.2-98.6-14.2-40.4-31.7-77.3-36.3-127.1-10.8,1.1-26.2,3.6-38.9-5.2-27.1-18.8-87.3-189-13-215.4-23.9-113,11.2-216.4,64.9-280.3,49.4-58.8,128.7-96.4,236.1-88.2,57.5,4.3,115.9,28.6,155.7,62.3,74.1,62.7,107.3,176,90.8,303.6-1.9,8.8,11.6,9.5,18.2,18.2,26.3,34.7,14.3,99.2-2.6,142.7-15.7,40.4-29,72.5-70.1,59.7h0ZM1383.4,3435.2c-6.4,46.4-14.3,95.1-13,140.1,1.4,48.9,18,98.3,20.8,147.9,3.8,68.3-10.1,129.7-23.4,194.6,16,60.1,36,116.3,46.7,181.6,8.5-2.2,6.4-15,7.8-20.8,13.3-56.2,30-109.3,44.1-160.9-13.3-65.7-27.6-128.3-23.4-197.2,3.1-50,19.8-98.6,20.8-147.9.8-44.3-7.1-91.3-13-137.5-17.9-140.9-25.7-282.5-33.7-420.4-2,146.4-15.6,288.7-33.7,420.4h0ZM1850.5,1678.3c16.2,89.6,12.8,220.2-5.2,295.8,31.6,63.8,61.6,122.6,67.5,205,2.5,35.4-7,75.8-2.6,106.4,2.6,18.5,18.8,43.9,28.5,67.5,9.6,23.1,20.9,47.7,25.9,72.7,11.3,56,2.6,105.2-7.8,158.3,16.5-15,40.4-36.9,41.5-57.1,4-73.5,18.6-151.7,18.2-228.4-.5-92.6-33.1-162.3-44.1-241.3-20.8-149-1.1-278.5,46.7-384.1-30.2-63.2-43-143.9-59.7-220.6-25.2,86.4-70.3,152.9-109,225.8h0ZM815.1,1673.1c48.6,108.5,68,240.3,46.7,386.7-9.3,63.9-34.1,125.4-41.5,192-6.3,57.3,1.3,107.6,7.8,160.9,6.9,56.3,1.8,117.7,26,150.5,5.2,7.1,16.3,17.8,23.4,18.2-8.7-36.9-13.3-67.5-13-103.8.5-52.4,16-88.1,31.1-124.6,10.2-24.7,26.2-50.3,28.5-70.1,4.4-36.8-5.2-72.9-2.6-106.4,6.3-81.9,37.9-139.9,67.5-205-18.7-74.2-20.9-204.9-5.2-293.2-40.3-72.1-81.9-143-111.6-225.8-11.4,81.1-28.6,156.5-57.1,220.6h0Z"/>
      <path class="cls-6" d="M1640.3,100.5c15.5-39.8,28.6-81.4,31.1-127.2,4.3-77.9-19.2-143.8-49.3-192-29.3-47-90.2-83.8-155.7-96-113.6-21.1-216.4,35.3-254.3,96-26.1,41.8-45.5,94.3-49.3,150.5-6.2,92.3,25.6,168.3,57.1,223.2,9.2,16,24.7,32,23.4,51.9-15.7-2.8-23.2-20.6-31.1-31.1-27.4-36.4-49.9-75-64.9-122-24.6,37.9-8.7,86.7,5.2,122,7.2,18.2,15,48.5,33.7,41.5,14.7-4.7-8.2-33.6,10.4-36.3,21.5,38.2,25.1,94.3,44.1,135,2.2-15.9-3-39.4,15.6-38.9,7.4,14,4.1,33.8,2.6,51.9-1.5,18-3.1,38.3-5.2,57.1-3.1,28.5-4.8,85.1-18.2,103.8-10,13.9-53.6,31.1-72.7,41.5-28.1,15.3-51.7,29.1-72.7,41.5-54.6,32.4-100.1,63.1-145.3,85.6-13.2-.2,0-19.9-10.4-13-46.7,6.5-87.9,12.3-124.6,31.1-32.3,16.6-58.9,46.4-83,72.7-26,28.3-50.8,53.9-70.1,85.6-44.4,72.9-42.7,194.8-25.9,303.6,2.7,3.9,9.3-20,20.8-7.8-42.4,96.6-86.1,198.1-93.4,316.6-4.9,78.9,6.7,151.2,2.6,231-2.7,53.5-22.2,97.8-33.7,147.9-11.9,51.8-21.4,109.5-18.1,166.1,2.8,49.1,15.7,101.9,28.5,153.1,12,48.2,25,98.5,41.5,142.7,25.6,68.6,58.7,129.2,77.9,194.6,7.4,25.2,5.7,54,15.6,77.9,7.1,17.1,21.7,29.4,25.9,46.7,5.8,23.8,2.6,59,0,90.8-2.2,27.4-4,57.4-5.2,83-.7,16.1-5,31.3-2.6,46.7,5.1,33.2,32.7,44.9,51.9,75.3,10.2,16.1,18.4,39.4,31.1,44.1,42.9,16,93.5-36,114.2-59.7-5.2-83.9-6.6-171.6-7.8-259.5-24.6-29.8-52.9-47.7-64.9-85.6-6-18.9-3.3-43.3-5.2-67.5-5.1-66-23-131-18.2-197.2,4.4-60.9,22-120.5,33.7-179.1,28.4-141.7,22.8-264.4-20.8-384.1-5.5-4.6-8.3,26.8-20.8,15.6.1-26.7,10.8-53.7,18.2-80.5,15.4-55.7,28.5-108.9,38.9-171.3,4.5-27.1,16.9-66.5,15.6-90.8-.7-13.2-8.8-32-13-49.3-11.7-48.3-16.3-115.5-31.1-155.7-6.3-17.2-18.6-30.3-23.4-46.7-4.5-15.4-6.1-34.7-7.8-51.9-1.9-19.1-7.4-44.5,5.2-49.3,11.7,8.8,10.6,25,13,36.3,2.8,13.3,6.3,25.5,10.4,38.9,7.7,25.4,20.7,47.1,28.5,70.1,18.4,53.6,18.2,110.5,31.1,163.5,12.5,51.3,27.1,102.9,46.7,150.5,34.1,82.8,85.7,147.2,111.6,231,3.2,10.4,10.4,25.3,2.6,36.3-18.9-1.9-15.1-26.4-26-36.3-7.2,76.7-10.4,175.1,13,236.1-48.4,86.1-80.9,212.8-67.5,345.1,2.1,20.1,9.1,41.1,0,59.7-16.7-.6-9.1-25.4-18.2-33.7-14.3,42.5-38,79.9-41.5,129.8-3.1,43.6,10.4,88.2,15.5,134.9,7.9,71.5-.7,138.3,2.6,210.2,6.2,136.3,28.8,269.8,54.5,391.9,26.5,125.8,62.8,239.5,111.6,334.8,1.9,11.2-23.6,3.7-15.6,13-4.2,78.6,11.5,159.8,20.8,233.6,8.1,5.6,9.3-29.4,23.4-18.2,2.5,15.6-5.7,31.2-10.4,44.1-37.3,103.3-67.1,230.8-72.7,358.1-6.6,149.9,28.9,285.1,75.3,412.6,21.8,59.9,43.7,122,59.7,184.2,17.2,67.1,34.2,137.3,38.9,207.6,1.6,23.9,6,84.4,2.6,103.8-3.1,18-23.1,43-36.3,59.7-26.5,33.5-51.8,64.7-80.5,90.8-14.1,12.8-36.9,22.3-36.3,44.1,50.1,25.2,120.6-10.6,176.5,5.2-25.7-24.6-13.1-72.8-2.6-101.2,5.6-15,10.8-32.2,20.8-36.3,7.4,31.4-16.3,70.3-7.8,103.8,5.5,21.8,27.8,27,41.5,41.5,33.8-4.8,66,7.5,88.2-5.2,34.6-19.9,8.8-92.3,0-137.5-7-36-12.3-74.3-15.6-106.4-12.2-119.3-24-240.8-18.2-368.5,8.2-179.2,85.4-330.2,72.7-506-4.2-57.1-25.5-113.1-38.9-168.7-10.6-43.8-18.3-87.4-26-129.8-2.2-12.5-10.5-32,2.6-41.5,13.9,6,8.9,30.9,18.2,41.5,3.8-47.2,13.2-89.5,10.4-134.9-3.7-59.8-24.7-117-20.8-181.6,4.5-73.9,19.7-148.5,28.5-225.8,22.4-194.9,25.5-402.1,20.8-615-10.6,3.5-21.3,14.5-33.7,20.8-41.1,20.7-89.6,24.7-140.1,20.8-110.5-8.5-213-77.7-215.4-173.9,17.3,7.7,22.9,28.9,33.7,44.1,10.2,14.3,21.2,31.9,33.7,44.1,66.7,65.2,229.2,81.7,301,28.5,19.9-14.7,27.6-37.2,49.3-54.5,35.3,116.1,258.7,105.4,340,26,18.9-18.5,35.8-47.1,49.3-67.5,5-7.4,6.1-24.1,20.8-20.8-14.2,107-110.8,166-220.6,173.9-67.3,4.8-111.8-7.8-147.9-28.5-8.5-4.9-19.6-15.1-20.8-7.8-4.3,208.9-1.8,421.7,20.8,609.8,9.4,78.3,21.9,154,26,228.4.7,12.8.9,26.1,0,38.9-6.7,92.6-38.8,182.9-7.8,275.1,5-14.9,2-37.8,18.1-41.5,8.3,12,2.4,28.4,0,41.5-8.3,45.5-15.6,87-25.9,129.8-13.6,56.4-35,112.7-38.9,171.3-11.8,175.7,64.8,326.5,72.7,506,2,45.4,2.2,93.9,0,142.7-5,111-14.3,229.2-33.7,329.6-7.1,36.5-21,76.9-18.2,103.8,5.2,48.9,55.8,37.2,109,38.9,11.5-17.2,33.3-19.4,38.9-41.5,8.9-35.2-18.7-78.6-5.2-103.8,12.3,23.7,36.6,67.1,31.1,103.8-2.1,14.3-12.5,22.1-13,33.7,37.6-12.9,86.5,5.7,127.2,5.2,15.7-.2,36.2-1.5,46.7-13-3.6-19.4-22-30.9-36.3-44.1-15-13.8-27.7-27.6-41.5-44.1-22.3-26.6-63.7-65.1-72.7-98.6-3.9-14.8-1-28,0-49.3,1-22.4-1.1-47.1,0-62.3,5-69.3,22-138.9,38.9-205,16-62.5,37.7-123.9,59.7-184.2,46.6-128.1,82.1-265.7,75.3-415.2-5.9-129.1-36.9-259.2-72.6-358.1-4.6-12.8-17.2-29.2-7.8-44.1,13.3-2.9,14.4,31.1,20.8,18.2,10.2-72.9,24.8-155,20.8-233.6,5.2-4.5-20.2-.4-15.6-13,51.3-93.8,84.9-209.3,111.6-334.8,26-122.4,48.5-255.1,54.5-391.9,3.4-76.2-5.6-139.9,2.6-210.2,5.5-47.3,19.2-91.4,15.6-135-4.1-49.4-26.6-87.4-44.1-127.2-2.8,12.6-3,39.3-18.2,31.1,2.8-61.3,10-122.2,5.2-184.2-6.5-84.4-46-158.2-70.1-220.6,11.6-24.9,16.2-62.8,18.1-101.2,2.2-44.7-.3-96-7.8-132.4-6.8,13.9-5.6,36-26,36.3,3.1-52.4,29-94.9,51.9-137.5,45.5-84.7,86.3-176.8,111.6-280.3,13.2-54.1,13.2-115.4,31.1-166.1,7.6-21.6,23.7-42.5,31.1-67.5,4-13.5,4.9-27.7,7.8-41.5,2-9.7,1-29.6,15.5-33.7,10.5,14.8,1.6,33.3,0,49.3-1.8,18.2.1,37.1-5.2,54.5-4.6,15.4-17.6,28.5-23.4,44.1-10.1,27.4-14.3,68.5-20.7,103.8-3.2,17.5-6.2,34.6-10.4,51.9-4,16.5-12.3,36.2-13,49.3-.7,12.5,5.5,29.3,7.8,44.1,12.3,79.9,27.4,151.4,46.7,220.6,8,28.8,23.1,57.2,15.6,80.5-12.4,3.5-13.8-28-18.2-15.6-45.5,121.6-48.3,244-20.8,381.5,12,59.8,29.6,120,33.7,181.6,4.5,66.8-13.7,132.5-18.1,199.8-1.2,17.8,2.7,33.2,0,49.3-4.5,27.3-20.9,41.4-36.3,59.7-12.2,14.4-30.3,29.2-33.7,41.5-5.4,19.7,1,44.3,0,64.9-3,65.7-3.9,136.6-7.8,194.6,24.9,23.1,61.6,62,103.8,59.7,25.3-1.4,28.4-28.5,41.5-49.3,14.8-23.4,39-36.2,46.7-54.5,8.2-19.4,3.6-44.3,2.6-67.5-1.1-25.6-3-53.1-5.2-80.5-2.4-29.5-6-61.4-2.6-85.6,2.9-20.5,21.3-34.6,28.5-51.9,9.5-22.8,8.4-50.5,15.6-75.3,6.5-22.7,14.6-45.8,23.4-67.5,34.7-85.6,71.4-174.1,96-272.5,13-52,26-105.3,28.5-155.7,2.8-55.6-6.3-112.1-18.2-163.5-11.8-51.1-31.3-95.9-33.7-150.5-2.1-48.5,3.5-103.6,5.2-142.7,6-135.8-28.7-243.4-67.5-332.2-10.3-23.6-25-46.3-26-72.7,14.6-7.9,14.9,21.1,18.1,7.8,7.2-59.2,14.6-124.4,10.4-181.6-4.7-64.3-28.1-118-67.5-163.5-16.2-18.7-37.3-39.1-57.1-59.7-20.2-20.9-41.2-43.4-62.3-54.5-36.7-19.3-87.6-25.4-129.8-31.1-4.3-5.4,4,15.9-10.4,13-63.2-37.3-143.4-87.9-215.4-127.1-22.4-12.2-62.1-28.3-72.7-44.1-15-22.6-14.2-67.3-18.1-103.8-2-18.2-3.7-36.2-5.2-54.5-1.3-16.6-7-41.1,5.2-51.9,17.2.9,7.9,28.5,15.6,38.9,9.1-33.8,19.6-73.2,28.5-103.8,3.3-11.3,3.5-26.8,15.6-31.1,15.2,5.9-9.1,35.4,10.4,36.3,18.1,4.6,23.9-25.3,31.1-44.1,14.3-37.3,31.8-86.9,2.6-119.4-11.4,47.9-37.6,91.6-62.3,124.6-7.7,10.3-18.7,30.3-33.7,26,15.3-34,37.2-66.1,51.9-103.8h-.1ZM1544.3,3642.8c3-.4,4.6.6,5.2,2.6-1,40.1,23.2,79.1,10.4,114.2-17.4-30.9-24.5-70.9-15.6-116.8h0ZM1694.8,3588.3c34.3,37.8,32.8,100.9,31.1,163.5-13.5-7.2-9.8-31.7-20.8-41.5.2-44.3-.7-87.5-10.4-122h0ZM1284.8,3642.8c3-.4,4.6.6,5.2,2.6,10.3,45.2-.8,80-13,114.2-19.8-31.8,11.5-77.1,7.8-116.8h0ZM1136.9,3588.3c6.9,10.3-3.6,17.1-5.2,28.5-3.7,27,2.2,63.4-2.6,90.8-1.4,8.3-7.1,15.2-10.4,23.4-2.9,7.2.1,21.8-10.4,20.8-2.5-62.8-1.4-122.1,28.6-163.5h0ZM1422.3,1320.2c2.2-.5,2.4,1,2.6,2.6-1.1,137.4,8.9,287.1,2.6,430.8-2,45.5,1.8,91.8-10.4,132.4-16.6-15.2-12.6-40.6-13-62.3-1.3-68.4-3.4-144.6,0-218,4.7-101.8,1.3-206.2,18.2-285.5h0ZM1411.9,289.9h5.2c9.8,6.2,5,21.7,5.2,31.1,1.1,55,13,123-2.6,168.7-.6-.3-2.1.4-2.6,0-30.5-27.9,5.3-135.4-5.2-192v-7.8h0ZM1520.9,230.3c-8.4,10.1-23.7,12.6-33.7,13-21.5.9-44.9-14.4-64.9-15.6-33.5-1.9-75.3,32-109,5.2,4.2-7,14.5-3.6,20.8-5.2,7.9-2,14.7-5.3,23.4-7.8,23.3-6.8,46.6-19.9,75.3-15.6,14.1,2.1,30.3,11.5,44.1,15.6,15.5,4.5,28.9,8.9,44.1,10.4h0ZM618.3,1686.4c-4.1,29.5-21.6,53.4-14.3,85.8-.6,23.5,23.5,48.9,26.7,67.7-6.4-10.5-50.8-43.8-50.5-60.1,6.4-32.1,17.5-82.3,38.1-93.4h0ZM717.4,1710.2c-10.4,16.4-5.3,42-9.8,68.4-2.5,15.1-24.5,9.6-24.5,27.9s-.6,19.2,1,18.1c21.4-15.8,38.1-21.8,38.1-53.4s2.4-26.5,0-35.3c-1.6-5.8-5.2-10.6-2.6-15.6,6.1-12.2-3.3-10.5-2.1-10.1h0ZM2109.4,1710.2c10.4,16.4,5.3,42,9.8,68.4,2.5,15.1,24.5,9.6,24.5,27.9s.6,19.2-1,18.1c-21.4-15.8-38.1-21.8-38.1-53.4s-2.4-26.5,0-35.3c1.6-5.8,5.2-10.6,2.6-15.6-6.1-12.2,3.3-10.5,2.1-10.1h0ZM2208.5,1686.4c4.1,29.5,21.6,53.4,14.3,85.8.6,23.5-23.5,48.9-26.7,67.7,6.4-10.5,50.8-43.8,50.5-60.1-6.4-32.1-17.5-82.3-38.1-93.4h0Z"/>
      <path class="cls-3" d="M872.8,684.9c20.2-10.2,33.3-11.6,51-4.4,31.6,12.8,62.1,47.9,73.3,76.1,9,22.6,2.9,28.6-19.1,40.1-132.3,75.3-211,183.4-265.5,306.3-12.4,34.6-47.5,69.1-53.4-32.4-15.5-66.5-14.1-148.6,27.3-225.3,37.7-69.8,111.1-136.2,186.4-160.4h0Z"/>
      <path class="cls-3" d="M837.8,959.3c2.3-25.8,89.9-122.2,125.7-105.8,36.9,8.2,21.1,111.3,51,177.6,12.9,53.4-81.5,76.8-114.4,54.5-37.6-23.8-67.7-92.9-62.3-126.3h0Z"/>
      <path class="cls-3" d="M692.8,1171.9c57.4-70.9,59.6-60,80.9-16.4,21.3,30.4,74.7,165,47.3,292.4-14.2,64.1-28.5,128.1-42.7,192.2-17,58.3-34,96.8-50.9-3.3-15.9-45.5-58.6-76.1-49.8-136.4,2.7-44.4-35.4-51.3-52-1.6-5.5,36.7-10.9,73.4-16.4,110.1-23,83.2-35.2,80.5-32.9-6.6-10.7-222.2,38-350.2,116.6-430.4h0Z"/>
      <path class="cls-3" d="M867.8,1198.4c-5.1-38.4-48.9-106.9,39-75.5,37.9,11.1,96.4-3.2,132.9-33.8,16.9-23.6,33.8-22.6,50.8,3.1,82.2,72.3,141.9,183.1,195.4,304.7,29,38,25.8,70.3,10.8,100-33.6,83.1-68.7,162.9-113.9,220-32.8,35.8-93.6,35.5-126.5-14.9-72.6-104.3-167.4-265.6-188.5-503.6h0Z"/>
      <path class="cls-3" d="M971.4,671.7c-.8-23.6,231.2-69.1,359.2-76.2,49.8-5.1,61.7,3.2,64,39,7.6,238.5,11.4,475.2,0,704.7-3,71.2-19.2,180.7-61.1,69.1-52.4-128.9-180.8-319.8-289.8-405.2-16.6-13.3-34.2-46.9-28.1-73,8.9-42.8,74-81.5,79.2-113.7,4.2-28.9-13.7-30.8-40.2-49.8-30.8-27.7-86.2-62-83.2-94.7h0Z"/>
      <path class="cls-3" d="M1075.6,595.5c85.6-57.4,171.2-65.1,181.7-97,29.3-119.4,11.5-198.2,26.6-212.2,12.2-22.8,74.6-17.8,86-4.8,27.1,42.4,4.4,150.4,8.5,224.3,0,32.3,6.1,62.2-41.2,70.3-57.3,4-130.4,9.3-229,32.7-64.6,21-72.3,11.7-32.7-13.3h0Z"/>
      <path class="cls-5" d="M1154.3,1773.4c-33.4,7.3-42.2,95.3,14.1,111,54,23.5,106.1,53.8,151.2,108.3,35.6,44,48.3,29,51.1-39,14.1-102.1,4.7-285.1,4.4-446.6-5.2-31.6-28.4-23.2-39.3-6.3-52,83.5-88.5,255.2-181.5,272.5h0Z"/>
      <path class="cls-3" d="M1030.3,1787.5c14.8-21.1,75-30.6,72.8,0-3.9,26.8,1.8,56.7,7.4,83.5,1.8,24.3-61.9,81.4-76,42.3-10.6-24.9-18-69.8-4.2-125.7h0Z"/>
      <path class="cls-3" d="M1271.2,2078.5c-93.7,37.1-130.3,141.3-192.9,209.5-30,32.2-105.7,131.5-107.9-8.2.8-163.3,22.5-326,178.2-345.3,46.2-5.1,217.8,98,122.6,144h0Z"/>
      <path class="cls-3" d="M1302.8,2101.7c81.9-40.6,92,25.3,89.1,67.4-1.4,131.8-2.9,263.7-4.3,395.5-7.2,48.5-23.2,107.9-141.2,117.3-173.8,20.3-310.8-250.6-199.9-315.1,98.5-38.4,164.4-228.9,256.4-265.1h0Z"/>
      <path class="cls-3" d="M675.9,1928.4c7.3-69.3,27-54,42.6-87.1,26.7-56.4,75.3-92.7,90.5-18.9,55,204.3-85.8,402.5-18.6,631.9,11,42.5-3.8,158.1-35.8,20.1-26.3-182-76.8-351.1-78.7-546h0Z"/>
      <path class="cls-3" d="M547.1,1876.8c25.4-77.4,67.2-51.1,103.1,111.8,9.8,45.9,10.1,94.5,22.5,179.2,15.5,105.5,44.2,252.2,69.1,345.2,13.6,68.6-14.1,93.4-63-24.4-67-222.7-177.9-424.9-131.7-611.9h0Z"/>
      <path class="cls-3" d="M1960.9,684.9c-20.2-10.2-33.3-11.6-51-4.4-31.6,12.8-62.1,47.9-73.3,76.1-9,22.6-2.9,28.6,19.1,40.1,132.3,75.3,211,183.4,265.5,306.3,12.4,34.6,47.5,69.1,53.4-32.4,15.5-66.5,14.1-148.6-27.3-225.3-37.7-69.8-111.1-136.2-186.4-160.4h0Z"/>
      <path class="cls-3" d="M1995.9,959.3c-2.3-25.8-89.9-122.2-125.7-105.8-36.9,8.2-21.1,111.3-51,177.6-12.9,53.4,81.5,76.8,114.4,54.5,37.6-23.8,67.7-92.9,62.3-126.3h0Z"/>
      <path class="cls-3" d="M2140.9,1171.9c-57.4-70.9-59.6-60-80.9-16.4-21.3,30.4-74.7,165-47.3,292.4,14.2,64.1,28.5,128.1,42.7,192.2,17,58.3,34,96.8,50.9-3.3,15.9-45.5,58.6-76.1,49.8-136.4-2.7-44.4,35.4-51.3,52-1.6,5.5,36.7,10.9,73.4,16.4,110.1,23,83.2,35.2,80.5,32.9-6.6,10.7-222.2-38-350.2-116.6-430.4h0Z"/>
      <path class="cls-3" d="M1965.9,1198.4c5.1-38.4,48.9-106.9-39-75.5-37.9,11.1-96.4-3.2-132.9-33.8-16.9-23.6-33.8-22.6-50.8,3.1-82.2,72.3-141.9,183.1-195.4,304.7-29,38-25.8,70.3-10.8,100,33.6,83.1,68.7,162.9,113.9,220,32.8,35.8,93.6,35.5,126.5-14.9,72.6-104.3,167.4-265.6,188.5-503.6h0Z"/>
      <path class="cls-3" d="M1862.3,671.7c.7-23.6-226.8-69.1-352.3-76.2-48.8-5.1-60.5,3.2-62.8,39-7.4,238.5-11.2,475.2,0,704.7,2.9,71.2,18.8,180.7,59.9,69.1,51.4-128.9,177.3-319.8,284.2-405.2,16.3-13.3,33.6-46.9,27.5-73-8.7-42.8-72.6-81.5-77.7-113.7-4.2-28.9,13.4-30.8,39.4-49.8,30.2-27.7,84.5-62,81.6-94.7h0Z"/>
      <path class="cls-3" d="M1758.1,595.5c-85.6-57.4-171.2-65.1-181.7-97-29.3-119.4-11.5-198.2-26.6-212.2-12.2-22.8-74.6-17.8-86-4.8-27.1,42.4-4.4,150.4-8.5,224.3,0,32.3-6.1,62.2,41.2,70.3,57.3,4,130.4,9.3,229,32.7,64.6,21,72.3,11.7,32.7-13.3h0Z"/>
      <path class="cls-5" d="M1679.6,1773.4c33.2,7.3,41.9,95.3-13.9,111-53.6,23.5-105.3,53.8-150,108.3-35.3,44-48,29-50.7-39-14-102.1-4.7-285.1-4.4-446.6,5.2-31.6,28.2-23.2,39-6.3,51.6,83.5,87.8,255.2,180.1,272.5h0Z"/>
      <path class="cls-3" d="M1803.4,1787.5c-14.8-21.1-75-30.6-72.8,0,3.9,26.8-1.8,56.7-7.4,83.5-1.8,24.3,61.9,81.4,76,42.3,10.6-24.9,18-69.8,4.2-125.7h0Z"/>
      <path class="cls-3" d="M1562.5,2078.5c93.7,37.1,130.3,141.3,192.9,209.5,30,32.2,105.7,131.5,107.9-8.2-.8-163.3-22.5-326-178.2-345.3-46.2-5.1-217.8,98-122.6,144h0Z"/>
      <path class="cls-3" d="M1530.9,2101.7c-81.9-40.6-92,25.3-89.1,67.4,1.4,131.8,2.9,263.7,4.3,395.5,7.2,48.5,23.2,107.9,141.2,117.3,173.8,20.3,310.8-250.6,199.9-315.1-98.5-38.4-164.4-228.9-256.4-265.1h0Z"/>
      <path class="cls-3" d="M2157.8,1928.4c-7.3-69.3-27-54-42.6-87.1-26.7-56.4-75.3-92.7-90.5-18.9-55,204.3,85.8,402.5,18.6,631.9-11,42.5,3.8,158.1,35.8,20.1,26.3-182,76.8-351.1,78.7-546h0Z"/>
      <path class="cls-3" d="M2286.6,1876.8c-25.4-77.4-67.2-51.1-103.1,111.8-9.8,45.9-10.1,94.5-22.5,179.2-15.5,105.5-44.2,252.2-69.1,345.2-13.6,68.6,14.1,93.4,63-24.4,67-222.7,177.9-424.9,131.7-611.9h0Z"/>
      <path class="cls-3" d="M990,2700.4c3.3-54.5,42.7-3.8,87.6,22.8,39.6,23.5,88.2,6.8,83.2,73,8.9,187.2,34.3,399.2,26.8,561.5-3.2,107.1-39.9,168.1-60.4,178.6-20.5,10.5-41.5-23.9-62.7-90.5-54.2-219.5-99.8-468.4-74.4-745.4h0Z"/>
      <path class="cls-3" d="M1199.1,2760.7c16.8,1.8,24.5,2.2,48.4,3.2,24,1.1,45.7-10.9,47,10,41.9,260.5,51,502.9,17,714.3-7.5,62.9-26.3,66.2-40.7,58.7-14.4-7.5-29.9-51.1-47.3-157.8-20.4-271.4-36.9-518.1-34.4-599.4.4-12.8-.9-30.6,10.1-29.1h0Z"/>
      <path class="cls-3" d="M1114.8,3833.1c44-101.6,71.2-80.3,69.9,52.4-10.3,143.7-20.7,299.1-7.8,454.5,8.4,77.7-107.4,114.6-126.1-40.8-8.7-170.4,10.7-326.8,64-466.2h0Z"/>
      <path class="cls-3" d="M1228.6,3871.1c23.4-131.2,55-85.5,90.5,40.7,47,199.1,65.1,385.5,19.6,544.4-46.8,165.4-122.2,9.6-129.7-73.9-11.1-184.5-5.5-354.9,19.6-511.2h0Z"/>
      <path class="cls-3" d="M1841.7,2700.4c-3.3-54.5-42.7-3.8-87.6,22.8-39.6,23.5-88.2,6.8-83.2,73-8.9,187.2-34.3,399.2-26.8,561.5,3.2,107.1,39.9,168.1,60.4,178.6,20.5,10.5,41.5-23.9,62.7-90.5,54.2-219.5,99.8-468.4,74.4-745.4h0Z"/>
      <path class="cls-3" d="M1632.7,2760.7c-16.8,1.8-24.5,2.2-48.4,3.2-24,1.1-45.7-10.9-47,10-41.9,260.5-51,502.9-17,714.3,7.5,62.9,26.3,66.2,40.7,58.7,14.4-7.5,29.9-51.1,47.3-157.8,20.4-271.4,36.9-518.1,34.4-599.4-.4-12.8.9-30.6-10.1-29.1h0Z"/>
      <path class="cls-3" d="M1716.9,3833.1c-44-101.6-71.2-80.3-69.9,52.4,10.3,143.7,20.7,299.1,7.8,454.5-8.4,77.7,107.4,114.6,126.1-40.8,8.7-170.4-10.7-326.8-64-466.2h0Z"/>
      <path class="cls-3" d="M1603.1,3871.1c-23.4-131.2-55-85.5-90.5,40.7-47,199.1-65.1,385.5-19.6,544.4,46.8,165.4,122.2,9.6,129.7-73.9,11.1-184.5,5.5-354.9-19.6-511.2h0Z"/>
    </g>
  </g>
</svg>