<?xml version="1.0" encoding="UTF-8"?>
<svg id="_ÎÓÈ_1" data-name=" ÎÓÈ 1" xmlns="http://www.w3.org/2000/svg" xmlns:xlink="http://www.w3.org/1999/xlink" version="1.1" viewBox="0 0 2834.6 2834.6">
  <defs>
    <style>
      .cls-1 {
        clip-path: url(#clippath);
      }

      .cls-2 {
        fill: none;
      }

      .cls-2, .cls-3, .cls-4, .cls-5, .cls-6 {
        stroke-width: 0px;
      }

      .cls-3 {
        fill: #e73f32;
      }

      .cls-3, .cls-4, .cls-5, .cls-6 {
        fill-rule: evenodd;
      }

      .cls-4 {
        fill: #ececec;
      }

      .cls-5 {
        fill: #868686;
      }

      .cls-6 {
        fill: #c6c6c5;
      }
    </style>
    <clipPath id="clippath">
      <rect class="cls-2" x="-1.7" y="2.1" width="2838.1" height="2830.3"/>
    </clipPath>
  </defs>
  <g class="cls-1">
    <g>
      <path class="cls-5" d="M1586.9-1136.5c-3.2,38.8-15.9,68-27.9,97.9,6.1,24.5,5.8,55.4,14,77.9,62.1,34.5,124.2,68.8,179.7,109.9,57.7,4.9,110,9.8,151.8,37.9,22.8,15.3,40.6,34.9,59.9,55.9,41,44.8,79.8,82.6,85.9,161.8,2.2,29.2.4,62.8-2,93.9-2.3,29.3-3.3,59.1-14,81.9,19.5,37.4,41.5,77.4,51.9,123.8,10.8,47.9,17.9,104.9,14,161.8-3.8,54.6-8.6,109.5,6,161.8,13.2,47.1,26.8,92.6,30,143.8,5,81-20.4,156.6-41.9,227.7-10.4,34.5-21.4,67.9-33.9,99.9-12.8,32.7-31.6,63.3-39.9,93.9-4.6,16.8-3.8,37.8-8,51.9-4.9,16.7-21.2,31-24,47.9-3.6,21.8,2.2,57.2,4,81.9,2.3,31.3,7.1,68.3,0,91.9-5.9,19.6-24.4,34-36,49.9-12,16.5-19.3,41.7-39.9,47.9-41.7,12.6-70.6-22.4-95.9-37.9-20.4,161.4-44,319.5-107.9,437.4,4.9,66.1-2.8,135.2-12,195.7-3,19.7-4,40.4-14,55.9,61.2,140.5,71.8,336.4,30,493.3-19.5,73.1-51,142.4-71.9,215.7-17.9,63-33.4,133-35.9,215.7-.4,11.8-3.4,25-2,34,2.2,13.8,16.7,27.6,28,41.9,10.6,13.6,21.5,28.1,29.9,37.9,17.6,20.5,63,48.5,61.9,73.9-2,48.3-102,20.5-147.8,24-31.2,2.4-80.9,17.6-117.8,6-48.5-15.3-29.7-79.9-20-131.8,16.1-85.5,22.6-183.2,26-279.6,5.1-147.2-28.6-244-49.9-357.5-21,110.4-55,212-49.9,357.5,3.3,95.3,9.4,191.5,26,279.6,9.3,49.4,30.4,116.5-20,131.8-36.7,11.1-81.2-3-115.8-6-41.8-3.6-145.1,24-149.8-22-2.5-25,48.3-60.1,61.9-75.9,9.4-10.9,19.7-24.9,29.9-37.9,10.7-13.6,25.6-27.6,28-39.9,2.6-13.8-1-49.6-2-69.9-1.1-23.3-4.8-45.7-8-63.9-15.3-86.8-36.9-150.8-63.9-223.7-13.2-35.6-23.9-72.3-33.9-109.9-21.4-79.9-30-164.9-26-257.6,3.7-83.3,25.1-164.2,53.9-233.7-13.5-35.1-17.5-75.6-22-119.8-3.3-32.5-5.8-65.5-6-99.9,0-10.4,3.3-23.2,2-32-1.5-10.2-16.2-34.9-22-47.9-47.9-109-67.2-249.6-85.9-389.4-7.6.4-14.5,8.5-22,14-14.6,10.7-45.5,30.5-73.9,22-18.8-5.7-25.2-27.2-37.9-45.9-13.5-19.8-34.1-31-39.9-53.9-5.5-21.5-1.6-57.9,0-85.9,1.6-27.4,9.7-57.4,6-83.9-2.4-16.8-16.3-30-22-45.9-5.1-14.3-5.4-36.1-10-53.9-7.9-30.6-25-62.8-37.9-95.9-12.4-31.7-25.6-63.7-36-97.9-21.3-70.4-45.8-145.4-41.9-225.7,2.5-51.2,14.6-100,28-147.8,14.6-52.2,14.1-106,10-161.8-8.2-111.1,17.8-206.7,61.9-283.6-19.2-92.6-23.3-212.4,14-273.6,14.5-23.7,38.1-44.3,57.9-65.9,23.8-26,44.9-53,75.9-67.9,29.5-14.2,62.7-16.6,97.9-22,11.4-1.7,25.4-1.1,35.9-4,14.2-3.8,28.1-19.1,43.9-30,41.7-28.5,96.6-55,137.8-79.9,8.2-21.7,7.4-52.5,14-75.9-10.9-31.1-24.4-59.5-28-97.9-8.3.8-20.2,2.7-29.9-4-20.9-14.4-67.2-145.5-10-165.8-18.4-87,8.6-166.5,49.9-215.7,38-45.3,99-74.2,181.7-67.9,44.2,3.3,89.2,22,119.8,47.9,57.1,48.3,82.6,135.5,69.9,233.7-1.4,6.8,9,7.3,14,14,20.2,26.7,11,76.3-2,109.8-12.1,31.1-22.3,55.8-53.9,45.9h0ZM1391.2,1320.1c-4.9,35.7-11,73.2-10,107.9,1.1,37.6,13.9,75.6,16,113.8,2.9,52.5-7.7,99.8-18,149.8,12.3,46.3,27.7,89.5,36,139.8,6.6-1.7,5-11.6,6-16,10.2-43.3,23.1-84.1,34-123.8-10.2-50.6-21.3-98.7-18-151.8,2.4-38.5,15.3-75.8,16-113.8.6-34.1-5.5-70.3-10-105.8-13.8-108.5-19.8-217.4-26-323.6-1.5,112.7-12,222.2-26,323.6h0ZM1750.7-32c12.4,68.9,9.9,169.5-4,227.7,24.3,49.1,47.4,94.3,51.9,157.8,1.9,27.3-5.4,58.3-2,81.9,2,14.2,14.4,33.8,22,51.9,7.4,17.8,16.1,36.7,20,55.9,8.7,43.1,2,81-6,121.8,12.7-11.5,31.1-28.4,32-43.9,3.1-56.6,14.3-116.8,14-175.7-.4-71.3-25.5-124.9-34-185.7-16-114.6-.8-214.4,36-295.6-23.3-48.6-33.1-110.7-45.9-169.8-19.4,66.5-54.1,117.7-83.9,173.8h0ZM953.8-36c37.4,83.5,52.3,185,36,297.6-7.1,49.2-26.3,96.5-32,147.8-4.9,44.1,1,82.8,6,123.8,5.3,43.4,1.4,90.6,20,115.8,4,5.5,12.6,13.7,18,14-6.7-28.4-10.2-51.9-10-79.9.3-40.3,12.3-67.8,24-95.9,7.9-19,20.1-38.7,22-53.9,3.4-28.3-4-56.1-2-81.9,4.9-63,29.2-107.7,51.9-157.8-14.4-57.1-16.1-157.7-4-225.7-31-55.5-63-110-85.9-173.8-8.8,62.4-22,120.4-43.9,169.8h0Z"/>
      <path class="cls-6" d="M1588.9-1246.3c11.9-30.6,22-62.7,24-97.9,3.3-60-14.8-110.7-37.9-147.8-22.6-36.2-69.4-64.5-119.8-73.9-87.4-16.2-166.5,27.1-195.7,73.9-20.1,32.2-35.1,72.6-37.9,115.8-4.8,71.1,19.7,129.5,43.9,171.8,7.1,12.4,19,24.7,18,39.9-12.1-2.2-17.9-15.9-24-24-21.1-28-38.4-57.8-49.9-93.9-18.9,29.2-6.7,66.7,4,93.9,5.5,14,11.6,37.4,26,32,11.3-3.6-6.3-25.9,8-28,16.5,29.4,19.3,72.6,34,103.9,1.7-12.3-2.3-30.3,12-30,5.7,10.8,3.1,26,2,39.9-1.1,13.9-2.4,29.5-4,43.9-2.4,21.9-3.7,65.5-14,79.9-7.7,10.7-41.2,24-55.9,32-21.6,11.8-39.8,22.4-55.9,32-42,24.9-77,48.6-111.9,65.9-10.2-.1,0-15.3-8-10-35.9,5-67.6,9.5-95.9,24-24.9,12.8-45.3,35.7-63.9,55.9-20,21.8-39.1,41.5-53.9,65.9-34.1,56.1-32.9,150-20,233.7,2.1,3,7.2-15.4,16-6-32.7,74.3-66.2,152.5-71.9,243.7-3.8,60.7,5.2,116.4,2,177.7-2.1,41.2-17.1,75.2-26,113.8-9.2,39.8-16.4,84.3-14,127.8,2.1,37.8,12.1,78.4,22,117.8,9.3,37.1,19.2,75.8,32,109.9,19.7,52.8,45.2,99.5,59.9,149.8,5.7,19.4,4.4,41.6,12,59.9,5.5,13.2,16.7,22.7,20,36,4.5,18.3,2,45.4,0,69.9-1.7,21.1-3.1,44.2-4,63.9-.6,12.4-3.8,24.1-2,36,4,25.5,25.1,34.6,39.9,57.9,7.9,12.4,14.2,30.3,24,34,33,12.3,72-27.7,87.9-45.9-4-64.6-5.1-132.1-6-199.7-18.9-23-40.7-36.7-49.9-65.9-4.6-14.6-2.6-33.3-4-51.9-3.9-50.8-17.7-100.8-14-151.8,3.4-46.8,16.9-92.7,26-137.8,21.8-109.1,17.6-203.5-16-295.6-4.3-3.5-6.4,20.6-16,12,0-20.5,8.3-41.3,14-61.9,11.9-42.9,22-83.8,29.9-131.8,3.5-20.8,13-51.2,12-69.9-.5-10.1-6.8-24.7-10-37.9-9-37.2-12.6-88.9-24-119.8-4.9-13.2-14.3-23.3-18-36-3.4-11.9-4.7-26.7-6-39.9-1.4-14.7-5.7-34.2,4-37.9,9,6.8,8.1,19.2,10,28,2.2,10.2,4.8,19.6,8,30,5.9,19.5,15.9,36.3,22,53.9,14.1,41.3,14,85,24,125.8,9.7,39.5,20.9,79.2,36,115.8,26.3,63.7,65.9,113.3,85.9,177.7,2.5,8,8,19.5,2,28-14.5-1.5-11.6-20.3-20-28-5.6,59.1-8,134.7,10,181.7-37.3,66.2-62.3,163.7-51.9,265.6,1.6,15.5,7,31.7,0,45.9-12.8-.5-7-19.6-14-26-11,32.7-29.2,61.5-32,99.9-2.4,33.6,8,67.9,12,103.8,6.1,55-.5,106.4,2,161.8,4.8,104.9,22.1,207.7,41.9,301.6,20.4,96.8,48.4,184.3,85.9,257.6,1.4,8.6-18.1,2.8-12,10-3.2,60.5,8.8,123,16,179.7,6.3,4.3,7.2-22.6,18-14,1.9,12-4.4,24-8,34-28.7,79.5-51.6,177.6-55.9,275.6-5.1,115.4,22.2,219.4,57.9,317.6,16.8,46.1,33.7,93.9,45.9,141.8,13.2,51.6,26.3,105.7,30,159.8,1.2,18.4,4.6,64.9,2,79.9-2.4,13.8-17.8,33.1-27.9,45.9-20.4,25.8-39.8,49.8-61.9,69.9-10.9,9.9-28.4,17.1-28,34,38.5,19.4,92.8-8.1,135.8,4-19.8-19-10.1-56-2-77.9,4.3-11.5,8.3-24.8,16-28,5.7,24.2-12.5,54.1-6,79.9,4.3,16.8,21.4,20.8,32,32,26-3.7,50.8,5.8,67.9-4,26.7-15.3,6.7-71,0-105.9-5.4-27.7-9.4-57.2-12-81.9-9.4-91.8-18.4-185.3-14-283.6,6.3-137.9,65.8-254.1,55.9-389.4-3.2-43.9-19.6-87.1-30-129.8-8.2-33.7-14-67.3-20-99.9-1.7-9.6-8.1-24.6,2-32,10.7,4.6,6.8,23.8,14,32,3-36.3,10.2-68.9,8-103.8-2.9-46-19-90-16-139.8,3.5-56.9,15.1-114.3,22-173.8,17.2-150,19.6-309.4,16-473.3-8.2,2.7-16.4,11.2-26,16-31.6,15.9-69,19-107.9,16-85.1-6.6-164-59.8-165.8-133.8,13.3,5.9,17.6,22.2,26,34,7.8,11,16.3,24.5,26,34,51.3,50.2,176.4,62.9,231.7,22,15.3-11.4,21.2-28.6,37.9-41.9,27.1,89.3,199.1,81.1,261.6,20,14.6-14.2,27.5-36.3,37.9-51.9,3.8-5.7,4.7-18.5,16-16-11,82.4-85.3,127.8-169.8,133.8-51.8,3.7-86.1-6-113.8-22-6.6-3.8-15-11.6-16-6-3.3,160.8-1.4,324.5,16,469.3,7.3,60.3,16.8,118.5,20,175.7.5,9.9.7,20.1,0,30-5.2,71.3-29.8,140.8-6,211.7,3.9-11.4,1.6-29.1,14-32,6.4,9.3,1.8,21.8,0,32-6.4,35.1-12,66.9-20,99.9-10.5,43.4-26.9,86.7-30,131.8-9.1,135.2,49.9,251.3,55.9,389.4,1.5,34.9,1.7,72.3,0,109.9-3.9,85.5-11,176.4-25.9,253.6-5.4,28.1-16.2,59.2-14,79.9,4,37.7,43,28.7,83.9,30,8.8-13.2,25.6-15,30-32,6.9-27.1-14.4-60.5-4-79.9,9.5,18.2,28.1,51.6,24,79.9-1.6,11-9.6,17-10,26,28.9-9.9,66.5,4.4,97.9,4,12.1-.2,27.8-1.2,35.9-10-2.8-14.9-16.9-23.8-27.9-34-11.5-10.6-21.3-21.2-32-34-17.2-20.5-49.1-50.1-55.9-75.9-3-11.4-.7-21.5,0-37.9.7-17.2-.8-36.2,0-47.9,3.9-53.3,16.9-106.9,30-157.8,12.3-48.1,29-95.4,45.9-141.8,35.9-98.6,63.1-204.5,57.9-319.6-4.5-99.4-28.4-199.5-55.9-275.6-3.6-9.8-13.2-22.5-6-34,10.2-2.2,11.1,24,16,14,7.8-56.1,19.1-119.3,16-179.7,4-3.5-15.6-.3-12-10,39.4-72.2,65.3-161.1,85.9-257.6,20-94.2,37.3-196.3,41.9-301.6,2.6-58.6-4.3-107.7,2-161.8,4.2-36.4,14.8-70.3,12-103.9-3.2-38-20.5-67.3-34-97.9-2.1,9.7-2.3,30.3-14,24,2.1-47.2,7.7-94.1,4-141.8-5-65-35.4-121.8-53.9-169.8,9-19.2,12.5-48.3,14-77.9,1.7-34.4-.2-73.9-6-101.9-5.3,10.7-4.3,27.7-20,28,2.4-40.3,22.3-73,39.9-105.9,35-65.2,66.4-136.1,85.9-215.7,10.2-41.7,10.2-88.8,24-127.8,5.9-16.6,18.2-32.7,24-51.9,3.1-10.4,3.7-21.3,6-32,1.6-7.4.7-22.8,12-26,8.1,11.4,1.2,25.6,0,37.9-1.3,14,0,28.5-4,41.9-3.6,11.8-13.5,22-18,34-7.8,21.1-11,52.7-16,79.9-2.5,13.5-4.8,26.7-8,39.9-3.1,12.7-9.4,27.8-10,37.9-.5,9.6,4.2,22.5,6,34,9.4,61.5,21.1,116.5,36,169.8,6.2,22.2,17.7,44,12,61.9-9.5,2.7-10.6-21.5-14-12-35,93.6-37.2,187.8-16,293.6,9.2,46,22.8,92.3,26,139.8,3.4,51.4-10.6,101.9-14,153.8-.9,13.7,2,25.5,0,37.9-3.4,21-16.1,31.9-28,45.9-9.4,11.1-23.4,22.5-26,32-4.2,15.2.7,34.1,0,49.9-2.3,50.6-3,105.1-6,149.8,19.1,17.8,47.4,47.7,79.9,45.9,19.5-1.1,21.9-22,32-37.9,11.4-18,30-27.8,36-41.9,6.3-14.9,2.8-34.1,2-51.9-.9-19.7-2.3-40.9-4-61.9-1.8-22.7-4.6-47.3-2-65.9,2.2-15.8,16.4-26.6,22-39.9,7.3-17.5,6.5-38.9,12-57.9,5-17.4,11.2-35.2,18-51.9,26.7-65.8,55-134,73.9-209.7,10-40,20-81.1,22-119.8,2.1-42.8-4.9-86.3-14-125.8-9.1-39.3-24.1-73.8-25.9-115.8-1.6-37.4,2.7-79.7,4-109.9,4.6-104.5-22.1-187.3-51.9-255.6-7.9-18.2-19.3-35.7-20-55.9,11.2-6.1,11.5,16.2,14,6,5.5-45.5,11.2-95.7,8-139.8-3.6-49.5-21.6-90.8-51.9-125.8-12.5-14.4-28.7-30.1-43.9-45.9-15.5-16.1-31.7-33.4-47.9-41.9-28.2-14.9-67.4-19.6-99.9-24-3.3-4.1,3.1,12.2-8,10-48.6-28.7-110.3-67.6-165.8-97.9-17.2-9.4-47.8-21.8-55.9-34-11.6-17.4-11-51.8-14-79.9-1.5-14-2.8-27.9-4-41.9-1-12.8-5.4-31.6,4-39.9,13.3.7,6,21.9,12,30,7-26,15.1-56.4,22-79.9,2.5-8.7,2.7-20.6,12-24,11.7,4.6-7,27.2,8,28,13.9,3.5,18.4-19.5,24-34,11-28.7,24.5-66.9,2-91.9-8.8,36.9-28.9,70.5-47.9,95.9-5.9,7.9-14.4,23.3-26,20,11.8-26.1,28.7-50.9,39.9-79.9h-.1ZM1515,1479.9c2.3-.3,3.6.4,4,2-.7,30.9,17.9,60.9,8,87.9-13.4-23.8-18.9-54.5-12-89.9h0ZM1630.9,1437.9c26.4,29.1,25.3,77.6,24,125.8-10.4-5.6-7.5-24.4-16-32,.1-34.1-.6-67.3-8-93.9h0ZM1315.3,1479.9c2.3-.3,3.5.4,4,2,8,34.8-.6,61.6-10,87.9-15.3-24.5,8.9-59.4,6-89.9h0ZM1201.5,1437.9c5.3,7.9-2.8,13.2-4,22-2.9,20.8,1.7,48.8-2,69.9-1.1,6.4-5.5,11.7-8,18-2.2,5.5,0,16.8-8,16-1.9-48.3-1.1-94,22-125.8h0ZM1421.2-307.6c1.7-.4,1.9.8,2,2-.9,105.7,6.9,220.9,2,331.5-1.5,35,1.4,70.6-8,101.9-12.8-11.7-9.7-31.3-10-47.9-1-52.6-2.6-111.3,0-167.8,3.6-78.3,1-158.7,14-219.7h0ZM1413.2-1100.5h4c7.6,4.8,3.8,16.7,4,24,.9,42.3,10,94.6-2,129.8-.4-.3-1.6.3-2,0-23.4-21.5,4.1-104.2-4-147.8v-6h0ZM1497.1-1146.4c-6.5,7.8-18.3,9.7-26,10-16.6.7-34.6-11.1-49.9-12-25.8-1.5-57.9,24.7-83.9,4,3.3-5.4,11.2-2.8,16-4,6.1-1.6,11.3-4.1,18-6,17.9-5.2,35.9-15.3,57.9-12,10.9,1.6,23.3,8.9,34,12,11.9,3.5,22.2,6.8,34,8h0ZM802.4-25.8c-3.2,22.7-16.6,41.1-11,66-.5,18.1,18.1,37.6,20.5,52.1-4.9-8.1-39.1-33.7-38.9-46.2,4.9-24.7,13.4-63.3,29.3-71.9h0ZM878.7-7.4c-8,12.6-4.1,32.3-7.5,52.6-1.9,11.6-18.9,7.4-18.9,21.5s-.4,14.8.7,13.9c16.5-12.2,29.3-16.8,29.3-41.1s1.9-20.4,0-27.1c-1.2-4.4-4-8.2-2-12,4.7-9.4-2.5-8.1-1.6-7.8h0ZM1949.9-7.4c8,12.6,4.1,32.3,7.5,52.6,1.9,11.6,18.9,7.4,18.9,21.5s.4,14.8-.7,13.9c-16.5-12.2-29.3-16.8-29.3-41.1s-1.9-20.4,0-27.1c1.2-4.4,4-8.2,2-12-4.7-9.4,2.5-8.1,1.6-7.8h0ZM2026.2-25.8c3.2,22.7,16.6,41.1,11,66,.5,18.1-18.1,37.6-20.5,52.1,4.9-8.1,39.1-33.7,38.9-46.2-4.9-24.7-13.4-63.3-29.3-71.9h0Z"/>
      <path class="cls-4" d="M998.3-796.5c15.5-7.8,25.6-8.9,39.3-3.4,24.3,9.9,47.8,36.9,56.4,58.6,6.9,17.4,2.2,22-14.7,30.9-101.8,58-162.4,141.1-204.4,235.7-9.6,26.6-36.6,53.2-41.1-25-12-51.1-10.9-114.4,21-173.4,29-53.7,85.5-104.8,143.5-123.5h0Z"/>
      <path class="cls-4" d="M971.3-585.4c1.8-19.9,69.2-94.1,96.7-81.4,28.4,6.3,16.2,85.7,39.3,136.7,9.9,41.1-62.7,59.1-88,42-28.9-18.3-52.1-71.5-48-97.2h0Z"/>
      <path class="cls-4" d="M859.7-421.8c44.2-54.6,45.9-46.2,62.2-12.6,16.4,23.4,57.5,127,36.4,225-11,49.3-21.9,98.6-32.9,147.9-13.1,44.9-26.1,74.5-39.2-2.5-12.2-35-45.1-58.6-38.3-104.9,2.1-34.1-27.2-39.5-40-1.3-4.2,28.2-8.4,56.5-12.6,84.7-17.7,64-27.1,62-25.3-5.1-8.2-171,29.2-269.5,89.8-331.3h0Z"/>
      <path class="cls-4" d="M994.4-401.4c-3.9-29.5-37.6-82.3,30-58.1,29.2,8.5,74.2-2.5,102.2-26,13-18.2,26-17.4,39.1,2.4,63.3,55.6,109.2,140.9,150.4,234.5,22.3,29.2,19.9,54.1,8.3,77-25.9,63.9-52.9,125.4-87.6,169.3-25.3,27.5-72.1,27.3-97.3-11.5-55.9-80.2-128.9-204.4-145-387.6h0Z"/>
      <path class="cls-4" d="M1074.2-806.7c-.6-18.2,178-53.2,276.4-58.7,38.3-3.9,47.5,2.4,49.3,30,5.8,183.6,8.8,365.7,0,542.3-2.3,54.8-14.7,139-47,53.1-40.3-99.2-139.1-246.1-223.1-311.9-12.8-10.2-26.3-36.1-21.6-56.2,6.9-32.9,56.9-62.7,61-87.5,3.3-22.3-10.5-23.7-31-38.3-23.7-21.3-66.3-47.7-64-72.9h0Z"/>
      <path class="cls-4" d="M1154.3-865.4c65.9-44.2,131.8-50.1,139.8-74.7,22.5-91.9,8.9-152.6,20.5-163.3,9.4-17.6,57.4-13.7,66.2-3.7,20.8,32.7,3.4,115.7,6.5,172.6,0,24.9,4.7,47.9-31.7,54.1-44.1,3.1-100.4,7.2-176.2,25.2-49.7,16.2-55.6,9-25.2-10.3h0Z"/>
      <path class="cls-4" d="M1214.9,41.2c-25.7,5.6-32.5,73.4,10.8,85.4,41.6,18.1,81.7,41.4,116.4,83.3,27.4,33.9,37.2,22.3,39.3-30,10.8-78.6,3.6-219.4,3.4-343.7-4-24.4-21.9-17.8-30.2-4.9-40,64.3-68.1,196.4-139.7,209.7h0Z"/>
      <path class="cls-4" d="M1119.5,52c11.4-16.3,57.7-23.6,56.1,0-3,20.6,1.3,43.6,5.7,64.2,1.3,18.7-47.7,62.6-58.5,32.5-8.1-19.2-13.8-53.7-3.2-96.8h0Z"/>
      <path class="cls-4" d="M1304.9,276c-72.1,28.5-100.3,108.7-148.5,161.2-23.1,24.8-81.4,101.2-83.1-6.3.6-125.7,17.3-250.9,137.2-265.8,35.5-3.9,167.6,75.4,94.4,110.8h0Z"/>
      <path class="cls-4" d="M1329.2,293.8c63-31.2,70.8,19.5,68.6,51.8-1.1,101.5-2.2,202.9-3.3,304.4-5.6,37.4-17.8,83.1-108.7,90.3-133.8,15.6-239.2-192.9-153.9-242.5,75.8-29.5,126.5-176.2,197.4-204h0Z"/>
      <path class="cls-4" d="M846.8,160.5c5.6-53.3,20.8-41.6,32.8-67,20.5-43.4,58-71.3,69.7-14.6,42.3,157.2-66,309.8-14.3,486.3,8.4,32.7-2.9,121.7-27.5,15.4-20.2-140.1-59.1-270.2-60.6-420.2h0Z"/>
      <path class="cls-4" d="M747.6,120.8c19.6-59.6,51.7-39.3,79.3,86,7.5,35.4,7.8,72.7,17.3,137.9,11.9,81.2,34,194.1,53.2,265.7,10.5,52.8-10.8,71.9-48.5-18.7-51.6-171.4-136.9-327-101.4-470.9h0Z"/>
      <path class="cls-4" d="M1835.7-796.5c-15.5-7.8-25.6-8.9-39.3-3.4-24.3,9.9-47.8,36.9-56.4,58.6-6.9,17.4-2.2,22,14.7,30.9,101.8,58,162.4,141.1,204.4,235.7,9.6,26.6,36.6,53.2,41.1-25,12-51.1,10.9-114.4-21-173.4-29-53.7-85.5-104.8-143.5-123.5h0Z"/>
      <path class="cls-4" d="M1862.6-585.4c-1.8-19.9-69.2-94.1-96.7-81.4-28.4,6.3-16.2,85.7-39.3,136.7-9.9,41.1,62.7,59.1,88,42,28.9-18.3,52.1-71.5,48-97.2h0Z"/>
      <path class="cls-4" d="M1974.2-421.8c-44.2-54.6-45.9-46.2-62.2-12.6-16.4,23.4-57.5,127-36.4,225,11,49.3,21.9,98.6,32.9,147.9,13.1,44.9,26.1,74.5,39.2-2.5,12.2-35,45.1-58.6,38.3-104.9-2.1-34.1,27.2-39.5,40-1.3,4.2,28.2,8.4,56.5,12.6,84.7,17.7,64,27.1,62,25.3-5.1,8.2-171-29.2-269.5-89.8-331.3h0Z"/>
      <path class="cls-4" d="M1839.5-401.4c3.9-29.5,37.6-82.3-30-58.1-29.2,8.5-74.2-2.5-102.2-26-13-18.2-26-17.4-39.1,2.4-63.3,55.6-109.2,140.9-150.4,234.5-22.3,29.2-19.9,54.1-8.3,77,25.9,63.9,52.9,125.4,87.6,169.3,25.3,27.5,72.1,27.3,97.3-11.5,55.9-80.2,128.9-204.4,145-387.6h0Z"/>
      <path class="cls-4" d="M1759.8-806.7c.6-18.2-174.5-53.2-271.1-58.7-37.6-3.9-46.6,2.4-48.3,30-5.7,183.6-8.6,365.7,0,542.3,2.2,54.8,14.5,139,46.1,53.1,39.5-99.2,136.5-246.1,218.8-311.9,12.5-10.2,25.8-36.1,21.2-56.2-6.7-32.9-55.8-62.7-59.8-87.5-3.2-22.3,10.3-23.7,30.4-38.3,23.3-21.3,65.1-47.7,62.8-72.9h0Z"/>
      <path class="cls-4" d="M1679.6-865.4c-65.9-44.2-131.8-50.1-139.8-74.7-22.5-91.9-8.9-152.6-20.5-163.3-9.4-17.6-57.4-13.7-66.2-3.7-20.8,32.7-3.4,115.7-6.5,172.6,0,24.9-4.7,47.9,31.7,54.1,44.1,3.1,100.4,7.2,176.2,25.2,49.7,16.2,55.6,9,25.2-10.3h0Z"/>
      <path class="cls-4" d="M1619.2,41.2c25.5,5.6,32.2,73.4-10.7,85.4-41.3,18.1-81.1,41.4-115.5,83.3-27.2,33.9-36.9,22.3-39-30-10.8-78.6-3.6-219.4-3.4-343.7,4-24.4,21.7-17.8,30-4.9,39.7,64.3,67.6,196.4,138.6,209.7h0Z"/>
      <path class="cls-4" d="M1714.4,52c-11.4-16.3-57.7-23.6-56.1,0,3,20.6-1.3,43.6-5.7,64.2-1.3,18.7,47.7,62.6,58.5,32.5,8.1-19.2,13.8-53.7,3.2-96.8h0Z"/>
      <path class="cls-4" d="M1529,276c72.1,28.5,100.3,108.7,148.5,161.2,23.1,24.8,81.4,101.2,83.1-6.3-.6-125.7-17.3-250.9-137.2-265.8-35.5-3.9-167.6,75.4-94.4,110.8h0Z"/>
      <path class="cls-4" d="M1504.7,293.8c-63-31.2-70.8,19.5-68.6,51.8,1.1,101.5,2.2,202.9,3.3,304.4,5.6,37.4,17.8,83.1,108.7,90.3,133.8,15.6,239.2-192.9,153.9-242.5-75.8-29.5-126.5-176.2-197.4-204h0Z"/>
      <path class="cls-4" d="M1987.2,160.5c-5.6-53.3-20.8-41.6-32.8-67-20.5-43.4-58-71.3-69.7-14.6-42.3,157.2,66,309.8,14.3,486.3-8.4,32.7,2.9,121.7,27.5,15.4,20.2-140.1,59.1-270.2,60.6-420.2h0Z"/>
      <path class="cls-4" d="M2086.3,120.8c-19.6-59.6-51.7-39.3-79.3,86-7.5,35.4-7.8,72.7-17.3,137.9-11.9,81.2-34,194.1-53.2,265.7-10.5,52.8,10.8,71.9,48.5-18.7,51.6-171.4,136.9-327,101.4-470.9h0Z"/>
      <path class="cls-4" d="M1088.5,754.6c2.5-42,32.9-3,67.4,17.6,30.5,18.1,67.9,5.3,64,56.2,6.9,144,26.4,307.2,20.6,432.1-2.5,82.5-30.7,129.4-46.5,137.5-15.8,8.1-31.9-18.4-48.2-69.7-41.7-169-76.8-360.5-57.3-573.6h0Z"/>
      <path class="cls-4" d="M1249.4,801c12.9,1.4,18.8,1.7,37.3,2.5,18.4.8,35.2-8.4,36.2,7.7,32.3,200.5,39.3,387.1,13.1,549.7-5.8,48.4-20.2,51-31.3,45.2-11.1-5.8-23-39.3-36.4-121.4-15.7-208.9-28.4-398.7-26.5-461.3.3-9.8-.7-23.5,7.8-22.4h0Z"/>
      <path class="cls-3" d="M1184.5,1626.4c33.9-78.2,54.8-61.8,53.8,40.4-8,110.6-15.9,230.2-6,349.8,6.5,59.8-82.6,88.2-97.1-31.4-6.7-131.2,8.2-251.5,49.3-358.8h0Z"/>
      <path class="cls-3" d="M1272.1,1655.6c18-101,42.4-65.8,69.6,31.3,36.2,153.2,50.1,296.7,15.1,419-36,127.3-94,7.4-99.8-56.9-8.5-142-4.3-273.1,15.1-393.4h0Z"/>
      <path class="cls-4" d="M1743.9,754.6c-2.5-42-32.9-3-67.4,17.6-30.5,18.1-67.9,5.3-64,56.2-6.9,144-26.4,307.2-20.6,432.1,2.5,82.5,30.7,129.4,46.5,137.5s31.9-18.4,48.2-69.7c41.7-169,76.8-360.5,57.3-573.6h0Z"/>
      <path class="cls-4" d="M1583,801c-12.9,1.4-18.8,1.7-37.3,2.5-18.4.8-35.2-8.4-36.2,7.7-32.3,200.5-39.3,387.1-13.1,549.7,5.8,48.4,20.2,51,31.3,45.2,11.1-5.8,23-39.3,36.4-121.4,15.7-208.9,28.4-398.7,26.5-461.3-.3-9.8.7-23.5-7.8-22.4h0Z"/>
      <path class="cls-3" d="M1647.9,1626.4c-33.9-78.2-54.8-61.8-53.8,40.4,8,110.6,15.9,230.2,6,349.8-6.5,59.8,82.6,88.2,97.1-31.4,6.7-131.2-8.2-251.5-49.3-358.8h0Z"/>
      <path class="cls-3" d="M1560.3,1655.6c-18-101-42.4-65.8-69.6,31.3-36.2,153.2-50.1,296.7-15.1,419,36,127.3,94,7.4,99.8-56.9,8.5-142,4.3-273.1-15.1-393.4h0Z"/>
    </g>
  </g>
</svg>