<?xml version="1.0" encoding="UTF-8"?>
<svg id="_ÎÓÈ_1" data-name=" ÎÓÈ 1" xmlns="http://www.w3.org/2000/svg" xmlns:xlink="http://www.w3.org/1999/xlink" version="1.1" viewBox="0 0 2834.6 2834.6">
  <defs>
    <style>
      .cls-1 {
        clip-path: url(#clippath);
      }

      .cls-2 {
        fill: none;
      }

      .cls-2, .cls-3, .cls-4, .cls-5, .cls-6 {
        stroke-width: 0px;
      }

      .cls-3 {
        fill: #ececec;
      }

      .cls-3, .cls-4, .cls-5, .cls-6 {
        fill-rule: evenodd;
      }

      .cls-4 {
        fill: #868686;
      }

      .cls-5 {
        fill: #19ba20;
      }

      .cls-6 {
        fill: #c6c6c5;
      }
    </style>
    <clipPath id="clippath">
      <rect class="cls-2" x="-1.7" y="2.1" width="2838.1" height="2830.3"/>
    </clipPath>
  </defs>
  <g class="cls-1">
    <g>
      <path class="cls-4" d="M1701.1,506.9c66.9.5,74,79.3,55.8,152-14.9,59.5-41.2,110.5-90,127.2-15.4,72.4-16.2,159.6-24.8,238.9,18.4,25.8,49,38.8,74.5,55.8,76.2,50.8,153.2,108.1,229.6,161.3,87.2,8.3,185.4,17.9,254.4,49.6,61.9,28.5,104.1,76.2,139.6,133.4,33.1,53.3,71.3,121.2,77.6,192.4,7.2,82-2.7,181.8-18.6,254.4-5,22.9-18.3,50.1-18.6,71.4-.3,16.6,9.9,45.4,15.5,68.3,25.2,103.6,40.5,227.1,31,366.1-3.4,49.4-16.1,102.4-12.4,148.9,3.2,40.5,26.7,82.2,40.3,117.9,15.9,41.7,26.3,80.2,31,127.2,9.4,93-3.3,190.6-21.7,282.4-26,129.4-49.6,266.3-62.1,412.7-4.2,49.4-11,102.5-9.3,148.9,1.7,46.2,16.9,95.8,24.8,142.7,10.4,61.8,32,128.5,12.4,183.1-6.4,17.9-15.1,25.6-31,43.4-10.7,12-16.9,29.9-27.9,43.4-10.4,12.7-26.7,18.9-40.3,34.1-17.6,19.6-24,34.5-34.1,37.2-28.5,7.8-67.7-5.3-93.1-12.4-22.9-6.4-57.1-16.3-71.4-31-16.6-17.1-14.7-42.3-24.8-62-11.9-23.3-31.1-25.1-43.4-40.3-31.9,242.9-66.6,479.7-152,676.4-15.5,35.7-35.8,71.2-40.3,114.8-4.9,47.4,4,96.1-3.1,145.8-3.1,21.3-12.9,43.8-12.4,65.2.9,38.2,20.9,80.2,31,121,28.3,114.1,55.2,247.9,55.8,390.9.9,189.5-51.8,360.4-99.3,521.3-33,111.7-67.7,242.8-90,375.4-8.6,51.1-24.4,108.4-15.5,155.1,7.5,39.4,39.8,80.4,68.2,117.9,21.7,28.5,38.2,48.4,68.3,71.4,10.2,7.9,21.5,22.1,31,24.8,49.1,13.8,110,27.8,108.6,74.5-.8,27.2-20.5,39.1-68.2,40.3-35.2.9-70.3,0-105.5,0-72.2,0-151.4,10.8-211,3.1-16.6-2.1-30.4-13.5-52.7-15.5-51-4.7-100,12.6-117.9-15.5-22.7-35.7,29.2-137.1,27.9-180-.7-24.8-13-49.9-12.4-74.5.9-37.6,19.3-77,24.8-117.9,26.5-198,17.9-472.1-18.6-660.9-14.9-77-44.6-149-49.6-232.7-10.5,18-8.6,38.8-12.4,58.9-10.8,57.1-29.5,114.1-40.3,173.8-34.6,190-41.9,458.3-12.4,660.9,3.1,21.3,6.8,38.2,12.4,58.9,4.7,17.2,11.7,38.8,12.4,55.8,1.1,26.1-12.3,50.6-12.4,74.5-.4,63.7,46.4,116.9,31,183.1-14.4,26.8-74,13-114.8,15.5-24.7,1.5-38.9,15.5-68.3,15.5h-201.7c-67,0-161.5,10-170.7-27.9-10.5-43.8,35.1-67.4,65.2-77.6,10.6-3.6,24.4-4,37.2-9.3,37-15.4,78.4-60.4,102.4-93.1,21.9-29.9,62-82.5,68.3-124.1,6.5-43.3-6.7-96.7-15.5-145.8-22.9-127.4-59.6-267.9-93.1-381.6-47.4-160.8-105.5-326.3-105.5-527.5s33.4-309.4,68.3-446.8c4.8-18.9,14.8-39.1,15.5-55.8,1.5-35.1-15.8-73.5-18.6-111.7-3.1-43,3.8-96.9-6.2-133.4-15.5-56.8-49.1-109.7-68.3-170.7-54.2-172.2-103.1-380.2-121-586.4-10.4,1.5-27.7,14.5-37.2,24.8-15,16.3-16.5,60.7-34.1,77.6-17.3,16.6-49.3,21.1-74.5,27.9-34.7,9.4-83.2,29.4-108.6,0-3.8-4.5-5.3-17.1-12.4-24.8-11.3-12.3-28.2-19.6-40.3-34.1-25.1-30.1-51.2-53.4-62-83.8-16.2-45.2-1.5-113.3,9.3-176.9,8-46.9,21.7-94.9,24.8-133.4,3.8-46.6-4.8-99.7-9.3-152-12.4-144.4-35.2-285.2-62.1-418.9-18.2-90.9-38.6-180.7-27.9-285.5,4.8-46.9,16-88.5,31-130.3,14-38.9,37.3-79.3,40.3-117.9,3.6-45.3-12.6-95.7-15.5-145.8-7.7-132.4,2.9-261.4,27.9-369.2,5.2-22.2,15.5-46.5,15.5-65.2,0-21.4-10.3-46.4-15.5-68.3-14.9-62.4-25.4-146-24.8-226.5.6-85.7,35-155.2,71.4-217.2,34-58.1,82.4-116.4,142.7-145.8,52.1-25.4,119.7-35.3,183.1-43.4,20.8-2.7,28.2-.2,49.9-6.2,22.3-6.1,67.3-30.3,89.7-46.5,70.2-50.9,147.4-95.2,223.1-145.8-12.4-84.8-9.5-185-27.9-263.7-8.6-11.7-36.8-17.2-49.6-34.1-10.6-14-33.8-66.7-40.3-90-19-67.4-15.6-159.7,55.8-155.1-5-41.7-15-78.3-15.5-114.8-1.3-96.1,60.2-180.8,124.1-226.5,45.2-32.3,113.2-63.3,176.9-68.3,138.6-10.9,279.8,98.2,316.8,223.4,17.9,60.6,3.8,117.9-6.2,183.1h0ZM1946.2,2405.8c-10.2,22.1-29,45.8-31,62.1-1.8,14.3,4,41.9,6.2,62,9.6,87.4,21.5,187.9,3.1,266.9,62.1,98.6,43.2,242.2,65.2,369.2,6.9,40,19.5,80.5,27.9,117.9,37.7,166.1,36.1,349,49.6,533.7,16.1-57.2,57.7-105.6,77.6-167.6,11.5-35.9,16.6-82.5,21.7-127.2,5.2-45.1,12.7-95,12.4-139.6-.5-67.3-26.5-125.4-49.6-189.3-21.1-58.4-39.1-122.4-55.8-183.1-30.2-109.4-30.6-214-6.2-313.4,12.3-50.4,36.4-126.1,24.8-186.2-9.2-47.7-35-96.2-46.5-148.9-11.2-51.4-18.9-123.8-27.9-173.8-18.9,70.7-41.7,152.7-71.3,217.2h0ZM785.8,2374.8c-11.7,54.6-41.3,103.8-46.5,155.1-8.1,79,22,125.5,34.1,183.1,26.2,124.3,9.7,245.2-24.8,353.7-15.7,49.3-28.3,103.7-46.5,155.1-19.6,55.3-39.8,105.2-40.3,164.4-.4,40.5,7.1,82.7,12.4,124.1,5.4,41.7,8.8,84.3,18.6,121,18.5,69.1,58.2,127.6,86.9,189.3,6.8-185.1,6.1-362.7,37.2-512,10.7-51.4,27.4-102.7,34.1-148.9,14.6-100.7,6.4-201.7,31-285.5,7.9-27,25.9-54.8,27.9-80.7,2.1-26-8.2-54.3-9.3-80.7-3.6-82.2,8.8-164,18.6-245.1-51.4-76.8-75.8-180.7-108.6-276.2-6.3,63.9-12.3,124.7-24.8,183.1h0ZM1415.7,3718.3c-3.7,299.9-6.1,591.7-43.4,856.4-5.3,37.8-23.2,75.5-21.7,108.6,1.1,24.8,17,51.3,21.7,77.6,11.4,63.7,10.5,138.2,3.1,201.7-4.3,36.9-17.3,68.9-15.5,105.5,2.4,49.7,23,93.3,37.2,139.6,15.1,49.1,24,97.1,31,145.8-3-101.8,68.8-192.7,65.2-301-1.3-39.5-16.2-78.6-18.6-117.9-3.2-51.4-5.6-108.1,0-158.2,3.6-32,24.6-64.9,24.8-96.2.2-31.9-15.9-68.5-21.7-105.5-41.8-265-44.6-565.8-49.6-859.5-4.2,1-5.9,4.4-12.4,3.1h0Z"/>
      <path class="cls-6" d="M1204.4,1186.4c-14-6.2-15.4-28.4-18.6-43.4-4-18.7-6.8-38-9.3-55.8-81.4,45.8-180.5,103.3-255.8,155.1,49.2,4.2,65.3,25.8-7.6,31-142.3,6.7-275.2,27-347.5,99.3-52.5,52.5-120.4,168-127.2,257.5-6.2,82.1,6.7,181.3,21.7,245.1,5.8,24.7,15.1,50.6,15.5,74.5.7,42.6-19.1,89.9-27.9,136.5-18.2,95.9-21.1,199.7-12.4,307.2,4.3,53.4,19.2,106.8,12.4,155.1-6.2,44.6-34.9,85.7-49.6,130.3-36.9,111.3-23.5,236.7,0,353.7,32.3,160.4,60.6,317,74.5,487.1,2.9,35.6,7.6,75.1,6.2,108.6-1.9,45.3-17.2,95.9-24.8,142.7-3.8,23.3-9,47.4-12.4,71.4-3.7,26-9.3,55.5-6.2,77.6,5.9,41.5,49.4,59,65.2,99.3,29.3,5.6,39.1,49.5,62.1,55.8,29.1,8,118.2-23.8,130.3-37.2,14.1-15.6,11.7-44.6,21.7-62,16-27.8,44.2-30.4,49.6-52.7,5.7-23.1-5.4-77.2-18.6-108.6-24.6-58.4-63.7-105.5-80.7-167.6-8.4-30.6-10.8-68.9-15.5-108.6-4.4-37.2-13.3-75.6-15.5-111.7-5.1-83,9.3-139.7,31-198.6,14.7-40,28.3-78.8,40.3-117.9,23.9-78,53-164.2,52.7-260.6,0-41.2-4.6-84.9-12.4-124.1-7.2-36.3-23.5-69.7-31-105.5-21.3-101.5,22.9-167.5,40.3-245.1,25.6-114.4,32.5-249.3,31-384.7-.2-16.4-7-40.4,2.7-55.9-48.1-86.4-91.4-247.6-77.7-273.3,18.3-65.8,41.9-94.2,73.5-123.3-12.1,29.9-24.1,59.8-36.1,89.7-10,30.7-11.6,61.5-5,92.2,24.4,135,80.3,221.8,174.4,250.5,71,11.7,144.9,3,219.3-8.7-63.9,32-149.2,44.9-272.9,23.7-27.5-7.4-37-13-48.7-22.4-.2,10.4-1.6,21.4-1.6,30.7,0,28.6-2.4,62,0,83.8,4.4,39.5,20.2,82.3,31,121,28.7,102.3,64.3,195.9,105.5,279.3,8.1,16.5,22.5,33.3,18.6,52.7-13.1,13.9-20.9-30.5-27.9-12.4-20.1,129.2-10.3,269.3,21.7,372.3,5.6,17.9,20.8,37.6,12.4,55.8-20.4-4-23.2-27-31-43.4-7.9-16.7-17-34.4-24.8-49.6-18.4,48.9-23.6,99.5-27.9,152-4.7,56.6-3.2,117.5-12.4,170.7-5.1,29.9-15.3,60.7-21.7,90-20.5,93.1-37.2,192.1-40.3,304.1-4.1,146.5-20.2,296.4-3.1,440.6,23.3,196.5,71.6,387.1,127.2,555.4,18.9,57.1,55.9,108.6,65.2,164.4,6,36.3-2.3,67.9,0,102.4,2.5,36.3,9.2,73,15.5,105.5,6.5,33.6,21.2,64.6,18.6,96.2-14.6,16.9-27.6-19.2-31-3.1-72.7,238.8-88.7,509.2-18.6,763.3,55.6,201.4,119.1,388.4,155.1,608.2,5.5,33.5,13.5,68.9,12.4,99.3-1.5,43.4-16.5,69.9-34.1,99.3-27.7,46.4-60.9,86.8-96.2,117.9-5.3,4.6-23.4,18.6-12.4,18.6,18.8-1.7,41.1,2.3,62,3.1,20.4.8,44.9-5.6,58.9,6.2-23,11.7-55,9.6-86.9,12.4-72.1,6.4-149.8,2.1-167.6,55.8,27.3,11.2,57.6,6.2,86.9,6.2s62.4-.4,93.1,0c60,.8,121.1,8.2,176.9,0,14.5-2.1,26.5-10.6,40.3-12.4,36.1-4.8,69,6,102.4-3.1,6.1-63.4-34.8-108.8-34.1-167.6.3-23.9,13.8-47.8,12.4-74.5-1.5-28.9-16.1-55-21.7-83.8-6.1-31.2-6.4-65.3-9.3-96.2-19.3-206-14.8-404.1,21.7-602,11.6-62.8,29.8-118.1,40.3-173.8,24.5-129.8,13.6-271-21.7-381.6-17.3-54.3-41-115.2-40.3-173.8.4-38.9,16.2-75.7,18.6-111.7,3.3-49.2,4.7-102,0-152-3-31.4-22.1-63.1-24.8-96.2-4.2-51,15.7-84.9,21.7-130.3,36-271.7,38.8-568.5,43.4-868.8,19.6-5.5,59.7-6.4,71.4,6.2-2.5,296.3,10.4,600.5,46.5,856.4,5.2,36.8,18.7,73.1,21.7,108.6,4.1,48.8-15.4,67.8-21.7,102.4-12.9,70.3-6.2,162.2,6.2,223.4,4.7,23.2,12.4,45.2,12.4,68.3,0,58.5-23.2,115.3-40.3,170.7-36.7,118.3-37.6,250.9-15.5,375.4,9.8,55.2,28.1,110.8,40.3,173.8,25.8,132.8,32.8,261.8,34.1,390.9,1.1,104.2-1.4,210.5-15.5,301-4.5,29-19.1,56.7-21.7,86.9-2.7,30.6,12.4,54.5,12.4,83.8,0,25-12.3,55-18.6,80.7-6.7,26.9-16.4,52.9-15.5,83.8,32.1,14.4,67.6-3.2,108.6,3.1,12.5,1.9,24.2,10.5,37.2,12.4,54.1,7.9,120,0,180,0s93.4-1.1,130.3-3.1c12.4-.7,31,5.9,40.3-6.2,7.4-19.2-15.4-27.9-27.9-34.1-43.3-21.6-134.1-18.3-186.2-24.8-12.4-1.6-31.1,4.1-37.2-9.3,34.8-8.6,81.2-5.7,124.1-6.2-23.2-27.9-55.4-54.6-80.7-90-34.5-48.4-70.8-97.4-65.2-176.9,8.5-119.6,41.9-239.3,71.4-356.8,28-111.6,63.2-222.9,93.1-338.2,62.9-242.5,46.2-501.4-27.9-750.9-9.4-9.7-3,10.1-12.4,9.3-6.9,7-15.5-.2-21.7-3.1,9-59,29.2-116.8,34.1-186.2,2.5-35.3-4.3-73.2,0-111.7,6.1-54.5,43-110.7,62.1-167.6,57.1-170.2,103.6-364.5,124.1-564.7,15.1-147.7-1-295-6.2-440.6-4-111.3-20.1-212.2-40.3-304.1-7-31.8-20-61.5-24.8-93.1-15.6-101.6-3.9-214.8-40.3-310.3-11.3,2.1-8.4,16-12.4,24.8-3.8,8.2-11.1,15.9-15.5,24.8-7.5,15.3-10.9,45-31,40.3,1.1-29.5,16.3-60,24.8-93.1,26-100.9,25.2-227.5,6.2-338.2-8.2-7-11.8,30.1-27.9,15.5,9.1-35.5,27.5-69.4,43.4-105.5,31-70.1,55.7-141.2,77.6-220.3,11-39.8,26.9-80.6,31-121,2.2-21.6,0-56.4,0-86.9s-1.7-23.9-1.6-36c-15.3,12.8-22.8,19-55,27.7-123.7,21.2-209,8.3-272.9-23.7,74.3,11.7,148.3,20.4,219.3,8.7,94.1-28.7,150.1-115.5,174.4-250.5,6.6-30.8,5-61.5-5-92.2-12.1-29.9-24.1-59.8-36.1-89.7,31.6,29.2,55.3,57.6,73.5,123.3,13.3,24.9-27.1,177.4-73.5,265.4,15.4,18.2,7.8,46.6,7.8,66.9,0,147,7.9,279.2,37.2,390.9,12,45.7,33.4,88.2,40.3,130.3,12,72.3-15,135.7-27.9,189.3-7.7,31.7-13.5,65.1-15.5,99.3-8.1,139.1,41.7,269.8,77.6,375.4,27,79.5,56,143.5,49.6,245.1-4.9,79.1-18,194.2-46.5,263.7-26.9,65.5-96.8,161.3-80.7,229.6,7,29.4,39.6,31.6,52.7,55.8,9.6,17.8,7.2,47.2,21.7,62.1,29.3,29.9,89.5,25.3,130.3,37.2,11.5-9.8,19.6-22.2,31-34.1,11-11.4,24.4-19.1,34.1-31,4.5-5.5,5-15.9,9.3-21.7,14.3-19.5,40.4-34.9,46.5-55.8,12.5-42.5-7-106.4-15.5-158.2-7.9-48.2-21.5-96.3-24.8-139.6-5.1-67.9,4.9-146.7,12.4-220.3,7-68.5,17.1-138.7,27.9-204.8,22.7-138.7,66.2-270,55.8-412.7-3.5-47.9-17.1-93.9-34.1-139.6-16-43.1-41.2-89.4-43.4-130.3-2.5-45,12.6-95.7,15.5-145.8,6.2-105.8,3.3-210-15.5-301-9.4-45.6-31.5-93.2-31-133.4.2-21.9,10-45.1,15.5-68.3,16.1-67.3,26.6-154.7,21.7-232.7-3.7-60.1-25.8-113.6-52.7-161.3-27-47.8-53.4-91-90-124.1-81.1-73.3-209-73.5-341.3-90-64.3-5.1-55.6-27.3-12.4-27.9-87.7-55.1-164.4-121-257.5-170.7-3.4,18.4-10.7,39.7-15.5,62.1-4.1,19,0,50.9-21.7,55.8,7.5-82.5,14.9-165.1,21.7-248.2-48.6,39-89.2,110.1-152,136.5-41.3,17.4-81.6,20.6-130.6,0-64.4-27.1-97.9-89.7-148.9-136.5-1.9.2-3.7.5-3.1,3.1,5,80.9,19,169.2,18.6,245.1h0ZM1365.1,2676.2c24.5-58.8,77.1-53.2,97.1.7-59.6-53.3-91.4,22.8-97.1-.7h0ZM1277.8,1301.1c16,3.4,28,8,44.5,8,25.5,0,48.6,11.5,55.7,35.8,2.1,7.4,28.6,70-4.8,32.6-12.9-14.4-11.3-41.3-38.5-46-14.7-2.5-70.6-31.8-56.8-30.4h0ZM1545.4,1301.1c-16,3.4-28,8-44.5,8-25.5,0-48.6,11.5-55.7,35.8-2.1,7.4-28.6,70,4.8,32.6,12.9-14.4,11.3-41.3,38.5-46,14.7-2.5,70.6-31.8,56.8-30.4h0ZM1176.4,4619.8c34.1,55.9,112.3,85,117.1,58.1,3.1,5.4,16.9,30.8-24.4,33.3-18.6,0-54-21.3-67.3-34.6-18.2-18.2-22.4-37.8-25.4-56.8h0ZM1137.9,4650.7c-24.8,25.5-39.4,40.8-80.5,44.8,8.2,8.6,17.8,19.3,52.6,11.9,25.9-15.6,28.5-35.8,27.8-56.7h0ZM1077.8,4805.2c6.8,68.7,14.7,154.7,51.9,187.3,13.3,14,40,19.8,72.8,28.1-30.3,12.4-72.5,5.5-104.7-15.1-28.7-18.4-45.1-181.6-20-200.3h0ZM1296,4767.1c-.4,36.4.3,168.4-15.3,200.9-7.6,15.8-29.3,30.2-46.7,35.6,30.2,12.4,26.3,13.7,58.4-6.9,28.7-18.4,28.7-210.9,3.6-229.7h0ZM1679.2,4619.8c-34.1,55.9-112.3,85-117.1,58.1-3.1,5.4-16.9,30.8,24.4,33.3,18.6,0,54-21.3,67.3-34.6,18.2-18.2,22.4-37.8,25.4-56.8h0ZM1717.7,4650.7c24.8,25.5,39.4,40.8,80.5,44.8-8.2,8.6-17.8,19.3-52.6,11.9-25.9-15.6-28.5-35.8-27.8-56.7h0ZM1777.8,4805.2c-6.8,68.7-14.7,154.7-51.9,187.3-13.3,14-40,19.8-72.8,28.1,30.3,12.4,72.5,5.5,104.7-15.1,28.7-18.4,45.1-181.6,20-200.3h0ZM1559.6,4767.1c.4,36.4-.3,168.4,15.3,200.9,7.6,15.8,29.3,30.2,46.7,35.6-30.3,12.4-26.3,13.7-58.4-6.9-28.7-18.4-28.7-210.9-3.6-229.7h0ZM1676.3,525.5c3.4-35.6,7.8-67.9,9.3-102.4,4-90.6-26.1-147.2-68.3-192.4-44.4-47.6-127.9-94.2-204.8-99.3-87.3-5.8-166.7,38.2-223.7,99.3-32.9,35.2-63.7,85.2-68.3,145.8-4.3,56.1,5.6,106.5,9.3,152,1.1,13.4,12.6,36.6-6.2,46.5-20.6-.1-3.5-37.8-27.9-34.1-23.8,1-27.5,38.9-24.8,71.4,4.3,52.8,33.5,119.9,62.1,136.5-1.2-14.6.2-26.6,15.5-24.8,21.5,47,16.5,100.2,34.1,145.8,16.4,42.5,49.9,76.9,80.7,108.6,37.9,39.1,78.4,77.3,139.6,80.7,73.8,4.1,101.8-41.3,139.9-80.7,51.7-53.3,81.2-97,96.2-183.1,4.6-26.6,5-58.6,21.7-71.4,12.6-.2,13.4,11.5,12.4,24.8,29.7-17.1,76-116.8,62-180-3.1-14-15.5-32.1-27.9-27.9-19.9,6.7-2.6,29-27.9,34.1-13.1-14.2-4.5-34.6-3.1-49.6h0Z"/>
      <path class="cls-3" d="M1017.5,1328.4c-159.2,70.2-306.6,214.6-406.6,463.8-19.1,9.9-47.8-4.9-28.4-130.1,28-104.4,15.4-164.5,122.9-314.7,88.2-93.6,333.5-54.7,312.1-18.9h0Z"/>
      <path class="cls-3" d="M704.1,1330.6c-118.1,116.1-174.2,351.1-141.5,510-24.2,88.4-52,143.4-70.7,90.8-72.6-285.4-13.8-459.1,121.5-570.1,16.8-12.5,81.7-42.9,90.7-30.6h0Z"/>
      <path class="cls-3" d="M709.4,1797.2c-14.3-72.2-32.9-116.4-81.2,35.5-91.6,210.7-77.4,417.4-81.2,621.3,9.2,149.3,74.3,129.6,129.3,53.3,64.1-110.8,125.6-453.9,33-710.1h0Z"/>
      <path class="cls-3" d="M527.5,1968.5c39.9-51.6,48.3-42.1,25.2,28.4-23.9,148-39,294.7-20.5,476.6,0,58.5-46.8,77-61.5,30-31.5-220.6-38.1-419.8,56.8-534.9h0Z"/>
      <path class="cls-3" d="M451,2633.2c41.5-125.3,177.6-69.4,167.7,100.1,30.5,257.8-24,486.8,0,757.3-8.1,82-25.2,88.4-40.6,18.9-33.6-338.6-189-689.5-127.1-876.3h0Z"/>
      <path class="cls-3" d="M398.7,2858c17-118.9,24.9-11.1,36.3,53.7,35.2,219.1,114.3,430.7,129.4,646-1,47.7-46.8,58.7-64.7,41.1,1.5-215.4-112.9-662.1-101-740.7h0Z"/>
      <path class="cls-3" d="M685.9,2603.9c-35.7-32.1-52-15.7-49,49,15.2,169.1,30.1,338.3-3.6,502.5-2.4,70.2,7.3,79.8,29,29,70.8-189.6,107.7-381.3,23.6-580.5h0Z"/>
      <path class="cls-3" d="M1809.1,1328.4c159.2,70.2,306.6,214.6,406.6,463.8,19.1,9.9,47.8-4.9,28.4-130.1-28-104.4-15.4-164.5-122.9-314.7-88.2-93.6-333.5-54.7-312.1-18.9h0Z"/>
      <path class="cls-3" d="M2122.5,1330.6c118.1,116.1,174.2,351.1,141.5,510,24.2,88.4,52,143.4,70.7,90.8,72.6-285.4,13.8-459.1-121.5-570.1-16.8-12.5-81.7-42.9-90.7-30.6h0Z"/>
      <path class="cls-3" d="M2128.2,1797.2c14.3-72.2,32.9-116.4,81.2,35.5,91.6,210.7,77.4,417.4,81.1,621.3-9.2,149.3-74.3,129.6-129.3,53.3-64.1-110.8-125.6-453.9-33-710.1h0Z"/>
      <path class="cls-3" d="M2310.1,1968.5c-39.9-51.6-48.3-42.1-25.2,28.4,23.9,148,39,294.7,20.5,476.6,0,58.5,46.8,77,61.5,30,31.5-220.6,38.1-419.8-56.8-534.9h0Z"/>
      <path class="cls-3" d="M2386.6,2633.2c-41.5-125.3-177.6-69.4-167.7,100.1-30.5,257.8,24,486.8,0,757.3,8.1,82,25.2,88.4,40.6,18.9,33.6-338.6,189-689.5,127.1-876.3h0Z"/>
      <path class="cls-3" d="M2438.9,2858c-17-118.9-24.9-11.1-36.3,53.7-35.2,219.1-114.3,430.7-129.4,646,1,47.7,46.8,58.7,64.7,41.1-1.5-215.4,112.9-662.1,101-740.7h0Z"/>
      <path class="cls-3" d="M2151.7,2603.9c35.7-32.1,52-15.7,49,49-15.2,169.1-30.1,338.3,3.6,502.5,2.4,70.2-7.3,79.8-29,29-70.8-189.6-107.7-381.3-23.6-580.5h0Z"/>
      <path class="cls-3" d="M1171.8,1195.2c25.3,75.5,39.5,64.2-47.5,58.2-179.9-12.5-173.7-8.3-24-89.8,71-38.7,48.7-36.5,71.5,31.7h0Z"/>
      <path class="cls-3" d="M1215.5,1017.8c3.5,70.9,38.1,178.1,69.5,226.3,46,70.3,101.6,61.2,94.1,28.5-55.3-78.1-61.4-168.4-79.6-195.7-44.1-28.2-78.4-97.8-84.1-59.1h0Z"/>
      <path class="cls-5" d="M1085.2,1331.9c64-20.4,312.6,80.3,271.9,93.2-170.9,55-337,92.2-527.3,218.4-65.9,34.9-71.2,18.9-47.7-45.5,47.5-148.7,164.6-214.6,303.1-266.1h0Z"/>
      <path class="cls-5" d="M882.1,1628.9c-35.8,19-67.2,36.9-85.3,49.1-31.2,21-28.6,32,8.6,23.8,38.1-8.4,79.1-8.3,117.9-6.1,206.6,12.2,377.9,85.6,452.9,76.1,26.6,3.4,20.4-299.9-22.5-300.6-188.6,24.9-326.5,72.8-471.6,157.7h0Z"/>
      <path class="cls-5" d="M840.7,1712.2c-70.9,4.4-71.4,14.6-66.1,67.4,22.5,80.9,70.6,153.6,144.2,168.5,158.7,32.1,375.5-43.9,403.5-48.8,37.7-12.3,84-51.7,24.4-86-146.6-70.2-421.9-111.8-506-101.1h0Z"/>
      <path class="cls-3" d="M1137.3,2009.3c-27.7,22.4-49,124.6-12.8,124.6,31.1-2.2,50.9-23.5,106.7-29.7,46.2-5.2,96.2-.9,125-5.4,49.5-24.5,44.7-159.3-1.6-163-81,4.1-162.9,11.9-217.3,73.5h0Z"/>
      <path class="cls-3" d="M1123.8,2164.5c50.5-34,176.1-50.7,240.3-32.5,30.1,14.3,29.4,148.1,10.5,197.3-21.1,36.8-145.9,14.4-235.4,38.5-62.8,24.1-68.5-164.7-15.4-203.2h0Z"/>
      <path class="cls-3" d="M1127.1,2408.3c42.9-25.8,156.8-33.7,212.1-27.7,65.6,4.9,50.4,197.2,23.5,213.2-30.4,25.8-23.5,47.5-53.9,78.9-24,16.1-86.7,21.2-123.1,37.4-77.9,22.1-101-283.8-58.6-301.8h0Z"/>
      <path class="cls-3" d="M1174.1,2765.1c55.9-32.1,111.8-54.2,167.8-47.9,36.3,9.6,42.2,29.8,41.5,49.5,4.9,157.7,4.4,310.1,4.8,463.4-3.2,55.9-62.3,102.3-102.3,20.8-84.2-138.5-171.5-459.1-111.8-485.8h0Z"/>
      <path class="cls-3" d="M1634.8,1195.2c-25.3,75.5-39.5,64.2,47.5,58.2,179.9-12.5,173.7-8.3,24-89.8-71-38.7-48.7-36.5-71.5,31.7h0Z"/>
      <path class="cls-3" d="M1598.4,1017.8c-3.5,70.9-38.1,178.1-69.5,226.3-46,70.3-101.6,61.2-94.1,28.5,55.3-78.1,61.4-168.4,79.6-195.7,44.1-28.2,78.4-97.8,84.1-59.1h0Z"/>
      <path class="cls-5" d="M1736,1331.9c-64-20.4-312.6,80.3-271.9,93.2,170.9,55,337,92.2,527.3,218.4,65.9,34.9,71.2,18.9,47.7-45.5-47.5-148.7-164.6-214.6-303.1-266.1h0Z"/>
      <path class="cls-5" d="M1939.1,1628.9c35.8,19,67.2,36.9,85.3,49.1,31.2,21,28.6,32-8.6,23.8-38.1-8.4-79.1-8.3-117.9-6.1-206.6,12.2-377.9,85.6-452.9,76.1-26.6,3.4-20.4-299.9,22.5-300.6,188.6,24.9,326.5,72.8,471.6,157.7h0Z"/>
      <path class="cls-5" d="M1980.5,1712.2c70.9,4.4,71.4,14.6,66.1,67.4-22.5,80.9-70.6,153.6-144.2,168.5-158.7,32.1-375.5-43.9-403.5-48.8-37.7-12.3-84-51.7-24.4-86,146.6-70.2,421.9-111.8,506-101.1h0Z"/>
      <path class="cls-3" d="M1683.9,2009.3c27.7,22.4,49,124.6,12.8,124.6-31.1-2.2-50.9-23.5-106.7-29.7-46.2-5.2-96.2-.9-125-5.4-49.5-24.5-44.7-159.3,1.6-163,81,4.1,162.9,11.9,217.3,73.5h0Z"/>
      <path class="cls-3" d="M1697.3,2164.5c-50.5-34-176.1-50.7-240.3-32.5-30.1,14.3-29.4,148.1-10.5,197.3,21.1,36.8,145.9,14.4,235.4,38.5,62.8,24.1,68.5-164.7,15.4-203.2h0Z"/>
      <path class="cls-3" d="M1694,2408.3c-42.9-25.8-156.8-33.7-212.1-27.7-65.6,4.9-50.4,197.2-23.5,213.2,30.4,25.8,23.5,47.5,53.9,78.9,24,16.1,86.7,21.2,123.1,37.4,77.9,22.1,101-283.8,58.6-301.8h0Z"/>
      <path class="cls-3" d="M1647.1,2765.1c-55.9-32.1-111.8-54.2-167.8-47.9-36.3,9.6-42.2,29.8-41.5,49.5-4.9,157.7-4.4,310.1-4.8,463.4,3.2,55.9,62.3,102.3,102.3,20.8,84.2-138.5,171.5-459.1,111.8-485.8h0Z"/>
      <path class="cls-3" d="M851.9,1996.8c-30.7-6.1-28.1,30.2-7.3,42.3,59.5,60.4,154.2,145,216.7,160.1,18,5.3,1.9-56.3,8.1-104.5,6.6-51.3,28.4-96.5,7.5-91.4-62.9,18.3-152,12.4-225-6.6h0Z"/>
      <path class="cls-3" d="M847.3,2071.5c63.7,61.9,138.3,130.7,207.5,155.8,23,2.7,6.7,107.9,14.2,190.8,7.4,82.8,33.2,203.4,11.8,187.7-71.7-37.6-161.3-185.6-229.4-445.5-25.2-81.7-21.9-93.5-4.1-88.8h0Z"/>
      <path class="cls-3" d="M1002.4,2575.2c-43.8-40.8-50.5-25.5-52.9,45.6-5.5,146,34.7,237.2,120.4,323,57.2,71.2,82.7,67.5,62-21.9-21.3-108.1,0-195.4-129.6-346.8h0Z"/>
      <path class="cls-3" d="M1971.3,1996.8c30.7-6.1,28.1,30.2,7.3,42.3-59.5,60.4-154.2,145-216.7,160.1-18,5.3-1.9-56.3-8.1-104.5-6.6-51.3-28.4-96.5-7.5-91.4,62.9,18.3,152,12.4,225-6.6h0Z"/>
      <path class="cls-3" d="M1976,2071.5c-63.7,61.9-138.3,130.7-207.5,155.8-23,2.7-6.7,107.9-14.2,190.8-7.4,82.8-33.2,203.4-11.8,187.7,71.7-37.6,161.3-185.6,229.4-445.5,25.2-81.7,21.9-93.5,4.1-88.8h0Z"/>
      <path class="cls-3" d="M1820.9,2575.2c43.8-40.8,50.5-25.5,52.9,45.6,5.5,146-34.7,237.2-120.4,323-57.2,71.2-82.7,67.5-62-21.9,21.3-108.1,0-195.4,129.6-346.8h0Z"/>
      <path class="cls-3" d="M913.7,2969.2c11.8-127.1,112.6,72.8,80.3,151.3-13.8,45.7-33.3,88.6-41.4,137.1-13.2,66-56.7,46.8-51-35.1,7.5-77.8-1.6-173.6,12.2-253.3h0Z"/>
      <path class="cls-3" d="M1117,3122.9c156.3,265.9,151.5,365.5,47.8,846.1-14.1,110.2-30.1,182.5-58.4-10.6-28.9-273.8-183.5-482.1-86.7-821.3,18.3-47.2,22.4-147.5,97.4-14.2h0Z"/>
      <path class="cls-3" d="M881.6,3435.7c19.8-132,43.1-136.3,69.9-12.9,97.5,382.4,179.6,758.7,173.3,1099.6-15.4,102.1-39.5,176.5-124.2,56.9-151.5-322-202.1-697.4-119-1143.6h0Z"/>
      <path class="cls-3" d="M1269.7,3632.4c38.8-114.7,63.8-98.3,75,49.2,15.5,293.2,8.6,596.8-28.5,879.7-10.3,121.6-155.2,46.6-163-139.7-11.8-212.5,45.2-493.7,116.4-789.1h0Z"/>
      <path class="cls-3" d="M1022.6,5137c37.3-176.5,130.8-73.3,174.9,199.9,45,267.4-59.7,555.5,74.5,1110.7,18.9,66.8-6.7,88-22.9,94.3-23.7,9.2-57.1-24.2-61.7-50.3-88.9-513.3-316.9-870.5-164.7-1354.6h0Z"/>
      <path class="cls-3" d="M1261.3,5127.6c-9.4-120.5,44-131,75.5,53.5,96.7,337.6,4.4,459.1-25.1,672.9-10.5,117.4-43,114.2-37.7-40.9-4.2-228.5,32.5-428.7-12.6-685.5h0Z"/>
      <path class="cls-3" d="M1927.1,2969.2c-11.8-127.1-112.6,72.8-80.3,151.3,13.8,45.7,33.3,88.6,41.4,137.1,13.2,66,56.7,46.8,51-35.1-7.5-77.8,1.6-173.6-12.2-253.3h0Z"/>
      <path class="cls-3" d="M1731.1,3122.9c-156.3,265.9-151.5,365.5-47.8,846.1,14.1,110.2,30.1,182.5,58.4-10.6,28.9-273.8,183.5-482.1,86.7-821.3-18.3-47.2-22.4-147.5-97.4-14.2h0Z"/>
      <path class="cls-3" d="M1966.6,3435.7c-19.8-132-43.1-136.3-69.9-12.9-97.5,382.4-179.6,758.7-173.3,1099.6,15.4,102.1,39.5,176.5,124.2,56.9,151.5-322,202.1-697.4,119-1143.6h0Z"/>
      <path class="cls-3" d="M1578.5,3632.4c-38.8-114.7-63.8-98.3-75,49.2-15.5,293.2-8.6,596.8,28.5,879.7,10.3,121.6,155.2,46.6,163-139.7,11.8-212.5-45.2-493.7-116.4-789.1h0Z"/>
      <path class="cls-3" d="M1825.5,5137c-37.3-176.5-130.8-73.3-174.9,199.9-45,267.4,59.7,555.5-74.5,1110.7-18.9,66.8,6.7,88,22.9,94.3,23.7,9.2,57.1-24.2,61.7-50.3,88.9-513.3,316.9-870.5,164.7-1354.6h0Z"/>
      <path class="cls-3" d="M1597.8,5127.6c9.4-120.5-44-131-75.5,53.5-96.7,337.6-4.4,459.1,25.1,672.9,10.5,117.4,43,114.2,37.7-40.9,4.2-228.5-32.5-428.7,12.6-685.5h0Z"/>
    </g>
  </g>
</svg>