<?xml version="1.0" encoding="UTF-8"?>
<svg id="_ÎÓÈ_1" data-name="—ÎÓÈ_1" xmlns="http://www.w3.org/2000/svg" version="1.1" viewBox="0 0 2834.65 2834.65">
  <defs>
    <style>
      .cls-1 {
        fill: #582a84;
      }

      .cls-1, .cls-2, .cls-3 {
        fill-rule: evenodd;
        stroke-width: 0px;
      }

      .cls-2 {
        fill: #868686;
      }

      .cls-3 {
        fill: #c6c6c5;
      }
    </style>
  </defs>
  <path class="cls-2" d="M1531.76,219.49c26.99.19,29.85,31.98,22.52,61.31-5.99,24-16.62,44.55-36.29,51.3-6.23,29.21-6.53,64.37-10.01,96.34,7.41,10.41,19.74,15.66,30.03,22.52,30.71,20.48,61.76,43.59,92.6,65.06,35.18,3.36,74.78,7.2,102.6,20.02,24.97,11.51,41.98,30.72,56.31,53.8,13.35,21.5,28.76,48.87,31.28,77.58,2.91,33.05-1.07,73.31-7.51,102.6-2.03,9.23-7.37,20.19-7.51,28.78-.11,6.69,4.01,18.29,6.26,27.53,10.17,41.76,16.34,91.58,12.51,147.65-1.36,19.94-6.49,41.28-5.01,60.06,1.29,16.33,10.76,33.13,16.27,47.55,6.43,16.83,10.59,32.35,12.51,51.3,3.8,37.51-1.32,76.87-8.76,113.86-10.5,52.19-20.02,107.39-25.03,166.41-1.69,19.94-4.42,41.35-3.75,60.06.67,18.65,6.82,38.65,10.01,57.56,4.21,24.91,12.92,51.81,5.01,73.82-2.59,7.2-6.07,10.33-12.52,17.52-4.32,4.82-6.81,12.07-11.26,17.52-4.18,5.13-10.77,7.62-16.27,13.76-7.08,7.92-9.69,13.9-13.76,15.01-11.48,3.14-27.29-2.14-37.53-5.01-9.23-2.58-23.02-6.59-28.78-12.51-6.7-6.88-5.94-17.05-10.01-25.02-4.79-9.39-12.54-10.11-17.52-16.27-12.85,97.95-26.87,193.46-61.31,272.77-6.25,14.39-14.45,28.7-16.27,46.29-1.98,19.13,1.62,38.75-1.25,58.81-1.24,8.6-5.21,17.67-5.01,26.28.37,15.41,8.43,32.34,12.52,48.8,11.41,46,22.25,99.95,22.52,157.65.36,76.43-20.88,145.33-40.04,210.21-13.3,45.05-27.28,97.91-36.29,151.4-3.47,20.61-9.85,43.71-6.25,62.56,3.02,15.89,16.06,32.44,27.52,47.55,8.74,11.51,15.41,19.51,27.53,28.78,4.13,3.17,8.67,8.93,12.51,10.01,19.8,5.56,44.35,11.22,43.79,30.03-.32,10.95-8.25,15.78-27.52,16.26-14.19.36-28.35,0-42.55,0-29.12,0-61.06,4.35-85.08,1.25-6.69-.86-12.25-5.44-21.27-6.26-20.56-1.88-40.34,5.09-47.55-6.26-9.14-14.39,11.76-55.29,11.26-72.57-.29-10.02-5.25-20.13-5.01-30.03.38-15.15,7.8-31.06,10.02-47.55,10.68-79.84,7.22-190.37-7.51-266.51-6.01-31.06-17.99-60.07-20.02-93.84-4.25,7.27-3.45,15.63-5.01,23.77-4.37,23.02-11.88,46.01-16.27,70.07-13.95,76.6-16.89,184.82-5,266.51,1.25,8.57,2.73,15.39,5,23.77,1.89,6.93,4.7,15.64,5.01,22.52.46,10.52-4.95,20.4-5.01,30.03-.15,25.67,18.72,47.13,12.51,73.82-5.82,10.8-29.83,5.23-46.3,6.26-9.97.61-15.68,6.26-27.53,6.26h-81.33c-27.02,0-65.14,4.04-68.82-11.26-4.24-17.65,14.15-27.19,26.28-31.28,4.28-1.45,9.83-1.6,15.02-3.75,14.93-6.19,31.63-24.36,41.29-37.54,8.85-12.06,24.99-33.28,27.53-50.05,2.64-17.46-2.71-39.01-6.25-58.81-9.22-51.38-24.02-108.04-37.54-153.9-19.11-64.85-42.54-131.59-42.54-212.71,0-66.13,13.46-124.78,27.53-180.18,1.94-7.62,5.96-15.75,6.26-22.52.62-14.15-6.38-29.63-7.51-45.04-1.26-17.32,1.53-39.07-2.5-53.8-6.26-22.91-19.79-44.23-27.53-68.82-21.84-69.44-41.58-153.3-48.79-236.48-4.21.62-11.18,5.83-15.02,10.01-6.04,6.59-6.67,24.46-13.76,31.28-6.97,6.7-19.9,8.51-30.03,11.26-13.99,3.79-33.57,11.85-43.79,0-1.55-1.8-2.13-6.88-5-10.01-4.55-4.96-11.37-7.89-16.27-13.76-10.11-12.14-20.63-21.53-25.02-33.78-6.54-18.23-.61-45.67,3.75-71.32,3.22-18.92,8.75-38.28,10.01-53.8,1.52-18.8-1.94-40.19-3.75-61.31-4.99-58.22-14.21-115.01-25.03-168.92-7.35-36.65-15.55-72.86-11.26-115.11,1.92-18.93,6.45-35.68,12.51-52.55,5.64-15.68,15.04-31.98,16.27-47.55,1.44-18.28-5.09-38.61-6.26-58.81-3.09-53.38,1.16-105.4,11.26-148.9,2.08-8.96,6.25-18.74,6.25-26.28.01-8.61-4.16-18.72-6.25-27.53-5.99-25.18-10.26-58.88-10.01-91.34.26-34.57,14.13-62.57,28.78-87.59,13.72-23.43,33.21-46.95,57.55-58.81,21.01-10.24,48.28-14.23,73.82-17.52,8.4-1.08,11.38-.08,20.14-2.5,8.99-2.48,27.12-12.2,36.16-18.77,28.29-20.53,59.44-38.4,89.97-58.81-5.02-34.18-3.82-74.59-11.26-106.35-3.45-4.71-14.84-6.95-20.02-13.76-4.29-5.64-13.62-26.91-16.26-36.29-7.68-27.19-6.31-64.38,22.52-62.56-2.03-16.81-6.06-31.57-6.26-46.29-.51-38.76,24.27-72.91,50.05-91.34,18.24-13.03,45.66-25.51,71.32-27.53,55.88-4.4,112.81,39.58,127.74,90.09,7.23,24.44,1.53,47.55-2.5,73.82h0ZM1630.61,985.24c-4.11,8.93-11.69,18.45-12.52,25.03-.72,5.77,1.6,16.89,2.5,25.02,3.89,35.26,8.68,75.79,1.25,107.61,25.04,39.76,17.42,97.66,26.28,148.9,2.79,16.12,7.85,32.48,11.26,47.55,15.19,66.97,14.57,140.72,20.02,215.21,6.51-23.06,23.25-42.58,31.28-67.57,4.65-14.46,6.69-33.27,8.76-51.3,2.09-18.18,5.14-38.32,5.01-56.31-.21-27.13-10.7-50.57-20.02-76.33-8.52-23.54-15.78-49.37-22.52-73.82-12.17-44.12-12.33-86.28-2.5-126.38,4.98-20.31,14.67-50.86,10.01-75.07-3.7-19.25-14.13-38.8-18.77-60.06-4.52-20.72-7.63-49.94-11.26-70.07-7.64,28.52-16.82,61.57-28.77,87.58h0ZM1162.65,972.73c-4.7,22.02-16.65,41.86-18.77,62.56-3.26,31.84,8.88,50.62,13.76,73.82,10.55,50.13,3.91,98.88-10.01,142.64-6.32,19.87-11.4,41.8-18.77,62.56-7.92,22.32-16.03,42.42-16.27,66.31-.16,16.33,2.86,33.36,5.01,50.05,2.16,16.82,3.54,33.98,7.51,48.8,7.46,27.86,23.47,51.47,35.03,76.33,2.75-74.64,2.47-146.25,15.01-206.45,4.32-20.71,11.06-41.41,13.76-60.06,5.89-40.59,2.58-81.34,12.51-115.11,3.2-10.87,10.43-22.09,11.26-32.53.84-10.5-3.29-21.91-3.75-32.53-1.46-33.14,3.56-66.15,7.51-98.85-20.74-30.97-30.58-72.85-43.79-111.36-2.54,25.75-4.98,50.29-10.01,73.82h0ZM1416.65,1514.51c-1.51,120.94-2.46,238.59-17.52,345.34-2.15,15.26-9.35,30.43-8.75,43.79.44,10,6.86,20.69,8.75,31.28,4.6,25.7,4.22,55.73,1.25,81.33-1.73,14.88-6.97,27.8-6.26,42.54.98,20.04,9.28,37.62,15.01,56.31,6.08,19.79,9.69,39.15,12.52,58.81-1.21-41.05,27.74-77.72,26.28-121.37-.54-15.92-6.52-31.68-7.51-47.55-1.28-20.71-2.27-43.6,0-63.81,1.45-12.91,9.94-26.16,10.02-38.79.07-12.85-6.4-27.61-8.76-42.54-16.87-106.87-17.98-228.18-20.02-346.59-1.69.4-2.39,1.78-5,1.25h0Z"/>
  <path class="cls-3" d="M1331.44,493.51c-5.65-2.48-6.2-11.44-7.51-17.52-1.61-7.54-2.75-15.34-3.75-22.52-32.84,18.46-72.77,41.65-103.16,62.56,19.84,1.69,26.33,10.42-3.07,12.51-57.37,2.71-110.97,10.88-140.14,40.04-21.17,21.17-48.56,67.75-51.3,103.85-2.51,33.09,2.7,73.11,8.76,98.85,2.35,9.96,6.09,20.4,6.26,30.03.3,17.18-7.71,36.26-11.26,55.05-7.32,38.69-8.49,80.54-5.01,123.87,1.73,21.53,7.74,43.06,5.01,62.56-2.52,17.98-14.06,34.54-20.02,52.55-14.86,44.88-9.49,95.45,0,142.64,13.01,64.68,24.42,127.84,30.03,196.44,1.17,14.37,3.06,30.29,2.5,43.79-.76,18.25-6.93,38.67-10.01,57.56-1.54,9.4-3.62,19.13-5,28.78-1.51,10.49-3.75,22.4-2.5,31.28,2.36,16.75,19.94,23.8,26.28,40.04,11.8,2.24,15.78,19.97,25.03,22.52,11.75,3.24,47.65-9.6,52.55-15.01,5.69-6.28,4.71-17.97,8.76-25.02,6.44-11.22,17.81-12.26,20.02-21.27,2.28-9.31-2.17-31.15-7.51-43.79-9.94-23.56-25.67-42.55-32.53-67.57-3.38-12.34-4.36-27.78-6.26-43.79-1.77-15-5.35-30.5-6.26-45.04-2.07-33.47,3.77-56.33,12.51-80.08,5.94-16.13,11.43-31.76,16.27-47.55,9.65-31.47,21.37-66.21,21.27-105.1-.04-16.63-1.85-34.23-5.01-50.05-2.91-14.63-9.48-28.1-12.51-42.54-8.59-40.95,9.25-67.53,16.26-98.85,10.34-46.13,13.09-100.53,12.51-155.15-.07-6.61-2.84-16.28,1.07-22.54-19.39-34.86-36.85-99.86-31.33-110.19,7.37-26.52,16.91-37.99,29.65-49.74-4.86,12.06-9.71,24.12-14.57,36.18-4.02,12.39-4.69,24.79-2.01,37.18,9.82,54.43,32.39,89.44,70.34,101,28.63,4.71,58.45,1.19,88.43-3.52-25.75,12.9-60.17,18.09-110.04,9.55-11.09-2.97-14.91-5.24-19.64-9.05-.1,4.2-.65,8.62-.65,12.39,0,11.54-.98,24.99,0,33.78,1.78,15.92,8.13,33.19,12.51,48.8,11.59,41.27,25.92,78.99,42.55,112.61,3.28,6.65,9.08,13.41,7.5,21.27-5.29,5.6-8.44-12.3-11.26-5-8.11,52.12-4.17,108.59,8.76,150.15,2.24,7.21,8.38,15.18,5,22.52-8.22-1.6-9.36-10.87-12.51-17.52-3.18-6.72-6.86-13.88-10.01-20.02-7.4,19.72-9.51,40.13-11.26,61.31-1.89,22.84-1.31,47.37-5,68.82-2.07,12.04-6.16,24.48-8.76,36.28-8.28,37.54-15.01,77.45-16.26,122.62-1.64,59.07-8.14,119.52-1.25,177.67,9.39,79.23,28.88,156.1,51.3,223.97,7.61,23.02,22.55,43.8,26.28,66.31,2.43,14.65-.93,27.38,0,41.29.99,14.64,3.73,29.43,6.26,42.54,2.61,13.53,8.53,26.05,7.51,38.79-5.88,6.81-11.14-7.73-12.52-1.25-29.33,96.31-35.78,205.32-7.51,307.8,22.41,81.2,48.02,156.63,62.56,245.24,2.22,13.51,5.43,27.77,5.01,40.04-.6,17.49-6.67,28.18-13.76,40.04-11.19,18.71-24.56,35.02-38.78,47.55-2.13,1.87-9.45,7.52-5,7.51,7.58-.69,16.57.93,25.02,1.25,8.24.31,18.11-2.24,23.77,2.5-9.26,4.72-22.19,3.87-35.03,5.01-29.08,2.57-60.41.86-67.57,22.52,11.02,4.5,23.22,2.5,35.03,2.5s25.18-.18,37.54,0c24.21.34,48.82,3.32,71.32,0,5.83-.86,10.7-4.26,16.27-5,14.55-1.93,27.81,2.41,41.29-1.25,2.48-25.58-14.02-43.89-13.76-67.57.11-9.62,5.55-19.29,5-30.03-.59-11.67-6.49-22.17-8.75-33.78-2.45-12.57-2.59-26.33-3.76-38.79-7.8-83.08-5.95-162.97,8.76-242.74,4.67-25.32,12.03-47.62,16.26-70.07,9.88-52.33,5.49-109.28-8.76-153.9-6.99-21.9-16.54-46.47-16.26-70.07.18-15.69,6.54-30.52,7.51-45.04,1.33-19.84,1.9-41.12,0-61.31-1.19-12.68-8.92-25.46-10.01-38.79-1.68-20.58,6.33-34.25,8.76-52.55,14.52-109.57,15.65-229.26,17.51-350.34,7.91-2.22,24.07-2.57,28.78,2.5-1.01,119.48,4.21,242.17,18.77,345.34,2.09,14.82,7.56,29.49,8.75,43.79,1.65,19.68-6.2,27.33-8.75,41.29-5.19,28.33-2.5,65.39,2.5,90.09,1.9,9.37,5.02,18.22,5.01,27.53-.03,23.59-9.34,46.48-16.27,68.82-14.79,47.7-15.17,101.16-6.26,151.4,3.95,22.25,11.34,44.69,16.26,70.07,10.39,53.56,13.22,105.56,13.76,157.65.44,42-.57,84.88-6.26,121.37-1.82,11.71-7.7,22.87-8.75,35.03-1.07,12.32,5.02,21.98,5,33.78-.01,10.08-4.94,22.18-7.5,32.53-2.7,10.83-6.61,21.33-6.26,33.78,12.95,5.79,27.27-1.28,43.79,1.25,5.05.77,9.74,4.24,15.01,5,21.81,3.18,48.39,0,72.58,0,18.58,0,37.68-.45,52.55-1.25,4.99-.27,12.52,2.36,16.27-2.5,3-7.73-6.21-11.24-11.26-13.76-17.47-8.73-54.08-7.38-75.07-10.01-5-.63-12.54,1.65-15.01-3.75,14.05-3.48,32.73-2.31,50.05-2.5-9.36-11.24-22.34-22.01-32.53-36.29-13.93-19.53-28.54-39.27-26.28-71.32,3.41-48.21,16.89-96.51,28.78-143.89,11.3-45.02,25.48-89.88,37.54-136.38,25.35-97.78,18.62-202.18-11.26-302.8-3.79-3.91-1.21,4.09-5,3.75-2.8,2.82-6.27-.08-8.75-1.25,3.63-23.81,11.76-47.09,13.76-75.07,1.02-14.25-1.74-29.5,0-45.04,2.46-21.99,17.32-44.62,25.03-67.57,23.04-68.62,41.78-146.98,50.05-227.72,6.1-59.58-.41-118.95-2.5-177.67-1.6-44.89-8.11-85.56-16.27-122.62-2.83-12.83-8.05-24.81-10-37.54-6.31-40.98-1.56-86.62-16.27-125.12-4.54.85-3.38,6.46-5,10.01-1.52,3.31-4.49,6.4-6.26,10.01-3.01,6.17-4.41,18.14-12.51,16.27.46-11.88,6.57-24.2,10.01-37.54,10.48-40.67,10.18-91.75,2.5-136.38-3.3-2.84-4.74,12.15-11.26,6.26,3.68-14.33,11.09-28,17.52-42.54,12.5-28.28,22.45-56.95,31.28-88.84,4.44-16.03,10.85-32.51,12.51-48.8.89-8.7,0-22.75,0-35.03,0-4.31-.68-9.62-.64-14.5-6.17,5.15-9.2,7.67-22.19,11.15-49.87,8.54-84.29,3.35-110.04-9.55,29.98,4.7,59.8,8.23,88.43,3.52,37.96-11.56,60.52-46.56,70.34-101,2.68-12.4,2.01-24.79-2.01-37.18-4.86-12.06-9.72-24.12-14.57-36.18,12.73,11.76,22.28,23.23,29.65,49.74,5.36,10.03-10.93,71.54-29.62,107.03,6.2,7.32,3.16,18.79,3.16,26.96,0,59.26,3.19,112.6,15.01,157.65,4.84,18.42,13.46,35.56,16.26,52.55,4.83,29.16-6.03,54.72-11.26,76.33-3.1,12.8-5.45,26.25-6.26,40.04-3.25,56.09,16.83,108.8,31.28,151.4,10.89,32.07,22.57,57.86,20.02,98.85-1.98,31.91-7.25,78.32-18.77,106.35-10.84,26.41-39.05,65.05-32.53,92.59,2.81,11.87,15.96,12.74,21.27,22.52,3.89,7.16,2.9,19.05,8.76,25.03,11.83,12.05,36.11,10.21,52.55,15.01,4.64-3.96,7.9-8.96,12.51-13.76,4.43-4.6,9.82-7.7,13.76-12.51,1.8-2.21,2.03-6.4,3.76-8.76,5.75-7.85,16.28-14.06,18.76-22.52,5.04-17.13-2.82-42.92-6.26-63.81-3.19-19.42-8.69-38.85-10.01-56.31-2.07-27.39,1.99-59.17,5.01-88.84,2.81-27.63,6.9-55.92,11.26-82.58,9.16-55.94,26.71-108.88,22.52-166.41-1.41-19.33-6.9-37.85-13.76-56.31-6.47-17.39-16.61-36.06-17.52-52.55-.99-18.16,5.07-38.6,6.26-58.81,2.51-42.67,1.32-84.67-6.26-121.37-3.79-18.38-12.7-37.57-12.51-53.8.1-8.84,4.02-18.2,6.25-27.53,6.49-27.14,10.71-62.37,8.76-93.84-1.5-24.23-10.41-45.81-21.27-65.06-10.88-19.29-21.53-36.7-36.29-50.05-32.69-29.57-84.27-29.64-137.63-36.29-25.93-2.05-22.41-10.99-5-11.26-35.36-22.2-66.31-48.8-103.85-68.82-1.39,7.4-4.33,15.99-6.26,25.03-1.64,7.68.04,20.53-8.76,22.52,3.01-33.28,6.01-66.56,8.76-100.1-19.6,15.71-35.97,44.4-61.31,55.06-16.64,7-32.91,8.31-52.67,0-25.98-10.93-39.49-36.18-60.05-55.06-.77.07-1.49.19-1.26,1.25,2.01,32.61,7.66,68.24,7.51,98.85h0ZM1396.26,1094.27c9.86-23.71,31.1-21.47,39.17.29-24.02-21.48-36.87,9.18-39.17-.29h0ZM1361.05,539.79c6.45,1.36,11.3,3.21,17.94,3.21,10.29,0,19.6,4.64,22.45,14.45.86,2.97,11.55,28.22-1.94,13.13-5.19-5.81-4.56-16.64-15.53-18.53-5.94-1.02-28.45-12.83-22.91-12.25h0ZM1468.96,539.79c-6.45,1.36-11.3,3.21-17.94,3.21-10.29,0-19.6,4.64-22.45,14.45-.86,2.97-11.55,28.22,1.94,13.13,5.19-5.81,4.56-16.64,15.53-18.53,5.94-1.02,28.45-12.83,22.91-12.25h0ZM1320.16,1878.04c13.77,22.53,45.27,34.29,47.22,23.41,1.24,2.19,6.82,12.41-9.82,13.43-7.51,0-21.79-8.58-27.15-13.94-7.34-7.34-9.03-15.26-10.25-22.9h0ZM1304.64,1890.49c-10.02,10.29-15.89,16.44-32.45,18.05,3.32,3.48,7.19,7.77,21.23,4.81,10.45-6.28,11.5-14.44,11.22-22.86h0ZM1280.39,1952.8c2.74,27.72,5.93,62.39,20.93,75.53,5.35,5.63,16.15,7.98,29.36,11.34-12.2,5.01-29.24,2.22-42.22-6.09-11.57-7.43-18.2-73.23-8.08-80.79h0ZM1368.4,1937.45c-.18,14.66.12,67.92-6.18,81.03-3.05,6.36-11.82,12.16-18.83,14.35,12.19,5.01,10.59,5.54,23.57-2.77,11.57-7.43,11.57-85.05,1.44-92.62h0ZM1522.92,1878.04c-13.77,22.53-45.27,34.29-47.22,23.41-1.24,2.19-6.82,12.41,9.82,13.43,7.51,0,21.79-8.58,27.15-13.94,7.34-7.34,9.03-15.26,10.25-22.9h0ZM1538.44,1890.49c10.02,10.29,15.89,16.44,32.45,18.05-3.32,3.48-7.19,7.77-21.23,4.81-10.45-6.28-11.5-14.44-11.22-22.86h0ZM1562.69,1952.8c-2.74,27.72-5.93,62.39-20.93,75.53-5.35,5.63-16.15,7.98-29.36,11.34,12.2,5.01,29.24,2.22,42.22-6.09,11.57-7.43,18.2-73.23,8.08-80.79h0ZM1474.68,1937.45c.18,14.66-.12,67.92,6.18,81.03,3.05,6.36,11.82,12.16,18.83,14.35-12.2,5.01-10.59,5.54-23.57-2.77-11.57-7.43-11.57-85.05-1.44-92.62h0ZM1521.75,227c1.38-14.37,3.14-27.39,3.75-41.29,1.61-36.52-10.51-59.36-27.53-77.58-17.92-19.19-51.57-37.99-82.58-40.04-35.19-2.33-67.21,15.42-90.2,40.04-13.26,14.19-25.68,34.35-27.53,58.81-1.72,22.62,2.25,42.96,3.76,61.31.44,5.4,5.09,14.75-2.5,18.77-8.3-.05-1.42-15.26-11.27-13.76-9.6.42-11.07,15.7-10.01,28.78,1.73,21.3,13.5,48.35,25.03,55.05-.47-5.9.1-10.74,6.26-10.01,8.67,18.94,6.65,40.39,13.76,58.81,6.62,17.12,20.14,30.99,32.53,43.79,15.27,15.77,31.61,31.16,56.31,32.53,29.77,1.66,41.06-16.67,56.42-32.53,20.83-21.51,32.76-39.11,38.79-73.82,1.87-10.73,2.01-23.65,8.76-28.78,5.09-.09,5.39,4.63,5,10.01,11.96-6.89,30.63-47.11,25.02-72.57-1.24-5.65-6.26-12.94-11.26-11.26-8.02,2.69-1.06,11.68-11.26,13.76-5.27-5.73-1.83-13.95-1.25-20.02h0Z"/>
  <path class="cls-1" d="M1256.1,550.77c-64.19,28.32-123.62,86.53-163.98,187.03-7.72,3.99-19.27-1.97-11.44-52.48,11.3-42.09,6.19-66.34,49.57-126.91,35.57-37.73,134.5-22.05,125.84-7.63h0Z"/>
  <path class="cls-1" d="M1129.7,551.65c-47.61,46.83-70.23,141.58-57.07,205.65-9.75,35.63-20.97,57.84-28.53,36.61-29.29-115.08-5.58-185.13,49.01-229.91,6.78-5.04,32.95-17.28,36.58-12.35h0Z"/>
  <path class="cls-1" d="M1131.83,739.82c-5.77-29.11-13.26-46.92-32.73,14.32-36.92,84.98-31.2,168.32-32.73,250.55,3.69,60.2,29.96,52.28,52.16,21.48,25.85-44.67,50.63-183.02,13.29-286.34h0Z"/>
  <path class="cls-1" d="M1058.48,808.9c16.1-20.79,19.49-16.97,10.17,11.45-9.65,59.68-15.74,118.84-8.26,192.17,0,23.6-18.86,31.06-24.79,12.09-12.7-88.94-15.38-169.3,22.89-215.71h0Z"/>
  <path class="cls-1" d="M1027.65,1076.94c16.72-50.53,71.62-27.99,67.62,40.35,12.31,103.94-9.68,196.32,0,305.38-3.27,33.08-10.18,35.63-16.36,7.63-13.53-136.53-76.22-278.05-51.26-353.37h0Z"/>
  <path class="cls-1" d="M1006.56,1167.58c6.87-47.95,10.06-4.48,14.63,21.65,14.21,88.37,46.09,173.68,52.18,260.49-.42,19.22-18.88,23.67-26.09,16.56.59-86.88-45.51-266.98-40.72-298.7h0Z"/>
  <path class="cls-1" d="M1122.38,1065.13c-14.39-12.93-20.97-6.34-19.75,19.75,6.14,68.21,12.13,136.4-1.46,202.63-.98,28.29,2.93,32.19,11.7,11.7,28.56-76.44,43.45-153.74,9.51-234.09h0Z"/>
  <path class="cls-1" d="M1575.29,550.77c64.19,28.32,123.62,86.53,163.98,187.03,7.72,3.99,19.27-1.97,11.44-52.48-11.3-42.09-6.19-66.34-49.57-126.91-35.57-37.73-134.5-22.05-125.84-7.63h0Z"/>
  <path class="cls-1" d="M1701.69,551.65c47.61,46.83,70.23,141.58,57.07,205.65,9.75,35.63,20.97,57.84,28.53,36.61,29.29-115.08,5.58-185.13-49.01-229.91-6.78-5.04-32.95-17.28-36.58-12.35h0Z"/>
  <path class="cls-1" d="M1703.99,739.82c5.77-29.11,13.26-46.92,32.73,14.32,36.92,84.98,31.2,168.32,32.72,250.55-3.69,60.2-29.96,52.28-52.16,21.48-25.85-44.67-50.63-183.02-13.29-286.34h0Z"/>
  <path class="cls-1" d="M1777.35,808.9c-16.1-20.79-19.49-16.97-10.17,11.45,9.65,59.68,15.74,118.84,8.26,192.17,0,23.6,18.86,31.06,24.79,12.09,12.7-88.94,15.38-169.3-22.89-215.71h0Z"/>
  <path class="cls-1" d="M1808.17,1076.94c-16.72-50.53-71.62-27.99-67.62,40.35-12.31,103.94,9.68,196.32,0,305.38,3.27,33.08,10.18,35.63,16.36,7.63,13.53-136.53,76.22-278.05,51.26-353.37h0Z"/>
  <path class="cls-1" d="M1829.26,1167.58c-6.87-47.95-10.06-4.48-14.63,21.65-14.21,88.37-46.09,173.68-52.18,260.49.42,19.22,18.88,23.67,26.09,16.56-.59-86.88,45.51-266.98,40.72-298.7h0Z"/>
  <path class="cls-1" d="M1713.44,1065.13c14.39-12.93,20.97-6.34,19.75,19.75-6.14,68.21-12.13,136.4,1.46,202.63.98,28.29-2.93,32.19-11.7,11.7-28.56-76.44-43.45-153.74-9.51-234.09h0Z"/>
  <path class="cls-1" d="M1318.3,497.08c10.19,30.46,15.94,25.89-19.16,23.45-72.54-5.04-70.04-3.36-9.69-36.22,28.63-15.59,19.65-14.73,28.84,12.77h0Z"/>
  <path class="cls-1" d="M1335.92,425.52c1.41,28.59,15.35,71.83,28.04,91.24,18.54,28.36,40.96,24.69,37.96,11.51-22.3-31.5-24.75-67.89-32.08-78.9-17.78-11.36-31.61-39.43-33.91-23.85h0Z"/>
  <path class="cls-1" d="M1283.39,552.18c25.79-8.24,126.05,32.39,109.65,37.57-68.93,22.18-135.89,37.18-212.64,88.07-26.58,14.07-28.72,7.64-19.25-18.35,19.15-59.97,66.39-86.52,122.24-107.29h0Z"/>
  <path class="cls-1" d="M1201.49,671.96c-14.43,7.67-27.1,14.88-34.41,19.8-12.6,8.47-11.52,12.9,3.45,9.59,15.38-3.4,31.89-3.36,47.54-2.44,83.32,4.9,152.39,34.53,182.64,30.68,10.71,1.37,8.24-120.93-9.06-121.21-76.06,10.03-131.68,29.37-190.17,63.58h0Z"/>
  <path class="cls-1" d="M1184.78,705.57c-28.61,1.78-28.8,5.87-26.64,27.19,9.07,32.64,28.46,61.95,58.14,67.94,63.99,12.94,151.44-17.69,162.72-19.69,15.19-4.98,33.89-20.84,9.82-34.66-59.13-28.32-170.14-45.08-204.03-40.78h0Z"/>
  <path class="cls-1" d="M1304.41,825.37c-11.17,9.02-19.76,50.26-5.15,50.26,12.55-.87,20.54-9.47,43.01-11.98,18.62-2.08,38.78-.35,50.42-2.19,19.97-9.88,18.04-64.22-.64-65.72-32.65,1.64-65.68,4.81-87.63,29.64h0Z"/>
  <path class="cls-1" d="M1298.97,887.95c20.36-13.73,71.03-20.45,96.91-13.12,12.13,5.77,11.85,59.74,4.23,79.55-8.52,14.84-58.84,5.82-94.92,15.51-25.31,9.73-27.61-66.41-6.21-81.94h0Z"/>
  <path class="cls-1" d="M1300.3,986.27c17.29-10.42,63.21-13.58,85.52-11.16,26.47,1.97,20.33,79.51,9.48,85.96-12.27,10.42-9.48,19.16-21.75,31.82-9.67,6.51-34.95,8.56-49.63,15.07-31.42,8.93-40.72-114.43-23.62-121.69h0Z"/>
  <path class="cls-1" d="M1319.23,1130.14c22.55-12.94,45.1-21.85,67.65-19.33,14.65,3.87,17,12.03,16.75,19.97,1.97,63.61,1.77,125.05,1.93,186.86-1.29,22.55-25.13,41.24-41.24,8.38-33.94-55.84-69.16-185.14-45.1-195.88h0Z"/>
  <path class="cls-1" d="M1505,497.08c-10.19,30.46-15.94,25.89,19.16,23.45,72.54-5.04,70.04-3.36,9.69-36.22-28.63-15.59-19.65-14.73-28.84,12.77h0Z"/>
  <path class="cls-1" d="M1490.34,425.52c-1.41,28.59-15.35,71.83-28.04,91.24-18.54,28.36-40.96,24.69-37.96,11.51,22.3-31.5,24.75-67.89,32.08-78.9,17.78-11.36,31.61-39.43,33.91-23.85h0Z"/>
  <path class="cls-1" d="M1545.82,552.18c-25.79-8.24-126.05,32.39-109.65,37.57,68.93,22.18,135.89,37.18,212.64,88.07,26.58,14.07,28.72,7.64,19.25-18.35-19.15-59.97-66.39-86.52-122.24-107.29h0Z"/>
  <path class="cls-1" d="M1627.72,671.96c14.43,7.67,27.1,14.88,34.41,19.8,12.6,8.47,11.52,12.9-3.45,9.59-15.38-3.4-31.89-3.36-47.54-2.44-83.32,4.9-152.39,34.53-182.64,30.68-10.71,1.37-8.24-120.93,9.06-121.21,76.06,10.03,131.68,29.37,190.17,63.58h0Z"/>
  <path class="cls-1" d="M1644.43,705.57c28.61,1.78,28.8,5.87,26.64,27.19-9.07,32.64-28.46,61.95-58.14,67.94-63.99,12.94-151.44-17.69-162.72-19.69-15.19-4.98-33.89-20.84-9.82-34.66,59.13-28.32,170.14-45.08,204.03-40.78h0Z"/>
  <path class="cls-1" d="M1524.8,825.37c11.17,9.02,19.76,50.26,5.15,50.26-12.55-.87-20.54-9.47-43.01-11.98-18.62-2.08-38.78-.35-50.42-2.19-19.97-9.88-18.04-64.22.64-65.72,32.65,1.64,65.68,4.81,87.63,29.64h0Z"/>
  <path class="cls-1" d="M1530.24,887.95c-20.36-13.73-71.03-20.45-96.91-13.12-12.13,5.77-11.85,59.74-4.23,79.55,8.52,14.84,58.84,5.82,94.92,15.51,25.31,9.73,27.61-66.41,6.22-81.94h0Z"/>
  <path class="cls-1" d="M1528.91,986.27c-17.29-10.42-63.21-13.58-85.52-11.16-26.46,1.97-20.33,79.51-9.48,85.96,12.27,10.42,9.48,19.16,21.75,31.82,9.67,6.51,34.95,8.56,49.63,15.07,31.42,8.93,40.72-114.43,23.62-121.69h0Z"/>
  <path class="cls-1" d="M1509.98,1130.14c-22.55-12.94-45.1-21.85-67.65-19.33-14.65,3.87-17,12.03-16.75,19.97-1.97,63.61-1.77,125.05-1.93,186.86,1.29,22.55,25.13,41.24,41.24,8.38,33.94-55.84,69.16-185.14,45.1-195.88h0Z"/>
  <path class="cls-1" d="M1189.32,820.32c-12.36-2.45-11.32,12.18-2.96,17.05,23.98,24.37,62.18,58.49,87.38,64.57,7.25,2.15.76-22.69,3.28-42.12,2.67-20.68,11.45-38.91,3.03-36.84-25.37,7.38-61.3,5-90.73-2.66h0Z"/>
  <path class="cls-1" d="M1187.45,850.46c25.69,24.98,55.78,52.71,83.68,62.82,9.27,1.1,2.71,43.53,5.71,76.94,3,33.4,13.37,82.03,4.75,75.7-28.9-15.15-65.05-74.84-92.49-179.64-10.15-32.96-8.84-37.7-1.65-35.81h0Z"/>
  <path class="cls-1" d="M1249.99,1053.57c-17.66-16.44-20.36-10.3-21.34,18.4-2.21,58.88,13.98,95.67,48.57,130.26,23.06,28.7,33.36,27.23,25.02-8.83-8.57-43.59.03-78.79-52.25-139.83h0Z"/>
  <path class="cls-1" d="M1640.72,820.32c12.37-2.45,11.32,12.18,2.96,17.05-23.98,24.37-62.18,58.49-87.38,64.57-7.25,2.15-.76-22.69-3.28-42.12-2.67-20.68-11.45-38.91-3.03-36.84,25.37,7.38,61.3,5,90.73-2.66h0Z"/>
  <path class="cls-1" d="M1642.6,850.46c-25.69,24.98-55.78,52.71-83.68,62.82-9.27,1.1-2.71,43.53-5.71,76.94-3,33.4-13.37,82.03-4.75,75.7,28.9-15.15,65.05-74.84,92.49-179.64,10.15-32.96,8.84-37.7,1.65-35.81h0Z"/>
  <path class="cls-1" d="M1580.06,1053.57c17.66-16.44,20.36-10.3,21.34,18.4,2.21,58.88-13.98,95.67-48.57,130.26-23.06,28.7-33.36,27.23-25.02-8.83,8.57-43.59-.03-78.79,52.25-139.83h0Z"/>
  <path class="cls-1" d="M1214.22,1212.44c4.77-51.25,45.42,29.36,32.39,61.02-5.57,18.43-13.43,35.71-16.71,55.29-5.33,26.63-22.88,18.86-20.57-14.14,3.01-31.38-.63-70.02,4.9-102.16h0Z"/>
  <path class="cls-1" d="M1296.21,1274.4c63.04,107.21,61.09,147.4,19.27,341.19-5.7,44.43-12.12,73.58-23.56-4.28-11.66-110.4-74-194.39-34.98-331.2,7.38-19.03,9.04-59.48,39.26-5.71h0Z"/>
  <path class="cls-1" d="M1201.28,1400.58c8-53.21,17.39-54.95,28.17-5.22,39.32,154.22,72.43,305.95,69.9,443.42-6.22,41.17-15.93,71.16-50.08,22.95-61.08-129.86-81.51-281.23-47.99-461.16h0Z"/>
  <path class="cls-1" d="M1357.78,1479.87c15.65-46.26,25.73-39.65,30.26,19.82,6.26,118.24,3.48,240.66-11.48,354.74-4.17,49.04-62.6,18.78-65.73-56.34-4.74-85.68,18.23-199.08,46.95-318.22h0Z"/>
  <path class="cls-1" d="M1258.16,2086.59c15.06-71.17,52.76-29.54,70.51,80.61,18.15,107.82-24.07,224,30.04,447.89,7.64,26.94-2.69,35.5-9.24,38.03-9.56,3.69-23.01-9.74-24.9-20.28-35.83-206.97-127.79-351.03-66.41-546.25h0Z"/>
  <path class="cls-1" d="M1354.42,2082.83c-3.8-48.61,17.75-52.83,30.43,21.56,39.01,136.14,1.76,185.15-10.14,271.35-4.23,47.34-17.33,46.07-15.22-16.48-1.69-92.14,13.1-172.87-5.07-276.42h0Z"/>
  <path class="cls-1" d="M1622.9,1212.44c-4.77-51.25-45.42,29.36-32.39,61.02,5.57,18.43,13.43,35.71,16.71,55.29,5.33,26.63,22.88,18.86,20.57-14.14-3.01-31.38.63-70.02-4.9-102.16h0Z"/>
  <path class="cls-1" d="M1543.87,1274.4c-63.04,107.21-61.09,147.4-19.27,341.19,5.7,44.43,12.12,73.58,23.56-4.28,11.66-110.4,74-194.39,34.98-331.2-7.38-19.03-9.04-59.48-39.26-5.71h0Z"/>
  <path class="cls-1" d="M1638.8,1400.58c-8-53.21-17.39-54.95-28.17-5.22-39.33,154.22-72.43,305.95-69.9,443.42,6.22,41.17,15.93,71.16,50.08,22.95,61.08-129.86,81.51-281.23,47.99-461.16h0Z"/>
  <path class="cls-1" d="M1482.3,1479.87c-15.65-46.26-25.73-39.65-30.26,19.82-6.26,118.24-3.48,240.66,11.48,354.74,4.17,49.04,62.6,18.78,65.73-56.34,4.74-85.68-18.23-199.08-46.95-318.22h0Z"/>
  <path class="cls-1" d="M1581.92,2086.59c-15.06-71.17-52.76-29.54-70.51,80.61-18.15,107.82,24.07,224-30.04,447.89-7.64,26.94,2.69,35.5,9.24,38.03,9.56,3.69,23.01-9.74,24.9-20.28,35.83-206.97,127.79-351.03,66.41-546.25h0Z"/>
  <path class="cls-1" d="M1490.09,2082.83c3.8-48.61-17.75-52.83-30.43,21.56-39.01,136.14-1.76,185.15,10.14,271.35,4.23,47.34,17.33,46.07,15.22-16.48,1.69-92.14-13.1-172.87,5.07-276.42h0Z"/>
</svg>