<svg width="49" height="49" viewBox="0 0 49 49" fill="none" xmlns="http://www.w3.org/2000/svg">
<path d="M24.142 48.2839C37.4752 48.2839 48.2839 37.4752 48.2839 24.142C48.2839 10.8087 37.4752 0 24.142 0C10.8087 0 0 10.8087 0 24.142C0 37.4752 10.8087 48.2839 24.142 48.2839Z" fill="#FFDC00"/>
<path d="M35.2768 33.6439C35.3109 33.2806 35.251 32.9147 35.1027 32.5814C34.7365 31.8951 34.1601 31.344 33.4581 31.0088L33.0439 30.7447C31.7293 29.8743 30.7869 28.4277 30.0787 26.1888C30.0066 25.9727 29.9226 25.5885 29.8266 25.0903C29.3704 22.8514 28.9442 21.1167 27.9478 20.7385H27.9178L27.6116 20.6125L31.7533 14.8681C31.8065 14.7946 31.8315 14.7046 31.8238 14.6142C31.8161 14.5239 31.7762 14.4393 31.7113 14.3759L30.7629 13.4695C30.7247 13.4317 30.6786 13.4026 30.628 13.3843C30.5774 13.3659 30.5234 13.3588 30.4697 13.3634C30.4161 13.3679 30.3641 13.3841 30.3173 13.4107C30.2705 13.4373 30.23 13.4738 30.1987 13.5175L25.997 19.3639C25.9129 19.472 25.8169 19.5801 25.7269 19.6821C23.8038 18.5566 22.173 16.9938 20.9669 15.1202C21.291 14.7421 21.4411 14.562 21.5251 14.454C21.7592 14.1538 24.0222 11.6568 25.997 9.38783C26.0624 9.3178 26.0988 9.22559 26.0988 9.12977C26.0988 9.03394 26.0624 8.94166 25.997 8.87163L25.1326 8.04328C25.0979 8.00753 25.0564 7.97909 25.0105 7.95968C24.9646 7.94027 24.9153 7.9303 24.8655 7.9303C24.8157 7.9303 24.7664 7.94027 24.7205 7.95968C24.6746 7.97909 24.6331 8.00753 24.5984 8.04328C23.626 9.11172 20.2106 12.8453 19.9405 13.1995L17.3474 14.664L17.2994 14.7001C16.2561 15.4195 15.2541 16.1971 14.2981 17.029L13.7339 17.5032C13.0288 18.045 12.3954 18.6743 11.8491 19.376C11.0098 19.6181 10.2224 20.0129 9.52618 20.5405C8.99112 20.9783 8.59341 21.5609 8.38053 22.2187C8.16766 22.8765 8.14861 23.5817 8.32568 24.25C8.82389 26.2488 10.3965 27.4673 11.7831 28.5478L11.9092 28.6438C12.7495 29.3041 13.6439 29.9163 14.5082 30.5046C16.0551 31.4907 17.5043 32.6223 18.836 33.884C19.2922 34.3402 19.7244 34.8503 20.1446 35.3486C20.722 36.0516 21.3435 36.7172 22.0053 37.3414C23.7995 38.9748 26.117 39.9154 28.542 39.9945H28.8602C29.7298 39.9929 30.5962 39.8882 31.4412 39.6824C32.8283 39.4295 34.082 38.6963 34.9827 37.6115C35.497 36.918 35.7672 36.0737 35.751 35.2105C35.7174 34.6584 35.555 34.1219 35.2768 33.6439ZM23.704 23.3736C23.704 22.9355 23.758 22.5093 23.7941 22.0351C23.8421 21.3148 23.8961 20.5405 23.9621 19.6341V19.586C24.3163 19.8501 24.6884 20.0963 25.0726 20.3304C25.0306 20.9307 24.9886 21.5309 24.9465 22.0891C24.9045 22.6473 24.8865 22.9835 24.8625 23.4097C24.8289 23.5983 24.8433 23.7923 24.9045 23.9739C25.006 24.1845 25.1265 24.3855 25.2647 24.5741C25.3001 24.6177 25.3322 24.6638 25.3607 24.7122C25.7869 25.3124 26.2491 25.9127 26.6993 26.5129C27.1494 27.1132 27.5216 27.5873 27.8998 28.1456C28.1678 28.5229 28.5423 28.8118 28.9753 28.9754C29.4082 29.139 29.8802 29.1698 30.3308 29.064C30.5329 29.4151 30.7617 29.7503 31.015 30.0664C30.6318 30.214 30.2252 30.2913 29.8145 30.2945C29.2558 30.2948 28.7051 30.1608 28.2089 29.9038C27.7127 29.6469 27.2856 29.2744 26.9634 28.8179C26.5792 28.2776 26.171 27.7375 25.7629 27.2212C25.3547 26.705 24.8265 26.0208 24.3883 25.3605L24.2983 25.2284C24.1104 24.9758 23.9494 24.7042 23.8181 24.4181C23.6971 24.084 23.658 23.7259 23.704 23.3736ZM23.0257 27.9776C23.1241 27.9191 23.2333 27.8812 23.3467 27.8664C23.4601 27.8516 23.5754 27.8602 23.6854 27.8915C23.7954 27.9228 23.8979 27.9762 23.9866 28.0485C24.0752 28.1208 24.1482 28.2104 24.2009 28.3119C24.2537 28.4134 24.2852 28.5246 24.2936 28.6387C24.3019 28.7528 24.2868 28.8674 24.2493 28.9755C24.2117 29.0835 24.1525 29.1828 24.0753 29.2672C23.998 29.3515 23.9044 29.4193 23.8001 29.4662L21.6512 30.5826C21.2113 30.1639 20.7441 29.7748 20.2526 29.4181L23.0257 27.9776ZM21.4831 26.4649C21.5341 26.563 21.5653 26.6702 21.5748 26.7804C21.5843 26.8905 21.572 27.0015 21.5385 27.1069C21.505 27.2123 21.4511 27.31 21.3798 27.3945C21.3085 27.479 21.2212 27.5487 21.123 27.5994L19.1301 28.6318L17.7436 27.7495L17.4915 27.5934L20.3486 26.1048C20.5434 26.001 20.7711 25.9775 20.983 26.0391C21.1949 26.1008 21.3744 26.2428 21.4831 26.4349V26.4649ZM17.9537 23.9739C18.052 23.9154 18.1612 23.8776 18.2746 23.8628C18.388 23.848 18.5033 23.8565 18.6133 23.8878C18.7233 23.9191 18.8258 23.9726 18.9145 24.0449C19.0031 24.1172 19.0761 24.2068 19.1289 24.3083C19.1816 24.4098 19.2132 24.5209 19.2215 24.635C19.2298 24.7491 19.2147 24.8637 19.1772 24.9718C19.1396 25.0798 19.0804 25.1791 19.0032 25.2635C18.926 25.3479 18.8323 25.4156 18.728 25.4625L16.2129 26.7711C15.6708 26.4147 15.1479 26.03 14.6463 25.6186L17.9537 23.9739ZM14.7543 18.2896V17.8394L14.8684 17.7433C15.2045 17.4432 15.5647 17.1431 15.9548 16.8369H16.0509V18.2896C16.0438 20.6277 15.1417 22.8744 13.5298 24.5681C13.2451 24.2582 12.9842 23.9271 12.7495 23.5777V23.5357C14.0497 22.0869 14.7643 20.2062 14.7543 18.2595V18.2896ZM34.0523 36.9633C33.3115 37.8277 32.2928 38.4071 31.1711 38.6019C30.3232 38.8107 29.4509 38.9035 28.578 38.878C26.4297 38.8034 24.3774 37.9698 22.7856 36.5251C22.1607 35.9359 21.5752 35.3063 21.0329 34.6403C20.6007 34.1301 20.1506 33.6018 19.6644 33.1096C18.2802 31.7978 16.7748 30.6201 15.1685 29.5922C14.3161 28.9919 13.4398 28.3917 12.6235 27.7915L12.4974 27.6954C11.2009 26.687 9.85631 25.6426 9.46015 24.0399C9.33252 23.5863 9.33946 23.1054 9.48013 22.6557C9.6208 22.206 9.88913 21.8069 10.2525 21.5069C10.5308 21.2786 10.84 21.0906 11.1709 20.9486C11.1554 21.0119 11.1434 21.0761 11.1348 21.1407C11.0582 22.1989 11.3698 23.2488 12.0112 24.0939C13.3317 26.0567 15.3366 27.3052 17.2694 28.5177C18.6628 29.3185 19.965 30.2685 21.153 31.351C21.6212 31.8071 22.0593 32.3293 22.4855 32.8335C23.2734 33.8711 24.2193 34.7785 25.2887 35.5226C26.6185 36.2896 28.118 36.7146 29.6525 36.7592C29.9046 36.7592 30.1807 36.7592 30.4808 36.7592C31.5047 36.796 32.5228 36.5904 33.452 36.1589C33.8823 35.9312 34.2653 35.6236 34.5805 35.2526C34.5805 35.2526 34.5805 35.2525 34.5805 35.3006C34.5862 35.8877 34.4008 36.4607 34.0523 36.9332V36.9633Z" fill="#9600FA"/>
</svg>
