<svg width="49" height="49" viewBox="0 0 49 49" fill="none" xmlns="http://www.w3.org/2000/svg">
<path d="M24.142 48.8518C37.4752 48.8518 48.2839 38.0431 48.2839 24.7099C48.2839 11.3766 37.4752 0.567871 24.142 0.567871C10.8087 0.567871 0 11.3766 0 24.7099C0 38.0431 10.8087 48.8518 24.142 48.8518Z" fill="#FFDC00"/>
<path d="M42.0533 24.6139C41.7291 24.6139 41.423 24.6139 41.1289 24.5779V30.4363L42.0053 30.4782C42.1159 30.4816 42.2261 30.4628 42.3293 30.4225C42.4324 30.3823 42.5264 30.3216 42.6055 30.2442C42.6868 30.167 42.7511 30.0738 42.7945 29.9704C42.8379 29.8671 42.8594 29.756 42.8576 29.6439V25.4422C42.8592 25.2262 42.7758 25.0182 42.6253 24.8632C42.4748 24.7082 42.2693 24.6187 42.0533 24.6139Z" fill="#9600FA"/>
<path d="M40.2284 30.3822V24.5177C39.7602 24.4757 39.316 24.4337 38.9079 24.3797V27.1768C38.9079 27.2962 38.8604 27.4108 38.776 27.4952C38.6916 27.5797 38.5771 27.627 38.4577 27.627C38.3383 27.627 38.2238 27.5797 38.1394 27.4952C38.0549 27.4108 38.0075 27.2962 38.0075 27.1768V24.2477C37.4009 24.1439 36.7999 24.0097 36.2068 23.8455V25.8983C36.2068 26.0177 36.1593 26.1322 36.0749 26.2166C35.9905 26.3011 35.876 26.3485 35.7566 26.3485C35.6372 26.3485 35.5227 26.3011 35.4382 26.2166C35.3538 26.1322 35.3064 26.0177 35.3064 25.8983V23.5454C34.8461 23.3731 34.4037 23.1559 33.9858 22.8971V28.7135C34.1899 28.9716 35.3844 30.028 40.2284 30.3822Z" fill="#9600FA"/>
<path d="M33.0732 24.1337C32.6665 24.596 32.1979 25 31.6806 25.3342V27.6991C31.6806 27.8185 31.6332 27.933 31.5488 28.0174C31.4643 28.1018 31.3498 28.1493 31.2304 28.1493C31.111 28.1493 30.9965 28.1018 30.9121 28.0174C30.8277 27.933 30.7803 27.8185 30.7803 27.6991V25.8984C30.1435 26.2283 29.4835 26.5111 28.8054 26.7447V30.2622C28.8054 30.3816 28.758 30.496 28.6736 30.5805C28.5892 30.6649 28.4747 30.7124 28.3553 30.7124C28.2359 30.7124 28.1214 30.6649 28.0369 30.5805C27.9525 30.496 27.9051 30.3816 27.9051 30.2622V27.0268C27.2748 27.2008 26.6205 27.3569 25.9243 27.4829V29.692C25.9243 29.8114 25.8768 29.9258 25.7924 30.0103C25.708 30.0947 25.5935 30.1422 25.4741 30.1422C25.3547 30.1422 25.2402 30.0947 25.1557 30.0103C25.0713 29.9258 25.0239 29.8114 25.0239 29.692V27.633C24.3876 27.7291 23.7273 27.7891 23.0491 27.8371V31.2705C23.0491 31.3899 23.0016 31.5044 22.9172 31.5888C22.8328 31.6733 22.7183 31.7207 22.5989 31.7207C22.4795 31.7207 22.365 31.6733 22.2805 31.5888C22.1961 31.5044 22.1487 31.3899 22.1487 31.2705V27.8792C21.8246 27.8792 21.4944 27.8792 21.1643 27.8792C20.8342 27.8792 20.504 27.8792 20.1739 27.8792V30.0041C20.1739 30.1235 20.1264 30.238 20.042 30.3224C19.9576 30.4068 19.8431 30.4543 19.7237 30.4543C19.6043 30.4543 19.4898 30.4068 19.4054 30.3224C19.3209 30.238 19.2735 30.1235 19.2735 30.0041V27.8371C18.5952 27.7891 17.935 27.7291 17.2987 27.633V30.9524C17.2987 31.0718 17.2513 31.1864 17.1668 31.2708C17.0824 31.3553 16.9679 31.4026 16.8485 31.4026C16.7291 31.4026 16.6146 31.3553 16.5302 31.2708C16.4458 31.1864 16.3983 31.0718 16.3983 30.9524V27.4829C15.702 27.3569 15.0478 27.2008 14.4235 27.0268V29.0076C14.4235 29.127 14.3761 29.2416 14.2917 29.326C14.2072 29.4105 14.0927 29.4578 13.9733 29.4578C13.8539 29.4578 13.7394 29.4105 13.655 29.326C13.5706 29.2416 13.5231 29.127 13.5231 29.0076V26.7447C12.8463 26.5131 12.1881 26.2302 11.5543 25.8984V28.9717C11.5543 29.0911 11.5069 29.2056 11.4225 29.29C11.338 29.3744 11.2235 29.4219 11.1041 29.4219C10.9847 29.4219 10.8702 29.3744 10.7858 29.29C10.7014 29.2056 10.6539 29.0911 10.6539 28.9717V25.3702C10.1339 25.0374 9.66314 24.6333 9.25537 24.1697V29.71C9.25537 32.4831 14.7116 34.8241 21.1703 34.8241C27.629 34.8241 33.0792 32.4831 33.0792 29.71L33.0732 24.1337Z" fill="#9600FA"/>
<path d="M16.8247 21.8947C16.8247 22.705 18.6795 23.6053 21.1645 23.6053C23.6495 23.6053 25.4983 22.705 25.4983 21.8947C25.4983 21.0844 23.6435 20.1899 21.1645 20.1899C18.6855 20.1899 16.8247 21.0964 16.8247 21.8947Z" fill="#9600FA"/>
<path d="M9.24951 21.8948C9.24951 24.6679 14.7058 27.0089 21.1644 27.0089C27.6231 27.0089 33.0733 24.6679 33.0733 21.8948C33.0733 19.1216 27.6171 16.7806 21.1644 16.7806C14.7118 16.7806 9.24951 19.1276 9.24951 21.8948ZM21.1584 19.2956C24.1597 19.2956 26.3926 20.4121 26.3926 21.8888C26.3926 23.3654 24.1417 24.4877 21.1584 24.4877C18.1752 24.4877 15.9183 23.3714 15.9183 21.8888C15.9183 20.4061 18.1572 19.2956 21.1584 19.2956Z" fill="#9600FA"/>
</svg>
