<svg width="49" height="49" viewBox="0 0 49 49" fill="none" xmlns="http://www.w3.org/2000/svg">
<path d="M24.142 48.2839C37.4752 48.2839 48.2839 37.4752 48.2839 24.142C48.2839 10.8087 37.4752 0 24.142 0C10.8087 0 0 10.8087 0 24.142C0 37.4752 10.8087 48.2839 24.142 48.2839Z" fill="#FFDC00"/>
<path d="M30.9547 13.6556C29.4962 13.6197 28.0554 13.981 26.7866 14.7011C25.5178 15.4211 24.4687 16.4727 23.7517 17.7433C23.0352 16.4723 21.9862 15.4204 20.7173 14.7003C19.4483 13.9801 18.0073 13.619 16.5487 13.6556C11.7948 13.7516 8.28931 18.0674 8.7455 22.7974C8.87412 24.0854 9.19796 25.3463 9.70589 26.5369H15.6483C15.6798 26.5366 15.7106 26.5274 15.7372 26.5104C15.7637 26.4934 15.7849 26.4693 15.7984 26.4408L16.6147 24.6882C16.703 24.4936 16.8458 24.3287 17.0259 24.2136C17.2059 24.0986 17.4155 24.0382 17.6292 24.0398C17.8467 24.0417 18.0591 24.1061 18.2411 24.2253C18.4231 24.3445 18.567 24.5134 18.6556 24.7121L20.7204 29.4001L22.4732 22.5093C22.5304 22.2649 22.6693 22.0472 22.8668 21.8923C23.0642 21.7374 23.3086 21.6544 23.5596 21.6569C23.8082 21.6575 24.0495 21.7411 24.2452 21.8944C24.441 22.0477 24.5799 22.262 24.6401 22.5033L25.5824 26.2788C25.5988 26.3507 25.6393 26.4149 25.6972 26.4608C25.755 26.5066 25.8268 26.5314 25.9006 26.5309H33.1636C33.3502 26.5476 33.5238 26.6336 33.6503 26.7719C33.7767 26.9102 33.8468 27.0908 33.8468 27.2782C33.8468 27.4656 33.7767 27.6462 33.6503 27.7845C33.5238 27.9228 33.3502 28.0088 33.1636 28.0255H25.3604C25.1099 28.0259 24.8666 27.942 24.6695 27.7874C24.4725 27.6328 24.3332 27.4165 24.2739 27.1731L23.5596 24.304L21.9029 30.8047C21.8469 31.031 21.7212 31.2339 21.5434 31.3847C21.3656 31.5356 21.1449 31.6266 20.9125 31.645H20.8165C20.5991 31.6458 20.3863 31.5824 20.2048 31.4629C20.0233 31.3433 19.8811 31.1728 19.7961 30.9727L17.6232 26.0507L17.0229 27.3713C16.9317 27.5636 16.7882 27.7264 16.6088 27.841C16.4294 27.9556 16.2214 28.0175 16.0085 28.0195H10.4442C11.5755 30.0144 12.9909 31.8342 14.6459 33.4217C16.984 35.6688 19.5766 37.635 22.3711 39.2801C22.7947 39.5304 23.2777 39.6625 23.7697 39.6625C24.2617 39.6625 24.7447 39.5304 25.1683 39.2801C27.9659 37.6369 30.5608 35.6706 32.8995 33.4217C37.5034 28.8658 38.5598 25.1143 38.7699 22.7914C39.2141 18.0554 35.7026 13.7516 30.9547 13.6556Z" fill="#9600FA"/>
</svg>
