<svg width="49" height="49" viewBox="0 0 49 49" fill="none" xmlns="http://www.w3.org/2000/svg">
<path d="M24.142 48.5679C37.4752 48.5679 48.2839 37.7591 48.2839 24.4259C48.2839 11.0927 37.4752 0.283936 24.142 0.283936C10.8087 0.283936 0 11.0927 0 24.4259C0 37.7591 10.8087 48.5679 24.142 48.5679Z" fill="#FFDC00"/>
<path d="M13.3557 19.0536C13.2617 19.0119 13.1629 18.9817 13.0616 18.9637C12.9552 18.9398 12.8465 18.9277 12.7375 18.9276C12.2901 18.9276 11.8611 19.1053 11.5448 19.4216C11.2285 19.7379 11.0508 20.167 11.0508 20.6143V28.2315C11.0508 28.6788 11.2285 29.1078 11.5448 29.4241C11.8611 29.7404 12.2901 29.9182 12.7375 29.9182C13.1848 29.9182 13.6138 29.7404 13.9301 29.4241C14.2465 29.1078 14.4242 28.6788 14.4242 28.2315V20.6143C14.4241 20.5053 14.412 20.3966 14.3882 20.2902C14.3334 20.0141 14.2101 19.7562 14.0297 19.5402C13.8493 19.3241 13.6176 19.1568 13.3557 19.0536Z" fill="#9600FA"/>
<path d="M18.9202 17.4631C18.8323 17.1543 18.6579 16.8772 18.4175 16.6644C18.1771 16.4517 17.8808 16.3122 17.5636 16.2626C17.4768 16.2437 17.3883 16.2336 17.2995 16.2325C16.8521 16.2325 16.4231 16.4102 16.1068 16.7265C15.7905 17.0429 15.6128 17.4719 15.6128 17.9193V30.9506C15.6128 31.398 15.7905 31.827 16.1068 32.1433C16.4231 32.4596 16.8521 32.6373 17.2995 32.6373C17.7468 32.6373 18.1758 32.4596 18.4922 32.1433C18.8085 31.827 18.9862 31.398 18.9862 30.9506V17.9193C18.995 17.8315 18.995 17.7429 18.9862 17.6551C18.9502 17.5831 18.9322 17.5231 18.9202 17.4631Z" fill="#9600FA"/>
<path d="M37.1795 20.1041C37.0992 19.8498 36.9593 19.6186 36.7713 19.4295C36.5833 19.2405 36.3528 19.0993 36.099 19.0177C36.023 18.9906 35.9446 18.9705 35.8649 18.9577C35.7741 18.9384 35.6816 18.9284 35.5888 18.9276C35.4857 18.9277 35.383 18.9399 35.2827 18.9637L35.1386 18.9996L35.0126 19.0417C34.9481 19.0615 34.8858 19.0876 34.8265 19.1197H34.7725C34.5992 19.2203 34.4432 19.348 34.3103 19.4979V19.5279C34.2434 19.6097 34.185 19.6982 34.1362 19.792L34.1002 19.858C34.06 19.9435 34.0259 20.0318 33.9981 20.1221C33.9981 20.1221 33.9981 20.1821 33.9981 20.2122C33.969 20.334 33.9549 20.459 33.9561 20.5843V28.2015C33.9424 28.431 33.9758 28.6609 34.0542 28.8771C34.1326 29.0933 34.2544 29.2912 34.4121 29.4586C34.5698 29.626 34.76 29.7594 34.9712 29.8506C35.1823 29.9417 35.4098 29.9887 35.6398 29.9887C35.8698 29.9887 36.0973 29.9417 36.3085 29.8506C36.5196 29.7594 36.7098 29.626 36.8675 29.4586C37.0252 29.2912 37.147 29.0933 37.2254 28.8771C37.3038 28.6609 37.3372 28.431 37.3235 28.2015V20.5843C37.3228 20.4915 37.3127 20.399 37.2935 20.3082C37.2604 20.2376 37.2223 20.1693 37.1795 20.1041Z" fill="#9600FA"/>
<path d="M32.5633 17.301C32.4788 17.0846 32.3503 16.8881 32.1861 16.7238C32.0218 16.5595 31.8253 16.4311 31.6089 16.3467C31.516 16.3088 31.4194 16.2806 31.3207 16.2626C31.2164 16.2385 31.1097 16.2264 31.0026 16.2266C30.5553 16.2266 30.1263 16.4043 29.8099 16.7206C29.4936 17.0369 29.3159 17.466 29.3159 17.9133V30.9447C29.3159 31.392 29.4936 31.821 29.8099 32.1373C30.1263 32.4536 30.5553 32.6313 31.0026 32.6313C31.45 32.6313 31.879 32.4536 32.1953 32.1373C32.5116 31.821 32.6893 31.392 32.6893 30.9447V17.9133C32.6895 17.8062 32.6774 17.6995 32.6533 17.5951C32.6337 17.4942 32.6036 17.3956 32.5633 17.301Z" fill="#9600FA"/>
<path d="M42.3895 23.6455C42.2144 23.2912 41.9275 23.0044 41.5732 22.8292C41.3317 22.7123 41.0671 22.6508 40.7989 22.6492H40.5828V21.7848H38.3198V27.067H40.5828V26.2146H40.7989C41.2764 26.2146 41.7345 26.0249 42.0722 25.6872C42.4099 25.3495 42.5996 24.8915 42.5996 24.4139C42.5878 24.1453 42.516 23.8828 42.3895 23.6455Z" fill="#9600FA"/>
<path d="M7.68906 21.7848V22.6492H7.47897C7.00138 22.6492 6.54336 22.8389 6.20565 23.1766C5.86795 23.5143 5.67823 23.9723 5.67823 24.4499C5.67757 24.7056 5.73504 24.958 5.8463 25.1882C6.03869 25.5688 6.35987 25.8686 6.75267 26.0345C6.98592 26.1431 7.23972 26.2004 7.49698 26.2026H7.70706V27.061H9.97V21.7848H7.68906Z" fill="#9600FA"/>
<path d="M23.9378 22.4751H20.1382V26.2026H28.0915V22.6792V22.4751H27.8934H23.9378Z" fill="#9600FA"/>
</svg>
